<?xml version="1.0" encoding="utf-8" standalone="no"?>
<!DOCTYPE svg PUBLIC "-//W3C//DTD SVG 1.1//EN"
  "http://www.w3.org/Graphics/SVG/1.1/DTD/svg11.dtd">
<svg xmlns:xlink="http://www.w3.org/1999/xlink" width="243pt" height="150.182259pt" viewBox="0 0 243 150.182259" xmlns="http://www.w3.org/2000/svg" version="1.1">
 <metadata>
  <rdf:RDF xmlns:dc="http://purl.org/dc/elements/1.1/" xmlns:cc="http://creativecommons.org/ns#" xmlns:rdf="http://www.w3.org/1999/02/22-rdf-syntax-ns#">
   <cc:Work>
    <dc:type rdf:resource="http://purl.org/dc/dcmitype/StillImage"/>
    <dc:date>2024-10-04T13:12:23.615706</dc:date>
    <dc:format>image/svg+xml</dc:format>
    <dc:creator>
     <cc:Agent>
      <dc:title>Matplotlib v3.8.4, https://matplotlib.org/</dc:title>
     </cc:Agent>
    </dc:creator>
   </cc:Work>
  </rdf:RDF>
 </metadata>
 <defs>
  <style type="text/css">*{stroke-linejoin: round; stroke-linecap: butt}</style>
 </defs>
 <g id="figure_1">
  <g id="patch_1">
   <path d="M 0 150.182259 
L 243 150.182259 
L 243 0 
L 0 0 
L 0 150.182259 
z
" style="fill: none"/>
  </g>
  <g id="axes_1">
   <g id="patch_2">
    <path d="M 31.57894 121.663974 
L 239.99976 121.663974 
L 239.99976 3.00024 
L 31.57894 3.00024 
L 31.57894 121.663974 
z
" style="fill: none"/>
   </g>
   <g id="matplotlib.axis_1">
    <g id="xtick_1">
     <g id="line2d_1">
      <defs>
       <path id="m06f22652c7" d="M 0 0 
L 0 -2 
" style="stroke: #000000; stroke-width: 0.5"/>
      </defs>
      <g>
       <use xlink:href="#m06f22652c7" x="59.999961" y="121.663974" style="stroke: #000000; stroke-width: 0.5"/>
      </g>
     </g>
     <g id="text_1">
      <!-- −400 -->
      <g transform="translate(50.618949 131.126432) scale(0.0833 -0.0833)">
       <defs>
        <path id="ArialMT-2212" d="M 3381 1997 
L 356 1997 
L 356 2522 
L 3381 2522 
L 3381 1997 
z
" transform="scale(0.015625)"/>
        <path id="ArialMT-34" d="M 2069 0 
L 2069 1097 
L 81 1097 
L 81 1613 
L 2172 4581 
L 2631 4581 
L 2631 1613 
L 3250 1613 
L 3250 1097 
L 2631 1097 
L 2631 0 
L 2069 0 
z
M 2069 1613 
L 2069 3678 
L 634 1613 
L 2069 1613 
z
" transform="scale(0.015625)"/>
        <path id="ArialMT-30" d="M 266 2259 
Q 266 3072 433 3567 
Q 600 4063 929 4331 
Q 1259 4600 1759 4600 
Q 2128 4600 2406 4451 
Q 2684 4303 2865 4023 
Q 3047 3744 3150 3342 
Q 3253 2941 3253 2259 
Q 3253 1453 3087 958 
Q 2922 463 2592 192 
Q 2263 -78 1759 -78 
Q 1097 -78 719 397 
Q 266 969 266 2259 
z
M 844 2259 
Q 844 1131 1108 757 
Q 1372 384 1759 384 
Q 2147 384 2411 759 
Q 2675 1134 2675 2259 
Q 2675 3391 2411 3762 
Q 2147 4134 1753 4134 
Q 1366 4134 1134 3806 
Q 844 3388 844 2259 
z
" transform="scale(0.015625)"/>
       </defs>
       <use xlink:href="#ArialMT-2212"/>
       <use xlink:href="#ArialMT-34" x="58.398438"/>
       <use xlink:href="#ArialMT-30" x="114.013672"/>
       <use xlink:href="#ArialMT-30" x="169.628906"/>
      </g>
     </g>
    </g>
    <g id="xtick_2">
     <g id="line2d_2">
      <g>
       <use xlink:href="#m06f22652c7" x="97.894655" y="121.663974" style="stroke: #000000; stroke-width: 0.5"/>
      </g>
     </g>
     <g id="text_2">
      <!-- −200 -->
      <g transform="translate(88.513644 131.126432) scale(0.0833 -0.0833)">
       <defs>
        <path id="ArialMT-32" d="M 3222 541 
L 3222 0 
L 194 0 
Q 188 203 259 391 
Q 375 700 629 1000 
Q 884 1300 1366 1694 
Q 2113 2306 2375 2664 
Q 2638 3022 2638 3341 
Q 2638 3675 2398 3904 
Q 2159 4134 1775 4134 
Q 1369 4134 1125 3890 
Q 881 3647 878 3216 
L 300 3275 
Q 359 3922 746 4261 
Q 1134 4600 1788 4600 
Q 2447 4600 2831 4234 
Q 3216 3869 3216 3328 
Q 3216 3053 3103 2787 
Q 2991 2522 2730 2228 
Q 2469 1934 1863 1422 
Q 1356 997 1212 845 
Q 1069 694 975 541 
L 3222 541 
z
" transform="scale(0.015625)"/>
       </defs>
       <use xlink:href="#ArialMT-2212"/>
       <use xlink:href="#ArialMT-32" x="58.398438"/>
       <use xlink:href="#ArialMT-30" x="114.013672"/>
       <use xlink:href="#ArialMT-30" x="169.628906"/>
      </g>
     </g>
    </g>
    <g id="xtick_3">
     <g id="line2d_3">
      <g>
       <use xlink:href="#m06f22652c7" x="135.78935" y="121.663974" style="stroke: #000000; stroke-width: 0.5"/>
      </g>
     </g>
     <g id="text_3">
      <!-- 0 -->
      <g transform="translate(133.47322 131.126432) scale(0.0833 -0.0833)">
       <use xlink:href="#ArialMT-30"/>
      </g>
     </g>
    </g>
    <g id="xtick_4">
     <g id="line2d_4">
      <g>
       <use xlink:href="#m06f22652c7" x="173.684045" y="121.663974" style="stroke: #000000; stroke-width: 0.5"/>
      </g>
     </g>
     <g id="text_4">
      <!-- 200 -->
      <g transform="translate(166.735653 131.126432) scale(0.0833 -0.0833)">
       <use xlink:href="#ArialMT-32"/>
       <use xlink:href="#ArialMT-30" x="55.615234"/>
       <use xlink:href="#ArialMT-30" x="111.230469"/>
      </g>
     </g>
    </g>
    <g id="xtick_5">
     <g id="line2d_5">
      <g>
       <use xlink:href="#m06f22652c7" x="211.578739" y="121.663974" style="stroke: #000000; stroke-width: 0.5"/>
      </g>
     </g>
     <g id="text_5">
      <!-- 400 -->
      <g transform="translate(204.630348 131.126432) scale(0.0833 -0.0833)">
       <use xlink:href="#ArialMT-34"/>
       <use xlink:href="#ArialMT-30" x="55.615234"/>
       <use xlink:href="#ArialMT-30" x="111.230469"/>
      </g>
     </g>
    </g>
    <g id="text_6">
     <!-- $B_\parallel$ (mT), $\theta=$90$^\circ$ -->
     <g transform="translate(96.78935 144.082019) scale(0.1 -0.1)">
      <defs>
       <path id="Cmmi10-42" d="M 319 0 
Q 256 0 256 84 
Q 259 100 268 137 
Q 278 175 293 200 
Q 309 225 341 225 
Q 522 225 656 234 
Q 791 244 884 269 
Q 959 297 1006 441 
L 1881 3956 
Q 1894 4019 1894 4044 
Q 1894 4113 1819 4122 
Q 1697 4147 1356 4147 
Q 1294 4147 1294 4231 
Q 1297 4247 1306 4286 
Q 1316 4325 1333 4348 
Q 1350 4372 1375 4372 
L 3669 4372 
Q 3878 4372 4083 4320 
Q 4288 4269 4461 4156 
Q 4634 4044 4736 3876 
Q 4838 3709 4838 3488 
Q 4838 3247 4714 3040 
Q 4591 2834 4395 2681 
Q 4200 2528 3973 2429 
Q 3747 2331 3500 2284 
Q 3675 2284 3854 2215 
Q 4034 2147 4175 2028 
Q 4316 1909 4402 1743 
Q 4488 1578 4488 1388 
Q 4488 1003 4219 684 
Q 3950 366 3542 183 
Q 3134 0 2753 0 
L 319 0 
z
M 1497 275 
Q 1497 225 1716 225 
L 2631 225 
Q 2944 225 3231 398 
Q 3519 572 3692 859 
Q 3866 1147 3866 1459 
Q 3866 1650 3786 1820 
Q 3706 1991 3556 2089 
Q 3406 2188 3213 2188 
L 1966 2188 
L 1522 416 
Q 1497 328 1497 275 
z
M 2009 2356 
L 2981 2356 
Q 3288 2356 3577 2512 
Q 3866 2669 4048 2937 
Q 4231 3206 4231 3506 
Q 4231 3784 4057 3965 
Q 3884 4147 3609 4147 
L 2731 4147 
Q 2559 4147 2500 4115 
Q 2441 4084 2400 3928 
L 2009 2356 
z
" transform="scale(0.015625)"/>
       <path id="STIXGeneral-Regular-2225" d="M 2522 -1210 
L 2099 -1210 
L 2099 4416 
L 2522 4416 
L 2522 -1210 
z
M 1248 -1210 
L 826 -1210 
L 826 4416 
L 1248 4416 
L 1248 -1210 
z
" transform="scale(0.015625)"/>
       <path id="ArialMT-20" transform="scale(0.015625)"/>
       <path id="ArialMT-28" d="M 1497 -1347 
Q 1031 -759 709 28 
Q 388 816 388 1659 
Q 388 2403 628 3084 
Q 909 3875 1497 4659 
L 1900 4659 
Q 1522 4009 1400 3731 
Q 1209 3300 1100 2831 
Q 966 2247 966 1656 
Q 966 153 1900 -1347 
L 1497 -1347 
z
" transform="scale(0.015625)"/>
       <path id="ArialMT-6d" d="M 422 0 
L 422 3319 
L 925 3319 
L 925 2853 
Q 1081 3097 1340 3245 
Q 1600 3394 1931 3394 
Q 2300 3394 2536 3241 
Q 2772 3088 2869 2813 
Q 3263 3394 3894 3394 
Q 4388 3394 4653 3120 
Q 4919 2847 4919 2278 
L 4919 0 
L 4359 0 
L 4359 2091 
Q 4359 2428 4304 2576 
Q 4250 2725 4106 2815 
Q 3963 2906 3769 2906 
Q 3419 2906 3187 2673 
Q 2956 2441 2956 1928 
L 2956 0 
L 2394 0 
L 2394 2156 
Q 2394 2531 2256 2718 
Q 2119 2906 1806 2906 
Q 1569 2906 1367 2781 
Q 1166 2656 1075 2415 
Q 984 2175 984 1722 
L 984 0 
L 422 0 
z
" transform="scale(0.015625)"/>
       <path id="ArialMT-54" d="M 1659 0 
L 1659 4041 
L 150 4041 
L 150 4581 
L 3781 4581 
L 3781 4041 
L 2266 4041 
L 2266 0 
L 1659 0 
z
" transform="scale(0.015625)"/>
       <path id="ArialMT-29" d="M 791 -1347 
L 388 -1347 
Q 1322 153 1322 1656 
Q 1322 2244 1188 2822 
Q 1081 3291 891 3722 
Q 769 4003 388 4659 
L 791 4659 
Q 1378 3875 1659 3084 
Q 1900 2403 1900 1659 
Q 1900 816 1576 28 
Q 1253 -759 791 -1347 
z
" transform="scale(0.015625)"/>
       <path id="ArialMT-2c" d="M 569 0 
L 569 641 
L 1209 641 
L 1209 0 
Q 1209 -353 1084 -570 
Q 959 -788 688 -906 
L 531 -666 
Q 709 -588 793 -436 
Q 878 -284 888 0 
L 569 0 
z
" transform="scale(0.015625)"/>
       <path id="Cmmi10-b5" d="M 1031 -72 
Q 741 -72 566 140 
Q 391 353 323 653 
Q 256 953 256 1247 
L 256 1253 
Q 256 1572 317 1915 
Q 378 2259 493 2601 
Q 609 2944 744 3213 
Q 838 3400 986 3631 
Q 1134 3863 1317 4064 
Q 1500 4266 1711 4389 
Q 1922 4513 2138 4513 
L 2144 4513 
Q 2375 4513 2529 4384 
Q 2684 4256 2770 4056 
Q 2856 3856 2890 3628 
Q 2925 3400 2925 3194 
Q 2925 2709 2794 2204 
Q 2663 1700 2431 1228 
Q 2344 1050 2189 809 
Q 2034 569 1861 378 
Q 1688 188 1472 58 
Q 1256 -72 1038 -72 
L 1031 -72 
z
M 1044 97 
Q 1256 97 1451 323 
Q 1647 550 1794 873 
Q 1941 1197 2052 1536 
Q 2163 1875 2216 2113 
L 909 2113 
Q 809 1709 753 1417 
Q 697 1125 697 844 
Q 697 97 1044 97 
z
M 959 2338 
L 2272 2338 
Q 2341 2619 2381 2808 
Q 2422 2997 2450 3206 
Q 2478 3416 2478 3597 
Q 2478 4347 2138 4347 
Q 1731 4347 1436 3692 
Q 1141 3038 959 2338 
z
" transform="scale(0.015625)"/>
       <path id="Cmr10-3d" d="M 481 850 
Q 428 850 393 890 
Q 359 931 359 978 
Q 359 1031 393 1068 
Q 428 1106 481 1106 
L 4500 1106 
Q 4547 1106 4581 1068 
Q 4616 1031 4616 978 
Q 4616 931 4581 890 
Q 4547 850 4500 850 
L 481 850 
z
M 481 2094 
Q 428 2094 393 2131 
Q 359 2169 359 2222 
Q 359 2269 393 2309 
Q 428 2350 481 2350 
L 4500 2350 
Q 4547 2350 4581 2309 
Q 4616 2269 4616 2222 
Q 4616 2169 4581 2131 
Q 4547 2094 4500 2094 
L 481 2094 
z
" transform="scale(0.015625)"/>
       <path id="ArialMT-39" d="M 350 1059 
L 891 1109 
Q 959 728 1153 556 
Q 1347 384 1650 384 
Q 1909 384 2104 503 
Q 2300 622 2425 820 
Q 2550 1019 2634 1356 
Q 2719 1694 2719 2044 
Q 2719 2081 2716 2156 
Q 2547 1888 2255 1720 
Q 1963 1553 1622 1553 
Q 1053 1553 659 1965 
Q 266 2378 266 3053 
Q 266 3750 677 4175 
Q 1088 4600 1706 4600 
Q 2153 4600 2523 4359 
Q 2894 4119 3086 3673 
Q 3278 3228 3278 2384 
Q 3278 1506 3087 986 
Q 2897 466 2520 194 
Q 2144 -78 1638 -78 
Q 1100 -78 759 220 
Q 419 519 350 1059 
z
M 2653 3081 
Q 2653 3566 2395 3850 
Q 2138 4134 1775 4134 
Q 1400 4134 1122 3828 
Q 844 3522 844 3034 
Q 844 2597 1108 2323 
Q 1372 2050 1759 2050 
Q 2150 2050 2401 2323 
Q 2653 2597 2653 3081 
z
" transform="scale(0.015625)"/>
       <path id="Cmsy10-b1" d="M 1600 359 
Q 1269 359 983 526 
Q 697 694 528 984 
Q 359 1275 359 1600 
Q 359 1925 528 2215 
Q 697 2506 983 2673 
Q 1269 2841 1600 2841 
Q 1931 2841 2215 2672 
Q 2500 2503 2667 2214 
Q 2834 1925 2834 1600 
Q 2834 1275 2667 986 
Q 2500 697 2215 528 
Q 1931 359 1600 359 
z
M 1600 616 
Q 2000 616 2289 908 
Q 2578 1200 2578 1600 
Q 2578 1856 2445 2086 
Q 2313 2316 2088 2450 
Q 1863 2584 1600 2584 
Q 1403 2584 1225 2507 
Q 1047 2431 906 2290 
Q 766 2150 691 1973 
Q 616 1797 616 1600 
Q 616 1200 905 908 
Q 1194 616 1600 616 
z
" transform="scale(0.015625)"/>
      </defs>
      <use xlink:href="#Cmmi10-42" transform="translate(0 0.203125)"/>
      <use xlink:href="#STIXGeneral-Regular-2225" transform="translate(88.072266 -16.803125) scale(0.7)"/>
      <use xlink:href="#ArialMT-20" transform="translate(143.350616 0.203125)"/>
      <use xlink:href="#ArialMT-28" transform="translate(171.13382 0.203125)"/>
      <use xlink:href="#ArialMT-6d" transform="translate(204.434601 0.203125)"/>
      <use xlink:href="#ArialMT-54" transform="translate(287.735382 0.203125)"/>
      <use xlink:href="#ArialMT-29" transform="translate(348.819366 0.203125)"/>
      <use xlink:href="#ArialMT-2c" transform="translate(382.120148 0.203125)"/>
      <use xlink:href="#ArialMT-20" transform="translate(409.903351 0.203125)"/>
      <use xlink:href="#Cmmi10-b5" transform="translate(437.686554 0.203125)"/>
      <use xlink:href="#Cmr10-3d" transform="translate(502.168976 0.203125)"/>
      <use xlink:href="#ArialMT-39" transform="translate(597.413116 0.203125)"/>
      <use xlink:href="#ArialMT-30" transform="translate(653.028351 0.203125)"/>
      <use xlink:href="#Cmsy10-b1" transform="translate(725.398741 38.467188) scale(0.7)"/>
     </g>
    </g>
   </g>
   <g id="matplotlib.axis_2">
    <g id="ytick_1">
     <g id="line2d_6">
      <defs>
       <path id="m4133b84cd5" d="M 0 0 
L 2 0 
" style="stroke: #000000; stroke-width: 0.5"/>
      </defs>
      <g>
       <use xlink:href="#m4133b84cd5" x="31.57894" y="100.192527" style="stroke: #000000; stroke-width: 0.5"/>
      </g>
     </g>
     <g id="text_7">
      <!-- 0.5 -->
      <g transform="translate(16.50024 103.173756) scale(0.0833 -0.0833)">
       <defs>
        <path id="ArialMT-2e" d="M 581 0 
L 581 641 
L 1222 641 
L 1222 0 
L 581 0 
z
" transform="scale(0.015625)"/>
        <path id="ArialMT-35" d="M 266 1200 
L 856 1250 
Q 922 819 1161 601 
Q 1400 384 1738 384 
Q 2144 384 2425 690 
Q 2706 997 2706 1503 
Q 2706 1984 2436 2262 
Q 2166 2541 1728 2541 
Q 1456 2541 1237 2417 
Q 1019 2294 894 2097 
L 366 2166 
L 809 4519 
L 3088 4519 
L 3088 3981 
L 1259 3981 
L 1013 2750 
Q 1425 3038 1878 3038 
Q 2478 3038 2890 2622 
Q 3303 2206 3303 1553 
Q 3303 931 2941 478 
Q 2500 -78 1738 -78 
Q 1113 -78 717 272 
Q 322 622 266 1200 
z
" transform="scale(0.015625)"/>
       </defs>
       <use xlink:href="#ArialMT-30"/>
       <use xlink:href="#ArialMT-2e" x="55.615234"/>
       <use xlink:href="#ArialMT-35" x="83.398438"/>
      </g>
     </g>
    </g>
    <g id="ytick_2">
     <g id="line2d_7">
      <g>
       <use xlink:href="#m4133b84cd5" x="31.57894" y="70.162539" style="stroke: #000000; stroke-width: 0.5"/>
      </g>
     </g>
     <g id="text_8">
      <!-- 1.0 -->
      <g transform="translate(16.50024 73.143767) scale(0.0833 -0.0833)">
       <defs>
        <path id="ArialMT-31" d="M 2384 0 
L 1822 0 
L 1822 3584 
Q 1619 3391 1289 3197 
Q 959 3003 697 2906 
L 697 3450 
Q 1169 3672 1522 3987 
Q 1875 4303 2022 4600 
L 2384 4600 
L 2384 0 
z
" transform="scale(0.015625)"/>
       </defs>
       <use xlink:href="#ArialMT-31"/>
       <use xlink:href="#ArialMT-2e" x="55.615234"/>
       <use xlink:href="#ArialMT-30" x="83.398438"/>
      </g>
     </g>
    </g>
    <g id="ytick_3">
     <g id="line2d_8">
      <g>
       <use xlink:href="#m4133b84cd5" x="31.57894" y="40.13255" style="stroke: #000000; stroke-width: 0.5"/>
      </g>
     </g>
     <g id="text_9">
      <!-- 1.5 -->
      <g transform="translate(16.50024 43.113779) scale(0.0833 -0.0833)">
       <use xlink:href="#ArialMT-31"/>
       <use xlink:href="#ArialMT-2e" x="55.615234"/>
       <use xlink:href="#ArialMT-35" x="83.398438"/>
      </g>
     </g>
    </g>
    <g id="ytick_4">
     <g id="line2d_9">
      <g>
       <use xlink:href="#m4133b84cd5" x="31.57894" y="10.102561" style="stroke: #000000; stroke-width: 0.5"/>
      </g>
     </g>
     <g id="text_10">
      <!-- 2.0 -->
      <g transform="translate(16.50024 13.08379) scale(0.0833 -0.0833)">
       <use xlink:href="#ArialMT-32"/>
       <use xlink:href="#ArialMT-2e" x="55.615234"/>
       <use xlink:href="#ArialMT-30" x="83.398438"/>
      </g>
     </g>
    </g>
    <g id="text_11">
     <!-- $I_\mathrm{c}$ (μA) -->
     <g transform="translate(10.30024 77.382107) rotate(-90) scale(0.1 -0.1)">
      <defs>
       <path id="Cmmi10-49" d="M 269 0 
Q 206 0 206 84 
Q 231 225 288 225 
Q 666 225 800 250 
Q 947 284 984 441 
L 1863 3956 
Q 1875 4019 1875 4038 
Q 1875 4078 1854 4095 
Q 1834 4113 1791 4122 
Q 1663 4147 1306 4147 
Q 1241 4147 1241 4231 
Q 1263 4313 1275 4342 
Q 1288 4372 1350 4372 
L 3138 4372 
Q 3200 4372 3200 4288 
Q 3197 4272 3187 4234 
Q 3178 4197 3162 4172 
Q 3147 4147 3116 4147 
Q 2741 4147 2597 4122 
Q 2456 4088 2419 3928 
L 1544 416 
Q 1528 338 1528 331 
Q 1528 316 1533 302 
Q 1538 288 1552 277 
Q 1566 266 1580 261 
Q 1594 256 1613 250 
Q 1734 225 2100 225 
Q 2163 225 2163 141 
Q 2141 50 2128 25 
Q 2116 0 2053 0 
L 269 0 
z
" transform="scale(0.015625)"/>
       <path id="Cmr10-63" d="M 1594 -72 
Q 1206 -72 890 129 
Q 575 331 394 667 
Q 213 1003 213 1381 
Q 213 1759 392 2106 
Q 572 2453 889 2661 
Q 1206 2869 1594 2869 
Q 1969 2869 2276 2722 
Q 2584 2575 2584 2241 
Q 2584 2116 2495 2023 
Q 2406 1931 2278 1931 
Q 2150 1931 2061 2023 
Q 1972 2116 1972 2241 
Q 1972 2353 2044 2436 
Q 2116 2519 2222 2541 
Q 2000 2681 1600 2681 
Q 1294 2681 1106 2478 
Q 919 2275 844 1975 
Q 769 1675 769 1381 
Q 769 1072 861 783 
Q 953 494 1158 305 
Q 1363 116 1672 116 
Q 1975 116 2187 302 
Q 2400 488 2478 788 
Q 2478 825 2528 825 
L 2606 825 
Q 2625 825 2640 808 
Q 2656 791 2656 769 
L 2656 750 
Q 2559 372 2271 150 
Q 1984 -72 1594 -72 
z
" transform="scale(0.015625)"/>
       <path id="ArialMT-3bc" d="M 3181 3319 
L 3181 0 
L 2678 0 
L 2678 394 
Q 2516 144 2356 50 
Q 2138 -78 1847 -78 
Q 1588 -78 1388 25 
Q 1238 103 1056 334 
L 1056 -1272 
L 500 -1272 
L 500 3319 
L 1056 3319 
L 1056 1913 
Q 1056 1147 1137 920 
Q 1219 694 1401 562 
Q 1584 431 1822 431 
Q 2072 431 2269 568 
Q 2466 706 2547 923 
Q 2628 1141 2628 1903 
L 2628 3319 
L 3181 3319 
z
" transform="scale(0.015625)"/>
       <path id="ArialMT-41" d="M -9 0 
L 1750 4581 
L 2403 4581 
L 4278 0 
L 3588 0 
L 3053 1388 
L 1138 1388 
L 634 0 
L -9 0 
z
M 1313 1881 
L 2866 1881 
L 2388 3150 
Q 2169 3728 2063 4100 
Q 1975 3659 1816 3225 
L 1313 1881 
z
" transform="scale(0.015625)"/>
      </defs>
      <use xlink:href="#Cmmi10-49" transform="translate(0 0.203125)"/>
      <use xlink:href="#Cmr10-63" transform="translate(43.896484 -16.803125) scale(0.7)"/>
      <use xlink:href="#ArialMT-20" transform="translate(81.343164 0.203125)"/>
      <use xlink:href="#ArialMT-28" transform="translate(109.126367 0.203125)"/>
      <use xlink:href="#ArialMT-3bc" transform="translate(142.427148 0.203125)"/>
      <use xlink:href="#ArialMT-41" transform="translate(200.044336 0.203125)"/>
      <use xlink:href="#ArialMT-29" transform="translate(266.743555 0.203125)"/>
     </g>
    </g>
   </g>
   <g id="line2d_10">
    <path d="M 41.052614 116.13927 
L 45.78945 111.759848 
L 50.526287 107.102959 
L 55.263124 102.102802 
L 59.999961 97.007999 
L 64.736798 91.948418 
L 69.473635 86.730029 
L 74.210471 81.435098 
L 78.947308 75.845121 
L 83.684145 70.224129 
L 88.420982 64.36988 
L 93.157819 58.491122 
L 97.894655 52.250622 
L 102.631492 45.713178 
L 107.368329 39.185219 
L 109.263064 36.317766 
L 111.157799 33.520994 
L 113.052533 30.710246 
L 114.947268 27.774159 
L 116.842003 24.950221 
L 118.736737 22.218981 
L 120.631472 19.421549 
L 122.526207 16.807264 
L 124.420942 14.486537 
L 126.315676 12.75713 
L 128.210411 10.955634 
L 130.105146 9.932422 
L 131.999881 9.111149 
L 133.894615 9.086422 
L 135.78935 8.984309 
L 137.684085 8.880132 
L 139.578819 8.394174 
L 141.473554 9.012988 
L 143.368289 9.90307 
L 145.263024 11.045544 
L 147.157758 12.98792 
L 149.052493 14.960197 
L 150.947228 17.324425 
L 152.841963 19.520968 
L 154.736697 22.273268 
L 156.631432 24.609353 
L 158.526167 27.130628 
L 160.420901 29.680222 
L 162.315636 31.964637 
L 164.210371 34.308569 
L 168.947208 40.603764 
L 173.684045 46.539461 
L 178.420881 52.861831 
L 183.157718 58.904743 
L 187.894555 65.064194 
L 192.631392 71.364086 
L 197.368229 77.465405 
L 202.105065 83.438036 
L 206.841902 89.344309 
L 211.578739 95.000516 
L 216.315576 100.555073 
L 221.052413 105.973252 
L 225.78925 111.031859 
L 230.526086 115.661593 
" clip-path="url(#p9299046c3d)" style="fill: none"/>
    <defs>
     <path id="me0dfaa61ce" d="M 0 0.75 
C 0.198902 0.75 0.389685 0.670975 0.53033 0.53033 
C 0.670975 0.389685 0.75 0.198902 0.75 0 
C 0.75 -0.198902 0.670975 -0.389685 0.53033 -0.53033 
C 0.389685 -0.670975 0.198902 -0.75 0 -0.75 
C -0.198902 -0.75 -0.389685 -0.670975 -0.53033 -0.53033 
C -0.670975 -0.389685 -0.75 -0.198902 -0.75 0 
C -0.75 0.198902 -0.670975 0.389685 -0.53033 0.53033 
C -0.389685 0.670975 -0.198902 0.75 0 0.75 
z
" style="stroke: #1f77b4; stroke-width: 0.5"/>
    </defs>
    <g clip-path="url(#p9299046c3d)">
     <use xlink:href="#me0dfaa61ce" x="41.052614" y="116.13927" style="fill: #1f77b4; stroke: #1f77b4; stroke-width: 0.5"/>
     <use xlink:href="#me0dfaa61ce" x="45.78945" y="111.759848" style="fill: #1f77b4; stroke: #1f77b4; stroke-width: 0.5"/>
     <use xlink:href="#me0dfaa61ce" x="50.526287" y="107.102959" style="fill: #1f77b4; stroke: #1f77b4; stroke-width: 0.5"/>
     <use xlink:href="#me0dfaa61ce" x="55.263124" y="102.102802" style="fill: #1f77b4; stroke: #1f77b4; stroke-width: 0.5"/>
     <use xlink:href="#me0dfaa61ce" x="59.999961" y="97.007999" style="fill: #1f77b4; stroke: #1f77b4; stroke-width: 0.5"/>
     <use xlink:href="#me0dfaa61ce" x="64.736798" y="91.948418" style="fill: #1f77b4; stroke: #1f77b4; stroke-width: 0.5"/>
     <use xlink:href="#me0dfaa61ce" x="69.473635" y="86.730029" style="fill: #1f77b4; stroke: #1f77b4; stroke-width: 0.5"/>
     <use xlink:href="#me0dfaa61ce" x="74.210471" y="81.435098" style="fill: #1f77b4; stroke: #1f77b4; stroke-width: 0.5"/>
     <use xlink:href="#me0dfaa61ce" x="78.947308" y="75.845121" style="fill: #1f77b4; stroke: #1f77b4; stroke-width: 0.5"/>
     <use xlink:href="#me0dfaa61ce" x="83.684145" y="70.224129" style="fill: #1f77b4; stroke: #1f77b4; stroke-width: 0.5"/>
     <use xlink:href="#me0dfaa61ce" x="88.420982" y="64.36988" style="fill: #1f77b4; stroke: #1f77b4; stroke-width: 0.5"/>
     <use xlink:href="#me0dfaa61ce" x="93.157819" y="58.491122" style="fill: #1f77b4; stroke: #1f77b4; stroke-width: 0.5"/>
     <use xlink:href="#me0dfaa61ce" x="97.894655" y="52.250622" style="fill: #1f77b4; stroke: #1f77b4; stroke-width: 0.5"/>
     <use xlink:href="#me0dfaa61ce" x="102.631492" y="45.713178" style="fill: #1f77b4; stroke: #1f77b4; stroke-width: 0.5"/>
     <use xlink:href="#me0dfaa61ce" x="107.368329" y="39.185219" style="fill: #1f77b4; stroke: #1f77b4; stroke-width: 0.5"/>
     <use xlink:href="#me0dfaa61ce" x="109.263064" y="36.317766" style="fill: #1f77b4; stroke: #1f77b4; stroke-width: 0.5"/>
     <use xlink:href="#me0dfaa61ce" x="111.157799" y="33.520994" style="fill: #1f77b4; stroke: #1f77b4; stroke-width: 0.5"/>
     <use xlink:href="#me0dfaa61ce" x="113.052533" y="30.710246" style="fill: #1f77b4; stroke: #1f77b4; stroke-width: 0.5"/>
     <use xlink:href="#me0dfaa61ce" x="114.947268" y="27.774159" style="fill: #1f77b4; stroke: #1f77b4; stroke-width: 0.5"/>
     <use xlink:href="#me0dfaa61ce" x="116.842003" y="24.950221" style="fill: #1f77b4; stroke: #1f77b4; stroke-width: 0.5"/>
     <use xlink:href="#me0dfaa61ce" x="118.736737" y="22.218981" style="fill: #1f77b4; stroke: #1f77b4; stroke-width: 0.5"/>
     <use xlink:href="#me0dfaa61ce" x="120.631472" y="19.421549" style="fill: #1f77b4; stroke: #1f77b4; stroke-width: 0.5"/>
     <use xlink:href="#me0dfaa61ce" x="122.526207" y="16.807264" style="fill: #1f77b4; stroke: #1f77b4; stroke-width: 0.5"/>
     <use xlink:href="#me0dfaa61ce" x="124.420942" y="14.486537" style="fill: #1f77b4; stroke: #1f77b4; stroke-width: 0.5"/>
     <use xlink:href="#me0dfaa61ce" x="126.315676" y="12.75713" style="fill: #1f77b4; stroke: #1f77b4; stroke-width: 0.5"/>
     <use xlink:href="#me0dfaa61ce" x="128.210411" y="10.955634" style="fill: #1f77b4; stroke: #1f77b4; stroke-width: 0.5"/>
     <use xlink:href="#me0dfaa61ce" x="130.105146" y="9.932422" style="fill: #1f77b4; stroke: #1f77b4; stroke-width: 0.5"/>
     <use xlink:href="#me0dfaa61ce" x="131.999881" y="9.111149" style="fill: #1f77b4; stroke: #1f77b4; stroke-width: 0.5"/>
     <use xlink:href="#me0dfaa61ce" x="133.894615" y="9.086422" style="fill: #1f77b4; stroke: #1f77b4; stroke-width: 0.5"/>
     <use xlink:href="#me0dfaa61ce" x="135.78935" y="8.984309" style="fill: #1f77b4; stroke: #1f77b4; stroke-width: 0.5"/>
     <use xlink:href="#me0dfaa61ce" x="137.684085" y="8.880132" style="fill: #1f77b4; stroke: #1f77b4; stroke-width: 0.5"/>
     <use xlink:href="#me0dfaa61ce" x="139.578819" y="8.394174" style="fill: #1f77b4; stroke: #1f77b4; stroke-width: 0.5"/>
     <use xlink:href="#me0dfaa61ce" x="141.473554" y="9.012988" style="fill: #1f77b4; stroke: #1f77b4; stroke-width: 0.5"/>
     <use xlink:href="#me0dfaa61ce" x="143.368289" y="9.90307" style="fill: #1f77b4; stroke: #1f77b4; stroke-width: 0.5"/>
     <use xlink:href="#me0dfaa61ce" x="145.263024" y="11.045544" style="fill: #1f77b4; stroke: #1f77b4; stroke-width: 0.5"/>
     <use xlink:href="#me0dfaa61ce" x="147.157758" y="12.98792" style="fill: #1f77b4; stroke: #1f77b4; stroke-width: 0.5"/>
     <use xlink:href="#me0dfaa61ce" x="149.052493" y="14.960197" style="fill: #1f77b4; stroke: #1f77b4; stroke-width: 0.5"/>
     <use xlink:href="#me0dfaa61ce" x="150.947228" y="17.324425" style="fill: #1f77b4; stroke: #1f77b4; stroke-width: 0.5"/>
     <use xlink:href="#me0dfaa61ce" x="152.841963" y="19.520968" style="fill: #1f77b4; stroke: #1f77b4; stroke-width: 0.5"/>
     <use xlink:href="#me0dfaa61ce" x="154.736697" y="22.273268" style="fill: #1f77b4; stroke: #1f77b4; stroke-width: 0.5"/>
     <use xlink:href="#me0dfaa61ce" x="156.631432" y="24.609353" style="fill: #1f77b4; stroke: #1f77b4; stroke-width: 0.5"/>
     <use xlink:href="#me0dfaa61ce" x="158.526167" y="27.130628" style="fill: #1f77b4; stroke: #1f77b4; stroke-width: 0.5"/>
     <use xlink:href="#me0dfaa61ce" x="160.420901" y="29.680222" style="fill: #1f77b4; stroke: #1f77b4; stroke-width: 0.5"/>
     <use xlink:href="#me0dfaa61ce" x="162.315636" y="31.964637" style="fill: #1f77b4; stroke: #1f77b4; stroke-width: 0.5"/>
     <use xlink:href="#me0dfaa61ce" x="164.210371" y="34.308569" style="fill: #1f77b4; stroke: #1f77b4; stroke-width: 0.5"/>
     <use xlink:href="#me0dfaa61ce" x="168.947208" y="40.603764" style="fill: #1f77b4; stroke: #1f77b4; stroke-width: 0.5"/>
     <use xlink:href="#me0dfaa61ce" x="173.684045" y="46.539461" style="fill: #1f77b4; stroke: #1f77b4; stroke-width: 0.5"/>
     <use xlink:href="#me0dfaa61ce" x="178.420881" y="52.861831" style="fill: #1f77b4; stroke: #1f77b4; stroke-width: 0.5"/>
     <use xlink:href="#me0dfaa61ce" x="183.157718" y="58.904743" style="fill: #1f77b4; stroke: #1f77b4; stroke-width: 0.5"/>
     <use xlink:href="#me0dfaa61ce" x="187.894555" y="65.064194" style="fill: #1f77b4; stroke: #1f77b4; stroke-width: 0.5"/>
     <use xlink:href="#me0dfaa61ce" x="192.631392" y="71.364086" style="fill: #1f77b4; stroke: #1f77b4; stroke-width: 0.5"/>
     <use xlink:href="#me0dfaa61ce" x="197.368229" y="77.465405" style="fill: #1f77b4; stroke: #1f77b4; stroke-width: 0.5"/>
     <use xlink:href="#me0dfaa61ce" x="202.105065" y="83.438036" style="fill: #1f77b4; stroke: #1f77b4; stroke-width: 0.5"/>
     <use xlink:href="#me0dfaa61ce" x="206.841902" y="89.344309" style="fill: #1f77b4; stroke: #1f77b4; stroke-width: 0.5"/>
     <use xlink:href="#me0dfaa61ce" x="211.578739" y="95.000516" style="fill: #1f77b4; stroke: #1f77b4; stroke-width: 0.5"/>
     <use xlink:href="#me0dfaa61ce" x="216.315576" y="100.555073" style="fill: #1f77b4; stroke: #1f77b4; stroke-width: 0.5"/>
     <use xlink:href="#me0dfaa61ce" x="221.052413" y="105.973252" style="fill: #1f77b4; stroke: #1f77b4; stroke-width: 0.5"/>
     <use xlink:href="#me0dfaa61ce" x="225.78925" y="111.031859" style="fill: #1f77b4; stroke: #1f77b4; stroke-width: 0.5"/>
     <use xlink:href="#me0dfaa61ce" x="230.526086" y="115.661593" style="fill: #1f77b4; stroke: #1f77b4; stroke-width: 0.5"/>
    </g>
   </g>
   <g id="line2d_11">
    <path d="M 41.052614 116.13927 
L 47.002081 110.600099 
L 51.378918 106.224149 
L 57.063122 100.163466 
L 72.86521 82.964873 
L 77.2231 77.894656 
L 87.795719 65.145396 
L 96.284131 54.425201 
L 101.039915 47.898091 
L 109.206222 36.403484 
L 118.850422 22.051973 
L 122.734628 16.529865 
L 124.383047 14.52585 
L 125.709361 13.305227 
L 127.35778 11.717044 
L 128.475674 10.767699 
L 129.555673 10.189502 
L 132.227249 9.071868 
L 133.212511 9.056726 
L 134.936719 9.037395 
L 138.423031 8.656702 
L 139.540925 8.39502 
L 140.223029 8.487134 
L 141.170397 8.866997 
L 144.921971 10.779055 
L 145.850391 11.59276 
L 149.185125 15.115852 
L 153.410383 20.318348 
L 155.721959 23.52049 
L 158.033536 26.452157 
L 161.406164 30.885601 
L 165.006159 35.345259 
L 172.376678 44.887916 
L 175.635621 49.120555 
L 181.225089 56.462265 
L 187.875608 65.039066 
L 197.728228 77.921701 
L 207.940848 90.677394 
L 215.235577 99.294789 
L 221.810307 106.810622 
L 226.016618 111.264045 
L 230.052403 115.218491 
L 230.507139 115.643955 
L 230.507139 115.643955 
" clip-path="url(#p9299046c3d)" style="fill: none; stroke: #1f77b4; stroke-linecap: square"/>
   </g>
   <g id="line2d_12">
    <path d="M 41.052614 115.510143 
L 45.78945 110.838618 
L 50.526287 105.858991 
L 55.263124 100.505642 
L 59.999961 94.936924 
L 64.736798 89.307764 
L 69.473635 83.44718 
L 74.210471 77.449861 
L 78.947308 71.299135 
L 83.684145 65.01632 
L 88.420982 58.851605 
L 93.157819 52.844401 
L 97.894655 46.726554 
L 102.631492 40.518113 
L 107.368329 34.518685 
L 109.263064 32.13179 
L 111.157799 29.577886 
L 113.052533 27.132605 
L 114.947268 24.790212 
L 116.842003 22.145671 
L 118.736737 19.502732 
L 120.631472 17.277655 
L 122.526207 15.094282 
L 124.420942 13.258416 
L 126.315676 11.788407 
L 128.210411 10.486597 
L 130.105146 9.514344 
L 131.999881 8.983447 
L 133.894615 9.126258 
L 135.78935 9.341798 
L 137.684085 9.473794 
L 139.578819 9.176447 
L 141.473554 10.002726 
L 143.368289 10.977118 
L 145.263024 12.402027 
L 147.157758 14.760264 
L 149.052493 17.061348 
L 150.947228 19.613412 
L 152.841963 22.377859 
L 154.736697 25.215141 
L 156.631432 28.314817 
L 158.526167 30.972709 
L 160.420901 33.709908 
L 162.315636 36.572405 
L 164.210371 39.421794 
L 168.947208 46.121383 
L 173.684045 52.278423 
L 178.420881 58.581222 
L 183.157718 64.534091 
L 187.894555 70.21364 
L 192.631392 75.899675 
L 197.368229 81.362795 
L 202.105065 86.740235 
L 206.841902 91.933242 
L 211.578739 97.047142 
L 216.315576 102.131741 
L 221.052413 107.186369 
L 225.78925 111.923803 
L 230.526086 116.270168 
" clip-path="url(#p9299046c3d)" style="fill: none"/>
    <defs>
     <path id="mb2e32a6ff7" d="M 0 0.75 
C 0.198902 0.75 0.389685 0.670975 0.53033 0.53033 
C 0.670975 0.389685 0.75 0.198902 0.75 0 
C 0.75 -0.198902 0.670975 -0.389685 0.53033 -0.53033 
C 0.389685 -0.670975 0.198902 -0.75 0 -0.75 
C -0.198902 -0.75 -0.389685 -0.670975 -0.53033 -0.53033 
C -0.670975 -0.389685 -0.75 -0.198902 -0.75 0 
C -0.75 0.198902 -0.670975 0.389685 -0.53033 0.53033 
C -0.389685 0.670975 -0.198902 0.75 0 0.75 
z
" style="stroke: #ff7f0e; stroke-width: 0.5"/>
    </defs>
    <g clip-path="url(#p9299046c3d)">
     <use xlink:href="#mb2e32a6ff7" x="41.052614" y="115.510143" style="fill: #ff7f0e; stroke: #ff7f0e; stroke-width: 0.5"/>
     <use xlink:href="#mb2e32a6ff7" x="45.78945" y="110.838618" style="fill: #ff7f0e; stroke: #ff7f0e; stroke-width: 0.5"/>
     <use xlink:href="#mb2e32a6ff7" x="50.526287" y="105.858991" style="fill: #ff7f0e; stroke: #ff7f0e; stroke-width: 0.5"/>
     <use xlink:href="#mb2e32a6ff7" x="55.263124" y="100.505642" style="fill: #ff7f0e; stroke: #ff7f0e; stroke-width: 0.5"/>
     <use xlink:href="#mb2e32a6ff7" x="59.999961" y="94.936924" style="fill: #ff7f0e; stroke: #ff7f0e; stroke-width: 0.5"/>
     <use xlink:href="#mb2e32a6ff7" x="64.736798" y="89.307764" style="fill: #ff7f0e; stroke: #ff7f0e; stroke-width: 0.5"/>
     <use xlink:href="#mb2e32a6ff7" x="69.473635" y="83.44718" style="fill: #ff7f0e; stroke: #ff7f0e; stroke-width: 0.5"/>
     <use xlink:href="#mb2e32a6ff7" x="74.210471" y="77.449861" style="fill: #ff7f0e; stroke: #ff7f0e; stroke-width: 0.5"/>
     <use xlink:href="#mb2e32a6ff7" x="78.947308" y="71.299135" style="fill: #ff7f0e; stroke: #ff7f0e; stroke-width: 0.5"/>
     <use xlink:href="#mb2e32a6ff7" x="83.684145" y="65.01632" style="fill: #ff7f0e; stroke: #ff7f0e; stroke-width: 0.5"/>
     <use xlink:href="#mb2e32a6ff7" x="88.420982" y="58.851605" style="fill: #ff7f0e; stroke: #ff7f0e; stroke-width: 0.5"/>
     <use xlink:href="#mb2e32a6ff7" x="93.157819" y="52.844401" style="fill: #ff7f0e; stroke: #ff7f0e; stroke-width: 0.5"/>
     <use xlink:href="#mb2e32a6ff7" x="97.894655" y="46.726554" style="fill: #ff7f0e; stroke: #ff7f0e; stroke-width: 0.5"/>
     <use xlink:href="#mb2e32a6ff7" x="102.631492" y="40.518113" style="fill: #ff7f0e; stroke: #ff7f0e; stroke-width: 0.5"/>
     <use xlink:href="#mb2e32a6ff7" x="107.368329" y="34.518685" style="fill: #ff7f0e; stroke: #ff7f0e; stroke-width: 0.5"/>
     <use xlink:href="#mb2e32a6ff7" x="109.263064" y="32.13179" style="fill: #ff7f0e; stroke: #ff7f0e; stroke-width: 0.5"/>
     <use xlink:href="#mb2e32a6ff7" x="111.157799" y="29.577886" style="fill: #ff7f0e; stroke: #ff7f0e; stroke-width: 0.5"/>
     <use xlink:href="#mb2e32a6ff7" x="113.052533" y="27.132605" style="fill: #ff7f0e; stroke: #ff7f0e; stroke-width: 0.5"/>
     <use xlink:href="#mb2e32a6ff7" x="114.947268" y="24.790212" style="fill: #ff7f0e; stroke: #ff7f0e; stroke-width: 0.5"/>
     <use xlink:href="#mb2e32a6ff7" x="116.842003" y="22.145671" style="fill: #ff7f0e; stroke: #ff7f0e; stroke-width: 0.5"/>
     <use xlink:href="#mb2e32a6ff7" x="118.736737" y="19.502732" style="fill: #ff7f0e; stroke: #ff7f0e; stroke-width: 0.5"/>
     <use xlink:href="#mb2e32a6ff7" x="120.631472" y="17.277655" style="fill: #ff7f0e; stroke: #ff7f0e; stroke-width: 0.5"/>
     <use xlink:href="#mb2e32a6ff7" x="122.526207" y="15.094282" style="fill: #ff7f0e; stroke: #ff7f0e; stroke-width: 0.5"/>
     <use xlink:href="#mb2e32a6ff7" x="124.420942" y="13.258416" style="fill: #ff7f0e; stroke: #ff7f0e; stroke-width: 0.5"/>
     <use xlink:href="#mb2e32a6ff7" x="126.315676" y="11.788407" style="fill: #ff7f0e; stroke: #ff7f0e; stroke-width: 0.5"/>
     <use xlink:href="#mb2e32a6ff7" x="128.210411" y="10.486597" style="fill: #ff7f0e; stroke: #ff7f0e; stroke-width: 0.5"/>
     <use xlink:href="#mb2e32a6ff7" x="130.105146" y="9.514344" style="fill: #ff7f0e; stroke: #ff7f0e; stroke-width: 0.5"/>
     <use xlink:href="#mb2e32a6ff7" x="131.999881" y="8.983447" style="fill: #ff7f0e; stroke: #ff7f0e; stroke-width: 0.5"/>
     <use xlink:href="#mb2e32a6ff7" x="133.894615" y="9.126258" style="fill: #ff7f0e; stroke: #ff7f0e; stroke-width: 0.5"/>
     <use xlink:href="#mb2e32a6ff7" x="135.78935" y="9.341798" style="fill: #ff7f0e; stroke: #ff7f0e; stroke-width: 0.5"/>
     <use xlink:href="#mb2e32a6ff7" x="137.684085" y="9.473794" style="fill: #ff7f0e; stroke: #ff7f0e; stroke-width: 0.5"/>
     <use xlink:href="#mb2e32a6ff7" x="139.578819" y="9.176447" style="fill: #ff7f0e; stroke: #ff7f0e; stroke-width: 0.5"/>
     <use xlink:href="#mb2e32a6ff7" x="141.473554" y="10.002726" style="fill: #ff7f0e; stroke: #ff7f0e; stroke-width: 0.5"/>
     <use xlink:href="#mb2e32a6ff7" x="143.368289" y="10.977118" style="fill: #ff7f0e; stroke: #ff7f0e; stroke-width: 0.5"/>
     <use xlink:href="#mb2e32a6ff7" x="145.263024" y="12.402027" style="fill: #ff7f0e; stroke: #ff7f0e; stroke-width: 0.5"/>
     <use xlink:href="#mb2e32a6ff7" x="147.157758" y="14.760264" style="fill: #ff7f0e; stroke: #ff7f0e; stroke-width: 0.5"/>
     <use xlink:href="#mb2e32a6ff7" x="149.052493" y="17.061348" style="fill: #ff7f0e; stroke: #ff7f0e; stroke-width: 0.5"/>
     <use xlink:href="#mb2e32a6ff7" x="150.947228" y="19.613412" style="fill: #ff7f0e; stroke: #ff7f0e; stroke-width: 0.5"/>
     <use xlink:href="#mb2e32a6ff7" x="152.841963" y="22.377859" style="fill: #ff7f0e; stroke: #ff7f0e; stroke-width: 0.5"/>
     <use xlink:href="#mb2e32a6ff7" x="154.736697" y="25.215141" style="fill: #ff7f0e; stroke: #ff7f0e; stroke-width: 0.5"/>
     <use xlink:href="#mb2e32a6ff7" x="156.631432" y="28.314817" style="fill: #ff7f0e; stroke: #ff7f0e; stroke-width: 0.5"/>
     <use xlink:href="#mb2e32a6ff7" x="158.526167" y="30.972709" style="fill: #ff7f0e; stroke: #ff7f0e; stroke-width: 0.5"/>
     <use xlink:href="#mb2e32a6ff7" x="160.420901" y="33.709908" style="fill: #ff7f0e; stroke: #ff7f0e; stroke-width: 0.5"/>
     <use xlink:href="#mb2e32a6ff7" x="162.315636" y="36.572405" style="fill: #ff7f0e; stroke: #ff7f0e; stroke-width: 0.5"/>
     <use xlink:href="#mb2e32a6ff7" x="164.210371" y="39.421794" style="fill: #ff7f0e; stroke: #ff7f0e; stroke-width: 0.5"/>
     <use xlink:href="#mb2e32a6ff7" x="168.947208" y="46.121383" style="fill: #ff7f0e; stroke: #ff7f0e; stroke-width: 0.5"/>
     <use xlink:href="#mb2e32a6ff7" x="173.684045" y="52.278423" style="fill: #ff7f0e; stroke: #ff7f0e; stroke-width: 0.5"/>
     <use xlink:href="#mb2e32a6ff7" x="178.420881" y="58.581222" style="fill: #ff7f0e; stroke: #ff7f0e; stroke-width: 0.5"/>
     <use xlink:href="#mb2e32a6ff7" x="183.157718" y="64.534091" style="fill: #ff7f0e; stroke: #ff7f0e; stroke-width: 0.5"/>
     <use xlink:href="#mb2e32a6ff7" x="187.894555" y="70.21364" style="fill: #ff7f0e; stroke: #ff7f0e; stroke-width: 0.5"/>
     <use xlink:href="#mb2e32a6ff7" x="192.631392" y="75.899675" style="fill: #ff7f0e; stroke: #ff7f0e; stroke-width: 0.5"/>
     <use xlink:href="#mb2e32a6ff7" x="197.368229" y="81.362795" style="fill: #ff7f0e; stroke: #ff7f0e; stroke-width: 0.5"/>
     <use xlink:href="#mb2e32a6ff7" x="202.105065" y="86.740235" style="fill: #ff7f0e; stroke: #ff7f0e; stroke-width: 0.5"/>
     <use xlink:href="#mb2e32a6ff7" x="206.841902" y="91.933242" style="fill: #ff7f0e; stroke: #ff7f0e; stroke-width: 0.5"/>
     <use xlink:href="#mb2e32a6ff7" x="211.578739" y="97.047142" style="fill: #ff7f0e; stroke: #ff7f0e; stroke-width: 0.5"/>
     <use xlink:href="#mb2e32a6ff7" x="216.315576" y="102.131741" style="fill: #ff7f0e; stroke: #ff7f0e; stroke-width: 0.5"/>
     <use xlink:href="#mb2e32a6ff7" x="221.052413" y="107.186369" style="fill: #ff7f0e; stroke: #ff7f0e; stroke-width: 0.5"/>
     <use xlink:href="#mb2e32a6ff7" x="225.78925" y="111.923803" style="fill: #ff7f0e; stroke: #ff7f0e; stroke-width: 0.5"/>
     <use xlink:href="#mb2e32a6ff7" x="230.526086" y="116.270168" style="fill: #ff7f0e; stroke: #ff7f0e; stroke-width: 0.5"/>
    </g>
   </g>
   <g id="line2d_13">
    <path d="M 41.052614 115.510143 
L 46.471555 110.143316 
L 50.905234 105.443801 
L 55.528387 100.197242 
L 64.71785 89.330697 
L 70.477844 82.185138 
L 78.113625 72.395024 
L 93.460976 52.458177 
L 100.528337 43.265458 
L 106.553593 35.532133 
L 110.854641 29.986993 
L 113.526217 26.553735 
L 115.875688 23.52873 
L 119.703052 18.339217 
L 123.681995 13.921554 
L 125.311467 12.53807 
L 127.907254 10.677037 
L 129.479883 9.795949 
L 131.033566 9.173514 
L 132.07567 8.978155 
L 133.136721 9.026625 
L 137.740927 9.466118 
L 139.938819 9.248652 
L 140.753555 9.601131 
L 144.580919 11.776828 
L 145.490392 12.64855 
L 146.759864 14.244691 
L 148.957756 16.943866 
L 150.757754 19.344043 
L 154.452487 24.766809 
L 158.961956 31.581575 
L 161.804058 35.796122 
L 166.768263 43.127144 
L 170.178785 47.744257 
L 183.953507 65.496412 
L 195.397705 79.110046 
L 204.625063 89.522116 
L 216.050313 101.846342 
L 223.326094 109.50937 
L 227.5703 113.60372 
L 230.507139 116.253557 
L 230.507139 116.253557 
" clip-path="url(#p9299046c3d)" style="fill: none; stroke: #ff7f0e; stroke-linecap: square"/>
   </g>
   <g id="line2d_14">
    <path d="M 132.321985 8.970873 
L 139.597767 8.394046 
" clip-path="url(#p9299046c3d)" style="fill: none"/>
    <defs>
     <path id="mb5065e6a6d" d="M -1.5 1.5 
L 1.5 -1.5 
M -1.5 -1.5 
L 1.5 1.5 
" style="stroke: #2ca02c; stroke-width: 0.5"/>
    </defs>
    <g clip-path="url(#p9299046c3d)">
     <use xlink:href="#mb5065e6a6d" x="132.321985" y="8.970873" style="fill: #2ca02c; stroke: #2ca02c; stroke-width: 0.5"/>
     <use xlink:href="#mb5065e6a6d" x="139.597767" y="8.394046" style="fill: #2ca02c; stroke: #2ca02c; stroke-width: 0.5"/>
    </g>
   </g>
   <g id="patch_3">
    <path d="M 31.57894 121.663974 
L 31.57894 3.00024 
" style="fill: none; stroke: #000000; stroke-width: 0.5; stroke-linejoin: miter; stroke-linecap: square"/>
   </g>
   <g id="patch_4">
    <path d="M 239.99976 121.663974 
L 239.99976 3.00024 
" style="fill: none; stroke: #000000; stroke-width: 0.5; stroke-linejoin: miter; stroke-linecap: square"/>
   </g>
   <g id="patch_5">
    <path d="M 31.57894 121.663974 
L 239.99976 121.663974 
" style="fill: none; stroke: #000000; stroke-width: 0.5; stroke-linejoin: miter; stroke-linecap: square"/>
   </g>
   <g id="patch_6">
    <path d="M 31.57894 3.00024 
L 239.99976 3.00024 
" style="fill: none; stroke: #000000; stroke-width: 0.5; stroke-linejoin: miter; stroke-linecap: square"/>
   </g>
   <g id="legend_1">
    <g id="patch_7">
     <path d="M 187.866263 58.446502 
L 235.14176 58.446502 
Q 236.52976 58.446502 236.52976 57.058502 
L 236.52976 7.85824 
Q 236.52976 6.47024 235.14176 6.47024 
L 187.866263 6.47024 
Q 186.478263 6.47024 186.478263 7.85824 
L 186.478263 57.058502 
Q 186.478263 58.446502 187.866263 58.446502 
z
" style="fill: #ffffff; opacity: 0.8; stroke: #cccccc; stroke-linejoin: miter"/>
    </g>
    <g id="line2d_15">
     <path d="M 189.254263 11.784762 
L 196.194263 11.784762 
L 203.134263 11.784762 
" style="fill: none"/>
     <g>
      <use xlink:href="#me0dfaa61ce" x="196.194263" y="11.784762" style="fill: #1f77b4; stroke: #1f77b4; stroke-width: 0.5"/>
     </g>
    </g>
    <g id="text_12">
     <!-- $I_{\mathrm{c}+}$ -->
     <g transform="translate(208.686263 14.213762) scale(0.0694 -0.0694)">
      <defs>
       <path id="Cmr10-2b" d="M 481 1472 
Q 428 1472 393 1512 
Q 359 1553 359 1600 
Q 359 1647 393 1687 
Q 428 1728 481 1728 
L 2363 1728 
L 2363 3616 
Q 2363 3666 2400 3698 
Q 2438 3731 2491 3731 
Q 2538 3731 2578 3698 
Q 2619 3666 2619 3616 
L 2619 1728 
L 4500 1728 
Q 4547 1728 4581 1687 
Q 4616 1647 4616 1600 
Q 4616 1553 4581 1512 
Q 4547 1472 4500 1472 
L 2619 1472 
L 2619 -416 
Q 2619 -466 2578 -498 
Q 2538 -531 2491 -531 
Q 2438 -531 2400 -498 
Q 2363 -466 2363 -416 
L 2363 1472 
L 481 1472 
z
" transform="scale(0.015625)"/>
      </defs>
      <use xlink:href="#Cmmi10-49" transform="translate(0 0.6875)"/>
      <use xlink:href="#Cmr10-63" transform="translate(43.896484 -16.31875) scale(0.7)"/>
      <use xlink:href="#Cmr10-2b" transform="translate(87.256836 -16.31875) scale(0.7)"/>
     </g>
    </g>
    <g id="line2d_16">
     <path d="M 189.254263 21.818484 
L 196.194263 21.818484 
L 203.134263 21.818484 
" style="fill: none; stroke: #1f77b4; stroke-linecap: square"/>
    </g>
    <g id="text_13">
     <!-- spline -->
     <g transform="translate(208.686263 24.247484) scale(0.0694 -0.0694)">
      <defs>
       <path id="ArialMT-73" d="M 197 991 
L 753 1078 
Q 800 744 1014 566 
Q 1228 388 1613 388 
Q 2000 388 2187 545 
Q 2375 703 2375 916 
Q 2375 1106 2209 1216 
Q 2094 1291 1634 1406 
Q 1016 1563 777 1677 
Q 538 1791 414 1992 
Q 291 2194 291 2438 
Q 291 2659 392 2848 
Q 494 3038 669 3163 
Q 800 3259 1026 3326 
Q 1253 3394 1513 3394 
Q 1903 3394 2198 3281 
Q 2494 3169 2634 2976 
Q 2775 2784 2828 2463 
L 2278 2388 
Q 2241 2644 2061 2787 
Q 1881 2931 1553 2931 
Q 1166 2931 1000 2803 
Q 834 2675 834 2503 
Q 834 2394 903 2306 
Q 972 2216 1119 2156 
Q 1203 2125 1616 2013 
Q 2213 1853 2448 1751 
Q 2684 1650 2818 1456 
Q 2953 1263 2953 975 
Q 2953 694 2789 445 
Q 2625 197 2315 61 
Q 2006 -75 1616 -75 
Q 969 -75 630 194 
Q 291 463 197 991 
z
" transform="scale(0.015625)"/>
       <path id="ArialMT-70" d="M 422 -1272 
L 422 3319 
L 934 3319 
L 934 2888 
Q 1116 3141 1344 3267 
Q 1572 3394 1897 3394 
Q 2322 3394 2647 3175 
Q 2972 2956 3137 2557 
Q 3303 2159 3303 1684 
Q 3303 1175 3120 767 
Q 2938 359 2589 142 
Q 2241 -75 1856 -75 
Q 1575 -75 1351 44 
Q 1128 163 984 344 
L 984 -1272 
L 422 -1272 
z
M 931 1641 
Q 931 1000 1190 694 
Q 1450 388 1819 388 
Q 2194 388 2461 705 
Q 2728 1022 2728 1688 
Q 2728 2322 2467 2637 
Q 2206 2953 1844 2953 
Q 1484 2953 1207 2617 
Q 931 2281 931 1641 
z
" transform="scale(0.015625)"/>
       <path id="ArialMT-6c" d="M 409 0 
L 409 4581 
L 972 4581 
L 972 0 
L 409 0 
z
" transform="scale(0.015625)"/>
       <path id="ArialMT-69" d="M 425 3934 
L 425 4581 
L 988 4581 
L 988 3934 
L 425 3934 
z
M 425 0 
L 425 3319 
L 988 3319 
L 988 0 
L 425 0 
z
" transform="scale(0.015625)"/>
       <path id="ArialMT-6e" d="M 422 0 
L 422 3319 
L 928 3319 
L 928 2847 
Q 1294 3394 1984 3394 
Q 2284 3394 2536 3286 
Q 2788 3178 2913 3003 
Q 3038 2828 3088 2588 
Q 3119 2431 3119 2041 
L 3119 0 
L 2556 0 
L 2556 2019 
Q 2556 2363 2490 2533 
Q 2425 2703 2258 2804 
Q 2091 2906 1866 2906 
Q 1506 2906 1245 2678 
Q 984 2450 984 1813 
L 984 0 
L 422 0 
z
" transform="scale(0.015625)"/>
       <path id="ArialMT-65" d="M 2694 1069 
L 3275 997 
Q 3138 488 2766 206 
Q 2394 -75 1816 -75 
Q 1088 -75 661 373 
Q 234 822 234 1631 
Q 234 2469 665 2931 
Q 1097 3394 1784 3394 
Q 2450 3394 2872 2941 
Q 3294 2488 3294 1666 
Q 3294 1616 3291 1516 
L 816 1516 
Q 847 969 1125 678 
Q 1403 388 1819 388 
Q 2128 388 2347 550 
Q 2566 713 2694 1069 
z
M 847 1978 
L 2700 1978 
Q 2663 2397 2488 2606 
Q 2219 2931 1791 2931 
Q 1403 2931 1139 2672 
Q 875 2413 847 1978 
z
" transform="scale(0.015625)"/>
      </defs>
      <use xlink:href="#ArialMT-73"/>
      <use xlink:href="#ArialMT-70" x="50"/>
      <use xlink:href="#ArialMT-6c" x="105.615234"/>
      <use xlink:href="#ArialMT-69" x="127.832031"/>
      <use xlink:href="#ArialMT-6e" x="150.048828"/>
      <use xlink:href="#ArialMT-65" x="205.664062"/>
     </g>
    </g>
    <g id="line2d_17">
     <path d="M 189.254263 31.872809 
L 196.194263 31.872809 
L 203.134263 31.872809 
" style="fill: none"/>
     <g>
      <use xlink:href="#mb2e32a6ff7" x="196.194263" y="31.872809" style="fill: #ff7f0e; stroke: #ff7f0e; stroke-width: 0.5"/>
     </g>
    </g>
    <g id="text_14">
     <!-- $|I_{\mathrm{c}-}|$ -->
     <g transform="translate(208.686263 34.301809) scale(0.0694 -0.0694)">
      <defs>
       <path id="Cmsy10-6a" d="M 763 -1484 
L 763 4684 
Q 763 4734 800 4767 
Q 838 4800 891 4800 
Q 938 4800 978 4767 
Q 1019 4734 1019 4684 
L 1019 -1484 
Q 1019 -1534 978 -1567 
Q 938 -1600 891 -1600 
Q 838 -1600 800 -1567 
Q 763 -1534 763 -1484 
z
" transform="scale(0.015625)"/>
       <path id="Cmsy10-a1" d="M 653 1472 
Q 600 1472 565 1512 
Q 531 1553 531 1600 
Q 531 1647 565 1687 
Q 600 1728 653 1728 
L 4325 1728 
Q 4375 1728 4408 1687 
Q 4441 1647 4441 1600 
Q 4441 1553 4408 1512 
Q 4375 1472 4325 1472 
L 653 1472 
z
" transform="scale(0.015625)"/>
      </defs>
      <use xlink:href="#Cmsy10-6a"/>
      <use xlink:href="#Cmmi10-49" transform="translate(27.685547 0)"/>
      <use xlink:href="#Cmr10-63" transform="translate(71.582031 -17.00625) scale(0.7)"/>
      <use xlink:href="#Cmsy10-a1" transform="translate(114.942383 -17.00625) scale(0.7)"/>
      <use xlink:href="#Cmsy10-6a" transform="translate(187.990625 0)"/>
     </g>
    </g>
    <g id="line2d_18">
     <path d="M 189.254263 42.045331 
L 196.194263 42.045331 
L 203.134263 42.045331 
" style="fill: none; stroke: #ff7f0e; stroke-linecap: square"/>
    </g>
    <g id="text_15">
     <!-- spline -->
     <g transform="translate(208.686263 44.474331) scale(0.0694 -0.0694)">
      <use xlink:href="#ArialMT-73"/>
      <use xlink:href="#ArialMT-70" x="50"/>
      <use xlink:href="#ArialMT-6c" x="105.615234"/>
      <use xlink:href="#ArialMT-69" x="127.832031"/>
      <use xlink:href="#ArialMT-6e" x="150.048828"/>
      <use xlink:href="#ArialMT-65" x="205.664062"/>
     </g>
    </g>
    <g id="line2d_19">
     <path d="M 189.254263 51.862177 
L 196.194263 51.862177 
L 203.134263 51.862177 
" style="fill: none"/>
     <g>
      <use xlink:href="#mb5065e6a6d" x="196.194263" y="51.862177" style="fill: #2ca02c; stroke: #2ca02c; stroke-width: 0.5"/>
     </g>
    </g>
    <g id="text_16">
     <!-- extrema -->
     <g transform="translate(208.686263 54.291177) scale(0.0694 -0.0694)">
      <defs>
       <path id="ArialMT-78" d="M 47 0 
L 1259 1725 
L 138 3319 
L 841 3319 
L 1350 2541 
Q 1494 2319 1581 2169 
Q 1719 2375 1834 2534 
L 2394 3319 
L 3066 3319 
L 1919 1756 
L 3153 0 
L 2463 0 
L 1781 1031 
L 1600 1309 
L 728 0 
L 47 0 
z
" transform="scale(0.015625)"/>
       <path id="ArialMT-74" d="M 1650 503 
L 1731 6 
Q 1494 -44 1306 -44 
Q 1000 -44 831 53 
Q 663 150 594 308 
Q 525 466 525 972 
L 525 2881 
L 113 2881 
L 113 3319 
L 525 3319 
L 525 4141 
L 1084 4478 
L 1084 3319 
L 1650 3319 
L 1650 2881 
L 1084 2881 
L 1084 941 
Q 1084 700 1114 631 
Q 1144 563 1211 522 
Q 1278 481 1403 481 
Q 1497 481 1650 503 
z
" transform="scale(0.015625)"/>
       <path id="ArialMT-72" d="M 416 0 
L 416 3319 
L 922 3319 
L 922 2816 
Q 1116 3169 1280 3281 
Q 1444 3394 1641 3394 
Q 1925 3394 2219 3213 
L 2025 2691 
Q 1819 2813 1613 2813 
Q 1428 2813 1281 2702 
Q 1134 2591 1072 2394 
Q 978 2094 978 1738 
L 978 0 
L 416 0 
z
" transform="scale(0.015625)"/>
       <path id="ArialMT-61" d="M 2588 409 
Q 2275 144 1986 34 
Q 1697 -75 1366 -75 
Q 819 -75 525 192 
Q 231 459 231 875 
Q 231 1119 342 1320 
Q 453 1522 633 1644 
Q 813 1766 1038 1828 
Q 1203 1872 1538 1913 
Q 2219 1994 2541 2106 
Q 2544 2222 2544 2253 
Q 2544 2597 2384 2738 
Q 2169 2928 1744 2928 
Q 1347 2928 1158 2789 
Q 969 2650 878 2297 
L 328 2372 
Q 403 2725 575 2942 
Q 747 3159 1072 3276 
Q 1397 3394 1825 3394 
Q 2250 3394 2515 3294 
Q 2781 3194 2906 3042 
Q 3031 2891 3081 2659 
Q 3109 2516 3109 2141 
L 3109 1391 
Q 3109 606 3145 398 
Q 3181 191 3288 0 
L 2700 0 
Q 2613 175 2588 409 
z
M 2541 1666 
Q 2234 1541 1622 1453 
Q 1275 1403 1131 1340 
Q 988 1278 909 1158 
Q 831 1038 831 891 
Q 831 666 1001 516 
Q 1172 366 1500 366 
Q 1825 366 2078 508 
Q 2331 650 2450 897 
Q 2541 1088 2541 1459 
L 2541 1666 
z
" transform="scale(0.015625)"/>
      </defs>
      <use xlink:href="#ArialMT-65"/>
      <use xlink:href="#ArialMT-78" x="55.615234"/>
      <use xlink:href="#ArialMT-74" x="105.615234"/>
      <use xlink:href="#ArialMT-72" x="133.398438"/>
      <use xlink:href="#ArialMT-65" x="166.699219"/>
      <use xlink:href="#ArialMT-6d" x="222.314453"/>
      <use xlink:href="#ArialMT-61" x="305.615234"/>
     </g>
    </g>
   </g>
  </g>
 </g>
 <defs>
  <clipPath id="p9299046c3d">
   <rect x="31.57894" y="3.00024" width="208.42082" height="118.663734"/>
  </clipPath>
 </defs>
</svg>
