<?xml version="1.0" encoding="utf-8" standalone="no"?>
<!DOCTYPE svg PUBLIC "-//W3C//DTD SVG 1.1//EN"
  "http://www.w3.org/Graphics/SVG/1.1/DTD/svg11.dtd">
<svg xmlns:xlink="http://www.w3.org/1999/xlink" width="168pt" height="168pt" viewBox="0 0 168 168" xmlns="http://www.w3.org/2000/svg" version="1.1">
 <metadata>
  <rdf:RDF xmlns:dc="http://purl.org/dc/elements/1.1/" xmlns:cc="http://creativecommons.org/ns#" xmlns:rdf="http://www.w3.org/1999/02/22-rdf-syntax-ns#">
   <cc:Work>
    <dc:type rdf:resource="http://purl.org/dc/dcmitype/StillImage"/>
    <dc:date>2024-10-08T10:35:27.301338</dc:date>
    <dc:format>image/svg+xml</dc:format>
    <dc:creator>
     <cc:Agent>
      <dc:title>Matplotlib v3.8.4, https://matplotlib.org/</dc:title>
     </cc:Agent>
    </dc:creator>
   </cc:Work>
  </rdf:RDF>
 </metadata>
 <defs>
  <style type="text/css">*{stroke-linejoin: round; stroke-linecap: butt}</style>
 </defs>
 <g id="figure_1">
  <g id="patch_1">
   <path d="M 0 168 
L 168 168 
L 168 0 
L 0 0 
L 0 168 
z
" style="fill: none"/>
  </g>
  <g id="axes_1">
   <g id="patch_2">
    <path d="M 57.81 43.205834 
L 155.460937 43.205834 
L 155.460937 24.3888 
L 57.81 24.3888 
L 57.81 43.205834 
z
" style="fill: none"/>
   </g>
   <g id="matplotlib.axis_1">
    <g id="xtick_1">
     <g id="line2d_1">
      <defs>
       <path id="m4f24845b63" d="M 0 0 
L 0 -2 
" style="stroke: #000000; stroke-width: 0.5"/>
      </defs>
      <g>
       <use xlink:href="#m4f24845b63" x="62.248679" y="43.205834" style="stroke: #000000; stroke-width: 0.5"/>
      </g>
     </g>
    </g>
    <g id="xtick_2">
     <g id="line2d_2">
      <g>
       <use xlink:href="#m4f24845b63" x="85.407004" y="43.205834" style="stroke: #000000; stroke-width: 0.5"/>
      </g>
     </g>
    </g>
    <g id="xtick_3">
     <g id="line2d_3">
      <g>
       <use xlink:href="#m4f24845b63" x="108.565329" y="43.205834" style="stroke: #000000; stroke-width: 0.5"/>
      </g>
     </g>
    </g>
    <g id="xtick_4">
     <g id="line2d_4">
      <g>
       <use xlink:href="#m4f24845b63" x="131.723654" y="43.205834" style="stroke: #000000; stroke-width: 0.5"/>
      </g>
     </g>
    </g>
    <g id="xtick_5">
     <g id="line2d_5">
      <g>
       <use xlink:href="#m4f24845b63" x="154.881979" y="43.205834" style="stroke: #000000; stroke-width: 0.5"/>
      </g>
     </g>
    </g>
   </g>
   <g id="matplotlib.axis_2">
    <g id="ytick_1">
     <g id="line2d_6">
      <defs>
       <path id="m3a4a8a51e0" d="M 0 0 
L 2 0 
" style="stroke: #000000; stroke-width: 0.5"/>
      </defs>
      <g>
       <use xlink:href="#m3a4a8a51e0" x="57.81" y="40.50657" style="stroke: #000000; stroke-width: 0.5"/>
      </g>
     </g>
     <g id="text_1">
      <!-- −0.0005 -->
      <g transform="translate(23.969277 43.487799) scale(0.0833 -0.0833)">
       <defs>
        <path id="ArialMT-2212" d="M 3381 1997 
L 356 1997 
L 356 2522 
L 3381 2522 
L 3381 1997 
z
" transform="scale(0.015625)"/>
        <path id="ArialMT-30" d="M 266 2259 
Q 266 3072 433 3567 
Q 600 4063 929 4331 
Q 1259 4600 1759 4600 
Q 2128 4600 2406 4451 
Q 2684 4303 2865 4023 
Q 3047 3744 3150 3342 
Q 3253 2941 3253 2259 
Q 3253 1453 3087 958 
Q 2922 463 2592 192 
Q 2263 -78 1759 -78 
Q 1097 -78 719 397 
Q 266 969 266 2259 
z
M 844 2259 
Q 844 1131 1108 757 
Q 1372 384 1759 384 
Q 2147 384 2411 759 
Q 2675 1134 2675 2259 
Q 2675 3391 2411 3762 
Q 2147 4134 1753 4134 
Q 1366 4134 1134 3806 
Q 844 3388 844 2259 
z
" transform="scale(0.015625)"/>
        <path id="ArialMT-2e" d="M 581 0 
L 581 641 
L 1222 641 
L 1222 0 
L 581 0 
z
" transform="scale(0.015625)"/>
        <path id="ArialMT-35" d="M 266 1200 
L 856 1250 
Q 922 819 1161 601 
Q 1400 384 1738 384 
Q 2144 384 2425 690 
Q 2706 997 2706 1503 
Q 2706 1984 2436 2262 
Q 2166 2541 1728 2541 
Q 1456 2541 1237 2417 
Q 1019 2294 894 2097 
L 366 2166 
L 809 4519 
L 3088 4519 
L 3088 3981 
L 1259 3981 
L 1013 2750 
Q 1425 3038 1878 3038 
Q 2478 3038 2890 2622 
Q 3303 2206 3303 1553 
Q 3303 931 2941 478 
Q 2500 -78 1738 -78 
Q 1113 -78 717 272 
Q 322 622 266 1200 
z
" transform="scale(0.015625)"/>
       </defs>
       <use xlink:href="#ArialMT-2212"/>
       <use xlink:href="#ArialMT-30" x="58.398438"/>
       <use xlink:href="#ArialMT-2e" x="114.013672"/>
       <use xlink:href="#ArialMT-30" x="141.796875"/>
       <use xlink:href="#ArialMT-30" x="197.412109"/>
       <use xlink:href="#ArialMT-30" x="253.027344"/>
       <use xlink:href="#ArialMT-35" x="308.642578"/>
      </g>
     </g>
    </g>
    <g id="ytick_2">
     <g id="line2d_7">
      <g>
       <use xlink:href="#m3a4a8a51e0" x="57.81" y="34.232064" style="stroke: #000000; stroke-width: 0.5"/>
      </g>
     </g>
     <g id="text_2">
      <!-- 0.0000 -->
      <g transform="translate(28.834517 37.213293) scale(0.0833 -0.0833)">
       <use xlink:href="#ArialMT-30"/>
       <use xlink:href="#ArialMT-2e" x="55.615234"/>
       <use xlink:href="#ArialMT-30" x="83.398438"/>
       <use xlink:href="#ArialMT-30" x="139.013672"/>
       <use xlink:href="#ArialMT-30" x="194.628906"/>
       <use xlink:href="#ArialMT-30" x="250.244141"/>
      </g>
     </g>
    </g>
    <g id="ytick_3">
     <g id="line2d_8">
      <g>
       <use xlink:href="#m3a4a8a51e0" x="57.81" y="27.957558" style="stroke: #000000; stroke-width: 0.5"/>
      </g>
     </g>
     <g id="text_3">
      <!-- 0.0005 -->
      <g transform="translate(28.834517 30.938787) scale(0.0833 -0.0833)">
       <use xlink:href="#ArialMT-30"/>
       <use xlink:href="#ArialMT-2e" x="55.615234"/>
       <use xlink:href="#ArialMT-30" x="83.398438"/>
       <use xlink:href="#ArialMT-30" x="139.013672"/>
       <use xlink:href="#ArialMT-30" x="194.628906"/>
       <use xlink:href="#ArialMT-35" x="250.244141"/>
      </g>
     </g>
    </g>
    <g id="text_4">
     <!-- residuals -->
     <g transform="translate(17.981777 53.805911) rotate(-90) scale(0.1 -0.1)">
      <defs>
       <path id="ArialMT-72" d="M 416 0 
L 416 3319 
L 922 3319 
L 922 2816 
Q 1116 3169 1280 3281 
Q 1444 3394 1641 3394 
Q 1925 3394 2219 3213 
L 2025 2691 
Q 1819 2813 1613 2813 
Q 1428 2813 1281 2702 
Q 1134 2591 1072 2394 
Q 978 2094 978 1738 
L 978 0 
L 416 0 
z
" transform="scale(0.015625)"/>
       <path id="ArialMT-65" d="M 2694 1069 
L 3275 997 
Q 3138 488 2766 206 
Q 2394 -75 1816 -75 
Q 1088 -75 661 373 
Q 234 822 234 1631 
Q 234 2469 665 2931 
Q 1097 3394 1784 3394 
Q 2450 3394 2872 2941 
Q 3294 2488 3294 1666 
Q 3294 1616 3291 1516 
L 816 1516 
Q 847 969 1125 678 
Q 1403 388 1819 388 
Q 2128 388 2347 550 
Q 2566 713 2694 1069 
z
M 847 1978 
L 2700 1978 
Q 2663 2397 2488 2606 
Q 2219 2931 1791 2931 
Q 1403 2931 1139 2672 
Q 875 2413 847 1978 
z
" transform="scale(0.015625)"/>
       <path id="ArialMT-73" d="M 197 991 
L 753 1078 
Q 800 744 1014 566 
Q 1228 388 1613 388 
Q 2000 388 2187 545 
Q 2375 703 2375 916 
Q 2375 1106 2209 1216 
Q 2094 1291 1634 1406 
Q 1016 1563 777 1677 
Q 538 1791 414 1992 
Q 291 2194 291 2438 
Q 291 2659 392 2848 
Q 494 3038 669 3163 
Q 800 3259 1026 3326 
Q 1253 3394 1513 3394 
Q 1903 3394 2198 3281 
Q 2494 3169 2634 2976 
Q 2775 2784 2828 2463 
L 2278 2388 
Q 2241 2644 2061 2787 
Q 1881 2931 1553 2931 
Q 1166 2931 1000 2803 
Q 834 2675 834 2503 
Q 834 2394 903 2306 
Q 972 2216 1119 2156 
Q 1203 2125 1616 2013 
Q 2213 1853 2448 1751 
Q 2684 1650 2818 1456 
Q 2953 1263 2953 975 
Q 2953 694 2789 445 
Q 2625 197 2315 61 
Q 2006 -75 1616 -75 
Q 969 -75 630 194 
Q 291 463 197 991 
z
" transform="scale(0.015625)"/>
       <path id="ArialMT-69" d="M 425 3934 
L 425 4581 
L 988 4581 
L 988 3934 
L 425 3934 
z
M 425 0 
L 425 3319 
L 988 3319 
L 988 0 
L 425 0 
z
" transform="scale(0.015625)"/>
       <path id="ArialMT-64" d="M 2575 0 
L 2575 419 
Q 2259 -75 1647 -75 
Q 1250 -75 917 144 
Q 584 363 401 755 
Q 219 1147 219 1656 
Q 219 2153 384 2558 
Q 550 2963 881 3178 
Q 1213 3394 1622 3394 
Q 1922 3394 2156 3267 
Q 2391 3141 2538 2938 
L 2538 4581 
L 3097 4581 
L 3097 0 
L 2575 0 
z
M 797 1656 
Q 797 1019 1065 703 
Q 1334 388 1700 388 
Q 2069 388 2326 689 
Q 2584 991 2584 1609 
Q 2584 2291 2321 2609 
Q 2059 2928 1675 2928 
Q 1300 2928 1048 2622 
Q 797 2316 797 1656 
z
" transform="scale(0.015625)"/>
       <path id="ArialMT-75" d="M 2597 0 
L 2597 488 
Q 2209 -75 1544 -75 
Q 1250 -75 995 37 
Q 741 150 617 320 
Q 494 491 444 738 
Q 409 903 409 1263 
L 409 3319 
L 972 3319 
L 972 1478 
Q 972 1038 1006 884 
Q 1059 663 1231 536 
Q 1403 409 1656 409 
Q 1909 409 2131 539 
Q 2353 669 2445 892 
Q 2538 1116 2538 1541 
L 2538 3319 
L 3100 3319 
L 3100 0 
L 2597 0 
z
" transform="scale(0.015625)"/>
       <path id="ArialMT-61" d="M 2588 409 
Q 2275 144 1986 34 
Q 1697 -75 1366 -75 
Q 819 -75 525 192 
Q 231 459 231 875 
Q 231 1119 342 1320 
Q 453 1522 633 1644 
Q 813 1766 1038 1828 
Q 1203 1872 1538 1913 
Q 2219 1994 2541 2106 
Q 2544 2222 2544 2253 
Q 2544 2597 2384 2738 
Q 2169 2928 1744 2928 
Q 1347 2928 1158 2789 
Q 969 2650 878 2297 
L 328 2372 
Q 403 2725 575 2942 
Q 747 3159 1072 3276 
Q 1397 3394 1825 3394 
Q 2250 3394 2515 3294 
Q 2781 3194 2906 3042 
Q 3031 2891 3081 2659 
Q 3109 2516 3109 2141 
L 3109 1391 
Q 3109 606 3145 398 
Q 3181 191 3288 0 
L 2700 0 
Q 2613 175 2588 409 
z
M 2541 1666 
Q 2234 1541 1622 1453 
Q 1275 1403 1131 1340 
Q 988 1278 909 1158 
Q 831 1038 831 891 
Q 831 666 1001 516 
Q 1172 366 1500 366 
Q 1825 366 2078 508 
Q 2331 650 2450 897 
Q 2541 1088 2541 1459 
L 2541 1666 
z
" transform="scale(0.015625)"/>
       <path id="ArialMT-6c" d="M 409 0 
L 409 4581 
L 972 4581 
L 972 0 
L 409 0 
z
" transform="scale(0.015625)"/>
      </defs>
      <use xlink:href="#ArialMT-72"/>
      <use xlink:href="#ArialMT-65" x="33.300781"/>
      <use xlink:href="#ArialMT-73" x="88.916016"/>
      <use xlink:href="#ArialMT-69" x="138.916016"/>
      <use xlink:href="#ArialMT-64" x="161.132812"/>
      <use xlink:href="#ArialMT-75" x="216.748047"/>
      <use xlink:href="#ArialMT-61" x="272.363281"/>
      <use xlink:href="#ArialMT-6c" x="327.978516"/>
      <use xlink:href="#ArialMT-73" x="350.195312"/>
     </g>
    </g>
   </g>
   <g id="line2d_9">
    <path d="M 57.81 34.232064 
L 155.460937 34.232064 
" clip-path="url(#p2ac9a8eece)" style="fill: none; stroke: #000000; stroke-linecap: square"/>
   </g>
   <g id="LineCollection_1">
    <path d="M 131.723654 38.322227 
L 131.723654 26.806203 
" clip-path="url(#p2ac9a8eece)" style="fill: none; stroke: #1f77b4"/>
    <path d="M 135.583375 40.651829 
L 135.583375 30.618188 
" clip-path="url(#p2ac9a8eece)" style="fill: none; stroke: #1f77b4"/>
    <path d="M 139.443095 38.430235 
L 139.443095 27.368033 
" clip-path="url(#p2ac9a8eece)" style="fill: none; stroke: #1f77b4"/>
    <path d="M 143.302816 35.931495 
L 143.302816 25.24412 
" clip-path="url(#p2ac9a8eece)" style="fill: none; stroke: #1f77b4"/>
    <path d="M 147.162537 37.43947 
L 147.162537 29.205634 
" clip-path="url(#p2ac9a8eece)" style="fill: none; stroke: #1f77b4"/>
    <path d="M 151.022258 42.350514 
L 151.022258 31.365246 
" clip-path="url(#p2ac9a8eece)" style="fill: none; stroke: #1f77b4"/>
    <path d="M 62.248679 41.754826 
L 62.248679 31.4632 
" clip-path="url(#p2ac9a8eece)" style="fill: none; stroke: #1f77b4"/>
    <path d="M 66.1084 34.798071 
L 66.1084 26.280475 
" clip-path="url(#p2ac9a8eece)" style="fill: none; stroke: #1f77b4"/>
    <path d="M 69.968121 37.317484 
L 69.968121 28.524608 
" clip-path="url(#p2ac9a8eece)" style="fill: none; stroke: #1f77b4"/>
    <path d="M 73.827841 40.200148 
L 73.827841 31.772974 
" clip-path="url(#p2ac9a8eece)" style="fill: none; stroke: #1f77b4"/>
    <path d="M 77.687562 42.207055 
L 77.687562 32.0907 
" clip-path="url(#p2ac9a8eece)" style="fill: none; stroke: #1f77b4"/>
    <path d="M 81.547283 37.226241 
L 81.547283 30.559037 
" clip-path="url(#p2ac9a8eece)" style="fill: none; stroke: #1f77b4"/>
    <path d="M 85.407004 39.253442 
L 85.407004 31.255523 
" clip-path="url(#p2ac9a8eece)" style="fill: none; stroke: #1f77b4"/>
    <path d="M 89.266725 39.568493 
L 89.266725 29.835721 
" clip-path="url(#p2ac9a8eece)" style="fill: none; stroke: #1f77b4"/>
    <path d="M 93.126446 37.538648 
L 93.126446 30.417842 
" clip-path="url(#p2ac9a8eece)" style="fill: none; stroke: #1f77b4"/>
    <path d="M 96.986166 38.307617 
L 96.986166 29.956609 
" clip-path="url(#p2ac9a8eece)" style="fill: none; stroke: #1f77b4"/>
    <path d="M 100.845887 36.49606 
L 100.845887 29.950726 
" clip-path="url(#p2ac9a8eece)" style="fill: none; stroke: #1f77b4"/>
    <path d="M 104.705608 38.131648 
L 104.705608 28.328635 
" clip-path="url(#p2ac9a8eece)" style="fill: none; stroke: #1f77b4"/>
    <path d="M 108.565329 40.25616 
L 108.565329 31.035368 
" clip-path="url(#p2ac9a8eece)" style="fill: none; stroke: #1f77b4"/>
    <path d="M 112.42505 38.296376 
L 112.42505 29.907881 
" clip-path="url(#p2ac9a8eece)" style="fill: none; stroke: #1f77b4"/>
    <path d="M 116.28477 36.595765 
L 116.28477 27.761385 
" clip-path="url(#p2ac9a8eece)" style="fill: none; stroke: #1f77b4"/>
    <path d="M 120.144491 38.38552 
L 120.144491 30.686397 
" clip-path="url(#p2ac9a8eece)" style="fill: none; stroke: #1f77b4"/>
    <path d="M 124.004212 40.13693 
L 124.004212 31.120497 
" clip-path="url(#p2ac9a8eece)" style="fill: none; stroke: #1f77b4"/>
    <path d="M 127.863933 40.238546 
L 127.863933 29.723763 
" clip-path="url(#p2ac9a8eece)" style="fill: none; stroke: #1f77b4"/>
    <path d="M 131.723654 40.478394 
L 131.723654 32.463481 
" clip-path="url(#p2ac9a8eece)" style="fill: none; stroke: #1f77b4"/>
   </g>
   <g id="line2d_10">
    <defs>
     <path id="m64057b7525" d="M 0 1.5 
C 0.397805 1.5 0.77937 1.341951 1.06066 1.06066 
C 1.341951 0.77937 1.5 0.397805 1.5 0 
C 1.5 -0.397805 1.341951 -0.77937 1.06066 -1.06066 
C 0.77937 -1.341951 0.397805 -1.5 0 -1.5 
C -0.397805 -1.5 -0.77937 -1.341951 -1.06066 -1.06066 
C -1.341951 -0.77937 -1.5 -0.397805 -1.5 0 
C -1.5 0.397805 -1.341951 0.77937 -1.06066 1.06066 
C -0.77937 1.341951 -0.397805 1.5 0 1.5 
z
" style="stroke: #1f77b4; stroke-width: 0.5"/>
    </defs>
    <g clip-path="url(#p2ac9a8eece)">
     <use xlink:href="#m64057b7525" x="131.723654" y="32.564215" style="fill: #1f77b4; stroke: #1f77b4; stroke-width: 0.5"/>
     <use xlink:href="#m64057b7525" x="135.583375" y="35.635009" style="fill: #1f77b4; stroke: #1f77b4; stroke-width: 0.5"/>
     <use xlink:href="#m64057b7525" x="139.443095" y="32.899134" style="fill: #1f77b4; stroke: #1f77b4; stroke-width: 0.5"/>
     <use xlink:href="#m64057b7525" x="143.302816" y="30.587808" style="fill: #1f77b4; stroke: #1f77b4; stroke-width: 0.5"/>
     <use xlink:href="#m64057b7525" x="147.162537" y="33.322552" style="fill: #1f77b4; stroke: #1f77b4; stroke-width: 0.5"/>
     <use xlink:href="#m64057b7525" x="151.022258" y="36.85788" style="fill: #1f77b4; stroke: #1f77b4; stroke-width: 0.5"/>
     <use xlink:href="#m64057b7525" x="62.248679" y="36.609013" style="fill: #1f77b4; stroke: #1f77b4; stroke-width: 0.5"/>
     <use xlink:href="#m64057b7525" x="66.1084" y="30.539273" style="fill: #1f77b4; stroke: #1f77b4; stroke-width: 0.5"/>
     <use xlink:href="#m64057b7525" x="69.968121" y="32.921046" style="fill: #1f77b4; stroke: #1f77b4; stroke-width: 0.5"/>
     <use xlink:href="#m64057b7525" x="73.827841" y="35.986561" style="fill: #1f77b4; stroke: #1f77b4; stroke-width: 0.5"/>
     <use xlink:href="#m64057b7525" x="77.687562" y="37.148878" style="fill: #1f77b4; stroke: #1f77b4; stroke-width: 0.5"/>
     <use xlink:href="#m64057b7525" x="81.547283" y="33.892639" style="fill: #1f77b4; stroke: #1f77b4; stroke-width: 0.5"/>
     <use xlink:href="#m64057b7525" x="85.407004" y="35.254482" style="fill: #1f77b4; stroke: #1f77b4; stroke-width: 0.5"/>
     <use xlink:href="#m64057b7525" x="89.266725" y="34.702107" style="fill: #1f77b4; stroke: #1f77b4; stroke-width: 0.5"/>
     <use xlink:href="#m64057b7525" x="93.126446" y="33.978245" style="fill: #1f77b4; stroke: #1f77b4; stroke-width: 0.5"/>
     <use xlink:href="#m64057b7525" x="96.986166" y="34.132113" style="fill: #1f77b4; stroke: #1f77b4; stroke-width: 0.5"/>
     <use xlink:href="#m64057b7525" x="100.845887" y="33.223393" style="fill: #1f77b4; stroke: #1f77b4; stroke-width: 0.5"/>
     <use xlink:href="#m64057b7525" x="104.705608" y="33.230141" style="fill: #1f77b4; stroke: #1f77b4; stroke-width: 0.5"/>
     <use xlink:href="#m64057b7525" x="108.565329" y="35.645764" style="fill: #1f77b4; stroke: #1f77b4; stroke-width: 0.5"/>
     <use xlink:href="#m64057b7525" x="112.42505" y="34.102129" style="fill: #1f77b4; stroke: #1f77b4; stroke-width: 0.5"/>
     <use xlink:href="#m64057b7525" x="116.28477" y="32.178575" style="fill: #1f77b4; stroke: #1f77b4; stroke-width: 0.5"/>
     <use xlink:href="#m64057b7525" x="120.144491" y="34.535959" style="fill: #1f77b4; stroke: #1f77b4; stroke-width: 0.5"/>
     <use xlink:href="#m64057b7525" x="124.004212" y="35.628714" style="fill: #1f77b4; stroke: #1f77b4; stroke-width: 0.5"/>
     <use xlink:href="#m64057b7525" x="127.863933" y="34.981155" style="fill: #1f77b4; stroke: #1f77b4; stroke-width: 0.5"/>
     <use xlink:href="#m64057b7525" x="131.723654" y="36.470938" style="fill: #1f77b4; stroke: #1f77b4; stroke-width: 0.5"/>
    </g>
   </g>
   <g id="patch_3">
    <path d="M 57.81 43.205834 
L 57.81 24.3888 
" style="fill: none; stroke: #000000; stroke-width: 0.5; stroke-linejoin: miter; stroke-linecap: square"/>
   </g>
   <g id="patch_4">
    <path d="M 155.460937 43.205834 
L 155.460937 24.3888 
" style="fill: none; stroke: #000000; stroke-width: 0.5; stroke-linejoin: miter; stroke-linecap: square"/>
   </g>
   <g id="patch_5">
    <path d="M 57.81 43.205834 
L 155.460937 43.205834 
" style="fill: none; stroke: #000000; stroke-width: 0.5; stroke-linejoin: miter; stroke-linecap: square"/>
   </g>
   <g id="patch_6">
    <path d="M 57.81 24.3888 
L 155.460937 24.3888 
" style="fill: none; stroke: #000000; stroke-width: 0.5; stroke-linejoin: miter; stroke-linecap: square"/>
   </g>
   <g id="text_5">
    <!-- $V_\mathrm{g}=-5.8$ V -->
    <g transform="translate(79.235468 18.3888) scale(0.1 -0.1)">
     <defs>
      <path id="Cmmi10-56" d="M 1409 -72 
L 897 4006 
Q 850 4147 416 4147 
Q 353 4147 353 4231 
Q 366 4300 384 4336 
Q 403 4372 459 4372 
L 2022 4372 
Q 2056 4372 2072 4347 
Q 2088 4322 2088 4288 
Q 2063 4147 2003 4147 
Q 1503 4147 1472 3975 
L 1894 628 
L 3866 3775 
Q 3922 3881 3922 3944 
Q 3922 4056 3820 4101 
Q 3719 4147 3584 4147 
Q 3519 4147 3519 4231 
Q 3531 4281 3540 4309 
Q 3550 4338 3569 4355 
Q 3588 4372 3628 4372 
L 4863 4372 
Q 4922 4372 4922 4288 
Q 4897 4147 4838 4147 
Q 4356 4147 4084 3725 
Q 4072 3713 4063 3713 
L 1703 -72 
Q 1656 -141 1581 -141 
L 1491 -141 
Q 1419 -141 1409 -72 
z
" transform="scale(0.015625)"/>
      <path id="Cmr10-67" d="M 178 -500 
Q 178 -272 343 -101 
Q 509 69 738 141 
Q 609 238 542 384 
Q 475 531 475 697 
Q 475 997 666 1228 
Q 372 1516 372 1888 
Q 372 2088 458 2263 
Q 544 2438 697 2566 
Q 850 2694 1037 2761 
Q 1225 2828 1422 2828 
Q 1803 2828 2106 2606 
Q 2238 2747 2417 2823 
Q 2597 2900 2791 2900 
Q 2928 2900 3015 2801 
Q 3103 2703 3103 2566 
Q 3103 2488 3043 2428 
Q 2984 2369 2906 2369 
Q 2825 2369 2765 2428 
Q 2706 2488 2706 2566 
Q 2706 2684 2784 2731 
Q 2453 2731 2216 2503 
Q 2331 2388 2401 2220 
Q 2472 2053 2472 1888 
Q 2472 1616 2322 1398 
Q 2172 1181 1926 1061 
Q 1681 941 1422 941 
Q 1072 941 781 1131 
Q 691 1006 691 850 
Q 691 681 802 554 
Q 913 428 1081 428 
L 1606 428 
Q 1988 428 2294 359 
Q 2600 291 2808 84 
Q 3016 -122 3016 -500 
Q 3016 -781 2778 -967 
Q 2541 -1153 2211 -1236 
Q 1881 -1319 1600 -1319 
Q 1316 -1319 984 -1236 
Q 653 -1153 415 -967 
Q 178 -781 178 -500 
z
M 538 -500 
Q 538 -716 713 -861 
Q 888 -1006 1134 -1076 
Q 1381 -1147 1600 -1147 
Q 1816 -1147 2062 -1076 
Q 2309 -1006 2482 -861 
Q 2656 -716 2656 -500 
Q 2656 -166 2350 -67 
Q 2044 31 1606 31 
L 1081 31 
Q 934 31 811 -39 
Q 688 -109 613 -236 
Q 538 -363 538 -500 
z
M 1422 1113 
Q 1966 1113 1966 1888 
Q 1966 2222 1850 2439 
Q 1734 2656 1422 2656 
Q 1109 2656 993 2439 
Q 878 2222 878 1888 
Q 878 1675 922 1503 
Q 966 1331 1084 1222 
Q 1203 1113 1422 1113 
z
" transform="scale(0.015625)"/>
      <path id="Cmr10-3d" d="M 481 850 
Q 428 850 393 890 
Q 359 931 359 978 
Q 359 1031 393 1068 
Q 428 1106 481 1106 
L 4500 1106 
Q 4547 1106 4581 1068 
Q 4616 1031 4616 978 
Q 4616 931 4581 890 
Q 4547 850 4500 850 
L 481 850 
z
M 481 2094 
Q 428 2094 393 2131 
Q 359 2169 359 2222 
Q 359 2269 393 2309 
Q 428 2350 481 2350 
L 4500 2350 
Q 4547 2350 4581 2309 
Q 4616 2269 4616 2222 
Q 4616 2169 4581 2131 
Q 4547 2094 4500 2094 
L 481 2094 
z
" transform="scale(0.015625)"/>
      <path id="Cmsy10-a1" d="M 653 1472 
Q 600 1472 565 1512 
Q 531 1553 531 1600 
Q 531 1647 565 1687 
Q 600 1728 653 1728 
L 4325 1728 
Q 4375 1728 4408 1687 
Q 4441 1647 4441 1600 
Q 4441 1553 4408 1512 
Q 4375 1472 4325 1472 
L 653 1472 
z
" transform="scale(0.015625)"/>
      <path id="Cmr10-35" d="M 556 728 
Q 622 541 758 387 
Q 894 234 1080 148 
Q 1266 63 1466 63 
Q 1928 63 2103 422 
Q 2278 781 2278 1294 
Q 2278 1516 2270 1667 
Q 2263 1819 2228 1959 
Q 2169 2184 2020 2353 
Q 1872 2522 1656 2522 
Q 1441 2522 1286 2456 
Q 1131 2391 1034 2303 
Q 938 2216 863 2119 
Q 788 2022 769 2016 
L 697 2016 
Q 681 2016 657 2036 
Q 634 2056 634 2075 
L 634 4213 
Q 634 4228 654 4245 
Q 675 4263 697 4263 
L 716 4263 
Q 1147 4056 1631 4056 
Q 2106 4056 2547 4263 
L 2566 4263 
Q 2588 4263 2606 4247 
Q 2625 4231 2625 4213 
L 2625 4153 
Q 2625 4122 2613 4122 
Q 2394 3831 2064 3668 
Q 1734 3506 1381 3506 
Q 1125 3506 856 3578 
L 856 2369 
Q 1069 2541 1236 2614 
Q 1403 2688 1663 2688 
Q 2016 2688 2295 2484 
Q 2575 2281 2725 1954 
Q 2875 1628 2875 1288 
Q 2875 903 2686 575 
Q 2497 247 2172 53 
Q 1847 -141 1466 -141 
Q 1150 -141 886 21 
Q 622 184 470 459 
Q 319 734 319 1044 
Q 319 1188 412 1278 
Q 506 1369 647 1369 
Q 788 1369 883 1276 
Q 978 1184 978 1044 
Q 978 906 883 811 
Q 788 716 647 716 
Q 625 716 597 720 
Q 569 725 556 728 
z
" transform="scale(0.015625)"/>
      <path id="Cmmi10-3a" d="M 538 353 
Q 538 497 644 600 
Q 750 703 891 703 
Q 978 703 1062 656 
Q 1147 609 1194 525 
Q 1241 441 1241 353 
Q 1241 213 1137 106 
Q 1034 0 891 0 
Q 750 0 644 106 
Q 538 213 538 353 
z
" transform="scale(0.015625)"/>
      <path id="Cmr10-38" d="M 269 972 
Q 269 1356 522 1651 
Q 775 1947 1172 2144 
L 934 2297 
Q 716 2441 578 2680 
Q 441 2919 441 3181 
Q 441 3488 602 3734 
Q 763 3981 1030 4122 
Q 1297 4263 1600 4263 
Q 1884 4263 2148 4147 
Q 2413 4031 2583 3815 
Q 2753 3600 2753 3303 
Q 2753 3088 2651 2903 
Q 2550 2719 2373 2572 
Q 2197 2425 1997 2322 
L 2363 2088 
Q 2616 1922 2770 1653 
Q 2925 1384 2925 1088 
Q 2925 741 2739 456 
Q 2553 172 2247 15 
Q 1941 -141 1600 -141 
Q 1269 -141 961 -6 
Q 653 128 461 383 
Q 269 638 269 972 
z
M 616 972 
Q 616 719 755 509 
Q 894 300 1122 181 
Q 1350 63 1600 63 
Q 1972 63 2275 280 
Q 2578 497 2578 856 
Q 2578 978 2529 1098 
Q 2481 1219 2395 1317 
Q 2309 1416 2203 1478 
L 1344 2034 
Q 1144 1928 976 1765 
Q 809 1603 712 1400 
Q 616 1197 616 972 
z
M 1056 2925 
L 1831 2425 
Q 2100 2581 2272 2803 
Q 2444 3025 2444 3303 
Q 2444 3519 2323 3698 
Q 2203 3878 2009 3978 
Q 1816 4078 1594 4078 
Q 1400 4078 1203 4003 
Q 1006 3928 878 3779 
Q 750 3631 750 3431 
Q 750 3131 1056 2925 
z
" transform="scale(0.015625)"/>
      <path id="ArialMT-20" transform="scale(0.015625)"/>
      <path id="ArialMT-56" d="M 1803 0 
L 28 4581 
L 684 4581 
L 1875 1253 
Q 2019 853 2116 503 
Q 2222 878 2363 1253 
L 3600 4581 
L 4219 4581 
L 2425 0 
L 1803 0 
z
" transform="scale(0.015625)"/>
     </defs>
     <use xlink:href="#Cmmi10-56" transform="translate(0 0.421875)"/>
     <use xlink:href="#Cmr10-67" transform="translate(58.300781 -16.584375) scale(0.7)"/>
     <use xlink:href="#Cmr10-3d" transform="translate(117.236719 0.421875)"/>
     <use xlink:href="#Cmsy10-a1" transform="translate(230.039453 0.421875)"/>
     <use xlink:href="#Cmr10-35" transform="translate(325.283594 0.421875)"/>
     <use xlink:href="#Cmmi10-3a" transform="translate(375.283594 0.421875)"/>
     <use xlink:href="#Cmr10-38" transform="translate(402.969141 0.421875)"/>
     <use xlink:href="#ArialMT-20" transform="translate(452.969141 0.421875)"/>
     <use xlink:href="#ArialMT-56" transform="translate(480.752344 0.421875)"/>
    </g>
   </g>
  </g>
  <g id="axes_2">
   <g id="patch_7">
    <path d="M 57.81 130.652075 
L 155.460937 130.652075 
L 155.460937 55.383939 
L 57.81 55.383939 
L 57.81 130.652075 
z
" style="fill: none"/>
   </g>
   <g id="matplotlib.axis_3">
    <g id="xtick_6">
     <g id="line2d_11">
      <g>
       <use xlink:href="#m4f24845b63" x="62.248679" y="130.652075" style="stroke: #000000; stroke-width: 0.5"/>
      </g>
     </g>
     <g id="text_6">
      <!-- $-\pi$ -->
      <g transform="translate(56.625929 140.114533) scale(0.0833 -0.0833)">
       <defs>
        <path id="Cmmi10-bc" d="M 647 109 
Q 647 144 672 213 
Q 850 584 1004 942 
Q 1159 1300 1282 1639 
Q 1406 1978 1509 2363 
L 1100 2363 
Q 866 2363 662 2216 
Q 459 2069 325 1844 
Q 313 1819 288 1819 
L 213 1819 
Q 153 1819 153 1881 
Q 153 1894 166 1919 
Q 375 2275 614 2517 
Q 853 2759 1153 2759 
L 3475 2759 
Q 3541 2759 3587 2715 
Q 3634 2672 3634 2597 
Q 3634 2503 3567 2433 
Q 3500 2363 3406 2363 
L 2591 2363 
Q 2488 1859 2478 1381 
Q 2478 766 2694 269 
Q 2713 231 2713 191 
Q 2713 122 2672 62 
Q 2631 3 2567 -34 
Q 2503 -72 2431 -72 
Q 2263 -72 2200 203 
Q 2138 478 2138 738 
Q 2138 1103 2200 1442 
Q 2263 1781 2400 2363 
L 1703 2363 
Q 1197 313 1094 103 
Q 1003 -72 844 -72 
Q 766 -72 706 -20 
Q 647 31 647 109 
z
" transform="scale(0.015625)"/>
       </defs>
       <use xlink:href="#Cmsy10-a1" transform="translate(0 0.890625)"/>
       <use xlink:href="#Cmmi10-bc" transform="translate(77.685547 0.890625)"/>
      </g>
     </g>
    </g>
    <g id="xtick_7">
     <g id="line2d_12">
      <g>
       <use xlink:href="#m4f24845b63" x="85.407004" y="130.652075" style="stroke: #000000; stroke-width: 0.5"/>
      </g>
     </g>
     <g id="text_7">
      <!-- $-\frac{\pi}{2}$ -->
      <g transform="translate(79.950854 139.899775) scale(0.0833 -0.0833)">
       <defs>
        <path id="Cmr10-32" d="M 319 0 
L 319 172 
Q 319 188 331 206 
L 1325 1306 
Q 1550 1550 1690 1715 
Q 1831 1881 1968 2097 
Q 2106 2313 2186 2536 
Q 2266 2759 2266 3009 
Q 2266 3272 2169 3511 
Q 2072 3750 1880 3894 
Q 1688 4038 1416 4038 
Q 1138 4038 916 3870 
Q 694 3703 603 3438 
Q 628 3444 672 3444 
Q 816 3444 917 3347 
Q 1019 3250 1019 3097 
Q 1019 2950 917 2848 
Q 816 2747 672 2747 
Q 522 2747 420 2851 
Q 319 2956 319 3097 
Q 319 3338 409 3548 
Q 500 3759 670 3923 
Q 841 4088 1055 4175 
Q 1269 4263 1509 4263 
Q 1875 4263 2190 4108 
Q 2506 3953 2690 3670 
Q 2875 3388 2875 3009 
Q 2875 2731 2753 2481 
Q 2631 2231 2440 2026 
Q 2250 1822 1953 1562 
Q 1656 1303 1563 1216 
L 838 519 
L 1453 519 
Q 1906 519 2211 526 
Q 2516 534 2534 550 
Q 2609 631 2688 1141 
L 2875 1141 
L 2694 0 
L 319 0 
z
" transform="scale(0.015625)"/>
       </defs>
       <use xlink:href="#Cmsy10-a1" transform="translate(0 0.535938)"/>
       <use xlink:href="#Cmmi10-bc" transform="translate(77.685547 38.823437) scale(0.7)"/>
       <use xlink:href="#Cmr10-32" transform="translate(79.685547 -39.840625) scale(0.7)"/>
       <path d="M 77.685547 13.035937 
L 77.685547 19.285937 
L 117.573242 19.285937 
L 117.573242 13.035937 
L 77.685547 13.035937 
z
"/>
      </g>
     </g>
    </g>
    <g id="xtick_8">
     <g id="line2d_13">
      <g>
       <use xlink:href="#m4f24845b63" x="108.565329" y="130.652075" style="stroke: #000000; stroke-width: 0.5"/>
      </g>
     </g>
     <g id="text_8">
      <!-- 0 -->
      <g transform="translate(106.249198 140.114533) scale(0.0833 -0.0833)">
       <use xlink:href="#ArialMT-30"/>
      </g>
     </g>
    </g>
    <g id="xtick_9">
     <g id="line2d_14">
      <g>
       <use xlink:href="#m4f24845b63" x="131.723654" y="130.652075" style="stroke: #000000; stroke-width: 0.5"/>
      </g>
     </g>
     <g id="text_9">
      <!-- $\frac{\pi}{2}$ -->
      <g transform="translate(129.516204 139.899775) scale(0.0833 -0.0833)">
       <use xlink:href="#Cmmi10-bc" transform="translate(0 38.823437) scale(0.7)"/>
       <use xlink:href="#Cmr10-32" transform="translate(2 -39.840625) scale(0.7)"/>
       <path d="M 0 13.035937 
L 0 19.285937 
L 39.887695 19.285937 
L 39.887695 13.035937 
L 0 13.035937 
z
"/>
      </g>
     </g>
    </g>
    <g id="xtick_10">
     <g id="line2d_15">
      <g>
       <use xlink:href="#m4f24845b63" x="154.881979" y="130.652075" style="stroke: #000000; stroke-width: 0.5"/>
      </g>
     </g>
     <g id="text_10">
      <!-- $\pi$ -->
      <g transform="translate(152.507929 140.114533) scale(0.0833 -0.0833)">
       <use xlink:href="#Cmmi10-bc" transform="translate(0 0.890625)"/>
      </g>
     </g>
    </g>
    <g id="text_11">
     <!-- $\theta$ -->
     <g transform="translate(104.285468 154.472887) scale(0.1 -0.1)">
      <defs>
       <path id="Cmmi10-b5" d="M 1031 -72 
Q 741 -72 566 140 
Q 391 353 323 653 
Q 256 953 256 1247 
L 256 1253 
Q 256 1572 317 1915 
Q 378 2259 493 2601 
Q 609 2944 744 3213 
Q 838 3400 986 3631 
Q 1134 3863 1317 4064 
Q 1500 4266 1711 4389 
Q 1922 4513 2138 4513 
L 2144 4513 
Q 2375 4513 2529 4384 
Q 2684 4256 2770 4056 
Q 2856 3856 2890 3628 
Q 2925 3400 2925 3194 
Q 2925 2709 2794 2204 
Q 2663 1700 2431 1228 
Q 2344 1050 2189 809 
Q 2034 569 1861 378 
Q 1688 188 1472 58 
Q 1256 -72 1038 -72 
L 1031 -72 
z
M 1044 97 
Q 1256 97 1451 323 
Q 1647 550 1794 873 
Q 1941 1197 2052 1536 
Q 2163 1875 2216 2113 
L 909 2113 
Q 809 1709 753 1417 
Q 697 1125 697 844 
Q 697 97 1044 97 
z
M 959 2338 
L 2272 2338 
Q 2341 2619 2381 2808 
Q 2422 2997 2450 3206 
Q 2478 3416 2478 3597 
Q 2478 4347 2138 4347 
Q 1731 4347 1436 3692 
Q 1141 3038 959 2338 
z
" transform="scale(0.015625)"/>
      </defs>
      <use xlink:href="#Cmmi10-b5" transform="translate(0 0.484375)"/>
     </g>
    </g>
   </g>
   <g id="matplotlib.axis_4">
    <g id="ytick_4">
     <g id="line2d_16">
      <g>
       <use xlink:href="#m3a4a8a51e0" x="57.81" y="129.349532" style="stroke: #000000; stroke-width: 0.5"/>
      </g>
     </g>
     <g id="text_12">
      <!-- −0.010 -->
      <g transform="translate(28.601538 132.330761) scale(0.0833 -0.0833)">
       <defs>
        <path id="ArialMT-31" d="M 2384 0 
L 1822 0 
L 1822 3584 
Q 1619 3391 1289 3197 
Q 959 3003 697 2906 
L 697 3450 
Q 1169 3672 1522 3987 
Q 1875 4303 2022 4600 
L 2384 4600 
L 2384 0 
z
" transform="scale(0.015625)"/>
       </defs>
       <use xlink:href="#ArialMT-2212"/>
       <use xlink:href="#ArialMT-30" x="58.398438"/>
       <use xlink:href="#ArialMT-2e" x="114.013672"/>
       <use xlink:href="#ArialMT-30" x="141.796875"/>
       <use xlink:href="#ArialMT-31" x="197.412109"/>
       <use xlink:href="#ArialMT-30" x="253.027344"/>
      </g>
     </g>
    </g>
    <g id="ytick_5">
     <g id="line2d_17">
      <g>
       <use xlink:href="#m3a4a8a51e0" x="57.81" y="110.043474" style="stroke: #000000; stroke-width: 0.5"/>
      </g>
     </g>
     <g id="text_13">
      <!-- −0.005 -->
      <g transform="translate(28.601538 113.024703) scale(0.0833 -0.0833)">
       <use xlink:href="#ArialMT-2212"/>
       <use xlink:href="#ArialMT-30" x="58.398438"/>
       <use xlink:href="#ArialMT-2e" x="114.013672"/>
       <use xlink:href="#ArialMT-30" x="141.796875"/>
       <use xlink:href="#ArialMT-30" x="197.412109"/>
       <use xlink:href="#ArialMT-35" x="253.027344"/>
      </g>
     </g>
    </g>
    <g id="ytick_6">
     <g id="line2d_18">
      <g>
       <use xlink:href="#m3a4a8a51e0" x="57.81" y="90.737416" style="stroke: #000000; stroke-width: 0.5"/>
      </g>
     </g>
     <g id="text_14">
      <!-- 0.000 -->
      <g transform="translate(33.466778 93.718645) scale(0.0833 -0.0833)">
       <use xlink:href="#ArialMT-30"/>
       <use xlink:href="#ArialMT-2e" x="55.615234"/>
       <use xlink:href="#ArialMT-30" x="83.398438"/>
       <use xlink:href="#ArialMT-30" x="139.013672"/>
       <use xlink:href="#ArialMT-30" x="194.628906"/>
      </g>
     </g>
    </g>
    <g id="ytick_7">
     <g id="line2d_19">
      <g>
       <use xlink:href="#m3a4a8a51e0" x="57.81" y="71.431358" style="stroke: #000000; stroke-width: 0.5"/>
      </g>
     </g>
     <g id="text_15">
      <!-- 0.005 -->
      <g transform="translate(33.466778 74.412587) scale(0.0833 -0.0833)">
       <use xlink:href="#ArialMT-30"/>
       <use xlink:href="#ArialMT-2e" x="55.615234"/>
       <use xlink:href="#ArialMT-30" x="83.398438"/>
       <use xlink:href="#ArialMT-30" x="139.013672"/>
       <use xlink:href="#ArialMT-35" x="194.628906"/>
      </g>
     </g>
    </g>
    <g id="text_16">
     <!-- $\eta$ -->
     <g transform="translate(22.401538 95.518007) rotate(-90) scale(0.1 -0.1)">
      <defs>
       <path id="Cmmi10-b4" d="M 684 -72 
Q 606 -72 550 -22 
Q 494 28 494 109 
Q 494 147 500 166 
L 978 2075 
Q 1025 2253 1025 2388 
Q 1025 2663 838 2663 
Q 638 2663 541 2423 
Q 444 2184 353 1819 
Q 353 1800 334 1789 
Q 316 1778 300 1778 
L 225 1778 
Q 203 1778 187 1801 
Q 172 1825 172 1844 
Q 241 2122 305 2315 
Q 369 2509 505 2668 
Q 641 2828 844 2828 
Q 1081 2828 1267 2678 
Q 1453 2528 1453 2291 
Q 1641 2541 1894 2684 
Q 2147 2828 2444 2828 
Q 2778 2828 2979 2648 
Q 3181 2469 3181 2138 
Q 3181 1947 3138 1784 
L 2394 -1178 
Q 2375 -1269 2300 -1325 
Q 2225 -1381 2131 -1381 
Q 2053 -1381 1997 -1332 
Q 1941 -1284 1941 -1203 
Q 1941 -1166 1947 -1153 
L 2681 1797 
Q 2747 2059 2747 2234 
Q 2747 2413 2672 2538 
Q 2597 2663 2431 2663 
Q 1803 2663 1388 1888 
L 953 141 
Q 931 53 854 -9 
Q 778 -72 684 -72 
z
" transform="scale(0.015625)"/>
      </defs>
      <use xlink:href="#Cmmi10-b4" transform="translate(0 0.8125)"/>
     </g>
    </g>
   </g>
   <g id="LineCollection_2">
    <path d="M 131.723654 64.449926 
L 131.723654 60.906555 
" clip-path="url(#p2d95bd47fe)" style="fill: none; stroke: #1f77b4"/>
    <path d="M 135.583375 66.456959 
L 135.583375 63.369704 
" clip-path="url(#p2d95bd47fe)" style="fill: none; stroke: #1f77b4"/>
    <path d="M 139.443095 72.18329 
L 139.443095 68.779556 
" clip-path="url(#p2d95bd47fe)" style="fill: none; stroke: #1f77b4"/>
    <path d="M 143.302816 79.095373 
L 143.302816 75.806969 
" clip-path="url(#p2d95bd47fe)" style="fill: none; stroke: #1f77b4"/>
    <path d="M 147.162537 85.581612 
L 147.162537 83.048139 
" clip-path="url(#p2d95bd47fe)" style="fill: none; stroke: #1f77b4"/>
    <path d="M 151.022258 93.71772 
L 151.022258 90.337657 
" clip-path="url(#p2d95bd47fe)" style="fill: none; stroke: #1f77b4"/>
    <path d="M 62.248679 102.889063 
L 62.248679 99.722428 
" clip-path="url(#p2d95bd47fe)" style="fill: none; stroke: #1f77b4"/>
    <path d="M 66.1084 113.151009 
L 66.1084 110.530226 
" clip-path="url(#p2d95bd47fe)" style="fill: none; stroke: #1f77b4"/>
    <path d="M 69.968121 119.662098 
L 69.968121 116.956614 
" clip-path="url(#p2d95bd47fe)" style="fill: none; stroke: #1f77b4"/>
    <path d="M 73.827841 123.733785 
L 73.827841 121.140823 
" clip-path="url(#p2d95bd47fe)" style="fill: none; stroke: #1f77b4"/>
    <path d="M 77.687562 126.32601 
L 77.687562 123.213304 
" clip-path="url(#p2d95bd47fe)" style="fill: none; stroke: #1f77b4"/>
    <path d="M 81.547283 127.230796 
L 81.547283 125.179361 
" clip-path="url(#p2d95bd47fe)" style="fill: none; stroke: #1f77b4"/>
    <path d="M 85.407004 125.504791 
L 85.407004 123.043907 
" clip-path="url(#p2d95bd47fe)" style="fill: none; stroke: #1f77b4"/>
    <path d="M 89.266725 122.761705 
L 89.266725 119.767024 
" clip-path="url(#p2d95bd47fe)" style="fill: none; stroke: #1f77b4"/>
    <path d="M 93.126446 117.856303 
L 93.126446 115.665299 
" clip-path="url(#p2d95bd47fe)" style="fill: none; stroke: #1f77b4"/>
    <path d="M 96.986166 111.739646 
L 96.986166 109.17012 
" clip-path="url(#p2d95bd47fe)" style="fill: none; stroke: #1f77b4"/>
    <path d="M 100.845887 104.036296 
L 100.845887 102.022359 
" clip-path="url(#p2d95bd47fe)" style="fill: none; stroke: #1f77b4"/>
    <path d="M 104.705608 95.734798 
L 104.705608 92.718505 
" clip-path="url(#p2d95bd47fe)" style="fill: none; stroke: #1f77b4"/>
    <path d="M 108.565329 85.700479 
L 108.565329 82.863329 
" clip-path="url(#p2d95bd47fe)" style="fill: none; stroke: #1f77b4"/>
    <path d="M 112.42505 77.380125 
L 112.42505 74.799065 
" clip-path="url(#p2d95bd47fe)" style="fill: none; stroke: #1f77b4"/>
    <path d="M 116.28477 70.838995 
L 116.28477 68.12074 
" clip-path="url(#p2d95bd47fe)" style="fill: none; stroke: #1f77b4"/>
    <path d="M 120.144491 64.867818 
L 120.144491 62.498871 
" clip-path="url(#p2d95bd47fe)" style="fill: none; stroke: #1f77b4"/>
    <path d="M 124.004212 62.044263 
L 124.004212 59.269992 
" clip-path="url(#p2d95bd47fe)" style="fill: none; stroke: #1f77b4"/>
    <path d="M 127.863933 62.040517 
L 127.863933 58.805218 
" clip-path="url(#p2d95bd47fe)" style="fill: none; stroke: #1f77b4"/>
    <path d="M 131.723654 62.709235 
L 131.723654 60.243123 
" clip-path="url(#p2d95bd47fe)" style="fill: none; stroke: #1f77b4"/>
   </g>
   <g id="line2d_20">
    <path d="M 62.248679 102.03711 
L 63.145382 104.134602 
L 64.042085 106.190702 
L 64.938787 108.193061 
L 65.83549 110.129741 
L 66.732193 111.989407 
L 67.628896 113.76151 
L 68.525599 115.436445 
L 69.422301 117.005692 
L 70.319004 118.461921 
L 71.215707 119.79907 
L 72.11241 121.012393 
L 73.009113 122.098466 
L 73.905816 123.055172 
L 74.802518 123.881636 
L 75.699221 124.578148 
L 76.595924 125.146046 
L 77.492627 125.587584 
L 78.38933 125.905778 
L 79.286032 126.104239 
L 80.182735 126.187002 
L 81.079438 126.158355 
L 81.976141 126.022666 
L 82.872844 125.78423 
L 83.769547 125.447122 
L 84.666249 125.015081 
L 85.562952 124.491412 
L 86.459655 123.878913 
L 87.356358 123.179843 
L 88.253061 122.395908 
L 89.149763 121.528288 
L 90.046466 120.577685 
L 90.943169 119.54441 
L 91.839872 118.428482 
L 92.736575 117.229757 
L 93.633278 115.948073 
L 94.52998 114.583396 
L 95.426683 113.135988 
L 96.323386 111.606556 
L 97.220089 109.996409 
L 98.116792 108.307596 
L 99.013494 106.543028 
L 99.910197 104.706579 
L 100.8069 102.803157 
L 101.703603 100.838752 
L 102.600306 98.820445 
L 103.497009 96.756392 
L 104.393711 94.655766 
L 105.290414 92.528677 
L 106.187117 90.386053 
L 107.08382 88.239501 
L 107.980523 86.101138 
L 108.877225 83.983411 
L 109.773928 81.898899 
L 110.670631 79.860108 
L 111.567334 77.879266 
L 112.464037 75.968125 
L 113.36074 74.137764 
L 114.257442 72.398421 
L 115.154145 70.759339 
L 116.050848 69.228635 
L 116.947551 67.813204 
L 117.844254 66.518654 
L 118.740956 65.349271 
L 119.637659 64.30802 
L 120.534362 63.396578 
L 121.431065 62.615403 
L 122.327768 61.963828 
L 123.22447 61.440179 
L 124.121173 61.041919 
L 125.017876 60.765807 
L 125.914579 60.608063 
L 126.811282 60.564545 
L 127.707985 60.630918 
L 128.604687 60.802824 
L 129.50139 61.076029 
L 130.398093 61.44656 
L 131.294796 61.910822 
L 132.191499 62.465679 
L 133.088201 63.108517 
L 133.984904 63.837271 
L 134.881607 64.650422 
L 135.77831 65.546964 
L 136.675013 66.52634 
L 137.571716 67.588355 
L 138.468418 68.733062 
L 139.365121 69.960627 
L 140.261824 71.271186 
L 141.158527 72.664688 
L 142.05523 74.140734 
L 142.951932 75.698424 
L 143.848635 77.336207 
L 144.745338 79.051747 
L 145.642041 80.841808 
L 146.538744 82.702163 
L 147.435447 84.627532 
L 148.332149 86.611544 
L 149.228852 88.646741 
L 150.125555 90.724606 
L 151.022258 92.835627 
" clip-path="url(#p2d95bd47fe)" style="fill: none; stroke: #ff7f0e; stroke-linecap: square"/>
   </g>
   <g id="line2d_21">
    <g clip-path="url(#p2d95bd47fe)">
     <use xlink:href="#m64057b7525" x="131.723654" y="62.67824" style="fill: #1f77b4; stroke: #1f77b4; stroke-width: 0.5"/>
     <use xlink:href="#m64057b7525" x="135.583375" y="64.913331" style="fill: #1f77b4; stroke: #1f77b4; stroke-width: 0.5"/>
     <use xlink:href="#m64057b7525" x="139.443095" y="70.481423" style="fill: #1f77b4; stroke: #1f77b4; stroke-width: 0.5"/>
     <use xlink:href="#m64057b7525" x="143.302816" y="77.451171" style="fill: #1f77b4; stroke: #1f77b4; stroke-width: 0.5"/>
     <use xlink:href="#m64057b7525" x="147.162537" y="84.314876" style="fill: #1f77b4; stroke: #1f77b4; stroke-width: 0.5"/>
     <use xlink:href="#m64057b7525" x="151.022258" y="92.027688" style="fill: #1f77b4; stroke: #1f77b4; stroke-width: 0.5"/>
     <use xlink:href="#m64057b7525" x="62.248679" y="101.305746" style="fill: #1f77b4; stroke: #1f77b4; stroke-width: 0.5"/>
     <use xlink:href="#m64057b7525" x="66.1084" y="111.840618" style="fill: #1f77b4; stroke: #1f77b4; stroke-width: 0.5"/>
     <use xlink:href="#m64057b7525" x="69.968121" y="118.309356" style="fill: #1f77b4; stroke: #1f77b4; stroke-width: 0.5"/>
     <use xlink:href="#m64057b7525" x="73.827841" y="122.437304" style="fill: #1f77b4; stroke: #1f77b4; stroke-width: 0.5"/>
     <use xlink:href="#m64057b7525" x="77.687562" y="124.769657" style="fill: #1f77b4; stroke: #1f77b4; stroke-width: 0.5"/>
     <use xlink:href="#m64057b7525" x="81.547283" y="126.205078" style="fill: #1f77b4; stroke: #1f77b4; stroke-width: 0.5"/>
     <use xlink:href="#m64057b7525" x="85.407004" y="124.274349" style="fill: #1f77b4; stroke: #1f77b4; stroke-width: 0.5"/>
     <use xlink:href="#m64057b7525" x="89.266725" y="121.264365" style="fill: #1f77b4; stroke: #1f77b4; stroke-width: 0.5"/>
     <use xlink:href="#m64057b7525" x="93.126446" y="116.760801" style="fill: #1f77b4; stroke: #1f77b4; stroke-width: 0.5"/>
     <use xlink:href="#m64057b7525" x="96.986166" y="110.454883" style="fill: #1f77b4; stroke: #1f77b4; stroke-width: 0.5"/>
     <use xlink:href="#m64057b7525" x="100.845887" y="103.029328" style="fill: #1f77b4; stroke: #1f77b4; stroke-width: 0.5"/>
     <use xlink:href="#m64057b7525" x="104.705608" y="94.226652" style="fill: #1f77b4; stroke: #1f77b4; stroke-width: 0.5"/>
     <use xlink:href="#m64057b7525" x="108.565329" y="84.281904" style="fill: #1f77b4; stroke: #1f77b4; stroke-width: 0.5"/>
     <use xlink:href="#m64057b7525" x="112.42505" y="76.089595" style="fill: #1f77b4; stroke: #1f77b4; stroke-width: 0.5"/>
     <use xlink:href="#m64057b7525" x="116.28477" y="69.479867" style="fill: #1f77b4; stroke: #1f77b4; stroke-width: 0.5"/>
     <use xlink:href="#m64057b7525" x="120.144491" y="63.683345" style="fill: #1f77b4; stroke: #1f77b4; stroke-width: 0.5"/>
     <use xlink:href="#m64057b7525" x="124.004212" y="60.657128" style="fill: #1f77b4; stroke: #1f77b4; stroke-width: 0.5"/>
     <use xlink:href="#m64057b7525" x="127.863933" y="60.422868" style="fill: #1f77b4; stroke: #1f77b4; stroke-width: 0.5"/>
     <use xlink:href="#m64057b7525" x="131.723654" y="61.476179" style="fill: #1f77b4; stroke: #1f77b4; stroke-width: 0.5"/>
    </g>
   </g>
   <g id="patch_8">
    <path d="M 57.81 130.652075 
L 57.81 55.383939 
" style="fill: none; stroke: #000000; stroke-width: 0.5; stroke-linejoin: miter; stroke-linecap: square"/>
   </g>
   <g id="patch_9">
    <path d="M 155.460937 130.652075 
L 155.460937 55.383939 
" style="fill: none; stroke: #000000; stroke-width: 0.5; stroke-linejoin: miter; stroke-linecap: square"/>
   </g>
   <g id="patch_10">
    <path d="M 57.81 130.652075 
L 155.460937 130.652075 
" style="fill: none; stroke: #000000; stroke-width: 0.5; stroke-linejoin: miter; stroke-linecap: square"/>
   </g>
   <g id="patch_11">
    <path d="M 57.81 55.383939 
L 155.460937 55.383939 
" style="fill: none; stroke: #000000; stroke-width: 0.5; stroke-linejoin: miter; stroke-linecap: square"/>
   </g>
   <g id="legend_1">
    <g id="patch_12">
     <path d="M 62.668 80.569633 
L 105.318637 80.569633 
Q 106.706637 80.569633 106.706637 79.181633 
L 106.706637 60.241939 
Q 106.706637 58.853939 105.318637 58.853939 
L 62.668 58.853939 
Q 61.28 58.853939 61.28 60.241939 
L 61.28 79.181633 
Q 61.28 80.569633 62.668 80.569633 
z
" style="fill: #ffffff; opacity: 0.8; stroke: #cccccc; stroke-linejoin: miter"/>
    </g>
    <g id="line2d_22">
     <path d="M 64.056 64.168461 
L 70.996 64.168461 
L 77.936 64.168461 
" style="fill: none; stroke: #ff7f0e; stroke-linecap: square"/>
    </g>
    <g id="text_17">
     <!-- best fit -->
     <g transform="translate(83.488 66.597461) scale(0.0694 -0.0694)">
      <defs>
       <path id="ArialMT-62" d="M 941 0 
L 419 0 
L 419 4581 
L 981 4581 
L 981 2947 
Q 1338 3394 1891 3394 
Q 2197 3394 2470 3270 
Q 2744 3147 2920 2923 
Q 3097 2700 3197 2384 
Q 3297 2069 3297 1709 
Q 3297 856 2875 390 
Q 2453 -75 1863 -75 
Q 1275 -75 941 416 
L 941 0 
z
M 934 1684 
Q 934 1088 1097 822 
Q 1363 388 1816 388 
Q 2184 388 2453 708 
Q 2722 1028 2722 1663 
Q 2722 2313 2464 2622 
Q 2206 2931 1841 2931 
Q 1472 2931 1203 2611 
Q 934 2291 934 1684 
z
" transform="scale(0.015625)"/>
       <path id="ArialMT-74" d="M 1650 503 
L 1731 6 
Q 1494 -44 1306 -44 
Q 1000 -44 831 53 
Q 663 150 594 308 
Q 525 466 525 972 
L 525 2881 
L 113 2881 
L 113 3319 
L 525 3319 
L 525 4141 
L 1084 4478 
L 1084 3319 
L 1650 3319 
L 1650 2881 
L 1084 2881 
L 1084 941 
Q 1084 700 1114 631 
Q 1144 563 1211 522 
Q 1278 481 1403 481 
Q 1497 481 1650 503 
z
" transform="scale(0.015625)"/>
       <path id="ArialMT-66" d="M 556 0 
L 556 2881 
L 59 2881 
L 59 3319 
L 556 3319 
L 556 3672 
Q 556 4006 616 4169 
Q 697 4388 901 4523 
Q 1106 4659 1475 4659 
Q 1713 4659 2000 4603 
L 1916 4113 
Q 1741 4144 1584 4144 
Q 1328 4144 1222 4034 
Q 1116 3925 1116 3625 
L 1116 3319 
L 1763 3319 
L 1763 2881 
L 1116 2881 
L 1116 0 
L 556 0 
z
" transform="scale(0.015625)"/>
      </defs>
      <use xlink:href="#ArialMT-62"/>
      <use xlink:href="#ArialMT-65" x="55.615234"/>
      <use xlink:href="#ArialMT-73" x="111.230469"/>
      <use xlink:href="#ArialMT-74" x="161.230469"/>
      <use xlink:href="#ArialMT-20" x="189.013672"/>
      <use xlink:href="#ArialMT-66" x="216.796875"/>
      <use xlink:href="#ArialMT-69" x="244.580078"/>
      <use xlink:href="#ArialMT-74" x="266.796875"/>
     </g>
    </g>
    <g id="LineCollection_3">
     <path d="M 70.996 77.455308 
L 70.996 70.515308 
" style="fill: none; stroke: #1f77b4"/>
    </g>
    <g id="line2d_23"/>
    <g id="line2d_24">
     <g>
      <use xlink:href="#m64057b7525" x="70.996" y="73.985308" style="fill: #1f77b4; stroke: #1f77b4; stroke-width: 0.5"/>
     </g>
    </g>
    <g id="text_18">
     <!-- data -->
     <g transform="translate(83.488 76.414308) scale(0.0694 -0.0694)">
      <use xlink:href="#ArialMT-64"/>
      <use xlink:href="#ArialMT-61" x="55.615234"/>
      <use xlink:href="#ArialMT-74" x="111.230469"/>
      <use xlink:href="#ArialMT-61" x="139.013672"/>
     </g>
    </g>
   </g>
  </g>
 </g>
 <defs>
  <clipPath id="p2ac9a8eece">
   <rect x="57.81" y="24.3888" width="97.650937" height="18.817034"/>
  </clipPath>
  <clipPath id="p2d95bd47fe">
   <rect x="57.81" y="55.383939" width="97.650937" height="75.268136"/>
  </clipPath>
 </defs>
</svg>
