<?xml version="1.0" encoding="utf-8" standalone="no"?>
<!DOCTYPE svg PUBLIC "-//W3C//DTD SVG 1.1//EN"
  "http://www.w3.org/Graphics/SVG/1.1/DTD/svg11.dtd">
<svg xmlns:xlink="http://www.w3.org/1999/xlink" width="134.4pt" height="155.744565pt" viewBox="0 0 134.4 155.744565" xmlns="http://www.w3.org/2000/svg" version="1.1">
 <metadata>
  <rdf:RDF xmlns:dc="http://purl.org/dc/elements/1.1/" xmlns:cc="http://creativecommons.org/ns#" xmlns:rdf="http://www.w3.org/1999/02/22-rdf-syntax-ns#">
   <cc:Work>
    <dc:type rdf:resource="http://purl.org/dc/dcmitype/StillImage"/>
    <dc:date>2025-12-30T15:59:50.641971</dc:date>
    <dc:format>image/svg+xml</dc:format>
    <dc:creator>
     <cc:Agent>
      <dc:title>Matplotlib v3.8.4, https://matplotlib.org/</dc:title>
     </cc:Agent>
    </dc:creator>
   </cc:Work>
  </rdf:RDF>
 </metadata>
 <defs>
  <style type="text/css">*{stroke-linejoin: round; stroke-linecap: butt}</style>
 </defs>
 <g id="figure_1">
  <g id="patch_1">
   <path d="M 0 155.744565 
L 134.4 155.744565 
L 134.4 0 
L 0 0 
L 0 155.744565 
z
" style="fill: none"/>
  </g>
  <g id="axes_1">
   <g id="patch_2">
    <path d="M 34.657666 65.015754 
L 131.39976 65.015754 
L 131.39976 5.282099 
L 34.657666 5.282099 
L 34.657666 65.015754 
z
" style="fill: none"/>
   </g>
   <g id="matplotlib.axis_1">
    <g id="xtick_1">
     <g id="line2d_1">
      <defs>
       <path id="me8e2fbd05f" d="M 0 0 
L 0 -2 
" style="stroke: #000000; stroke-width: 0.5"/>
      </defs>
      <g>
       <use xlink:href="#me8e2fbd05f" x="45.820216" y="65.015754" style="stroke: #000000; stroke-width: 0.5"/>
      </g>
     </g>
     <g id="line2d_2">
      <defs>
       <path id="md25c183ef9" d="M 0 0 
L 0 2 
" style="stroke: #000000; stroke-width: 0.5"/>
      </defs>
      <g>
       <use xlink:href="#md25c183ef9" x="45.820216" y="5.282099" style="stroke: #000000; stroke-width: 0.5"/>
      </g>
     </g>
    </g>
    <g id="xtick_2">
     <g id="line2d_3">
      <g>
       <use xlink:href="#me8e2fbd05f" x="72.880941" y="65.015754" style="stroke: #000000; stroke-width: 0.5"/>
      </g>
     </g>
     <g id="line2d_4">
      <g>
       <use xlink:href="#md25c183ef9" x="72.880941" y="5.282099" style="stroke: #000000; stroke-width: 0.5"/>
      </g>
     </g>
    </g>
    <g id="xtick_3">
     <g id="line2d_5">
      <g>
       <use xlink:href="#me8e2fbd05f" x="99.941667" y="65.015754" style="stroke: #000000; stroke-width: 0.5"/>
      </g>
     </g>
     <g id="line2d_6">
      <g>
       <use xlink:href="#md25c183ef9" x="99.941667" y="5.282099" style="stroke: #000000; stroke-width: 0.5"/>
      </g>
     </g>
    </g>
    <g id="xtick_4">
     <g id="line2d_7">
      <g>
       <use xlink:href="#me8e2fbd05f" x="127.002392" y="65.015754" style="stroke: #000000; stroke-width: 0.5"/>
      </g>
     </g>
     <g id="line2d_8">
      <g>
       <use xlink:href="#md25c183ef9" x="127.002392" y="5.282099" style="stroke: #000000; stroke-width: 0.5"/>
      </g>
     </g>
    </g>
   </g>
   <g id="matplotlib.axis_2">
    <g id="ytick_1">
     <g id="line2d_9">
      <defs>
       <path id="mc16fd3fbb9" d="M 0 0 
L 2 0 
" style="stroke: #000000; stroke-width: 0.5"/>
      </defs>
      <g>
       <use xlink:href="#mc16fd3fbb9" x="34.657666" y="48.409982" style="stroke: #000000; stroke-width: 0.5"/>
      </g>
     </g>
     <g id="line2d_10">
      <defs>
       <path id="mdad8f6a2e1" d="M 0 0 
L -2 0 
" style="stroke: #000000; stroke-width: 0.5"/>
      </defs>
      <g>
       <use xlink:href="#mdad8f6a2e1" x="131.39976" y="48.409982" style="stroke: #000000; stroke-width: 0.5"/>
      </g>
     </g>
     <g id="text_1">
      <!-- 0 -->
      <g transform="translate(27.451857 50.794965) scale(0.06664 -0.06664)">
       <defs>
        <path id="ArialMT-30" d="M 266 2259 
Q 266 3072 433 3567 
Q 600 4063 929 4331 
Q 1259 4600 1759 4600 
Q 2128 4600 2406 4451 
Q 2684 4303 2865 4023 
Q 3047 3744 3150 3342 
Q 3253 2941 3253 2259 
Q 3253 1453 3087 958 
Q 2922 463 2592 192 
Q 2263 -78 1759 -78 
Q 1097 -78 719 397 
Q 266 969 266 2259 
z
M 844 2259 
Q 844 1131 1108 757 
Q 1372 384 1759 384 
Q 2147 384 2411 759 
Q 2675 1134 2675 2259 
Q 2675 3391 2411 3762 
Q 2147 4134 1753 4134 
Q 1366 4134 1134 3806 
Q 844 3388 844 2259 
z
" transform="scale(0.015625)"/>
       </defs>
       <use xlink:href="#ArialMT-30"/>
      </g>
     </g>
    </g>
    <g id="ytick_2">
     <g id="line2d_11">
      <g>
       <use xlink:href="#mc16fd3fbb9" x="34.657666" y="26.897606" style="stroke: #000000; stroke-width: 0.5"/>
      </g>
     </g>
     <g id="line2d_12">
      <g>
       <use xlink:href="#mdad8f6a2e1" x="131.39976" y="26.897606" style="stroke: #000000; stroke-width: 0.5"/>
      </g>
     </g>
     <g id="text_2">
      <!-- 50 -->
      <g transform="translate(23.746049 29.282589) scale(0.06664 -0.06664)">
       <defs>
        <path id="ArialMT-35" d="M 266 1200 
L 856 1250 
Q 922 819 1161 601 
Q 1400 384 1738 384 
Q 2144 384 2425 690 
Q 2706 997 2706 1503 
Q 2706 1984 2436 2262 
Q 2166 2541 1728 2541 
Q 1456 2541 1237 2417 
Q 1019 2294 894 2097 
L 366 2166 
L 809 4519 
L 3088 4519 
L 3088 3981 
L 1259 3981 
L 1013 2750 
Q 1425 3038 1878 3038 
Q 2478 3038 2890 2622 
Q 3303 2206 3303 1553 
Q 3303 931 2941 478 
Q 2500 -78 1738 -78 
Q 1113 -78 717 272 
Q 322 622 266 1200 
z
" transform="scale(0.015625)"/>
       </defs>
       <use xlink:href="#ArialMT-35"/>
       <use xlink:href="#ArialMT-30" x="55.615234"/>
      </g>
     </g>
    </g>
    <g id="ytick_3">
     <g id="line2d_13">
      <g>
       <use xlink:href="#mc16fd3fbb9" x="34.657666" y="5.385231" style="stroke: #000000; stroke-width: 0.5"/>
      </g>
     </g>
     <g id="line2d_14">
      <g>
       <use xlink:href="#mdad8f6a2e1" x="131.39976" y="5.385231" style="stroke: #000000; stroke-width: 0.5"/>
      </g>
     </g>
     <g id="text_3">
      <!-- 100 -->
      <g transform="translate(20.04024 7.770214) scale(0.06664 -0.06664)">
       <defs>
        <path id="ArialMT-31" d="M 2384 0 
L 1822 0 
L 1822 3584 
Q 1619 3391 1289 3197 
Q 959 3003 697 2906 
L 697 3450 
Q 1169 3672 1522 3987 
Q 1875 4303 2022 4600 
L 2384 4600 
L 2384 0 
z
" transform="scale(0.015625)"/>
       </defs>
       <use xlink:href="#ArialMT-31"/>
       <use xlink:href="#ArialMT-30" x="55.615234"/>
       <use xlink:href="#ArialMT-30" x="111.230469"/>
      </g>
     </g>
    </g>
    <g id="text_4">
     <!-- $\left.\frac{\partial\eta}{\partial B_\parallel}\right|_{B_\parallel=0}$ (%/T) -->
     <g transform="translate(11.00024 62.708926) rotate(-90) scale(0.08 -0.08)">
      <defs>
       <path id="STIXGeneral-Regular-2202" d="M 1248 4000 
L 1184 4128 
Q 1427 4275 1811 4275 
Q 3014 4275 3014 2611 
Q 3014 2298 2963 1965 
Q 2912 1632 2777 1261 
Q 2643 890 2438 598 
Q 2234 307 1894 118 
Q 1555 -70 1126 -70 
Q 685 -70 470 224 
Q 256 518 256 966 
Q 256 1664 739 2224 
Q 1222 2784 1901 2784 
Q 2342 2784 2515 2477 
Q 2560 2726 2560 2925 
Q 2560 3418 2365 3750 
Q 2170 4083 1722 4083 
Q 1510 4083 1248 4000 
z
M 2349 2042 
Q 2349 2323 2230 2457 
Q 2112 2592 1958 2592 
Q 1491 2592 1132 2013 
Q 774 1434 774 749 
Q 774 122 1203 122 
Q 1549 122 1827 499 
Q 2106 877 2253 1414 
Q 2349 1766 2349 2042 
z
" transform="scale(0.015625)"/>
       <path id="Cmmi10-b4" d="M 684 -72 
Q 606 -72 550 -22 
Q 494 28 494 109 
Q 494 147 500 166 
L 978 2075 
Q 1025 2253 1025 2388 
Q 1025 2663 838 2663 
Q 638 2663 541 2423 
Q 444 2184 353 1819 
Q 353 1800 334 1789 
Q 316 1778 300 1778 
L 225 1778 
Q 203 1778 187 1801 
Q 172 1825 172 1844 
Q 241 2122 305 2315 
Q 369 2509 505 2668 
Q 641 2828 844 2828 
Q 1081 2828 1267 2678 
Q 1453 2528 1453 2291 
Q 1641 2541 1894 2684 
Q 2147 2828 2444 2828 
Q 2778 2828 2979 2648 
Q 3181 2469 3181 2138 
Q 3181 1947 3138 1784 
L 2394 -1178 
Q 2375 -1269 2300 -1325 
Q 2225 -1381 2131 -1381 
Q 2053 -1381 1997 -1332 
Q 1941 -1284 1941 -1203 
Q 1941 -1166 1947 -1153 
L 2681 1797 
Q 2747 2059 2747 2234 
Q 2747 2413 2672 2538 
Q 2597 2663 2431 2663 
Q 1803 2663 1388 1888 
L 953 141 
Q 931 53 854 -9 
Q 778 -72 684 -72 
z
" transform="scale(0.015625)"/>
       <path id="Cmmi10-42" d="M 319 0 
Q 256 0 256 84 
Q 259 100 268 137 
Q 278 175 293 200 
Q 309 225 341 225 
Q 522 225 656 234 
Q 791 244 884 269 
Q 959 297 1006 441 
L 1881 3956 
Q 1894 4019 1894 4044 
Q 1894 4113 1819 4122 
Q 1697 4147 1356 4147 
Q 1294 4147 1294 4231 
Q 1297 4247 1306 4286 
Q 1316 4325 1333 4348 
Q 1350 4372 1375 4372 
L 3669 4372 
Q 3878 4372 4083 4320 
Q 4288 4269 4461 4156 
Q 4634 4044 4736 3876 
Q 4838 3709 4838 3488 
Q 4838 3247 4714 3040 
Q 4591 2834 4395 2681 
Q 4200 2528 3973 2429 
Q 3747 2331 3500 2284 
Q 3675 2284 3854 2215 
Q 4034 2147 4175 2028 
Q 4316 1909 4402 1743 
Q 4488 1578 4488 1388 
Q 4488 1003 4219 684 
Q 3950 366 3542 183 
Q 3134 0 2753 0 
L 319 0 
z
M 1497 275 
Q 1497 225 1716 225 
L 2631 225 
Q 2944 225 3231 398 
Q 3519 572 3692 859 
Q 3866 1147 3866 1459 
Q 3866 1650 3786 1820 
Q 3706 1991 3556 2089 
Q 3406 2188 3213 2188 
L 1966 2188 
L 1522 416 
Q 1497 328 1497 275 
z
M 2009 2356 
L 2981 2356 
Q 3288 2356 3577 2512 
Q 3866 2669 4048 2937 
Q 4231 3206 4231 3506 
Q 4231 3784 4057 3965 
Q 3884 4147 3609 4147 
L 2731 4147 
Q 2559 4147 2500 4115 
Q 2441 4084 2400 3928 
L 2009 2356 
z
" transform="scale(0.015625)"/>
       <path id="STIXGeneral-Regular-2225" d="M 2522 -1210 
L 2099 -1210 
L 2099 4416 
L 2522 4416 
L 2522 -1210 
z
M 1248 -1210 
L 826 -1210 
L 826 4416 
L 1248 4416 
L 1248 -1210 
z
" transform="scale(0.015625)"/>
       <path id="Cmsy10-6a" d="M 763 -1484 
L 763 4684 
Q 763 4734 800 4767 
Q 838 4800 891 4800 
Q 938 4800 978 4767 
Q 1019 4734 1019 4684 
L 1019 -1484 
Q 1019 -1534 978 -1567 
Q 938 -1600 891 -1600 
Q 838 -1600 800 -1567 
Q 763 -1534 763 -1484 
z
" transform="scale(0.015625)"/>
       <path id="Cmr10-3d" d="M 481 850 
Q 428 850 393 890 
Q 359 931 359 978 
Q 359 1031 393 1068 
Q 428 1106 481 1106 
L 4500 1106 
Q 4547 1106 4581 1068 
Q 4616 1031 4616 978 
Q 4616 931 4581 890 
Q 4547 850 4500 850 
L 481 850 
z
M 481 2094 
Q 428 2094 393 2131 
Q 359 2169 359 2222 
Q 359 2269 393 2309 
Q 428 2350 481 2350 
L 4500 2350 
Q 4547 2350 4581 2309 
Q 4616 2269 4616 2222 
Q 4616 2169 4581 2131 
Q 4547 2094 4500 2094 
L 481 2094 
z
" transform="scale(0.015625)"/>
       <path id="Cmr10-30" d="M 1600 -141 
Q 816 -141 533 504 
Q 250 1150 250 2041 
Q 250 2597 351 3087 
Q 453 3578 754 3920 
Q 1056 4263 1600 4263 
Q 2022 4263 2290 4056 
Q 2559 3850 2700 3523 
Q 2841 3197 2892 2823 
Q 2944 2450 2944 2041 
Q 2944 1491 2842 1011 
Q 2741 531 2444 195 
Q 2147 -141 1600 -141 
z
M 1600 25 
Q 1956 25 2131 390 
Q 2306 756 2347 1200 
Q 2388 1644 2388 2144 
Q 2388 2625 2347 3031 
Q 2306 3438 2132 3767 
Q 1959 4097 1600 4097 
Q 1238 4097 1063 3765 
Q 888 3434 847 3029 
Q 806 2625 806 2144 
Q 806 1788 823 1472 
Q 841 1156 916 820 
Q 991 484 1158 254 
Q 1325 25 1600 25 
z
" transform="scale(0.015625)"/>
       <path id="ArialMT-20" transform="scale(0.015625)"/>
       <path id="ArialMT-28" d="M 1497 -1347 
Q 1031 -759 709 28 
Q 388 816 388 1659 
Q 388 2403 628 3084 
Q 909 3875 1497 4659 
L 1900 4659 
Q 1522 4009 1400 3731 
Q 1209 3300 1100 2831 
Q 966 2247 966 1656 
Q 966 153 1900 -1347 
L 1497 -1347 
z
" transform="scale(0.015625)"/>
       <path id="ArialMT-25" d="M 372 3481 
Q 372 3972 619 4315 
Q 866 4659 1334 4659 
Q 1766 4659 2048 4351 
Q 2331 4044 2331 3447 
Q 2331 2866 2045 2552 
Q 1759 2238 1341 2238 
Q 925 2238 648 2547 
Q 372 2856 372 3481 
z
M 1350 4272 
Q 1141 4272 1002 4090 
Q 863 3909 863 3425 
Q 863 2984 1003 2804 
Q 1144 2625 1350 2625 
Q 1563 2625 1702 2806 
Q 1841 2988 1841 3469 
Q 1841 3913 1700 4092 
Q 1559 4272 1350 4272 
z
M 1353 -169 
L 3859 4659 
L 4316 4659 
L 1819 -169 
L 1353 -169 
z
M 3334 1075 
Q 3334 1569 3581 1911 
Q 3828 2253 4300 2253 
Q 4731 2253 5014 1945 
Q 5297 1638 5297 1041 
Q 5297 459 5011 145 
Q 4725 -169 4303 -169 
Q 3888 -169 3611 142 
Q 3334 453 3334 1075 
z
M 4316 1866 
Q 4103 1866 3964 1684 
Q 3825 1503 3825 1019 
Q 3825 581 3965 400 
Q 4106 219 4313 219 
Q 4528 219 4667 400 
Q 4806 581 4806 1063 
Q 4806 1506 4665 1686 
Q 4525 1866 4316 1866 
z
" transform="scale(0.015625)"/>
       <path id="ArialMT-2f" d="M 0 -78 
L 1328 4659 
L 1778 4659 
L 453 -78 
L 0 -78 
z
" transform="scale(0.015625)"/>
       <path id="ArialMT-54" d="M 1659 0 
L 1659 4041 
L 150 4041 
L 150 4581 
L 3781 4581 
L 3781 4041 
L 2266 4041 
L 2266 0 
L 1659 0 
z
" transform="scale(0.015625)"/>
       <path id="ArialMT-29" d="M 791 -1347 
L 388 -1347 
Q 1322 153 1322 1656 
Q 1322 2244 1188 2822 
Q 1081 3291 891 3722 
Q 769 4003 388 4659 
L 791 4659 
Q 1378 3875 1659 3084 
Q 1900 2403 1900 1659 
Q 1900 816 1576 28 
Q 1253 -759 791 -1347 
z
" transform="scale(0.015625)"/>
      </defs>
      <use xlink:href="#STIXGeneral-Regular-2202" transform="translate(33 53.2325) scale(0.7)"/>
      <use xlink:href="#Cmmi10-b4" transform="translate(65.969994 53.2325) scale(0.7)"/>
      <use xlink:href="#STIXGeneral-Regular-2202" transform="translate(0 -40.940938) scale(0.7)"/>
      <use xlink:href="#Cmmi10-42" transform="translate(32.969994 -40.940938) scale(0.7)"/>
      <use xlink:href="#STIXGeneral-Regular-2225" transform="translate(94.62058 -52.845313) scale(0.49)"/>
      <use xlink:href="#Cmsy10-6a" transform="translate(145.815425 -21.578125) scale(1.620997)"/>
      <use xlink:href="#Cmmi10-42" transform="translate(195.156107 -16.378438) scale(0.7)"/>
      <use xlink:href="#STIXGeneral-Regular-2225" transform="translate(256.806693 -28.282813) scale(0.49)"/>
      <use xlink:href="#Cmr10-3d" transform="translate(307.792554 -16.378438) scale(0.7)"/>
      <use xlink:href="#Cmr10-30" transform="translate(374.463452 -16.378438) scale(0.7)"/>
      <use xlink:href="#ArialMT-20" transform="translate(415.840796 0.627812)"/>
      <use xlink:href="#ArialMT-28" transform="translate(443.623999 0.627812)"/>
      <use xlink:href="#ArialMT-25" transform="translate(476.924781 0.627812)"/>
      <use xlink:href="#ArialMT-2f" transform="translate(565.840796 0.627812)"/>
      <use xlink:href="#ArialMT-54" transform="translate(593.623999 0.627812)"/>
      <use xlink:href="#ArialMT-29" transform="translate(654.707984 0.627812)"/>
      <path d="M 0 13.127812 
L 0 19.377812 
L 133.315425 19.377812 
L 133.315425 13.127812 
L 0 13.127812 
z
"/>
     </g>
    </g>
   </g>
   <g id="line2d_15">
    <path d="M 34.657666 48.409982 
L 131.39976 48.409982 
" clip-path="url(#pf2d8481ad4)" style="fill: none; stroke: #000000; stroke-width: 0.5; stroke-linecap: square"/>
   </g>
   <g id="LineCollection_1">
    <path d="M 45.820216 19.151605 
L 45.820216 18.173284 
" clip-path="url(#pf2d8481ad4)" style="fill: none; stroke: #2ca02c; stroke-width: 0.5"/>
    <path d="M 52.585397 35.797591 
L 52.585397 35.334351 
" clip-path="url(#pf2d8481ad4)" style="fill: none; stroke: #2ca02c; stroke-width: 0.5"/>
    <path d="M 59.350578 49.013813 
L 59.350578 48.515714 
" clip-path="url(#pf2d8481ad4)" style="fill: none; stroke: #2ca02c; stroke-width: 0.5"/>
    <path d="M 66.11576 57.936177 
L 66.11576 57.311297 
" clip-path="url(#pf2d8481ad4)" style="fill: none; stroke: #2ca02c; stroke-width: 0.5"/>
    <path d="M 72.880941 55.506451 
L 72.880941 54.688978 
" clip-path="url(#pf2d8481ad4)" style="fill: none; stroke: #2ca02c; stroke-width: 0.5"/>
    <path d="M 79.646122 51.325889 
L 79.646122 50.687067 
" clip-path="url(#pf2d8481ad4)" style="fill: none; stroke: #2ca02c; stroke-width: 0.5"/>
    <path d="M 86.411304 46.285809 
L 86.411304 45.174997 
" clip-path="url(#pf2d8481ad4)" style="fill: none; stroke: #2ca02c; stroke-width: 0.5"/>
    <path d="M 99.941667 36.013582 
L 99.941667 35.013036 
" clip-path="url(#pf2d8481ad4)" style="fill: none; stroke: #2ca02c; stroke-width: 0.5"/>
    <path d="M 113.472029 29.938121 
L 113.472029 28.989351 
" clip-path="url(#pf2d8481ad4)" style="fill: none; stroke: #2ca02c; stroke-width: 0.5"/>
    <path d="M 127.002392 26.144348 
L 127.002392 25.082205 
" clip-path="url(#pf2d8481ad4)" style="fill: none; stroke: #2ca02c; stroke-width: 0.5"/>
   </g>
   <g id="LineCollection_2">
    <path d="M 39.055034 12.04573 
L 39.055034 7.997265 
" clip-path="url(#pf2d8481ad4)" style="fill: none; stroke: #e377c2; stroke-width: 0.5"/>
    <path d="M 42.437625 26.753797 
L 42.437625 24.382468 
" clip-path="url(#pf2d8481ad4)" style="fill: none; stroke: #e377c2; stroke-width: 0.5"/>
    <path d="M 45.820216 32.121374 
L 45.820216 30.974785 
" clip-path="url(#pf2d8481ad4)" style="fill: none; stroke: #e377c2; stroke-width: 0.5"/>
    <path d="M 49.202806 39.615067 
L 49.202806 38.727289 
" clip-path="url(#pf2d8481ad4)" style="fill: none; stroke: #e377c2; stroke-width: 0.5"/>
    <path d="M 52.585397 45.207536 
L 52.585397 44.137912 
" clip-path="url(#pf2d8481ad4)" style="fill: none; stroke: #e377c2; stroke-width: 0.5"/>
    <path d="M 55.967988 48.900162 
L 55.967988 48.098185 
" clip-path="url(#pf2d8481ad4)" style="fill: none; stroke: #e377c2; stroke-width: 0.5"/>
    <path d="M 59.350578 55.741084 
L 59.350578 55.024136 
" clip-path="url(#pf2d8481ad4)" style="fill: none; stroke: #e377c2; stroke-width: 0.5"/>
    <path d="M 62.733169 60.589092 
L 62.733169 60.041851 
" clip-path="url(#pf2d8481ad4)" style="fill: none; stroke: #e377c2; stroke-width: 0.5"/>
    <path d="M 66.11576 60.81774 
L 66.11576 60.21384 
" clip-path="url(#pf2d8481ad4)" style="fill: none; stroke: #e377c2; stroke-width: 0.5"/>
    <path d="M 69.49835 59.634005 
L 69.49835 59.153496 
" clip-path="url(#pf2d8481ad4)" style="fill: none; stroke: #e377c2; stroke-width: 0.5"/>
    <path d="M 72.880941 62.300588 
L 72.880941 61.731065 
" clip-path="url(#pf2d8481ad4)" style="fill: none; stroke: #e377c2; stroke-width: 0.5"/>
    <path d="M 76.263532 61.404983 
L 76.263532 60.662019 
" clip-path="url(#pf2d8481ad4)" style="fill: none; stroke: #e377c2; stroke-width: 0.5"/>
    <path d="M 79.646122 59.005752 
L 79.646122 58.108054 
" clip-path="url(#pf2d8481ad4)" style="fill: none; stroke: #e377c2; stroke-width: 0.5"/>
    <path d="M 83.028713 58.535914 
L 83.028713 57.70304 
" clip-path="url(#pf2d8481ad4)" style="fill: none; stroke: #e377c2; stroke-width: 0.5"/>
    <path d="M 86.411304 54.392454 
L 86.411304 53.531989 
" clip-path="url(#pf2d8481ad4)" style="fill: none; stroke: #e377c2; stroke-width: 0.5"/>
    <path d="M 89.793895 52.525832 
L 89.793895 51.817282 
" clip-path="url(#pf2d8481ad4)" style="fill: none; stroke: #e377c2; stroke-width: 0.5"/>
    <path d="M 93.176485 50.017044 
L 93.176485 49.15162 
" clip-path="url(#pf2d8481ad4)" style="fill: none; stroke: #e377c2; stroke-width: 0.5"/>
    <path d="M 96.559076 47.385521 
L 96.559076 46.667261 
" clip-path="url(#pf2d8481ad4)" style="fill: none; stroke: #e377c2; stroke-width: 0.5"/>
    <path d="M 99.941667 44.456483 
L 99.941667 43.372452 
" clip-path="url(#pf2d8481ad4)" style="fill: none; stroke: #e377c2; stroke-width: 0.5"/>
    <path d="M 106.706848 39.714505 
L 106.706848 38.696049 
" clip-path="url(#pf2d8481ad4)" style="fill: none; stroke: #e377c2; stroke-width: 0.5"/>
    <path d="M 113.472029 36.466581 
L 113.472029 35.398025 
" clip-path="url(#pf2d8481ad4)" style="fill: none; stroke: #e377c2; stroke-width: 0.5"/>
    <path d="M 120.237211 33.261138 
L 120.237211 31.873341 
" clip-path="url(#pf2d8481ad4)" style="fill: none; stroke: #e377c2; stroke-width: 0.5"/>
   </g>
   <g id="line2d_16">
    <path d="M 45.820216 18.662445 
L 52.585397 35.565971 
L 59.350578 48.764764 
L 66.11576 57.623737 
L 72.880941 55.097714 
L 79.646122 51.006478 
L 86.411304 45.730403 
L 99.941667 35.513309 
L 113.472029 29.463736 
L 127.002392 25.613277 
" clip-path="url(#pf2d8481ad4)" style="fill: none; stroke: #2ca02c; stroke-width: 0.5; stroke-linecap: square"/>
    <defs>
     <path id="m17b75cb11d" d="M -0.75 0.75 
L 0.75 0.75 
L 0.75 -0.75 
L -0.75 -0.75 
z
" style="stroke: #2ca02c; stroke-width: 0.5; stroke-linejoin: miter"/>
    </defs>
    <g clip-path="url(#pf2d8481ad4)">
     <use xlink:href="#m17b75cb11d" x="45.820216" y="18.662445" style="fill: #2ca02c; stroke: #2ca02c; stroke-width: 0.5; stroke-linejoin: miter"/>
     <use xlink:href="#m17b75cb11d" x="52.585397" y="35.565971" style="fill: #2ca02c; stroke: #2ca02c; stroke-width: 0.5; stroke-linejoin: miter"/>
     <use xlink:href="#m17b75cb11d" x="59.350578" y="48.764764" style="fill: #2ca02c; stroke: #2ca02c; stroke-width: 0.5; stroke-linejoin: miter"/>
     <use xlink:href="#m17b75cb11d" x="66.11576" y="57.623737" style="fill: #2ca02c; stroke: #2ca02c; stroke-width: 0.5; stroke-linejoin: miter"/>
     <use xlink:href="#m17b75cb11d" x="72.880941" y="55.097714" style="fill: #2ca02c; stroke: #2ca02c; stroke-width: 0.5; stroke-linejoin: miter"/>
     <use xlink:href="#m17b75cb11d" x="79.646122" y="51.006478" style="fill: #2ca02c; stroke: #2ca02c; stroke-width: 0.5; stroke-linejoin: miter"/>
     <use xlink:href="#m17b75cb11d" x="86.411304" y="45.730403" style="fill: #2ca02c; stroke: #2ca02c; stroke-width: 0.5; stroke-linejoin: miter"/>
     <use xlink:href="#m17b75cb11d" x="99.941667" y="35.513309" style="fill: #2ca02c; stroke: #2ca02c; stroke-width: 0.5; stroke-linejoin: miter"/>
     <use xlink:href="#m17b75cb11d" x="113.472029" y="29.463736" style="fill: #2ca02c; stroke: #2ca02c; stroke-width: 0.5; stroke-linejoin: miter"/>
     <use xlink:href="#m17b75cb11d" x="127.002392" y="25.613277" style="fill: #2ca02c; stroke: #2ca02c; stroke-width: 0.5; stroke-linejoin: miter"/>
    </g>
   </g>
   <g id="line2d_17">
    <path d="M 39.055034 10.021497 
L 42.437625 25.568133 
L 45.820216 31.548079 
L 49.202806 39.171178 
L 52.585397 44.672724 
L 55.967988 48.499174 
L 59.350578 55.38261 
L 62.733169 60.315471 
L 66.11576 60.51579 
L 69.49835 59.39375 
L 72.880941 62.015826 
L 76.263532 61.033501 
L 79.646122 58.556903 
L 83.028713 58.119477 
L 86.411304 53.962221 
L 89.793895 52.171557 
L 93.176485 49.584332 
L 96.559076 47.026391 
L 99.941667 43.914468 
L 106.706848 39.205277 
L 113.472029 35.932303 
L 120.237211 32.567239 
" clip-path="url(#pf2d8481ad4)" style="fill: none; stroke: #e377c2; stroke-width: 0.5; stroke-linecap: square"/>
    <defs>
     <path id="mb171c2fa91" d="M 0 0.75 
C 0.198902 0.75 0.389685 0.670975 0.53033 0.53033 
C 0.670975 0.389685 0.75 0.198902 0.75 0 
C 0.75 -0.198902 0.670975 -0.389685 0.53033 -0.53033 
C 0.389685 -0.670975 0.198902 -0.75 0 -0.75 
C -0.198902 -0.75 -0.389685 -0.670975 -0.53033 -0.53033 
C -0.670975 -0.389685 -0.75 -0.198902 -0.75 0 
C -0.75 0.198902 -0.670975 0.389685 -0.53033 0.53033 
C -0.389685 0.670975 -0.198902 0.75 0 0.75 
z
" style="stroke: #e377c2; stroke-width: 0.5"/>
    </defs>
    <g clip-path="url(#pf2d8481ad4)">
     <use xlink:href="#mb171c2fa91" x="39.055034" y="10.021497" style="fill: #e377c2; stroke: #e377c2; stroke-width: 0.5"/>
     <use xlink:href="#mb171c2fa91" x="42.437625" y="25.568133" style="fill: #e377c2; stroke: #e377c2; stroke-width: 0.5"/>
     <use xlink:href="#mb171c2fa91" x="45.820216" y="31.548079" style="fill: #e377c2; stroke: #e377c2; stroke-width: 0.5"/>
     <use xlink:href="#mb171c2fa91" x="49.202806" y="39.171178" style="fill: #e377c2; stroke: #e377c2; stroke-width: 0.5"/>
     <use xlink:href="#mb171c2fa91" x="52.585397" y="44.672724" style="fill: #e377c2; stroke: #e377c2; stroke-width: 0.5"/>
     <use xlink:href="#mb171c2fa91" x="55.967988" y="48.499174" style="fill: #e377c2; stroke: #e377c2; stroke-width: 0.5"/>
     <use xlink:href="#mb171c2fa91" x="59.350578" y="55.38261" style="fill: #e377c2; stroke: #e377c2; stroke-width: 0.5"/>
     <use xlink:href="#mb171c2fa91" x="62.733169" y="60.315471" style="fill: #e377c2; stroke: #e377c2; stroke-width: 0.5"/>
     <use xlink:href="#mb171c2fa91" x="66.11576" y="60.51579" style="fill: #e377c2; stroke: #e377c2; stroke-width: 0.5"/>
     <use xlink:href="#mb171c2fa91" x="69.49835" y="59.39375" style="fill: #e377c2; stroke: #e377c2; stroke-width: 0.5"/>
     <use xlink:href="#mb171c2fa91" x="72.880941" y="62.015826" style="fill: #e377c2; stroke: #e377c2; stroke-width: 0.5"/>
     <use xlink:href="#mb171c2fa91" x="76.263532" y="61.033501" style="fill: #e377c2; stroke: #e377c2; stroke-width: 0.5"/>
     <use xlink:href="#mb171c2fa91" x="79.646122" y="58.556903" style="fill: #e377c2; stroke: #e377c2; stroke-width: 0.5"/>
     <use xlink:href="#mb171c2fa91" x="83.028713" y="58.119477" style="fill: #e377c2; stroke: #e377c2; stroke-width: 0.5"/>
     <use xlink:href="#mb171c2fa91" x="86.411304" y="53.962221" style="fill: #e377c2; stroke: #e377c2; stroke-width: 0.5"/>
     <use xlink:href="#mb171c2fa91" x="89.793895" y="52.171557" style="fill: #e377c2; stroke: #e377c2; stroke-width: 0.5"/>
     <use xlink:href="#mb171c2fa91" x="93.176485" y="49.584332" style="fill: #e377c2; stroke: #e377c2; stroke-width: 0.5"/>
     <use xlink:href="#mb171c2fa91" x="96.559076" y="47.026391" style="fill: #e377c2; stroke: #e377c2; stroke-width: 0.5"/>
     <use xlink:href="#mb171c2fa91" x="99.941667" y="43.914468" style="fill: #e377c2; stroke: #e377c2; stroke-width: 0.5"/>
     <use xlink:href="#mb171c2fa91" x="106.706848" y="39.205277" style="fill: #e377c2; stroke: #e377c2; stroke-width: 0.5"/>
     <use xlink:href="#mb171c2fa91" x="113.472029" y="35.932303" style="fill: #e377c2; stroke: #e377c2; stroke-width: 0.5"/>
     <use xlink:href="#mb171c2fa91" x="120.237211" y="32.567239" style="fill: #e377c2; stroke: #e377c2; stroke-width: 0.5"/>
    </g>
   </g>
   <g id="patch_3">
    <path d="M 34.657666 65.015754 
L 34.657666 5.282099 
" style="fill: none; stroke: #000000; stroke-width: 0.5; stroke-linejoin: miter; stroke-linecap: square"/>
   </g>
   <g id="patch_4">
    <path d="M 131.39976 65.015754 
L 131.39976 5.282099 
" style="fill: none; stroke: #000000; stroke-width: 0.5; stroke-linejoin: miter; stroke-linecap: square"/>
   </g>
   <g id="patch_5">
    <path d="M 34.657666 65.015754 
L 131.39976 65.015754 
" style="fill: none; stroke: #000000; stroke-width: 0.5; stroke-linejoin: miter; stroke-linecap: square"/>
   </g>
   <g id="patch_6">
    <path d="M 34.657666 5.282099 
L 131.39976 5.282099 
" style="fill: none; stroke: #000000; stroke-width: 0.5; stroke-linejoin: miter; stroke-linecap: square"/>
   </g>
   <g id="legend_1">
    <g id="patch_7">
     <path d="M 67.812593 23.671139 
L 98.244833 23.671139 
Q 99.171233 23.671139 99.171233 22.744739 
L 99.171233 8.524499 
Q 99.171233 7.598099 98.244833 7.598099 
L 67.812593 7.598099 
Q 66.886193 7.598099 66.886193 8.524499 
L 66.886193 22.744739 
Q 66.886193 23.671139 67.812593 23.671139 
z
" style="fill: #ffffff; opacity: 0.8; stroke: #cccccc; stroke-linejoin: miter"/>
    </g>
    <g id="LineCollection_3">
     <path d="M 73.370993 14.407139 
L 73.370993 9.775139 
" style="fill: none; stroke: #2ca02c; stroke-width: 0.5"/>
    </g>
    <g id="line2d_18">
     <path d="M 68.738993 12.091139 
L 78.002993 12.091139 
" style="fill: none; stroke: #2ca02c; stroke-width: 0.5; stroke-linecap: square"/>
    </g>
    <g id="line2d_19">
     <g>
      <use xlink:href="#m17b75cb11d" x="73.370993" y="12.091139" style="fill: #2ca02c; stroke: #2ca02c; stroke-width: 0.5; stroke-linejoin: miter"/>
     </g>
    </g>
    <g id="text_5">
     <!-- $I \parallel [1\overline{1}0]$ -->
     <g transform="translate(81.708593 13.712339) scale(0.04632 -0.04632)">
      <defs>
       <path id="Cmmi10-49" d="M 269 0 
Q 206 0 206 84 
Q 231 225 288 225 
Q 666 225 800 250 
Q 947 284 984 441 
L 1863 3956 
Q 1875 4019 1875 4038 
Q 1875 4078 1854 4095 
Q 1834 4113 1791 4122 
Q 1663 4147 1306 4147 
Q 1241 4147 1241 4231 
Q 1263 4313 1275 4342 
Q 1288 4372 1350 4372 
L 3138 4372 
Q 3200 4372 3200 4288 
Q 3197 4272 3187 4234 
Q 3178 4197 3162 4172 
Q 3147 4147 3116 4147 
Q 2741 4147 2597 4122 
Q 2456 4088 2419 3928 
L 1544 416 
Q 1528 338 1528 331 
Q 1528 316 1533 302 
Q 1538 288 1552 277 
Q 1566 266 1580 261 
Q 1594 256 1613 250 
Q 1734 225 2100 225 
Q 2163 225 2163 141 
Q 2141 50 2128 25 
Q 2116 0 2053 0 
L 269 0 
z
" transform="scale(0.015625)"/>
       <path id="Cmr10-5b" d="M 756 -1600 
L 756 4800 
L 1631 4800 
L 1631 4544 
L 1013 4544 
L 1013 -1344 
L 1631 -1344 
L 1631 -1600 
L 756 -1600 
z
" transform="scale(0.015625)"/>
       <path id="Cmr10-31" d="M 594 0 
L 594 225 
Q 1394 225 1394 428 
L 1394 3788 
Q 1063 3628 556 3628 
L 556 3853 
Q 1341 3853 1741 4263 
L 1831 4263 
Q 1853 4263 1873 4245 
Q 1894 4228 1894 4206 
L 1894 428 
Q 1894 225 2694 225 
L 2694 0 
L 594 0 
z
" transform="scale(0.015625)"/>
       <path id="Cmr10-5d" d="M 141 -1600 
L 141 -1344 
L 763 -1344 
L 763 4544 
L 141 4544 
L 141 4800 
L 1019 4800 
L 1019 -1600 
L 141 -1600 
z
" transform="scale(0.015625)"/>
      </defs>
      <use xlink:href="#Cmmi10-49" transform="translate(0 0.640625)"/>
      <use xlink:href="#STIXGeneral-Regular-2225" transform="translate(61.455078 0.640625)"/>
      <use xlink:href="#Cmr10-5b" transform="translate(131.31366 0.640625)"/>
      <use xlink:href="#Cmr10-31" transform="translate(158.999207 0.640625)"/>
      <use xlink:href="#Cmr10-31" transform="translate(208.999207 1.140625)"/>
      <use xlink:href="#Cmr10-30" transform="translate(258.999207 0.640625)"/>
      <use xlink:href="#Cmr10-5d" transform="translate(308.999207 0.640625)"/>
      <path d="M 208.999207 79.5 
L 208.999207 85.75 
L 258.999207 85.75 
L 258.999207 79.5 
L 208.999207 79.5 
z
"/>
     </g>
    </g>
    <g id="LineCollection_4">
     <path d="M 73.370993 21.355139 
L 73.370993 16.723139 
" style="fill: none; stroke: #e377c2; stroke-width: 0.5"/>
    </g>
    <g id="line2d_20">
     <path d="M 68.738993 19.039139 
L 78.002993 19.039139 
" style="fill: none; stroke: #e377c2; stroke-width: 0.5; stroke-linecap: square"/>
    </g>
    <g id="line2d_21">
     <g>
      <use xlink:href="#mb171c2fa91" x="73.370993" y="19.039139" style="fill: #e377c2; stroke: #e377c2; stroke-width: 0.5"/>
     </g>
    </g>
    <g id="text_6">
     <!-- $I \parallel [110]$ -->
     <g transform="translate(81.708593 20.660339) scale(0.04632 -0.04632)">
      <use xlink:href="#Cmmi10-49"/>
      <use xlink:href="#STIXGeneral-Regular-2225" transform="translate(61.455078 0)"/>
      <use xlink:href="#Cmr10-5b" transform="translate(131.31366 0)"/>
      <use xlink:href="#Cmr10-31" transform="translate(158.999207 0)"/>
      <use xlink:href="#Cmr10-31" transform="translate(208.999207 0)"/>
      <use xlink:href="#Cmr10-30" transform="translate(258.999207 0)"/>
      <use xlink:href="#Cmr10-5d" transform="translate(308.999207 0)"/>
     </g>
    </g>
   </g>
  </g>
  <g id="axes_2">
   <g id="patch_8">
    <path d="M 34.657666 130.749889 
L 131.39976 130.749889 
L 131.39976 71.016234 
L 34.657666 71.016234 
L 34.657666 130.749889 
z
" style="fill: none"/>
   </g>
   <g id="matplotlib.axis_3">
    <g id="xtick_5">
     <g id="line2d_22">
      <g>
       <use xlink:href="#me8e2fbd05f" x="45.820216" y="130.749889" style="stroke: #000000; stroke-width: 0.5"/>
      </g>
     </g>
     <g id="line2d_23">
      <g>
       <use xlink:href="#md25c183ef9" x="45.820216" y="71.016234" style="stroke: #000000; stroke-width: 0.5"/>
      </g>
     </g>
     <g id="text_7">
      <!-- −6 -->
      <g transform="translate(42.021215 139.019855) scale(0.06664 -0.06664)">
       <defs>
        <path id="ArialMT-2212" d="M 3381 1997 
L 356 1997 
L 356 2522 
L 3381 2522 
L 3381 1997 
z
" transform="scale(0.015625)"/>
        <path id="ArialMT-36" d="M 3184 3459 
L 2625 3416 
Q 2550 3747 2413 3897 
Q 2184 4138 1850 4138 
Q 1581 4138 1378 3988 
Q 1113 3794 959 3422 
Q 806 3050 800 2363 
Q 1003 2672 1297 2822 
Q 1591 2972 1913 2972 
Q 2475 2972 2870 2558 
Q 3266 2144 3266 1488 
Q 3266 1056 3080 686 
Q 2894 316 2569 119 
Q 2244 -78 1831 -78 
Q 1128 -78 684 439 
Q 241 956 241 2144 
Q 241 3472 731 4075 
Q 1159 4600 1884 4600 
Q 2425 4600 2770 4297 
Q 3116 3994 3184 3459 
z
M 888 1484 
Q 888 1194 1011 928 
Q 1134 663 1356 523 
Q 1578 384 1822 384 
Q 2178 384 2434 671 
Q 2691 959 2691 1453 
Q 2691 1928 2437 2201 
Q 2184 2475 1800 2475 
Q 1419 2475 1153 2201 
Q 888 1928 888 1484 
z
" transform="scale(0.015625)"/>
       </defs>
       <use xlink:href="#ArialMT-2212"/>
       <use xlink:href="#ArialMT-36" x="58.398438"/>
      </g>
     </g>
    </g>
    <g id="xtick_6">
     <g id="line2d_24">
      <g>
       <use xlink:href="#me8e2fbd05f" x="72.880941" y="130.749889" style="stroke: #000000; stroke-width: 0.5"/>
      </g>
     </g>
     <g id="line2d_25">
      <g>
       <use xlink:href="#md25c183ef9" x="72.880941" y="71.016234" style="stroke: #000000; stroke-width: 0.5"/>
      </g>
     </g>
     <g id="text_8">
      <!-- −4 -->
      <g transform="translate(69.08194 139.019855) scale(0.06664 -0.06664)">
       <defs>
        <path id="ArialMT-34" d="M 2069 0 
L 2069 1097 
L 81 1097 
L 81 1613 
L 2172 4581 
L 2631 4581 
L 2631 1613 
L 3250 1613 
L 3250 1097 
L 2631 1097 
L 2631 0 
L 2069 0 
z
M 2069 1613 
L 2069 3678 
L 634 1613 
L 2069 1613 
z
" transform="scale(0.015625)"/>
       </defs>
       <use xlink:href="#ArialMT-2212"/>
       <use xlink:href="#ArialMT-34" x="58.398438"/>
      </g>
     </g>
    </g>
    <g id="xtick_7">
     <g id="line2d_26">
      <g>
       <use xlink:href="#me8e2fbd05f" x="99.941667" y="130.749889" style="stroke: #000000; stroke-width: 0.5"/>
      </g>
     </g>
     <g id="line2d_27">
      <g>
       <use xlink:href="#md25c183ef9" x="99.941667" y="71.016234" style="stroke: #000000; stroke-width: 0.5"/>
      </g>
     </g>
     <g id="text_9">
      <!-- −2 -->
      <g transform="translate(96.142666 139.019855) scale(0.06664 -0.06664)">
       <defs>
        <path id="ArialMT-32" d="M 3222 541 
L 3222 0 
L 194 0 
Q 188 203 259 391 
Q 375 700 629 1000 
Q 884 1300 1366 1694 
Q 2113 2306 2375 2664 
Q 2638 3022 2638 3341 
Q 2638 3675 2398 3904 
Q 2159 4134 1775 4134 
Q 1369 4134 1125 3890 
Q 881 3647 878 3216 
L 300 3275 
Q 359 3922 746 4261 
Q 1134 4600 1788 4600 
Q 2447 4600 2831 4234 
Q 3216 3869 3216 3328 
Q 3216 3053 3103 2787 
Q 2991 2522 2730 2228 
Q 2469 1934 1863 1422 
Q 1356 997 1212 845 
Q 1069 694 975 541 
L 3222 541 
z
" transform="scale(0.015625)"/>
       </defs>
       <use xlink:href="#ArialMT-2212"/>
       <use xlink:href="#ArialMT-32" x="58.398438"/>
      </g>
     </g>
    </g>
    <g id="xtick_8">
     <g id="line2d_28">
      <g>
       <use xlink:href="#me8e2fbd05f" x="127.002392" y="130.749889" style="stroke: #000000; stroke-width: 0.5"/>
      </g>
     </g>
     <g id="line2d_29">
      <g>
       <use xlink:href="#md25c183ef9" x="127.002392" y="71.016234" style="stroke: #000000; stroke-width: 0.5"/>
      </g>
     </g>
     <g id="text_10">
      <!-- 0 -->
      <g transform="translate(125.149488 139.019855) scale(0.06664 -0.06664)">
       <use xlink:href="#ArialMT-30"/>
      </g>
     </g>
    </g>
    <g id="text_11">
     <!-- $V_\mathrm{g}$ (V) -->
     <g transform="translate(72.588713 150.184325) scale(0.08 -0.08)">
      <defs>
       <path id="Cmmi10-56" d="M 1409 -72 
L 897 4006 
Q 850 4147 416 4147 
Q 353 4147 353 4231 
Q 366 4300 384 4336 
Q 403 4372 459 4372 
L 2022 4372 
Q 2056 4372 2072 4347 
Q 2088 4322 2088 4288 
Q 2063 4147 2003 4147 
Q 1503 4147 1472 3975 
L 1894 628 
L 3866 3775 
Q 3922 3881 3922 3944 
Q 3922 4056 3820 4101 
Q 3719 4147 3584 4147 
Q 3519 4147 3519 4231 
Q 3531 4281 3540 4309 
Q 3550 4338 3569 4355 
Q 3588 4372 3628 4372 
L 4863 4372 
Q 4922 4372 4922 4288 
Q 4897 4147 4838 4147 
Q 4356 4147 4084 3725 
Q 4072 3713 4063 3713 
L 1703 -72 
Q 1656 -141 1581 -141 
L 1491 -141 
Q 1419 -141 1409 -72 
z
" transform="scale(0.015625)"/>
       <path id="Cmr10-67" d="M 178 -500 
Q 178 -272 343 -101 
Q 509 69 738 141 
Q 609 238 542 384 
Q 475 531 475 697 
Q 475 997 666 1228 
Q 372 1516 372 1888 
Q 372 2088 458 2263 
Q 544 2438 697 2566 
Q 850 2694 1037 2761 
Q 1225 2828 1422 2828 
Q 1803 2828 2106 2606 
Q 2238 2747 2417 2823 
Q 2597 2900 2791 2900 
Q 2928 2900 3015 2801 
Q 3103 2703 3103 2566 
Q 3103 2488 3043 2428 
Q 2984 2369 2906 2369 
Q 2825 2369 2765 2428 
Q 2706 2488 2706 2566 
Q 2706 2684 2784 2731 
Q 2453 2731 2216 2503 
Q 2331 2388 2401 2220 
Q 2472 2053 2472 1888 
Q 2472 1616 2322 1398 
Q 2172 1181 1926 1061 
Q 1681 941 1422 941 
Q 1072 941 781 1131 
Q 691 1006 691 850 
Q 691 681 802 554 
Q 913 428 1081 428 
L 1606 428 
Q 1988 428 2294 359 
Q 2600 291 2808 84 
Q 3016 -122 3016 -500 
Q 3016 -781 2778 -967 
Q 2541 -1153 2211 -1236 
Q 1881 -1319 1600 -1319 
Q 1316 -1319 984 -1236 
Q 653 -1153 415 -967 
Q 178 -781 178 -500 
z
M 538 -500 
Q 538 -716 713 -861 
Q 888 -1006 1134 -1076 
Q 1381 -1147 1600 -1147 
Q 1816 -1147 2062 -1076 
Q 2309 -1006 2482 -861 
Q 2656 -716 2656 -500 
Q 2656 -166 2350 -67 
Q 2044 31 1606 31 
L 1081 31 
Q 934 31 811 -39 
Q 688 -109 613 -236 
Q 538 -363 538 -500 
z
M 1422 1113 
Q 1966 1113 1966 1888 
Q 1966 2222 1850 2439 
Q 1734 2656 1422 2656 
Q 1109 2656 993 2439 
Q 878 2222 878 1888 
Q 878 1675 922 1503 
Q 966 1331 1084 1222 
Q 1203 1113 1422 1113 
z
" transform="scale(0.015625)"/>
       <path id="ArialMT-56" d="M 1803 0 
L 28 4581 
L 684 4581 
L 1875 1253 
Q 2019 853 2116 503 
Q 2222 878 2363 1253 
L 3600 4581 
L 4219 4581 
L 2425 0 
L 1803 0 
z
" transform="scale(0.015625)"/>
      </defs>
      <use xlink:href="#Cmmi10-56" transform="translate(0 0.203125)"/>
      <use xlink:href="#Cmr10-67" transform="translate(58.300781 -16.803125) scale(0.7)"/>
      <use xlink:href="#ArialMT-20" transform="translate(99.678125 0.203125)"/>
      <use xlink:href="#ArialMT-28" transform="translate(127.461328 0.203125)"/>
      <use xlink:href="#ArialMT-56" transform="translate(160.762109 0.203125)"/>
      <use xlink:href="#ArialMT-29" transform="translate(227.461328 0.203125)"/>
     </g>
    </g>
   </g>
   <g id="matplotlib.axis_4">
    <g id="ytick_4">
     <g id="line2d_30">
      <g>
       <use xlink:href="#mc16fd3fbb9" x="34.657666" y="128.690572" style="stroke: #000000; stroke-width: 0.5"/>
      </g>
     </g>
     <g id="line2d_31">
      <g>
       <use xlink:href="#mdad8f6a2e1" x="131.39976" y="128.690572" style="stroke: #000000; stroke-width: 0.5"/>
      </g>
     </g>
     <g id="text_12">
      <!-- −10 -->
      <g transform="translate(19.853856 131.075555) scale(0.06664 -0.06664)">
       <use xlink:href="#ArialMT-2212"/>
       <use xlink:href="#ArialMT-31" x="58.398438"/>
       <use xlink:href="#ArialMT-30" x="114.013672"/>
      </g>
     </g>
    </g>
    <g id="ytick_5">
     <g id="line2d_32">
      <g>
       <use xlink:href="#mc16fd3fbb9" x="34.657666" y="111.417254" style="stroke: #000000; stroke-width: 0.5"/>
      </g>
     </g>
     <g id="line2d_33">
      <g>
       <use xlink:href="#mdad8f6a2e1" x="131.39976" y="111.417254" style="stroke: #000000; stroke-width: 0.5"/>
      </g>
     </g>
     <g id="text_13">
      <!-- 0 -->
      <g transform="translate(27.451857 113.802237) scale(0.06664 -0.06664)">
       <use xlink:href="#ArialMT-30"/>
      </g>
     </g>
    </g>
    <g id="ytick_6">
     <g id="line2d_34">
      <g>
       <use xlink:href="#mc16fd3fbb9" x="34.657666" y="94.143935" style="stroke: #000000; stroke-width: 0.5"/>
      </g>
     </g>
     <g id="line2d_35">
      <g>
       <use xlink:href="#mdad8f6a2e1" x="131.39976" y="94.143935" style="stroke: #000000; stroke-width: 0.5"/>
      </g>
     </g>
     <g id="text_14">
      <!-- 10 -->
      <g transform="translate(23.746049 96.528919) scale(0.06664 -0.06664)">
       <use xlink:href="#ArialMT-31"/>
       <use xlink:href="#ArialMT-30" x="55.615234"/>
      </g>
     </g>
    </g>
    <g id="ytick_7">
     <g id="line2d_36">
      <g>
       <use xlink:href="#mc16fd3fbb9" x="34.657666" y="76.870617" style="stroke: #000000; stroke-width: 0.5"/>
      </g>
     </g>
     <g id="line2d_37">
      <g>
       <use xlink:href="#mdad8f6a2e1" x="131.39976" y="76.870617" style="stroke: #000000; stroke-width: 0.5"/>
      </g>
     </g>
     <g id="text_15">
      <!-- 20 -->
      <g transform="translate(23.746049 79.2556) scale(0.06664 -0.06664)">
       <use xlink:href="#ArialMT-32"/>
       <use xlink:href="#ArialMT-30" x="55.615234"/>
      </g>
     </g>
    </g>
    <g id="text_16">
     <!-- $B_*$ (mT) -->
     <g transform="translate(14.093856 116.123061) rotate(-90) scale(0.08 -0.08)">
      <defs>
       <path id="Cmsy10-a4" d="M 603 813 
Q 531 813 473 873 
Q 416 934 416 1006 
Q 416 1116 506 1159 
L 1428 1600 
L 506 2034 
Q 416 2072 416 2188 
Q 416 2259 473 2320 
Q 531 2381 603 2381 
Q 650 2381 691 2350 
L 1509 1753 
L 1416 2797 
Q 1416 2875 1469 2925 
Q 1522 2975 1600 2975 
Q 1675 2975 1726 2928 
Q 1778 2881 1778 2809 
L 1778 2797 
L 1684 1753 
L 2503 2350 
Q 2544 2381 2591 2381 
Q 2669 2381 2723 2320 
Q 2778 2259 2778 2188 
Q 2778 2072 2688 2034 
L 1766 1600 
L 2688 1159 
Q 2778 1116 2778 1006 
Q 2778 934 2723 873 
Q 2669 813 2591 813 
Q 2544 813 2503 844 
L 1684 1441 
L 1778 403 
L 1778 384 
Q 1778 313 1723 266 
Q 1669 219 1600 219 
Q 1525 219 1470 270 
Q 1416 322 1416 397 
L 1509 1441 
L 691 844 
Q 650 813 603 813 
z
" transform="scale(0.015625)"/>
       <path id="ArialMT-6d" d="M 422 0 
L 422 3319 
L 925 3319 
L 925 2853 
Q 1081 3097 1340 3245 
Q 1600 3394 1931 3394 
Q 2300 3394 2536 3241 
Q 2772 3088 2869 2813 
Q 3263 3394 3894 3394 
Q 4388 3394 4653 3120 
Q 4919 2847 4919 2278 
L 4919 0 
L 4359 0 
L 4359 2091 
Q 4359 2428 4304 2576 
Q 4250 2725 4106 2815 
Q 3963 2906 3769 2906 
Q 3419 2906 3187 2673 
Q 2956 2441 2956 1928 
L 2956 0 
L 2394 0 
L 2394 2156 
Q 2394 2531 2256 2718 
Q 2119 2906 1806 2906 
Q 1569 2906 1367 2781 
Q 1166 2656 1075 2415 
Q 984 2175 984 1722 
L 984 0 
L 422 0 
z
" transform="scale(0.015625)"/>
      </defs>
      <use xlink:href="#Cmmi10-42" transform="translate(0 0.203125)"/>
      <use xlink:href="#Cmsy10-a4" transform="translate(88.072266 -16.803125) scale(0.7)"/>
      <use xlink:href="#ArialMT-20" transform="translate(141.740625 0.203125)"/>
      <use xlink:href="#ArialMT-28" transform="translate(169.523828 0.203125)"/>
      <use xlink:href="#ArialMT-6d" transform="translate(202.824609 0.203125)"/>
      <use xlink:href="#ArialMT-54" transform="translate(286.125391 0.203125)"/>
      <use xlink:href="#ArialMT-29" transform="translate(347.209375 0.203125)"/>
     </g>
    </g>
   </g>
   <g id="line2d_38">
    <path d="M 34.657666 111.417254 
L 131.39976 111.417254 
" clip-path="url(#p294cbcb2a8)" style="fill: none; stroke: #000000; stroke-width: 0.5; stroke-linecap: square"/>
   </g>
   <g id="LineCollection_5">
    <path d="M 45.820216 90.015877 
L 45.820216 78.46794 
" clip-path="url(#p294cbcb2a8)" style="fill: none; stroke: #2ca02c; stroke-width: 0.5"/>
    <path d="M 52.585397 105.653834 
L 52.585397 93.418389 
" clip-path="url(#p294cbcb2a8)" style="fill: none; stroke: #2ca02c; stroke-width: 0.5"/>
    <path d="M 59.350578 120.378542 
L 59.350578 111.575447 
" clip-path="url(#p294cbcb2a8)" style="fill: none; stroke: #2ca02c; stroke-width: 0.5"/>
    <path d="M 66.11576 127.844343 
L 66.11576 121.389858 
" clip-path="url(#p294cbcb2a8)" style="fill: none; stroke: #2ca02c; stroke-width: 0.5"/>
    <path d="M 72.880941 122.71258 
L 72.880941 119.250314 
" clip-path="url(#p294cbcb2a8)" style="fill: none; stroke: #2ca02c; stroke-width: 0.5"/>
    <path d="M 79.646122 118.877374 
L 79.646122 114.784496 
" clip-path="url(#p294cbcb2a8)" style="fill: none; stroke: #2ca02c; stroke-width: 0.5"/>
    <path d="M 86.411304 113.368794 
L 86.411304 110.899071 
" clip-path="url(#p294cbcb2a8)" style="fill: none; stroke: #2ca02c; stroke-width: 0.5"/>
    <path d="M 99.941667 103.793012 
L 99.941667 101.74768 
" clip-path="url(#p294cbcb2a8)" style="fill: none; stroke: #2ca02c; stroke-width: 0.5"/>
    <path d="M 113.472029 98.654964 
L 113.472029 96.738468 
" clip-path="url(#p294cbcb2a8)" style="fill: none; stroke: #2ca02c; stroke-width: 0.5"/>
    <path d="M 127.002392 95.16593 
L 127.002392 93.414641 
" clip-path="url(#p294cbcb2a8)" style="fill: none; stroke: #2ca02c; stroke-width: 0.5"/>
   </g>
   <g id="LineCollection_6">
    <path d="M 39.055034 91.704834 
L 39.055034 73.7314 
" clip-path="url(#p294cbcb2a8)" style="fill: none; stroke: #e377c2; stroke-width: 0.5"/>
    <path d="M 42.437625 106.671921 
L 42.437625 79.42318 
" clip-path="url(#p294cbcb2a8)" style="fill: none; stroke: #e377c2; stroke-width: 0.5"/>
    <path d="M 45.820216 96.858688 
L 45.820216 88.989418 
" clip-path="url(#p294cbcb2a8)" style="fill: none; stroke: #e377c2; stroke-width: 0.5"/>
    <path d="M 49.202806 111.292654 
L 49.202806 99.485105 
" clip-path="url(#p294cbcb2a8)" style="fill: none; stroke: #e377c2; stroke-width: 0.5"/>
    <path d="M 52.585397 113.581013 
L 52.585397 107.039156 
" clip-path="url(#p294cbcb2a8)" style="fill: none; stroke: #e377c2; stroke-width: 0.5"/>
    <path d="M 55.967988 118.191918 
L 55.967988 112.190138 
" clip-path="url(#p294cbcb2a8)" style="fill: none; stroke: #e377c2; stroke-width: 0.5"/>
    <path d="M 59.350578 122.746785 
L 59.350578 117.413684 
" clip-path="url(#p294cbcb2a8)" style="fill: none; stroke: #e377c2; stroke-width: 0.5"/>
    <path d="M 62.733169 126.294553 
L 62.733169 122.322566 
" clip-path="url(#p294cbcb2a8)" style="fill: none; stroke: #e377c2; stroke-width: 0.5"/>
    <path d="M 66.11576 126.73138 
L 66.11576 123.264189 
" clip-path="url(#p294cbcb2a8)" style="fill: none; stroke: #e377c2; stroke-width: 0.5"/>
    <path d="M 69.49835 125.801707 
L 69.49835 122.879381 
" clip-path="url(#p294cbcb2a8)" style="fill: none; stroke: #e377c2; stroke-width: 0.5"/>
    <path d="M 72.880941 128.034723 
L 72.880941 125.182077 
" clip-path="url(#p294cbcb2a8)" style="fill: none; stroke: #e377c2; stroke-width: 0.5"/>
    <path d="M 76.263532 127.449081 
L 76.263532 124.530412 
" clip-path="url(#p294cbcb2a8)" style="fill: none; stroke: #e377c2; stroke-width: 0.5"/>
    <path d="M 79.646122 126.335804 
L 79.646122 122.868381 
" clip-path="url(#p294cbcb2a8)" style="fill: none; stroke: #e377c2; stroke-width: 0.5"/>
    <path d="M 83.028713 125.298662 
L 83.028713 122.209136 
" clip-path="url(#p294cbcb2a8)" style="fill: none; stroke: #e377c2; stroke-width: 0.5"/>
    <path d="M 86.411304 121.741668 
L 86.411304 118.836561 
" clip-path="url(#p294cbcb2a8)" style="fill: none; stroke: #e377c2; stroke-width: 0.5"/>
    <path d="M 89.793895 119.787163 
L 89.793895 117.042184 
" clip-path="url(#p294cbcb2a8)" style="fill: none; stroke: #e377c2; stroke-width: 0.5"/>
    <path d="M 93.176485 118.053559 
L 93.176485 115.417322 
" clip-path="url(#p294cbcb2a8)" style="fill: none; stroke: #e377c2; stroke-width: 0.5"/>
    <path d="M 96.559076 116.315036 
L 96.559076 113.450565 
" clip-path="url(#p294cbcb2a8)" style="fill: none; stroke: #e377c2; stroke-width: 0.5"/>
    <path d="M 99.941667 113.986715 
L 99.941667 111.619263 
" clip-path="url(#p294cbcb2a8)" style="fill: none; stroke: #e377c2; stroke-width: 0.5"/>
    <path d="M 106.706848 110.781183 
L 106.706848 108.582251 
" clip-path="url(#p294cbcb2a8)" style="fill: none; stroke: #e377c2; stroke-width: 0.5"/>
    <path d="M 113.472029 107.971221 
L 113.472029 106.122663 
" clip-path="url(#p294cbcb2a8)" style="fill: none; stroke: #e377c2; stroke-width: 0.5"/>
    <path d="M 120.237211 106.159029 
L 120.237211 104.561541 
" clip-path="url(#p294cbcb2a8)" style="fill: none; stroke: #e377c2; stroke-width: 0.5"/>
   </g>
   <g id="line2d_39">
    <path d="M 45.820216 84.241908 
L 52.585397 99.536112 
L 59.350578 115.976994 
L 66.11576 124.6171 
L 72.880941 120.981447 
L 79.646122 116.830935 
L 86.411304 112.133932 
L 99.941667 102.770346 
L 113.472029 97.696716 
L 127.002392 94.290286 
" clip-path="url(#p294cbcb2a8)" style="fill: none; stroke: #2ca02c; stroke-width: 0.5; stroke-linecap: square"/>
    <g clip-path="url(#p294cbcb2a8)">
     <use xlink:href="#m17b75cb11d" x="45.820216" y="84.241908" style="fill: #2ca02c; stroke: #2ca02c; stroke-width: 0.5; stroke-linejoin: miter"/>
     <use xlink:href="#m17b75cb11d" x="52.585397" y="99.536112" style="fill: #2ca02c; stroke: #2ca02c; stroke-width: 0.5; stroke-linejoin: miter"/>
     <use xlink:href="#m17b75cb11d" x="59.350578" y="115.976994" style="fill: #2ca02c; stroke: #2ca02c; stroke-width: 0.5; stroke-linejoin: miter"/>
     <use xlink:href="#m17b75cb11d" x="66.11576" y="124.6171" style="fill: #2ca02c; stroke: #2ca02c; stroke-width: 0.5; stroke-linejoin: miter"/>
     <use xlink:href="#m17b75cb11d" x="72.880941" y="120.981447" style="fill: #2ca02c; stroke: #2ca02c; stroke-width: 0.5; stroke-linejoin: miter"/>
     <use xlink:href="#m17b75cb11d" x="79.646122" y="116.830935" style="fill: #2ca02c; stroke: #2ca02c; stroke-width: 0.5; stroke-linejoin: miter"/>
     <use xlink:href="#m17b75cb11d" x="86.411304" y="112.133932" style="fill: #2ca02c; stroke: #2ca02c; stroke-width: 0.5; stroke-linejoin: miter"/>
     <use xlink:href="#m17b75cb11d" x="99.941667" y="102.770346" style="fill: #2ca02c; stroke: #2ca02c; stroke-width: 0.5; stroke-linejoin: miter"/>
     <use xlink:href="#m17b75cb11d" x="113.472029" y="97.696716" style="fill: #2ca02c; stroke: #2ca02c; stroke-width: 0.5; stroke-linejoin: miter"/>
     <use xlink:href="#m17b75cb11d" x="127.002392" y="94.290286" style="fill: #2ca02c; stroke: #2ca02c; stroke-width: 0.5; stroke-linejoin: miter"/>
    </g>
   </g>
   <g id="line2d_40">
    <path d="M 39.055034 82.718117 
L 42.437625 93.04755 
L 45.820216 92.924053 
L 49.202806 105.38888 
L 52.585397 110.310084 
L 55.967988 115.191028 
L 59.350578 120.080235 
L 62.733169 124.308559 
L 66.11576 124.997784 
L 69.49835 124.340544 
L 72.880941 126.6084 
L 76.263532 125.989746 
L 79.646122 124.602092 
L 83.028713 123.753899 
L 86.411304 120.289114 
L 89.793895 118.414673 
L 93.176485 116.73544 
L 96.559076 114.882801 
L 99.941667 112.802989 
L 106.706848 109.681717 
L 113.472029 107.046942 
L 120.237211 105.360285 
" clip-path="url(#p294cbcb2a8)" style="fill: none; stroke: #e377c2; stroke-width: 0.5; stroke-linecap: square"/>
    <g clip-path="url(#p294cbcb2a8)">
     <use xlink:href="#mb171c2fa91" x="39.055034" y="82.718117" style="fill: #e377c2; stroke: #e377c2; stroke-width: 0.5"/>
     <use xlink:href="#mb171c2fa91" x="42.437625" y="93.04755" style="fill: #e377c2; stroke: #e377c2; stroke-width: 0.5"/>
     <use xlink:href="#mb171c2fa91" x="45.820216" y="92.924053" style="fill: #e377c2; stroke: #e377c2; stroke-width: 0.5"/>
     <use xlink:href="#mb171c2fa91" x="49.202806" y="105.38888" style="fill: #e377c2; stroke: #e377c2; stroke-width: 0.5"/>
     <use xlink:href="#mb171c2fa91" x="52.585397" y="110.310084" style="fill: #e377c2; stroke: #e377c2; stroke-width: 0.5"/>
     <use xlink:href="#mb171c2fa91" x="55.967988" y="115.191028" style="fill: #e377c2; stroke: #e377c2; stroke-width: 0.5"/>
     <use xlink:href="#mb171c2fa91" x="59.350578" y="120.080235" style="fill: #e377c2; stroke: #e377c2; stroke-width: 0.5"/>
     <use xlink:href="#mb171c2fa91" x="62.733169" y="124.308559" style="fill: #e377c2; stroke: #e377c2; stroke-width: 0.5"/>
     <use xlink:href="#mb171c2fa91" x="66.11576" y="124.997784" style="fill: #e377c2; stroke: #e377c2; stroke-width: 0.5"/>
     <use xlink:href="#mb171c2fa91" x="69.49835" y="124.340544" style="fill: #e377c2; stroke: #e377c2; stroke-width: 0.5"/>
     <use xlink:href="#mb171c2fa91" x="72.880941" y="126.6084" style="fill: #e377c2; stroke: #e377c2; stroke-width: 0.5"/>
     <use xlink:href="#mb171c2fa91" x="76.263532" y="125.989746" style="fill: #e377c2; stroke: #e377c2; stroke-width: 0.5"/>
     <use xlink:href="#mb171c2fa91" x="79.646122" y="124.602092" style="fill: #e377c2; stroke: #e377c2; stroke-width: 0.5"/>
     <use xlink:href="#mb171c2fa91" x="83.028713" y="123.753899" style="fill: #e377c2; stroke: #e377c2; stroke-width: 0.5"/>
     <use xlink:href="#mb171c2fa91" x="86.411304" y="120.289114" style="fill: #e377c2; stroke: #e377c2; stroke-width: 0.5"/>
     <use xlink:href="#mb171c2fa91" x="89.793895" y="118.414673" style="fill: #e377c2; stroke: #e377c2; stroke-width: 0.5"/>
     <use xlink:href="#mb171c2fa91" x="93.176485" y="116.73544" style="fill: #e377c2; stroke: #e377c2; stroke-width: 0.5"/>
     <use xlink:href="#mb171c2fa91" x="96.559076" y="114.882801" style="fill: #e377c2; stroke: #e377c2; stroke-width: 0.5"/>
     <use xlink:href="#mb171c2fa91" x="99.941667" y="112.802989" style="fill: #e377c2; stroke: #e377c2; stroke-width: 0.5"/>
     <use xlink:href="#mb171c2fa91" x="106.706848" y="109.681717" style="fill: #e377c2; stroke: #e377c2; stroke-width: 0.5"/>
     <use xlink:href="#mb171c2fa91" x="113.472029" y="107.046942" style="fill: #e377c2; stroke: #e377c2; stroke-width: 0.5"/>
     <use xlink:href="#mb171c2fa91" x="120.237211" y="105.360285" style="fill: #e377c2; stroke: #e377c2; stroke-width: 0.5"/>
    </g>
   </g>
   <g id="patch_9">
    <path d="M 34.657666 130.749889 
L 34.657666 71.016234 
" style="fill: none; stroke: #000000; stroke-width: 0.5; stroke-linejoin: miter; stroke-linecap: square"/>
   </g>
   <g id="patch_10">
    <path d="M 131.39976 130.749889 
L 131.39976 71.016234 
" style="fill: none; stroke: #000000; stroke-width: 0.5; stroke-linejoin: miter; stroke-linecap: square"/>
   </g>
   <g id="patch_11">
    <path d="M 34.657666 130.749889 
L 131.39976 130.749889 
" style="fill: none; stroke: #000000; stroke-width: 0.5; stroke-linejoin: miter; stroke-linecap: square"/>
   </g>
   <g id="patch_12">
    <path d="M 34.657666 71.016234 
L 131.39976 71.016234 
" style="fill: none; stroke: #000000; stroke-width: 0.5; stroke-linejoin: miter; stroke-linecap: square"/>
   </g>
  </g>
 </g>
 <defs>
  <clipPath id="pf2d8481ad4">
   <rect x="34.657666" y="5.282099" width="96.742094" height="59.733655"/>
  </clipPath>
  <clipPath id="p294cbcb2a8">
   <rect x="34.657666" y="71.016234" width="96.742094" height="59.733655"/>
  </clipPath>
 </defs>
</svg>
