<?xml version="1.0" encoding="utf-8" standalone="no"?>
<!DOCTYPE svg PUBLIC "-//W3C//DTD SVG 1.1//EN"
  "http://www.w3.org/Graphics/SVG/1.1/DTD/svg11.dtd">
<svg xmlns:xlink="http://www.w3.org/1999/xlink" width="168pt" height="207.65942pt" viewBox="0 0 168 207.65942" xmlns="http://www.w3.org/2000/svg" version="1.1">
 <metadata>
  <rdf:RDF xmlns:dc="http://purl.org/dc/elements/1.1/" xmlns:cc="http://creativecommons.org/ns#" xmlns:rdf="http://www.w3.org/1999/02/22-rdf-syntax-ns#">
   <cc:Work>
    <dc:type rdf:resource="http://purl.org/dc/dcmitype/StillImage"/>
    <dc:date>2025-03-10T12:57:44.167597</dc:date>
    <dc:format>image/svg+xml</dc:format>
    <dc:creator>
     <cc:Agent>
      <dc:title>Matplotlib v3.8.4, https://matplotlib.org/</dc:title>
     </cc:Agent>
    </dc:creator>
   </cc:Work>
  </rdf:RDF>
 </metadata>
 <defs>
  <style type="text/css">*{stroke-linejoin: round; stroke-linecap: butt}</style>
 </defs>
 <g id="figure_1">
  <g id="patch_1">
   <path d="M 0 207.65942 
L 168 207.65942 
L 168 0 
L 0 0 
L 0 207.65942 
z
" style="fill: none"/>
  </g>
  <g id="axes_1">
   <g id="patch_2">
    <path d="M 31.57894 93.035205 
L 164.99976 93.035205 
L 164.99976 12.387022 
L 31.57894 12.387022 
L 31.57894 93.035205 
z
" style="fill: none"/>
   </g>
   <g id="line2d_1">
    <path d="M 98.28935 93.035205 
L 98.28935 12.387022 
" clip-path="url(#p3d6a8b1338)" style="fill: none; stroke: #d3d3d3; stroke-width: 0.5; stroke-linecap: square"/>
   </g>
   <g id="matplotlib.axis_1">
    <g id="xtick_1">
     <g id="line2d_2">
      <defs>
       <path id="mfd400b1262" d="M 0 0 
L 0 -2 
" style="stroke: #000000; stroke-width: 0.5"/>
      </defs>
      <g>
       <use xlink:href="#mfd400b1262" x="37.643523" y="93.035205" style="stroke: #000000; stroke-width: 0.5"/>
      </g>
     </g>
     <g id="line2d_3">
      <defs>
       <path id="m0a0fbe15d2" d="M 0 0 
L 0 2 
" style="stroke: #000000; stroke-width: 0.5"/>
      </defs>
      <g>
       <use xlink:href="#m0a0fbe15d2" x="37.643523" y="12.387022" style="stroke: #000000; stroke-width: 0.5"/>
      </g>
     </g>
    </g>
    <g id="xtick_2">
     <g id="line2d_4">
      <g>
       <use xlink:href="#mfd400b1262" x="67.966436" y="93.035205" style="stroke: #000000; stroke-width: 0.5"/>
      </g>
     </g>
     <g id="line2d_5">
      <g>
       <use xlink:href="#m0a0fbe15d2" x="67.966436" y="12.387022" style="stroke: #000000; stroke-width: 0.5"/>
      </g>
     </g>
    </g>
    <g id="xtick_3">
     <g id="line2d_6">
      <g>
       <use xlink:href="#mfd400b1262" x="98.28935" y="93.035205" style="stroke: #000000; stroke-width: 0.5"/>
      </g>
     </g>
     <g id="line2d_7">
      <g>
       <use xlink:href="#m0a0fbe15d2" x="98.28935" y="12.387022" style="stroke: #000000; stroke-width: 0.5"/>
      </g>
     </g>
    </g>
    <g id="xtick_4">
     <g id="line2d_8">
      <g>
       <use xlink:href="#mfd400b1262" x="128.612264" y="93.035205" style="stroke: #000000; stroke-width: 0.5"/>
      </g>
     </g>
     <g id="line2d_9">
      <g>
       <use xlink:href="#m0a0fbe15d2" x="128.612264" y="12.387022" style="stroke: #000000; stroke-width: 0.5"/>
      </g>
     </g>
    </g>
    <g id="xtick_5">
     <g id="line2d_10">
      <g>
       <use xlink:href="#mfd400b1262" x="158.935177" y="93.035205" style="stroke: #000000; stroke-width: 0.5"/>
      </g>
     </g>
     <g id="line2d_11">
      <g>
       <use xlink:href="#m0a0fbe15d2" x="158.935177" y="12.387022" style="stroke: #000000; stroke-width: 0.5"/>
      </g>
     </g>
    </g>
   </g>
   <g id="matplotlib.axis_2">
    <g id="ytick_1">
     <g id="line2d_12">
      <defs>
       <path id="m6b4f4c0bf2" d="M 0 0 
L 2 0 
" style="stroke: #000000; stroke-width: 0.5"/>
      </defs>
      <g>
       <use xlink:href="#m6b4f4c0bf2" x="31.57894" y="86.228294" style="stroke: #000000; stroke-width: 0.5"/>
      </g>
     </g>
     <g id="line2d_13">
      <defs>
       <path id="md8495d5ffc" d="M 0 0 
L -2 0 
" style="stroke: #000000; stroke-width: 0.5"/>
      </defs>
      <g>
       <use xlink:href="#md8495d5ffc" x="164.99976" y="86.228294" style="stroke: #000000; stroke-width: 0.5"/>
      </g>
     </g>
     <g id="text_1">
      <!-- 1.8 -->
      <g transform="translate(16.50024 89.209523) scale(0.0833 -0.0833)">
       <defs>
        <path id="ArialMT-31" d="M 2384 0 
L 1822 0 
L 1822 3584 
Q 1619 3391 1289 3197 
Q 959 3003 697 2906 
L 697 3450 
Q 1169 3672 1522 3987 
Q 1875 4303 2022 4600 
L 2384 4600 
L 2384 0 
z
" transform="scale(0.015625)"/>
        <path id="ArialMT-2e" d="M 581 0 
L 581 641 
L 1222 641 
L 1222 0 
L 581 0 
z
" transform="scale(0.015625)"/>
        <path id="ArialMT-38" d="M 1131 2484 
Q 781 2613 612 2850 
Q 444 3088 444 3419 
Q 444 3919 803 4259 
Q 1163 4600 1759 4600 
Q 2359 4600 2725 4251 
Q 3091 3903 3091 3403 
Q 3091 3084 2923 2848 
Q 2756 2613 2416 2484 
Q 2838 2347 3058 2040 
Q 3278 1734 3278 1309 
Q 3278 722 2862 322 
Q 2447 -78 1769 -78 
Q 1091 -78 675 323 
Q 259 725 259 1325 
Q 259 1772 486 2073 
Q 713 2375 1131 2484 
z
M 1019 3438 
Q 1019 3113 1228 2906 
Q 1438 2700 1772 2700 
Q 2097 2700 2305 2904 
Q 2513 3109 2513 3406 
Q 2513 3716 2298 3927 
Q 2084 4138 1766 4138 
Q 1444 4138 1231 3931 
Q 1019 3725 1019 3438 
z
M 838 1322 
Q 838 1081 952 856 
Q 1066 631 1291 507 
Q 1516 384 1775 384 
Q 2178 384 2440 643 
Q 2703 903 2703 1303 
Q 2703 1709 2433 1975 
Q 2163 2241 1756 2241 
Q 1359 2241 1098 1978 
Q 838 1716 838 1322 
z
" transform="scale(0.015625)"/>
       </defs>
       <use xlink:href="#ArialMT-31"/>
       <use xlink:href="#ArialMT-2e" x="55.615234"/>
       <use xlink:href="#ArialMT-38" x="83.398438"/>
      </g>
     </g>
    </g>
    <g id="ytick_2">
     <g id="line2d_14">
      <g>
       <use xlink:href="#m6b4f4c0bf2" x="31.57894" y="67.965428" style="stroke: #000000; stroke-width: 0.5"/>
      </g>
     </g>
     <g id="line2d_15">
      <g>
       <use xlink:href="#md8495d5ffc" x="164.99976" y="67.965428" style="stroke: #000000; stroke-width: 0.5"/>
      </g>
     </g>
     <g id="text_2">
      <!-- 2.0 -->
      <g transform="translate(16.50024 70.946657) scale(0.0833 -0.0833)">
       <defs>
        <path id="ArialMT-32" d="M 3222 541 
L 3222 0 
L 194 0 
Q 188 203 259 391 
Q 375 700 629 1000 
Q 884 1300 1366 1694 
Q 2113 2306 2375 2664 
Q 2638 3022 2638 3341 
Q 2638 3675 2398 3904 
Q 2159 4134 1775 4134 
Q 1369 4134 1125 3890 
Q 881 3647 878 3216 
L 300 3275 
Q 359 3922 746 4261 
Q 1134 4600 1788 4600 
Q 2447 4600 2831 4234 
Q 3216 3869 3216 3328 
Q 3216 3053 3103 2787 
Q 2991 2522 2730 2228 
Q 2469 1934 1863 1422 
Q 1356 997 1212 845 
Q 1069 694 975 541 
L 3222 541 
z
" transform="scale(0.015625)"/>
        <path id="ArialMT-30" d="M 266 2259 
Q 266 3072 433 3567 
Q 600 4063 929 4331 
Q 1259 4600 1759 4600 
Q 2128 4600 2406 4451 
Q 2684 4303 2865 4023 
Q 3047 3744 3150 3342 
Q 3253 2941 3253 2259 
Q 3253 1453 3087 958 
Q 2922 463 2592 192 
Q 2263 -78 1759 -78 
Q 1097 -78 719 397 
Q 266 969 266 2259 
z
M 844 2259 
Q 844 1131 1108 757 
Q 1372 384 1759 384 
Q 2147 384 2411 759 
Q 2675 1134 2675 2259 
Q 2675 3391 2411 3762 
Q 2147 4134 1753 4134 
Q 1366 4134 1134 3806 
Q 844 3388 844 2259 
z
" transform="scale(0.015625)"/>
       </defs>
       <use xlink:href="#ArialMT-32"/>
       <use xlink:href="#ArialMT-2e" x="55.615234"/>
       <use xlink:href="#ArialMT-30" x="83.398438"/>
      </g>
     </g>
    </g>
    <g id="ytick_3">
     <g id="line2d_16">
      <g>
       <use xlink:href="#m6b4f4c0bf2" x="31.57894" y="49.702562" style="stroke: #000000; stroke-width: 0.5"/>
      </g>
     </g>
     <g id="line2d_17">
      <g>
       <use xlink:href="#md8495d5ffc" x="164.99976" y="49.702562" style="stroke: #000000; stroke-width: 0.5"/>
      </g>
     </g>
     <g id="text_3">
      <!-- 2.2 -->
      <g transform="translate(16.50024 52.683791) scale(0.0833 -0.0833)">
       <use xlink:href="#ArialMT-32"/>
       <use xlink:href="#ArialMT-2e" x="55.615234"/>
       <use xlink:href="#ArialMT-32" x="83.398438"/>
      </g>
     </g>
    </g>
    <g id="ytick_4">
     <g id="line2d_18">
      <g>
       <use xlink:href="#m6b4f4c0bf2" x="31.57894" y="31.439697" style="stroke: #000000; stroke-width: 0.5"/>
      </g>
     </g>
     <g id="line2d_19">
      <g>
       <use xlink:href="#md8495d5ffc" x="164.99976" y="31.439697" style="stroke: #000000; stroke-width: 0.5"/>
      </g>
     </g>
     <g id="text_4">
      <!-- 2.4 -->
      <g transform="translate(16.50024 34.420926) scale(0.0833 -0.0833)">
       <defs>
        <path id="ArialMT-34" d="M 2069 0 
L 2069 1097 
L 81 1097 
L 81 1613 
L 2172 4581 
L 2631 4581 
L 2631 1613 
L 3250 1613 
L 3250 1097 
L 2631 1097 
L 2631 0 
L 2069 0 
z
M 2069 1613 
L 2069 3678 
L 634 1613 
L 2069 1613 
z
" transform="scale(0.015625)"/>
       </defs>
       <use xlink:href="#ArialMT-32"/>
       <use xlink:href="#ArialMT-2e" x="55.615234"/>
       <use xlink:href="#ArialMT-34" x="83.398438"/>
      </g>
     </g>
    </g>
    <g id="ytick_5">
     <g id="line2d_20">
      <g>
       <use xlink:href="#m6b4f4c0bf2" x="31.57894" y="13.176831" style="stroke: #000000; stroke-width: 0.5"/>
      </g>
     </g>
     <g id="line2d_21">
      <g>
       <use xlink:href="#md8495d5ffc" x="164.99976" y="13.176831" style="stroke: #000000; stroke-width: 0.5"/>
      </g>
     </g>
     <g id="text_5">
      <!-- 2.6 -->
      <g transform="translate(16.50024 16.15806) scale(0.0833 -0.0833)">
       <defs>
        <path id="ArialMT-36" d="M 3184 3459 
L 2625 3416 
Q 2550 3747 2413 3897 
Q 2184 4138 1850 4138 
Q 1581 4138 1378 3988 
Q 1113 3794 959 3422 
Q 806 3050 800 2363 
Q 1003 2672 1297 2822 
Q 1591 2972 1913 2972 
Q 2475 2972 2870 2558 
Q 3266 2144 3266 1488 
Q 3266 1056 3080 686 
Q 2894 316 2569 119 
Q 2244 -78 1831 -78 
Q 1128 -78 684 439 
Q 241 956 241 2144 
Q 241 3472 731 4075 
Q 1159 4600 1884 4600 
Q 2425 4600 2770 4297 
Q 3116 3994 3184 3459 
z
M 888 1484 
Q 888 1194 1011 928 
Q 1134 663 1356 523 
Q 1578 384 1822 384 
Q 2178 384 2434 671 
Q 2691 959 2691 1453 
Q 2691 1928 2437 2201 
Q 2184 2475 1800 2475 
Q 1419 2475 1153 2201 
Q 888 1928 888 1484 
z
" transform="scale(0.015625)"/>
       </defs>
       <use xlink:href="#ArialMT-32"/>
       <use xlink:href="#ArialMT-2e" x="55.615234"/>
       <use xlink:href="#ArialMT-36" x="83.398438"/>
      </g>
     </g>
    </g>
    <g id="text_6">
     <!-- $I_\mathrm{c}$ (μA) -->
     <g transform="translate(10.30024 67.761114) rotate(-90) scale(0.1 -0.1)">
      <defs>
       <path id="Cmmi10-49" d="M 269 0 
Q 206 0 206 84 
Q 231 225 288 225 
Q 666 225 800 250 
Q 947 284 984 441 
L 1863 3956 
Q 1875 4019 1875 4038 
Q 1875 4078 1854 4095 
Q 1834 4113 1791 4122 
Q 1663 4147 1306 4147 
Q 1241 4147 1241 4231 
Q 1263 4313 1275 4342 
Q 1288 4372 1350 4372 
L 3138 4372 
Q 3200 4372 3200 4288 
Q 3197 4272 3187 4234 
Q 3178 4197 3162 4172 
Q 3147 4147 3116 4147 
Q 2741 4147 2597 4122 
Q 2456 4088 2419 3928 
L 1544 416 
Q 1528 338 1528 331 
Q 1528 316 1533 302 
Q 1538 288 1552 277 
Q 1566 266 1580 261 
Q 1594 256 1613 250 
Q 1734 225 2100 225 
Q 2163 225 2163 141 
Q 2141 50 2128 25 
Q 2116 0 2053 0 
L 269 0 
z
" transform="scale(0.015625)"/>
       <path id="Cmr10-63" d="M 1594 -72 
Q 1206 -72 890 129 
Q 575 331 394 667 
Q 213 1003 213 1381 
Q 213 1759 392 2106 
Q 572 2453 889 2661 
Q 1206 2869 1594 2869 
Q 1969 2869 2276 2722 
Q 2584 2575 2584 2241 
Q 2584 2116 2495 2023 
Q 2406 1931 2278 1931 
Q 2150 1931 2061 2023 
Q 1972 2116 1972 2241 
Q 1972 2353 2044 2436 
Q 2116 2519 2222 2541 
Q 2000 2681 1600 2681 
Q 1294 2681 1106 2478 
Q 919 2275 844 1975 
Q 769 1675 769 1381 
Q 769 1072 861 783 
Q 953 494 1158 305 
Q 1363 116 1672 116 
Q 1975 116 2187 302 
Q 2400 488 2478 788 
Q 2478 825 2528 825 
L 2606 825 
Q 2625 825 2640 808 
Q 2656 791 2656 769 
L 2656 750 
Q 2559 372 2271 150 
Q 1984 -72 1594 -72 
z
" transform="scale(0.015625)"/>
       <path id="ArialMT-20" transform="scale(0.015625)"/>
       <path id="ArialMT-28" d="M 1497 -1347 
Q 1031 -759 709 28 
Q 388 816 388 1659 
Q 388 2403 628 3084 
Q 909 3875 1497 4659 
L 1900 4659 
Q 1522 4009 1400 3731 
Q 1209 3300 1100 2831 
Q 966 2247 966 1656 
Q 966 153 1900 -1347 
L 1497 -1347 
z
" transform="scale(0.015625)"/>
       <path id="ArialMT-3bc" d="M 3181 3319 
L 3181 0 
L 2678 0 
L 2678 394 
Q 2516 144 2356 50 
Q 2138 -78 1847 -78 
Q 1588 -78 1388 25 
Q 1238 103 1056 334 
L 1056 -1272 
L 500 -1272 
L 500 3319 
L 1056 3319 
L 1056 1913 
Q 1056 1147 1137 920 
Q 1219 694 1401 562 
Q 1584 431 1822 431 
Q 2072 431 2269 568 
Q 2466 706 2547 923 
Q 2628 1141 2628 1903 
L 2628 3319 
L 3181 3319 
z
" transform="scale(0.015625)"/>
       <path id="ArialMT-41" d="M -9 0 
L 1750 4581 
L 2403 4581 
L 4278 0 
L 3588 0 
L 3053 1388 
L 1138 1388 
L 634 0 
L -9 0 
z
M 1313 1881 
L 2866 1881 
L 2388 3150 
Q 2169 3728 2063 4100 
Q 1975 3659 1816 3225 
L 1313 1881 
z
" transform="scale(0.015625)"/>
       <path id="ArialMT-29" d="M 791 -1347 
L 388 -1347 
Q 1322 153 1322 1656 
Q 1322 2244 1188 2822 
Q 1081 3291 891 3722 
Q 769 4003 388 4659 
L 791 4659 
Q 1378 3875 1659 3084 
Q 1900 2403 1900 1659 
Q 1900 816 1576 28 
Q 1253 -759 791 -1347 
z
" transform="scale(0.015625)"/>
      </defs>
      <use xlink:href="#Cmmi10-49" transform="translate(0 0.203125)"/>
      <use xlink:href="#Cmr10-63" transform="translate(43.896484 -16.803125) scale(0.7)"/>
      <use xlink:href="#ArialMT-20" transform="translate(81.343164 0.203125)"/>
      <use xlink:href="#ArialMT-28" transform="translate(109.126367 0.203125)"/>
      <use xlink:href="#ArialMT-3bc" transform="translate(142.427148 0.203125)"/>
      <use xlink:href="#ArialMT-41" transform="translate(200.044336 0.203125)"/>
      <use xlink:href="#ArialMT-29" transform="translate(266.743555 0.203125)"/>
     </g>
    </g>
   </g>
   <g id="patch_3">
    <path d="M 31.57894 93.035205 
L 31.57894 12.387022 
" style="fill: none; stroke: #000000; stroke-width: 0.5; stroke-linejoin: miter; stroke-linecap: square"/>
   </g>
   <g id="patch_4">
    <path d="M 164.99976 93.035205 
L 164.99976 12.387022 
" style="fill: none; stroke: #000000; stroke-width: 0.5; stroke-linejoin: miter; stroke-linecap: square"/>
   </g>
   <g id="patch_5">
    <path d="M 31.57894 93.035205 
L 164.99976 93.035205 
" style="fill: none; stroke: #000000; stroke-width: 0.5; stroke-linejoin: miter; stroke-linecap: square"/>
   </g>
   <g id="patch_6">
    <path d="M 31.57894 12.387022 
L 164.99976 12.387022 
" style="fill: none; stroke: #000000; stroke-width: 0.5; stroke-linejoin: miter; stroke-linecap: square"/>
   </g>
   <g id="text_7">
    <!-- $B_\parallel=$125$\,$mT -->
    <g transform="translate(31.57894 8.99824) scale(0.0833 -0.0833)">
     <defs>
      <path id="Cmmi10-42" d="M 319 0 
Q 256 0 256 84 
Q 259 100 268 137 
Q 278 175 293 200 
Q 309 225 341 225 
Q 522 225 656 234 
Q 791 244 884 269 
Q 959 297 1006 441 
L 1881 3956 
Q 1894 4019 1894 4044 
Q 1894 4113 1819 4122 
Q 1697 4147 1356 4147 
Q 1294 4147 1294 4231 
Q 1297 4247 1306 4286 
Q 1316 4325 1333 4348 
Q 1350 4372 1375 4372 
L 3669 4372 
Q 3878 4372 4083 4320 
Q 4288 4269 4461 4156 
Q 4634 4044 4736 3876 
Q 4838 3709 4838 3488 
Q 4838 3247 4714 3040 
Q 4591 2834 4395 2681 
Q 4200 2528 3973 2429 
Q 3747 2331 3500 2284 
Q 3675 2284 3854 2215 
Q 4034 2147 4175 2028 
Q 4316 1909 4402 1743 
Q 4488 1578 4488 1388 
Q 4488 1003 4219 684 
Q 3950 366 3542 183 
Q 3134 0 2753 0 
L 319 0 
z
M 1497 275 
Q 1497 225 1716 225 
L 2631 225 
Q 2944 225 3231 398 
Q 3519 572 3692 859 
Q 3866 1147 3866 1459 
Q 3866 1650 3786 1820 
Q 3706 1991 3556 2089 
Q 3406 2188 3213 2188 
L 1966 2188 
L 1522 416 
Q 1497 328 1497 275 
z
M 2009 2356 
L 2981 2356 
Q 3288 2356 3577 2512 
Q 3866 2669 4048 2937 
Q 4231 3206 4231 3506 
Q 4231 3784 4057 3965 
Q 3884 4147 3609 4147 
L 2731 4147 
Q 2559 4147 2500 4115 
Q 2441 4084 2400 3928 
L 2009 2356 
z
" transform="scale(0.015625)"/>
      <path id="STIXGeneral-Regular-2225" d="M 2522 -1210 
L 2099 -1210 
L 2099 4416 
L 2522 4416 
L 2522 -1210 
z
M 1248 -1210 
L 826 -1210 
L 826 4416 
L 1248 4416 
L 1248 -1210 
z
" transform="scale(0.015625)"/>
      <path id="Cmr10-3d" d="M 481 850 
Q 428 850 393 890 
Q 359 931 359 978 
Q 359 1031 393 1068 
Q 428 1106 481 1106 
L 4500 1106 
Q 4547 1106 4581 1068 
Q 4616 1031 4616 978 
Q 4616 931 4581 890 
Q 4547 850 4500 850 
L 481 850 
z
M 481 2094 
Q 428 2094 393 2131 
Q 359 2169 359 2222 
Q 359 2269 393 2309 
Q 428 2350 481 2350 
L 4500 2350 
Q 4547 2350 4581 2309 
Q 4616 2269 4616 2222 
Q 4616 2169 4581 2131 
Q 4547 2094 4500 2094 
L 481 2094 
z
" transform="scale(0.015625)"/>
      <path id="ArialMT-35" d="M 266 1200 
L 856 1250 
Q 922 819 1161 601 
Q 1400 384 1738 384 
Q 2144 384 2425 690 
Q 2706 997 2706 1503 
Q 2706 1984 2436 2262 
Q 2166 2541 1728 2541 
Q 1456 2541 1237 2417 
Q 1019 2294 894 2097 
L 366 2166 
L 809 4519 
L 3088 4519 
L 3088 3981 
L 1259 3981 
L 1013 2750 
Q 1425 3038 1878 3038 
Q 2478 3038 2890 2622 
Q 3303 2206 3303 1553 
Q 3303 931 2941 478 
Q 2500 -78 1738 -78 
Q 1113 -78 717 272 
Q 322 622 266 1200 
z
" transform="scale(0.015625)"/>
      <path id="ArialMT-6d" d="M 422 0 
L 422 3319 
L 925 3319 
L 925 2853 
Q 1081 3097 1340 3245 
Q 1600 3394 1931 3394 
Q 2300 3394 2536 3241 
Q 2772 3088 2869 2813 
Q 3263 3394 3894 3394 
Q 4388 3394 4653 3120 
Q 4919 2847 4919 2278 
L 4919 0 
L 4359 0 
L 4359 2091 
Q 4359 2428 4304 2576 
Q 4250 2725 4106 2815 
Q 3963 2906 3769 2906 
Q 3419 2906 3187 2673 
Q 2956 2441 2956 1928 
L 2956 0 
L 2394 0 
L 2394 2156 
Q 2394 2531 2256 2718 
Q 2119 2906 1806 2906 
Q 1569 2906 1367 2781 
Q 1166 2656 1075 2415 
Q 984 2175 984 1722 
L 984 0 
L 422 0 
z
" transform="scale(0.015625)"/>
      <path id="ArialMT-54" d="M 1659 0 
L 1659 4041 
L 150 4041 
L 150 4581 
L 3781 4581 
L 3781 4041 
L 2266 4041 
L 2266 0 
L 1659 0 
z
" transform="scale(0.015625)"/>
     </defs>
     <use xlink:href="#Cmmi10-42" transform="translate(0 0.125)"/>
     <use xlink:href="#STIXGeneral-Regular-2225" transform="translate(88.072266 -16.88125) scale(0.7)"/>
     <use xlink:href="#Cmr10-3d" transform="translate(160.90921 0.125)"/>
     <use xlink:href="#ArialMT-31" transform="translate(256.153351 0.125)"/>
     <use xlink:href="#ArialMT-32" transform="translate(311.768585 0.125)"/>
     <use xlink:href="#ArialMT-35" transform="translate(367.38382 0.125)"/>
     <use xlink:href="#ArialMT-6d" transform="translate(437.631508 0.125)"/>
     <use xlink:href="#ArialMT-54" transform="translate(520.932289 0.125)"/>
    </g>
   </g>
   <g id="text_8">
    <!-- experiment -->
    <g transform="translate(123.796196 9.924953) scale(0.0833 -0.0833)">
     <defs>
      <path id="ArialMT-65" d="M 2694 1069 
L 3275 997 
Q 3138 488 2766 206 
Q 2394 -75 1816 -75 
Q 1088 -75 661 373 
Q 234 822 234 1631 
Q 234 2469 665 2931 
Q 1097 3394 1784 3394 
Q 2450 3394 2872 2941 
Q 3294 2488 3294 1666 
Q 3294 1616 3291 1516 
L 816 1516 
Q 847 969 1125 678 
Q 1403 388 1819 388 
Q 2128 388 2347 550 
Q 2566 713 2694 1069 
z
M 847 1978 
L 2700 1978 
Q 2663 2397 2488 2606 
Q 2219 2931 1791 2931 
Q 1403 2931 1139 2672 
Q 875 2413 847 1978 
z
" transform="scale(0.015625)"/>
      <path id="ArialMT-78" d="M 47 0 
L 1259 1725 
L 138 3319 
L 841 3319 
L 1350 2541 
Q 1494 2319 1581 2169 
Q 1719 2375 1834 2534 
L 2394 3319 
L 3066 3319 
L 1919 1756 
L 3153 0 
L 2463 0 
L 1781 1031 
L 1600 1309 
L 728 0 
L 47 0 
z
" transform="scale(0.015625)"/>
      <path id="ArialMT-70" d="M 422 -1272 
L 422 3319 
L 934 3319 
L 934 2888 
Q 1116 3141 1344 3267 
Q 1572 3394 1897 3394 
Q 2322 3394 2647 3175 
Q 2972 2956 3137 2557 
Q 3303 2159 3303 1684 
Q 3303 1175 3120 767 
Q 2938 359 2589 142 
Q 2241 -75 1856 -75 
Q 1575 -75 1351 44 
Q 1128 163 984 344 
L 984 -1272 
L 422 -1272 
z
M 931 1641 
Q 931 1000 1190 694 
Q 1450 388 1819 388 
Q 2194 388 2461 705 
Q 2728 1022 2728 1688 
Q 2728 2322 2467 2637 
Q 2206 2953 1844 2953 
Q 1484 2953 1207 2617 
Q 931 2281 931 1641 
z
" transform="scale(0.015625)"/>
      <path id="ArialMT-72" d="M 416 0 
L 416 3319 
L 922 3319 
L 922 2816 
Q 1116 3169 1280 3281 
Q 1444 3394 1641 3394 
Q 1925 3394 2219 3213 
L 2025 2691 
Q 1819 2813 1613 2813 
Q 1428 2813 1281 2702 
Q 1134 2591 1072 2394 
Q 978 2094 978 1738 
L 978 0 
L 416 0 
z
" transform="scale(0.015625)"/>
      <path id="ArialMT-69" d="M 425 3934 
L 425 4581 
L 988 4581 
L 988 3934 
L 425 3934 
z
M 425 0 
L 425 3319 
L 988 3319 
L 988 0 
L 425 0 
z
" transform="scale(0.015625)"/>
      <path id="ArialMT-6e" d="M 422 0 
L 422 3319 
L 928 3319 
L 928 2847 
Q 1294 3394 1984 3394 
Q 2284 3394 2536 3286 
Q 2788 3178 2913 3003 
Q 3038 2828 3088 2588 
Q 3119 2431 3119 2041 
L 3119 0 
L 2556 0 
L 2556 2019 
Q 2556 2363 2490 2533 
Q 2425 2703 2258 2804 
Q 2091 2906 1866 2906 
Q 1506 2906 1245 2678 
Q 984 2450 984 1813 
L 984 0 
L 422 0 
z
" transform="scale(0.015625)"/>
      <path id="ArialMT-74" d="M 1650 503 
L 1731 6 
Q 1494 -44 1306 -44 
Q 1000 -44 831 53 
Q 663 150 594 308 
Q 525 466 525 972 
L 525 2881 
L 113 2881 
L 113 3319 
L 525 3319 
L 525 4141 
L 1084 4478 
L 1084 3319 
L 1650 3319 
L 1650 2881 
L 1084 2881 
L 1084 941 
Q 1084 700 1114 631 
Q 1144 563 1211 522 
Q 1278 481 1403 481 
Q 1497 481 1650 503 
z
" transform="scale(0.015625)"/>
     </defs>
     <use xlink:href="#ArialMT-65"/>
     <use xlink:href="#ArialMT-78" x="55.615234"/>
     <use xlink:href="#ArialMT-70" x="105.615234"/>
     <use xlink:href="#ArialMT-65" x="161.230469"/>
     <use xlink:href="#ArialMT-72" x="216.845703"/>
     <use xlink:href="#ArialMT-69" x="250.146484"/>
     <use xlink:href="#ArialMT-6d" x="272.363281"/>
     <use xlink:href="#ArialMT-65" x="355.664062"/>
     <use xlink:href="#ArialMT-6e" x="411.279297"/>
     <use xlink:href="#ArialMT-74" x="466.894531"/>
    </g>
   </g>
   <g id="line2d_22">
    <path d="M 37.643523 88.73152 
L 42.697342 87.7946 
L 47.751161 82.519409 
L 52.80498 72.343256 
L 57.858798 59.404034 
L 62.912617 46.621323 
L 67.966436 40.092643 
L 73.020255 45.235964 
L 78.074074 58.249175 
L 83.127893 71.471054 
L 88.181712 81.875783 
L 93.235531 88.072705 
L 98.28935 89.182123 
L 103.343169 85.365174 
L 108.396988 76.036288 
L 113.450807 61.388463 
L 118.504626 42.778249 
L 123.558445 25.388939 
L 128.612264 17.201208 
L 128.612264 17.009349 
L 133.666083 24.061897 
L 138.719902 40.745872 
L 143.77372 59.635202 
L 148.827539 74.852442 
L 153.881358 84.617028 
L 158.935177 88.73152 
" clip-path="url(#p3d6a8b1338)" style="fill: none"/>
    <defs>
     <path id="m6379026cb7" d="M 0 1.5 
C 0.397805 1.5 0.77937 1.341951 1.06066 1.06066 
C 1.341951 0.77937 1.5 0.397805 1.5 0 
C 1.5 -0.397805 1.341951 -0.77937 1.06066 -1.06066 
C 0.77937 -1.341951 0.397805 -1.5 0 -1.5 
C -0.397805 -1.5 -0.77937 -1.341951 -1.06066 -1.06066 
C -1.341951 -0.77937 -1.5 -0.397805 -1.5 0 
C -1.5 0.397805 -1.341951 0.77937 -1.06066 1.06066 
C -0.77937 1.341951 -0.397805 1.5 0 1.5 
z
" style="stroke: #1f77b4; stroke-width: 0.5"/>
    </defs>
    <g clip-path="url(#p3d6a8b1338)">
     <use xlink:href="#m6379026cb7" x="37.643523" y="88.73152" style="fill: #1f77b4; stroke: #1f77b4; stroke-width: 0.5"/>
     <use xlink:href="#m6379026cb7" x="42.697342" y="87.7946" style="fill: #1f77b4; stroke: #1f77b4; stroke-width: 0.5"/>
     <use xlink:href="#m6379026cb7" x="47.751161" y="82.519409" style="fill: #1f77b4; stroke: #1f77b4; stroke-width: 0.5"/>
     <use xlink:href="#m6379026cb7" x="52.80498" y="72.343256" style="fill: #1f77b4; stroke: #1f77b4; stroke-width: 0.5"/>
     <use xlink:href="#m6379026cb7" x="57.858798" y="59.404034" style="fill: #1f77b4; stroke: #1f77b4; stroke-width: 0.5"/>
     <use xlink:href="#m6379026cb7" x="62.912617" y="46.621323" style="fill: #1f77b4; stroke: #1f77b4; stroke-width: 0.5"/>
     <use xlink:href="#m6379026cb7" x="67.966436" y="40.092643" style="fill: #1f77b4; stroke: #1f77b4; stroke-width: 0.5"/>
     <use xlink:href="#m6379026cb7" x="73.020255" y="45.235964" style="fill: #1f77b4; stroke: #1f77b4; stroke-width: 0.5"/>
     <use xlink:href="#m6379026cb7" x="78.074074" y="58.249175" style="fill: #1f77b4; stroke: #1f77b4; stroke-width: 0.5"/>
     <use xlink:href="#m6379026cb7" x="83.127893" y="71.471054" style="fill: #1f77b4; stroke: #1f77b4; stroke-width: 0.5"/>
     <use xlink:href="#m6379026cb7" x="88.181712" y="81.875783" style="fill: #1f77b4; stroke: #1f77b4; stroke-width: 0.5"/>
     <use xlink:href="#m6379026cb7" x="93.235531" y="88.072705" style="fill: #1f77b4; stroke: #1f77b4; stroke-width: 0.5"/>
     <use xlink:href="#m6379026cb7" x="98.28935" y="89.182123" style="fill: #1f77b4; stroke: #1f77b4; stroke-width: 0.5"/>
     <use xlink:href="#m6379026cb7" x="103.343169" y="85.365174" style="fill: #1f77b4; stroke: #1f77b4; stroke-width: 0.5"/>
     <use xlink:href="#m6379026cb7" x="108.396988" y="76.036288" style="fill: #1f77b4; stroke: #1f77b4; stroke-width: 0.5"/>
     <use xlink:href="#m6379026cb7" x="113.450807" y="61.388463" style="fill: #1f77b4; stroke: #1f77b4; stroke-width: 0.5"/>
     <use xlink:href="#m6379026cb7" x="118.504626" y="42.778249" style="fill: #1f77b4; stroke: #1f77b4; stroke-width: 0.5"/>
     <use xlink:href="#m6379026cb7" x="123.558445" y="25.388939" style="fill: #1f77b4; stroke: #1f77b4; stroke-width: 0.5"/>
     <use xlink:href="#m6379026cb7" x="128.612264" y="17.201208" style="fill: #1f77b4; stroke: #1f77b4; stroke-width: 0.5"/>
     <use xlink:href="#m6379026cb7" x="128.612264" y="17.009349" style="fill: #1f77b4; stroke: #1f77b4; stroke-width: 0.5"/>
     <use xlink:href="#m6379026cb7" x="133.666083" y="24.061897" style="fill: #1f77b4; stroke: #1f77b4; stroke-width: 0.5"/>
     <use xlink:href="#m6379026cb7" x="138.719902" y="40.745872" style="fill: #1f77b4; stroke: #1f77b4; stroke-width: 0.5"/>
     <use xlink:href="#m6379026cb7" x="143.77372" y="59.635202" style="fill: #1f77b4; stroke: #1f77b4; stroke-width: 0.5"/>
     <use xlink:href="#m6379026cb7" x="148.827539" y="74.852442" style="fill: #1f77b4; stroke: #1f77b4; stroke-width: 0.5"/>
     <use xlink:href="#m6379026cb7" x="153.881358" y="84.617028" style="fill: #1f77b4; stroke: #1f77b4; stroke-width: 0.5"/>
     <use xlink:href="#m6379026cb7" x="158.935177" y="88.73152" style="fill: #1f77b4; stroke: #1f77b4; stroke-width: 0.5"/>
    </g>
   </g>
   <g id="line2d_23">
    <path d="M 37.643523 88.73152 
L 38.654287 88.913755 
L 39.66505 88.899792 
L 40.675814 88.70102 
L 42.023499 88.168192 
L 43.371184 87.352699 
L 44.718869 86.248984 
L 46.066554 84.820301 
L 47.414239 83.028544 
L 48.761924 80.842606 
L 50.446531 77.60491 
L 52.468058 73.13643 
L 54.826507 67.366515 
L 58.19572 58.497605 
L 61.564932 49.713115 
L 63.249539 45.911064 
L 64.597224 43.386437 
L 65.607988 41.889429 
L 66.618751 40.801067 
L 67.292594 40.333104 
L 67.966436 40.092643 
L 68.640279 40.092922 
L 69.314121 40.326726 
L 69.987964 40.781725 
L 70.661806 41.445593 
L 71.67257 42.806051 
L 72.683334 44.567112 
L 74.031019 47.460372 
L 75.715625 51.722799 
L 83.127893 71.471054 
L 85.149421 76.054771 
L 87.170948 80.090418 
L 88.855555 82.972676 
L 90.540161 85.367086 
L 91.887846 86.901523 
L 93.235531 88.072705 
L 94.246295 88.701806 
L 95.257059 89.120574 
L 96.267822 89.335734 
L 97.278586 89.354009 
L 98.28935 89.182123 
L 99.300114 88.824077 
L 100.310878 88.272977 
L 101.321641 87.519204 
L 102.669326 86.182284 
L 104.017011 84.445818 
L 105.364697 82.30272 
L 106.712382 79.760962 
L 108.396988 76.036288 
L 110.081594 71.719561 
L 111.766201 66.830278 
L 113.787728 60.235805 
L 116.146177 51.708218 
L 121.873838 30.581372 
L 123.558445 25.388939 
L 124.90613 21.956057 
L 125.916894 19.907451 
L 126.927657 18.385062 
L 127.6015 17.695949 
L 128.612264 17.009349 
L 128.612264 17.009349 
" clip-path="url(#p3d6a8b1338)" style="fill: none; stroke: #1f77b4; stroke-linecap: square"/>
   </g>
   <g id="line2d_24">
    <path d="M 128.612264 17.009349 
L 128.949185 17.028018 
L 129.286106 17.120912 
L 129.623027 17.285786 
L 129.959949 17.520397 
L 130.29687 17.822501 
L 130.633791 18.189853 
L 130.970712 18.620208 
L 131.307634 19.111324 
L 131.644555 19.660955 
L 131.981476 20.266858 
L 132.318398 20.926788 
L 132.655319 21.638501 
L 132.99224 22.399753 
L 133.329161 23.2083 
L 133.666083 24.061897 
L 134.003004 24.958301 
L 134.339925 25.895266 
L 134.676846 26.87055 
L 135.013768 27.881908 
L 135.350689 28.927095 
L 135.68761 30.003867 
L 136.024531 31.109981 
L 136.361453 32.243192 
L 136.698374 33.401255 
L 137.035295 34.581927 
L 137.372216 35.782964 
L 137.709138 37.002121 
L 138.046059 38.237154 
L 138.38298 39.485819 
L 138.719902 40.745872 
L 139.056823 42.015112 
L 139.393744 43.291515 
L 139.730665 44.573099 
L 140.067587 45.857884 
L 140.404508 47.143889 
L 140.741429 48.429132 
L 141.07835 49.711633 
L 141.415272 50.989411 
L 141.752193 52.260484 
L 142.089114 53.522872 
L 142.426035 54.774595 
L 142.762957 56.01367 
L 143.099878 57.238117 
L 143.436799 58.445954 
L 143.77372 59.635202 
L 144.110642 60.804162 
L 144.447563 61.952271 
L 144.784484 63.079247 
L 145.121406 64.184809 
L 145.458327 65.268678 
L 145.795248 66.330572 
L 146.132169 67.370211 
L 146.469091 68.387314 
L 146.806012 69.3816 
L 147.142933 70.352788 
L 147.479854 71.300598 
L 147.816776 72.224749 
L 148.153697 73.124961 
L 148.490618 74.000952 
L 148.827539 74.852442 
L 149.164461 75.679186 
L 149.501382 76.481087 
L 149.838303 77.258083 
L 150.175224 78.010113 
L 150.512146 78.737114 
L 150.849067 79.439025 
L 151.185988 80.115785 
L 151.522909 80.767332 
L 151.859831 81.393605 
L 152.196752 81.994542 
L 152.533673 82.570081 
L 152.870595 83.12016 
L 153.207516 83.644719 
L 153.544437 84.143696 
L 153.881358 84.617028 
L 154.21828 85.064695 
L 154.555201 85.486832 
L 154.892122 85.883615 
L 155.229043 86.255221 
L 155.565965 86.601826 
L 155.902886 86.923605 
L 156.239807 87.220735 
L 156.576728 87.493391 
L 156.91365 87.741751 
L 157.250571 87.965988 
L 157.587492 88.166281 
L 157.924413 88.342804 
L 158.261335 88.495735 
L 158.598256 88.625248 
L 158.935177 88.73152 
" clip-path="url(#p3d6a8b1338)" style="fill: none; stroke: #1f77b4; stroke-linecap: square"/>
   </g>
   <g id="legend_1">
    <g id="patch_7">
     <path d="M 86.82515 34.075096 
L 109.75355 34.075096 
Q 110.91155 34.075096 110.91155 32.917096 
L 110.91155 16.440022 
Q 110.91155 15.282022 109.75355 15.282022 
L 86.82515 15.282022 
Q 85.66715 15.282022 85.66715 16.440022 
L 85.66715 32.917096 
Q 85.66715 34.075096 86.82515 34.075096 
z
" style="fill: #ffffff; opacity: 0.8; stroke: #cccccc; stroke-linejoin: miter"/>
    </g>
    <g id="line2d_25">
     <path d="M 87.98315 19.715896 
L 90.87815 19.715896 
L 93.77315 19.715896 
" style="fill: none"/>
     <g>
      <use xlink:href="#m6379026cb7" x="90.87815" y="19.715896" style="fill: #1f77b4; stroke: #1f77b4; stroke-width: 0.5"/>
     </g>
    </g>
    <g id="text_9">
     <!-- $I_{\mathrm{c}+}$ -->
     <g transform="translate(96.08915 21.742396) scale(0.0579 -0.0579)">
      <defs>
       <path id="Cmr10-2b" d="M 481 1472 
Q 428 1472 393 1512 
Q 359 1553 359 1600 
Q 359 1647 393 1687 
Q 428 1728 481 1728 
L 2363 1728 
L 2363 3616 
Q 2363 3666 2400 3698 
Q 2438 3731 2491 3731 
Q 2538 3731 2578 3698 
Q 2619 3666 2619 3616 
L 2619 1728 
L 4500 1728 
Q 4547 1728 4581 1687 
Q 4616 1647 4616 1600 
Q 4616 1553 4581 1512 
Q 4547 1472 4500 1472 
L 2619 1472 
L 2619 -416 
Q 2619 -466 2578 -498 
Q 2538 -531 2491 -531 
Q 2438 -531 2400 -498 
Q 2363 -466 2363 -416 
L 2363 1472 
L 481 1472 
z
" transform="scale(0.015625)"/>
      </defs>
      <use xlink:href="#Cmmi10-49" transform="translate(0 0.6875)"/>
      <use xlink:href="#Cmr10-63" transform="translate(43.896484 -16.31875) scale(0.7)"/>
      <use xlink:href="#Cmr10-2b" transform="translate(87.256836 -16.31875) scale(0.7)"/>
     </g>
    </g>
    <g id="line2d_26">
     <path d="M 87.98315 28.285096 
L 90.87815 28.285096 
L 93.77315 28.285096 
" style="fill: none"/>
     <defs>
      <path id="mb930854bb6" d="M -1.5 1.5 
L 1.5 1.5 
L 1.5 -1.5 
L -1.5 -1.5 
z
" style="stroke: #ff7f0e; stroke-width: 0.5; stroke-linejoin: miter"/>
     </defs>
     <g>
      <use xlink:href="#mb930854bb6" x="90.87815" y="28.285096" style="fill: #ff7f0e; stroke: #ff7f0e; stroke-width: 0.5; stroke-linejoin: miter"/>
     </g>
    </g>
    <g id="text_10">
     <!-- $|I_{\mathrm{c}-}|$ -->
     <g transform="translate(96.08915 30.311596) scale(0.0579 -0.0579)">
      <defs>
       <path id="Cmsy10-6a" d="M 763 -1484 
L 763 4684 
Q 763 4734 800 4767 
Q 838 4800 891 4800 
Q 938 4800 978 4767 
Q 1019 4734 1019 4684 
L 1019 -1484 
Q 1019 -1534 978 -1567 
Q 938 -1600 891 -1600 
Q 838 -1600 800 -1567 
Q 763 -1534 763 -1484 
z
" transform="scale(0.015625)"/>
       <path id="Cmsy10-a1" d="M 653 1472 
Q 600 1472 565 1512 
Q 531 1553 531 1600 
Q 531 1647 565 1687 
Q 600 1728 653 1728 
L 4325 1728 
Q 4375 1728 4408 1687 
Q 4441 1647 4441 1600 
Q 4441 1553 4408 1512 
Q 4375 1472 4325 1472 
L 653 1472 
z
" transform="scale(0.015625)"/>
      </defs>
      <use xlink:href="#Cmsy10-6a"/>
      <use xlink:href="#Cmmi10-49" transform="translate(27.685547 0)"/>
      <use xlink:href="#Cmr10-63" transform="translate(71.582031 -17.00625) scale(0.7)"/>
      <use xlink:href="#Cmsy10-a1" transform="translate(114.942383 -17.00625) scale(0.7)"/>
      <use xlink:href="#Cmsy10-6a" transform="translate(187.990625 0)"/>
     </g>
    </g>
   </g>
   <g id="line2d_27">
    <path d="M 37.643523 88.283987 
L 42.697342 84.166602 
L 47.751161 75.152185 
L 52.80498 60.205481 
L 57.858798 41.831868 
L 62.912617 24.286479 
L 67.966436 16.088621 
L 73.020255 22.45435 
L 78.074074 39.560512 
L 83.127893 58.193039 
L 88.181712 73.652494 
L 93.235531 83.773916 
L 98.28935 88.051651 
L 103.343169 87.369443 
L 108.396988 81.643651 
L 113.450807 71.641186 
L 118.504626 58.960238 
L 123.558445 46.424686 
L 128.612264 40.050196 
L 128.612264 39.767753 
L 133.666083 45.598245 
L 138.719902 57.820636 
L 143.77372 70.767053 
L 148.827539 81.304086 
L 153.881358 87.377131 
L 158.935177 88.283987 
" clip-path="url(#p3d6a8b1338)" style="fill: none"/>
    <g clip-path="url(#p3d6a8b1338)">
     <use xlink:href="#mb930854bb6" x="37.643523" y="88.283987" style="fill: #ff7f0e; stroke: #ff7f0e; stroke-width: 0.5; stroke-linejoin: miter"/>
     <use xlink:href="#mb930854bb6" x="42.697342" y="84.166602" style="fill: #ff7f0e; stroke: #ff7f0e; stroke-width: 0.5; stroke-linejoin: miter"/>
     <use xlink:href="#mb930854bb6" x="47.751161" y="75.152185" style="fill: #ff7f0e; stroke: #ff7f0e; stroke-width: 0.5; stroke-linejoin: miter"/>
     <use xlink:href="#mb930854bb6" x="52.80498" y="60.205481" style="fill: #ff7f0e; stroke: #ff7f0e; stroke-width: 0.5; stroke-linejoin: miter"/>
     <use xlink:href="#mb930854bb6" x="57.858798" y="41.831868" style="fill: #ff7f0e; stroke: #ff7f0e; stroke-width: 0.5; stroke-linejoin: miter"/>
     <use xlink:href="#mb930854bb6" x="62.912617" y="24.286479" style="fill: #ff7f0e; stroke: #ff7f0e; stroke-width: 0.5; stroke-linejoin: miter"/>
     <use xlink:href="#mb930854bb6" x="67.966436" y="16.088621" style="fill: #ff7f0e; stroke: #ff7f0e; stroke-width: 0.5; stroke-linejoin: miter"/>
     <use xlink:href="#mb930854bb6" x="73.020255" y="22.45435" style="fill: #ff7f0e; stroke: #ff7f0e; stroke-width: 0.5; stroke-linejoin: miter"/>
     <use xlink:href="#mb930854bb6" x="78.074074" y="39.560512" style="fill: #ff7f0e; stroke: #ff7f0e; stroke-width: 0.5; stroke-linejoin: miter"/>
     <use xlink:href="#mb930854bb6" x="83.127893" y="58.193039" style="fill: #ff7f0e; stroke: #ff7f0e; stroke-width: 0.5; stroke-linejoin: miter"/>
     <use xlink:href="#mb930854bb6" x="88.181712" y="73.652494" style="fill: #ff7f0e; stroke: #ff7f0e; stroke-width: 0.5; stroke-linejoin: miter"/>
     <use xlink:href="#mb930854bb6" x="93.235531" y="83.773916" style="fill: #ff7f0e; stroke: #ff7f0e; stroke-width: 0.5; stroke-linejoin: miter"/>
     <use xlink:href="#mb930854bb6" x="98.28935" y="88.051651" style="fill: #ff7f0e; stroke: #ff7f0e; stroke-width: 0.5; stroke-linejoin: miter"/>
     <use xlink:href="#mb930854bb6" x="103.343169" y="87.369443" style="fill: #ff7f0e; stroke: #ff7f0e; stroke-width: 0.5; stroke-linejoin: miter"/>
     <use xlink:href="#mb930854bb6" x="108.396988" y="81.643651" style="fill: #ff7f0e; stroke: #ff7f0e; stroke-width: 0.5; stroke-linejoin: miter"/>
     <use xlink:href="#mb930854bb6" x="113.450807" y="71.641186" style="fill: #ff7f0e; stroke: #ff7f0e; stroke-width: 0.5; stroke-linejoin: miter"/>
     <use xlink:href="#mb930854bb6" x="118.504626" y="58.960238" style="fill: #ff7f0e; stroke: #ff7f0e; stroke-width: 0.5; stroke-linejoin: miter"/>
     <use xlink:href="#mb930854bb6" x="123.558445" y="46.424686" style="fill: #ff7f0e; stroke: #ff7f0e; stroke-width: 0.5; stroke-linejoin: miter"/>
     <use xlink:href="#mb930854bb6" x="128.612264" y="40.050196" style="fill: #ff7f0e; stroke: #ff7f0e; stroke-width: 0.5; stroke-linejoin: miter"/>
     <use xlink:href="#mb930854bb6" x="128.612264" y="39.767753" style="fill: #ff7f0e; stroke: #ff7f0e; stroke-width: 0.5; stroke-linejoin: miter"/>
     <use xlink:href="#mb930854bb6" x="133.666083" y="45.598245" style="fill: #ff7f0e; stroke: #ff7f0e; stroke-width: 0.5; stroke-linejoin: miter"/>
     <use xlink:href="#mb930854bb6" x="138.719902" y="57.820636" style="fill: #ff7f0e; stroke: #ff7f0e; stroke-width: 0.5; stroke-linejoin: miter"/>
     <use xlink:href="#mb930854bb6" x="143.77372" y="70.767053" style="fill: #ff7f0e; stroke: #ff7f0e; stroke-width: 0.5; stroke-linejoin: miter"/>
     <use xlink:href="#mb930854bb6" x="148.827539" y="81.304086" style="fill: #ff7f0e; stroke: #ff7f0e; stroke-width: 0.5; stroke-linejoin: miter"/>
     <use xlink:href="#mb930854bb6" x="153.881358" y="87.377131" style="fill: #ff7f0e; stroke: #ff7f0e; stroke-width: 0.5; stroke-linejoin: miter"/>
     <use xlink:href="#mb930854bb6" x="158.935177" y="88.283987" style="fill: #ff7f0e; stroke: #ff7f0e; stroke-width: 0.5; stroke-linejoin: miter"/>
    </g>
   </g>
   <g id="line2d_28">
    <path d="M 37.643523 88.283987 
L 38.654287 87.845183 
L 39.66505 87.207397 
L 41.012735 86.058973 
L 42.36042 84.584372 
L 43.708105 82.794649 
L 45.055791 80.659985 
L 46.403476 78.129511 
L 47.751161 75.152185 
L 49.435767 70.763988 
L 51.120373 65.735773 
L 53.478822 57.883326 
L 56.511113 46.89227 
L 61.564932 28.416085 
L 62.912617 24.286479 
L 64.260302 20.858236 
L 65.271066 18.827759 
L 66.28183 17.316606 
L 66.955673 16.622511 
L 67.629515 16.196468 
L 68.303358 16.052849 
L 68.9772 16.193954 
L 69.651043 16.610015 
L 70.324885 17.290737 
L 70.998728 18.225826 
L 72.009492 20.082878 
L 73.020255 22.45435 
L 74.36794 26.332739 
L 76.052547 32.037532 
L 79.084838 43.388907 
L 82.790972 57.017373 
L 85.149421 64.907743 
L 87.170948 70.938096 
L 88.855555 75.339326 
L 90.540161 79.110991 
L 91.887846 81.657941 
L 93.235531 83.773916 
L 94.583216 85.454327 
L 95.930901 86.723693 
L 97.278586 87.613813 
L 98.28935 88.051651 
L 99.300114 88.304189 
L 100.310878 88.36847 
L 101.321641 88.238261 
L 102.332405 87.907329 
L 103.343169 87.369443 
L 104.353933 86.620658 
L 105.701618 85.303617 
L 107.049303 83.638689 
L 108.396988 81.643651 
L 110.081594 78.716999 
L 111.766201 75.362716 
L 113.787728 70.858149 
L 116.483098 64.227706 
L 123.221523 47.143852 
L 124.569208 44.439534 
L 125.916894 42.269944 
L 126.927657 41.071155 
L 127.6015 40.506155 
L 128.612264 39.767753 
L 128.612264 39.767753 
" clip-path="url(#p3d6a8b1338)" style="fill: none; stroke: #ff7f0e; stroke-linecap: square"/>
   </g>
   <g id="line2d_29">
    <path d="M 128.612264 39.767753 
L 128.949185 39.831444 
L 129.286106 39.949643 
L 129.623027 40.120486 
L 129.959949 40.342109 
L 130.29687 40.612647 
L 130.633791 40.930237 
L 130.970712 41.293014 
L 131.307634 41.699113 
L 131.644555 42.146671 
L 131.981476 42.633823 
L 132.318398 43.158705 
L 132.655319 43.719452 
L 132.99224 44.314201 
L 133.329161 44.941086 
L 133.666083 45.598245 
L 134.003004 46.283811 
L 134.339925 46.995922 
L 134.676846 47.732713 
L 135.013768 48.49232 
L 135.350689 49.272877 
L 135.68761 50.072522 
L 136.024531 50.88939 
L 136.361453 51.721616 
L 136.698374 52.567336 
L 137.035295 53.424686 
L 137.372216 54.291802 
L 137.709138 55.166819 
L 138.046059 56.047874 
L 138.38298 56.933101 
L 138.719902 57.820636 
L 139.056823 58.708801 
L 139.393744 59.596655 
L 139.730665 60.483444 
L 140.067587 61.368413 
L 140.404508 62.250806 
L 140.741429 63.12987 
L 141.07835 64.004849 
L 141.415272 64.874989 
L 141.752193 65.739534 
L 142.089114 66.59773 
L 142.426035 67.448822 
L 142.762957 68.292055 
L 143.099878 69.126674 
L 143.436799 69.951925 
L 143.77372 70.767053 
L 144.110642 71.571314 
L 144.447563 72.36401 
L 144.784484 73.144453 
L 145.121406 73.911958 
L 145.458327 74.665837 
L 145.795248 75.405404 
L 146.132169 76.12997 
L 146.469091 76.838851 
L 146.806012 77.531357 
L 147.142933 78.206804 
L 147.479854 78.864502 
L 147.816776 79.503767 
L 148.153697 80.123911 
L 148.490618 80.724246 
L 148.827539 81.304086 
L 149.164461 81.862834 
L 149.501382 82.40025 
L 149.838303 82.916184 
L 150.175224 83.410485 
L 150.512146 83.883004 
L 150.849067 84.333591 
L 151.185988 84.762094 
L 151.522909 85.168365 
L 151.859831 85.552253 
L 152.196752 85.913608 
L 152.533673 86.252279 
L 152.870595 86.568117 
L 153.207516 86.860972 
L 153.544437 87.130693 
L 153.881358 87.377131 
L 154.21828 87.600166 
L 154.555201 87.799806 
L 154.892122 87.976091 
L 155.229043 88.129059 
L 155.565965 88.258749 
L 155.902886 88.365201 
L 156.239807 88.448454 
L 156.576728 88.508546 
L 156.91365 88.545517 
L 157.250571 88.559406 
L 157.587492 88.550252 
L 157.924413 88.518094 
L 158.261335 88.462971 
L 158.598256 88.384922 
L 158.935177 88.283987 
" clip-path="url(#p3d6a8b1338)" style="fill: none; stroke: #ff7f0e; stroke-linecap: square"/>
   </g>
  </g>
  <g id="axes_2">
   <g id="patch_8">
    <path d="M 31.57894 179.683868 
L 164.99976 179.683868 
L 164.99976 99.035685 
L 31.57894 99.035685 
L 31.57894 179.683868 
z
" style="fill: none"/>
   </g>
   <g id="line2d_30">
    <path d="M 31.57894 138.50017 
L 164.99976 138.50017 
" clip-path="url(#pc7eb254f41)" style="fill: none; stroke: #d3d3d3; stroke-width: 0.5; stroke-linecap: square"/>
   </g>
   <g id="line2d_31">
    <path d="M 98.28935 179.683868 
L 98.28935 99.035685 
" clip-path="url(#pc7eb254f41)" style="fill: none; stroke: #d3d3d3; stroke-width: 0.5; stroke-linecap: square"/>
   </g>
   <g id="line2d_32">
    <path d="M 37.643523 138.916563 
L 44.718869 151.338977 
L 48.088082 156.814912 
L 51.120373 161.307473 
L 53.478822 164.441962 
L 55.837271 167.210132 
L 57.858798 169.259846 
L 59.880326 170.987554 
L 61.564932 172.167565 
L 63.249539 173.101768 
L 64.934145 173.783054 
L 66.618751 174.206237 
L 68.303358 174.368096 
L 69.987964 174.2674 
L 71.67257 173.904915 
L 73.357177 173.2834 
L 75.041783 172.407584 
L 76.726389 171.284134 
L 78.410996 169.9216 
L 80.432523 167.985691 
L 82.454051 165.741735 
L 84.812499 162.767424 
L 87.50787 158.953049 
L 90.540161 154.221879 
L 94.246295 147.97187 
L 100.647799 136.612353 
L 105.701618 127.833858 
L 109.07083 122.402143 
L 111.766201 118.431483 
L 114.124649 115.296994 
L 116.483098 112.528824 
L 118.504626 110.47911 
L 120.526153 108.751402 
L 122.21076 107.571391 
L 123.895366 106.637188 
L 125.579972 105.955902 
L 127.264579 105.532719 
L 128.949185 105.37086 
L 130.633791 105.471556 
L 132.318398 105.834041 
L 134.003004 106.455556 
L 135.68761 107.331372 
L 137.372216 108.454822 
L 139.056823 109.817356 
L 141.07835 111.753265 
L 143.099878 113.997221 
L 145.458327 116.971532 
L 148.153697 120.785907 
L 151.185988 125.517077 
L 154.892122 131.767086 
L 158.935177 138.916563 
L 158.935177 138.916563 
" clip-path="url(#pc7eb254f41)" style="fill: none; stroke: #7f7f7f; stroke-linecap: square"/>
   </g>
   <g id="matplotlib.axis_3">
    <g id="xtick_6">
     <g id="line2d_33">
      <g>
       <use xlink:href="#mfd400b1262" x="37.643523" y="179.683868" style="stroke: #000000; stroke-width: 0.5"/>
      </g>
     </g>
     <g id="line2d_34">
      <g>
       <use xlink:href="#m0a0fbe15d2" x="37.643523" y="99.035685" style="stroke: #000000; stroke-width: 0.5"/>
      </g>
     </g>
     <g id="text_11">
      <!-- $-\pi$ -->
      <g transform="translate(32.020773 189.146326) scale(0.0833 -0.0833)">
       <defs>
        <path id="Cmmi10-bc" d="M 647 109 
Q 647 144 672 213 
Q 850 584 1004 942 
Q 1159 1300 1282 1639 
Q 1406 1978 1509 2363 
L 1100 2363 
Q 866 2363 662 2216 
Q 459 2069 325 1844 
Q 313 1819 288 1819 
L 213 1819 
Q 153 1819 153 1881 
Q 153 1894 166 1919 
Q 375 2275 614 2517 
Q 853 2759 1153 2759 
L 3475 2759 
Q 3541 2759 3587 2715 
Q 3634 2672 3634 2597 
Q 3634 2503 3567 2433 
Q 3500 2363 3406 2363 
L 2591 2363 
Q 2488 1859 2478 1381 
Q 2478 766 2694 269 
Q 2713 231 2713 191 
Q 2713 122 2672 62 
Q 2631 3 2567 -34 
Q 2503 -72 2431 -72 
Q 2263 -72 2200 203 
Q 2138 478 2138 738 
Q 2138 1103 2200 1442 
Q 2263 1781 2400 2363 
L 1703 2363 
Q 1197 313 1094 103 
Q 1003 -72 844 -72 
Q 766 -72 706 -20 
Q 647 31 647 109 
z
" transform="scale(0.015625)"/>
       </defs>
       <use xlink:href="#Cmsy10-a1" transform="translate(0 0.890625)"/>
       <use xlink:href="#Cmmi10-bc" transform="translate(77.685547 0.890625)"/>
      </g>
     </g>
    </g>
    <g id="xtick_7">
     <g id="line2d_35">
      <g>
       <use xlink:href="#mfd400b1262" x="67.966436" y="179.683868" style="stroke: #000000; stroke-width: 0.5"/>
      </g>
     </g>
     <g id="line2d_36">
      <g>
       <use xlink:href="#m0a0fbe15d2" x="67.966436" y="99.035685" style="stroke: #000000; stroke-width: 0.5"/>
      </g>
     </g>
     <g id="text_12">
      <!-- $-\pi/2$ -->
      <g transform="translate(58.178686 189.431368) scale(0.0833 -0.0833)">
       <defs>
        <path id="Cmmi10-3d" d="M 359 -1472 
Q 359 -1453 366 -1447 
L 2591 4722 
Q 2603 4759 2634 4779 
Q 2666 4800 2706 4800 
Q 2763 4800 2798 4765 
Q 2834 4731 2834 4672 
L 2834 4647 
L 609 -1522 
Q 572 -1600 488 -1600 
Q 434 -1600 396 -1562 
Q 359 -1525 359 -1472 
z
" transform="scale(0.015625)"/>
        <path id="Cmr10-32" d="M 319 0 
L 319 172 
Q 319 188 331 206 
L 1325 1306 
Q 1550 1550 1690 1715 
Q 1831 1881 1968 2097 
Q 2106 2313 2186 2536 
Q 2266 2759 2266 3009 
Q 2266 3272 2169 3511 
Q 2072 3750 1880 3894 
Q 1688 4038 1416 4038 
Q 1138 4038 916 3870 
Q 694 3703 603 3438 
Q 628 3444 672 3444 
Q 816 3444 917 3347 
Q 1019 3250 1019 3097 
Q 1019 2950 917 2848 
Q 816 2747 672 2747 
Q 522 2747 420 2851 
Q 319 2956 319 3097 
Q 319 3338 409 3548 
Q 500 3759 670 3923 
Q 841 4088 1055 4175 
Q 1269 4263 1509 4263 
Q 1875 4263 2190 4108 
Q 2506 3953 2690 3670 
Q 2875 3388 2875 3009 
Q 2875 2731 2753 2481 
Q 2631 2231 2440 2026 
Q 2250 1822 1953 1562 
Q 1656 1303 1563 1216 
L 838 519 
L 1453 519 
Q 1906 519 2211 526 
Q 2516 534 2534 550 
Q 2609 631 2688 1141 
L 2875 1141 
L 2694 0 
L 319 0 
z
" transform="scale(0.015625)"/>
       </defs>
       <use xlink:href="#Cmsy10-a1"/>
       <use xlink:href="#Cmmi10-bc" transform="translate(77.685547 0)"/>
       <use xlink:href="#Cmmi10-3d" transform="translate(134.667969 0)"/>
       <use xlink:href="#Cmr10-32" transform="translate(184.667969 0)"/>
      </g>
     </g>
    </g>
    <g id="xtick_8">
     <g id="line2d_37">
      <g>
       <use xlink:href="#mfd400b1262" x="98.28935" y="179.683868" style="stroke: #000000; stroke-width: 0.5"/>
      </g>
     </g>
     <g id="line2d_38">
      <g>
       <use xlink:href="#m0a0fbe15d2" x="98.28935" y="99.035685" style="stroke: #000000; stroke-width: 0.5"/>
      </g>
     </g>
     <g id="text_13">
      <!-- 0 -->
      <g transform="translate(95.97322 189.146326) scale(0.0833 -0.0833)">
       <use xlink:href="#ArialMT-30"/>
      </g>
     </g>
    </g>
    <g id="xtick_9">
     <g id="line2d_39">
      <g>
       <use xlink:href="#mfd400b1262" x="128.612264" y="179.683868" style="stroke: #000000; stroke-width: 0.5"/>
      </g>
     </g>
     <g id="line2d_40">
      <g>
       <use xlink:href="#m0a0fbe15d2" x="128.612264" y="99.035685" style="stroke: #000000; stroke-width: 0.5"/>
      </g>
     </g>
     <g id="text_14">
      <!-- $\pi/2$ -->
      <g transform="translate(122.073214 189.431368) scale(0.0833 -0.0833)">
       <use xlink:href="#Cmmi10-bc"/>
       <use xlink:href="#Cmmi10-3d" transform="translate(56.982422 0)"/>
       <use xlink:href="#Cmr10-32" transform="translate(106.982422 0)"/>
      </g>
     </g>
    </g>
    <g id="xtick_10">
     <g id="line2d_41">
      <g>
       <use xlink:href="#mfd400b1262" x="158.935177" y="179.683868" style="stroke: #000000; stroke-width: 0.5"/>
      </g>
     </g>
     <g id="line2d_42">
      <g>
       <use xlink:href="#m0a0fbe15d2" x="158.935177" y="99.035685" style="stroke: #000000; stroke-width: 0.5"/>
      </g>
     </g>
     <g id="text_15">
      <!-- $\pi$ -->
      <g transform="translate(156.561127 189.146326) scale(0.0833 -0.0833)">
       <use xlink:href="#Cmmi10-bc" transform="translate(0 0.890625)"/>
      </g>
     </g>
    </g>
    <g id="text_16">
     <!-- $\theta$ -->
     <g transform="translate(95.93935 202.67168) scale(0.1 -0.1)">
      <defs>
       <path id="Cmmi10-b5" d="M 1031 -72 
Q 741 -72 566 140 
Q 391 353 323 653 
Q 256 953 256 1247 
L 256 1253 
Q 256 1572 317 1915 
Q 378 2259 493 2601 
Q 609 2944 744 3213 
Q 838 3400 986 3631 
Q 1134 3863 1317 4064 
Q 1500 4266 1711 4389 
Q 1922 4513 2138 4513 
L 2144 4513 
Q 2375 4513 2529 4384 
Q 2684 4256 2770 4056 
Q 2856 3856 2890 3628 
Q 2925 3400 2925 3194 
Q 2925 2709 2794 2204 
Q 2663 1700 2431 1228 
Q 2344 1050 2189 809 
Q 2034 569 1861 378 
Q 1688 188 1472 58 
Q 1256 -72 1038 -72 
L 1031 -72 
z
M 1044 97 
Q 1256 97 1451 323 
Q 1647 550 1794 873 
Q 1941 1197 2052 1536 
Q 2163 1875 2216 2113 
L 909 2113 
Q 809 1709 753 1417 
Q 697 1125 697 844 
Q 697 97 1044 97 
z
M 959 2338 
L 2272 2338 
Q 2341 2619 2381 2808 
Q 2422 2997 2450 3206 
Q 2478 3416 2478 3597 
Q 2478 4347 2138 4347 
Q 1731 4347 1436 3692 
Q 1141 3038 959 2338 
z
" transform="scale(0.015625)"/>
      </defs>
      <use xlink:href="#Cmmi10-b5" transform="translate(0 0.484375)"/>
     </g>
    </g>
   </g>
   <g id="matplotlib.axis_4">
    <g id="ytick_6">
     <g id="line2d_43">
      <g>
       <use xlink:href="#m6b4f4c0bf2" x="31.57894" y="166.321694" style="stroke: #000000; stroke-width: 0.5"/>
      </g>
     </g>
     <g id="line2d_44">
      <g>
       <use xlink:href="#md8495d5ffc" x="164.99976" y="166.321694" style="stroke: #000000; stroke-width: 0.5"/>
      </g>
     </g>
     <g id="text_17">
      <!-- −4 -->
      <g transform="translate(18.581438 169.302923) scale(0.0833 -0.0833)">
       <defs>
        <path id="ArialMT-2212" d="M 3381 1997 
L 356 1997 
L 356 2522 
L 3381 2522 
L 3381 1997 
z
" transform="scale(0.015625)"/>
       </defs>
       <use xlink:href="#ArialMT-2212"/>
       <use xlink:href="#ArialMT-34" x="58.398438"/>
      </g>
     </g>
    </g>
    <g id="ytick_7">
     <g id="line2d_45">
      <g>
       <use xlink:href="#m6b4f4c0bf2" x="31.57894" y="152.410932" style="stroke: #000000; stroke-width: 0.5"/>
      </g>
     </g>
     <g id="line2d_46">
      <g>
       <use xlink:href="#md8495d5ffc" x="164.99976" y="152.410932" style="stroke: #000000; stroke-width: 0.5"/>
      </g>
     </g>
     <g id="text_18">
      <!-- −2 -->
      <g transform="translate(18.581438 155.392161) scale(0.0833 -0.0833)">
       <use xlink:href="#ArialMT-2212"/>
       <use xlink:href="#ArialMT-32" x="58.398438"/>
      </g>
     </g>
    </g>
    <g id="ytick_8">
     <g id="line2d_47">
      <g>
       <use xlink:href="#m6b4f4c0bf2" x="31.57894" y="138.50017" style="stroke: #000000; stroke-width: 0.5"/>
      </g>
     </g>
     <g id="line2d_48">
      <g>
       <use xlink:href="#md8495d5ffc" x="164.99976" y="138.50017" style="stroke: #000000; stroke-width: 0.5"/>
      </g>
     </g>
     <g id="text_19">
      <!-- 0 -->
      <g transform="translate(23.446679 141.481399) scale(0.0833 -0.0833)">
       <use xlink:href="#ArialMT-30"/>
      </g>
     </g>
    </g>
    <g id="ytick_9">
     <g id="line2d_49">
      <g>
       <use xlink:href="#m6b4f4c0bf2" x="31.57894" y="124.589409" style="stroke: #000000; stroke-width: 0.5"/>
      </g>
     </g>
     <g id="line2d_50">
      <g>
       <use xlink:href="#md8495d5ffc" x="164.99976" y="124.589409" style="stroke: #000000; stroke-width: 0.5"/>
      </g>
     </g>
     <g id="text_20">
      <!-- 2 -->
      <g transform="translate(23.446679 127.570638) scale(0.0833 -0.0833)">
       <use xlink:href="#ArialMT-32"/>
      </g>
     </g>
    </g>
    <g id="ytick_10">
     <g id="line2d_51">
      <g>
       <use xlink:href="#m6b4f4c0bf2" x="31.57894" y="110.678647" style="stroke: #000000; stroke-width: 0.5"/>
      </g>
     </g>
     <g id="line2d_52">
      <g>
       <use xlink:href="#md8495d5ffc" x="164.99976" y="110.678647" style="stroke: #000000; stroke-width: 0.5"/>
      </g>
     </g>
     <g id="text_21">
      <!-- 4 -->
      <g transform="translate(23.446679 113.659876) scale(0.0833 -0.0833)">
       <use xlink:href="#ArialMT-34"/>
      </g>
     </g>
    </g>
    <g id="text_22">
     <!-- $\eta$ (%) -->
     <g transform="translate(12.381438 151.009776) rotate(-90) scale(0.1 -0.1)">
      <defs>
       <path id="Cmmi10-b4" d="M 684 -72 
Q 606 -72 550 -22 
Q 494 28 494 109 
Q 494 147 500 166 
L 978 2075 
Q 1025 2253 1025 2388 
Q 1025 2663 838 2663 
Q 638 2663 541 2423 
Q 444 2184 353 1819 
Q 353 1800 334 1789 
Q 316 1778 300 1778 
L 225 1778 
Q 203 1778 187 1801 
Q 172 1825 172 1844 
Q 241 2122 305 2315 
Q 369 2509 505 2668 
Q 641 2828 844 2828 
Q 1081 2828 1267 2678 
Q 1453 2528 1453 2291 
Q 1641 2541 1894 2684 
Q 2147 2828 2444 2828 
Q 2778 2828 2979 2648 
Q 3181 2469 3181 2138 
Q 3181 1947 3138 1784 
L 2394 -1178 
Q 2375 -1269 2300 -1325 
Q 2225 -1381 2131 -1381 
Q 2053 -1381 1997 -1332 
Q 1941 -1284 1941 -1203 
Q 1941 -1166 1947 -1153 
L 2681 1797 
Q 2747 2059 2747 2234 
Q 2747 2413 2672 2538 
Q 2597 2663 2431 2663 
Q 1803 2663 1388 1888 
L 953 141 
Q 931 53 854 -9 
Q 778 -72 684 -72 
z
" transform="scale(0.015625)"/>
       <path id="ArialMT-25" d="M 372 3481 
Q 372 3972 619 4315 
Q 866 4659 1334 4659 
Q 1766 4659 2048 4351 
Q 2331 4044 2331 3447 
Q 2331 2866 2045 2552 
Q 1759 2238 1341 2238 
Q 925 2238 648 2547 
Q 372 2856 372 3481 
z
M 1350 4272 
Q 1141 4272 1002 4090 
Q 863 3909 863 3425 
Q 863 2984 1003 2804 
Q 1144 2625 1350 2625 
Q 1563 2625 1702 2806 
Q 1841 2988 1841 3469 
Q 1841 3913 1700 4092 
Q 1559 4272 1350 4272 
z
M 1353 -169 
L 3859 4659 
L 4316 4659 
L 1819 -169 
L 1353 -169 
z
M 3334 1075 
Q 3334 1569 3581 1911 
Q 3828 2253 4300 2253 
Q 4731 2253 5014 1945 
Q 5297 1638 5297 1041 
Q 5297 459 5011 145 
Q 4725 -169 4303 -169 
Q 3888 -169 3611 142 
Q 3334 453 3334 1075 
z
M 4316 1866 
Q 4103 1866 3964 1684 
Q 3825 1503 3825 1019 
Q 3825 581 3965 400 
Q 4106 219 4313 219 
Q 4528 219 4667 400 
Q 4806 581 4806 1063 
Q 4806 1506 4665 1686 
Q 4525 1866 4316 1866 
z
" transform="scale(0.015625)"/>
      </defs>
      <use xlink:href="#Cmmi10-b4" transform="translate(0 0.203125)"/>
      <use xlink:href="#ArialMT-20" transform="translate(49.609375 0.203125)"/>
      <use xlink:href="#ArialMT-28" transform="translate(77.392578 0.203125)"/>
      <use xlink:href="#ArialMT-25" transform="translate(110.693359 0.203125)"/>
      <use xlink:href="#ArialMT-29" transform="translate(199.609375 0.203125)"/>
     </g>
    </g>
   </g>
   <g id="line2d_53">
    <path d="M 37.643523 139.460387 
L 42.697342 146.164824 
L 47.751161 153.417019 
L 52.80498 161.401369 
L 57.858798 169.059094 
L 62.912617 174.60392 
L 67.966436 176.018041 
L 73.020255 175.052785 
L 78.074074 170.724687 
L 83.127893 163.358224 
L 88.181712 155.047102 
L 93.235531 147.578803 
L 98.28935 140.927322 
L 103.343169 134.255901 
L 108.396988 127.146339 
L 113.450807 119.130365 
L 118.504626 110.323431 
L 123.558445 104.424645 
L 128.612264 102.701511 
L 128.612264 102.881488 
L 133.666083 103.787825 
L 138.719902 109.003127 
L 143.77372 117.618508 
L 148.827539 125.494509 
L 153.881358 132.668483 
L 158.935177 139.460387 
" clip-path="url(#pc7eb254f41)" style="fill: none"/>
    <defs>
     <path id="m32c218b32d" d="M 0 1.5 
C 0.397805 1.5 0.77937 1.341951 1.06066 1.06066 
C 1.341951 0.77937 1.5 0.397805 1.5 0 
C 1.5 -0.397805 1.341951 -0.77937 1.06066 -1.06066 
C 0.77937 -1.341951 0.397805 -1.5 0 -1.5 
C -0.397805 -1.5 -0.77937 -1.341951 -1.06066 -1.06066 
C -1.341951 -0.77937 -1.5 -0.397805 -1.5 0 
C -1.5 0.397805 -1.341951 0.77937 -1.06066 1.06066 
C -0.77937 1.341951 -0.397805 1.5 0 1.5 
z
" style="stroke: #000000; stroke-width: 0.5"/>
    </defs>
    <g clip-path="url(#pc7eb254f41)">
     <use xlink:href="#m32c218b32d" x="37.643523" y="139.460387" style="stroke: #000000; stroke-width: 0.5"/>
     <use xlink:href="#m32c218b32d" x="42.697342" y="146.164824" style="stroke: #000000; stroke-width: 0.5"/>
     <use xlink:href="#m32c218b32d" x="47.751161" y="153.417019" style="stroke: #000000; stroke-width: 0.5"/>
     <use xlink:href="#m32c218b32d" x="52.80498" y="161.401369" style="stroke: #000000; stroke-width: 0.5"/>
     <use xlink:href="#m32c218b32d" x="57.858798" y="169.059094" style="stroke: #000000; stroke-width: 0.5"/>
     <use xlink:href="#m32c218b32d" x="62.912617" y="174.60392" style="stroke: #000000; stroke-width: 0.5"/>
     <use xlink:href="#m32c218b32d" x="67.966436" y="176.018041" style="stroke: #000000; stroke-width: 0.5"/>
     <use xlink:href="#m32c218b32d" x="73.020255" y="175.052785" style="stroke: #000000; stroke-width: 0.5"/>
     <use xlink:href="#m32c218b32d" x="78.074074" y="170.724687" style="stroke: #000000; stroke-width: 0.5"/>
     <use xlink:href="#m32c218b32d" x="83.127893" y="163.358224" style="stroke: #000000; stroke-width: 0.5"/>
     <use xlink:href="#m32c218b32d" x="88.181712" y="155.047102" style="stroke: #000000; stroke-width: 0.5"/>
     <use xlink:href="#m32c218b32d" x="93.235531" y="147.578803" style="stroke: #000000; stroke-width: 0.5"/>
     <use xlink:href="#m32c218b32d" x="98.28935" y="140.927322" style="stroke: #000000; stroke-width: 0.5"/>
     <use xlink:href="#m32c218b32d" x="103.343169" y="134.255901" style="stroke: #000000; stroke-width: 0.5"/>
     <use xlink:href="#m32c218b32d" x="108.396988" y="127.146339" style="stroke: #000000; stroke-width: 0.5"/>
     <use xlink:href="#m32c218b32d" x="113.450807" y="119.130365" style="stroke: #000000; stroke-width: 0.5"/>
     <use xlink:href="#m32c218b32d" x="118.504626" y="110.323431" style="stroke: #000000; stroke-width: 0.5"/>
     <use xlink:href="#m32c218b32d" x="123.558445" y="104.424645" style="stroke: #000000; stroke-width: 0.5"/>
     <use xlink:href="#m32c218b32d" x="128.612264" y="102.701511" style="stroke: #000000; stroke-width: 0.5"/>
     <use xlink:href="#m32c218b32d" x="128.612264" y="102.881488" style="stroke: #000000; stroke-width: 0.5"/>
     <use xlink:href="#m32c218b32d" x="133.666083" y="103.787825" style="stroke: #000000; stroke-width: 0.5"/>
     <use xlink:href="#m32c218b32d" x="138.719902" y="109.003127" style="stroke: #000000; stroke-width: 0.5"/>
     <use xlink:href="#m32c218b32d" x="143.77372" y="117.618508" style="stroke: #000000; stroke-width: 0.5"/>
     <use xlink:href="#m32c218b32d" x="148.827539" y="125.494509" style="stroke: #000000; stroke-width: 0.5"/>
     <use xlink:href="#m32c218b32d" x="153.881358" y="132.668483" style="stroke: #000000; stroke-width: 0.5"/>
     <use xlink:href="#m32c218b32d" x="158.935177" y="139.460387" style="stroke: #000000; stroke-width: 0.5"/>
    </g>
   </g>
   <g id="patch_9">
    <path d="M 31.57894 179.683868 
L 31.57894 99.035685 
" style="fill: none; stroke: #000000; stroke-width: 0.5; stroke-linejoin: miter; stroke-linecap: square"/>
   </g>
   <g id="patch_10">
    <path d="M 164.99976 179.683868 
L 164.99976 99.035685 
" style="fill: none; stroke: #000000; stroke-width: 0.5; stroke-linejoin: miter; stroke-linecap: square"/>
   </g>
   <g id="patch_11">
    <path d="M 31.57894 179.683868 
L 164.99976 179.683868 
" style="fill: none; stroke: #000000; stroke-width: 0.5; stroke-linejoin: miter; stroke-linecap: square"/>
   </g>
   <g id="patch_12">
    <path d="M 31.57894 99.035685 
L 164.99976 99.035685 
" style="fill: none; stroke: #000000; stroke-width: 0.5; stroke-linejoin: miter; stroke-linecap: square"/>
   </g>
   <g id="axes_3">
    <g id="patch_13">
     <path d="M 102.291975 175.651459 
L 162.331344 175.651459 
L 162.331344 147.424595 
L 102.291975 147.424595 
L 102.291975 175.651459 
z
" style="fill: none"/>
    </g>
    <g id="matplotlib.axis_5">
     <g id="xtick_11">
      <g id="line2d_54">
       <g>
        <use xlink:href="#mfd400b1262" x="105.021037" y="175.651459" style="stroke: #000000; stroke-width: 0.5"/>
       </g>
      </g>
      <g id="line2d_55">
       <g>
        <use xlink:href="#m0a0fbe15d2" x="105.021037" y="147.424595" style="stroke: #000000; stroke-width: 0.5"/>
       </g>
      </g>
     </g>
     <g id="xtick_12">
      <g id="line2d_56">
       <g>
        <use xlink:href="#mfd400b1262" x="118.666348" y="175.651459" style="stroke: #000000; stroke-width: 0.5"/>
       </g>
      </g>
      <g id="line2d_57">
       <g>
        <use xlink:href="#m0a0fbe15d2" x="118.666348" y="147.424595" style="stroke: #000000; stroke-width: 0.5"/>
       </g>
      </g>
     </g>
     <g id="xtick_13">
      <g id="line2d_58">
       <g>
        <use xlink:href="#mfd400b1262" x="132.311659" y="175.651459" style="stroke: #000000; stroke-width: 0.5"/>
       </g>
      </g>
      <g id="line2d_59">
       <g>
        <use xlink:href="#m0a0fbe15d2" x="132.311659" y="147.424595" style="stroke: #000000; stroke-width: 0.5"/>
       </g>
      </g>
     </g>
     <g id="xtick_14">
      <g id="line2d_60">
       <g>
        <use xlink:href="#mfd400b1262" x="145.95697" y="175.651459" style="stroke: #000000; stroke-width: 0.5"/>
       </g>
      </g>
      <g id="line2d_61">
       <g>
        <use xlink:href="#m0a0fbe15d2" x="145.95697" y="147.424595" style="stroke: #000000; stroke-width: 0.5"/>
       </g>
      </g>
     </g>
     <g id="xtick_15">
      <g id="line2d_62">
       <g>
        <use xlink:href="#mfd400b1262" x="159.602281" y="175.651459" style="stroke: #000000; stroke-width: 0.5"/>
       </g>
      </g>
      <g id="line2d_63">
       <g>
        <use xlink:href="#m0a0fbe15d2" x="159.602281" y="147.424595" style="stroke: #000000; stroke-width: 0.5"/>
       </g>
      </g>
     </g>
    </g>
    <g id="matplotlib.axis_6">
     <g id="ytick_11">
      <g id="line2d_64">
       <g>
        <use xlink:href="#m6b4f4c0bf2" x="102.291975" y="160.084109" style="stroke: #000000; stroke-width: 0.5"/>
       </g>
      </g>
      <g id="line2d_65">
       <g>
        <use xlink:href="#md8495d5ffc" x="162.331344" y="160.084109" style="stroke: #000000; stroke-width: 0.5"/>
       </g>
      </g>
     </g>
    </g>
    <g id="line2d_66">
     <path d="M 102.291975 160.084109 
L 162.331344 160.084109 
" clip-path="url(#p16d7e593ca)" style="fill: none; stroke: #d3d3d3; stroke-width: 0.25; stroke-linecap: square"/>
    </g>
    <g id="line2d_67">
     <path d="M 132.311659 175.651459 
L 132.311659 147.424595 
" clip-path="url(#p16d7e593ca)" style="fill: none; stroke: #d3d3d3; stroke-width: 0.25; stroke-linecap: square"/>
    </g>
    <g id="LineCollection_1">
     <path d="M 105.021037 162.817182 
L 105.021037 161.248073 
" clip-path="url(#p16d7e593ca)" style="fill: none; stroke: #000000; stroke-width: 0.3"/>
     <path d="M 107.295255 154.79456 
L 107.295255 153.118654 
" clip-path="url(#p16d7e593ca)" style="fill: none; stroke: #000000; stroke-width: 0.3"/>
     <path d="M 109.569474 150.88168 
L 109.569474 148.714213 
" clip-path="url(#p16d7e593ca)" style="fill: none; stroke: #000000; stroke-width: 0.3"/>
     <path d="M 111.843692 153.832238 
L 111.843692 150.710849 
" clip-path="url(#p16d7e593ca)" style="fill: none; stroke: #000000; stroke-width: 0.3"/>
     <path d="M 114.117911 161.090553 
L 114.117911 157.639074 
" clip-path="url(#p16d7e593ca)" style="fill: none; stroke: #000000; stroke-width: 0.3"/>
     <path d="M 116.392129 168.11345 
L 116.392129 164.014502 
" clip-path="url(#p16d7e593ca)" style="fill: none; stroke: #000000; stroke-width: 0.3"/>
     <path d="M 118.666348 168.909964 
L 118.666348 163.163273 
" clip-path="url(#p16d7e593ca)" style="fill: none; stroke: #000000; stroke-width: 0.3"/>
     <path d="M 120.940566 168.769011 
L 120.940566 163.04077 
" clip-path="url(#p16d7e593ca)" style="fill: none; stroke: #000000; stroke-width: 0.3"/>
     <path d="M 123.214785 163.708724 
L 123.214785 160.127944 
" clip-path="url(#p16d7e593ca)" style="fill: none; stroke: #000000; stroke-width: 0.3"/>
     <path d="M 125.489004 155.659609 
L 125.489004 153.249209 
" clip-path="url(#p16d7e593ca)" style="fill: none; stroke: #000000; stroke-width: 0.3"/>
     <path d="M 127.763222 150.741968 
L 127.763222 148.707634 
" clip-path="url(#p16d7e593ca)" style="fill: none; stroke: #000000; stroke-width: 0.3"/>
     <path d="M 130.037441 153.289167 
L 130.037441 151.564803 
" clip-path="url(#p16d7e593ca)" style="fill: none; stroke: #000000; stroke-width: 0.3"/>
     <path d="M 132.311659 161.268505 
L 132.311659 159.651633 
" clip-path="url(#p16d7e593ca)" style="fill: none; stroke: #000000; stroke-width: 0.3"/>
     <path d="M 134.585878 169.450171 
L 134.585878 167.858594 
" clip-path="url(#p16d7e593ca)" style="fill: none; stroke: #000000; stroke-width: 0.3"/>
     <path d="M 136.860096 174.310661 
L 136.860096 172.337536 
" clip-path="url(#p16d7e593ca)" style="fill: none; stroke: #000000; stroke-width: 0.3"/>
     <path d="M 139.134315 171.944579 
L 139.134315 169.529802 
" clip-path="url(#p16d7e593ca)" style="fill: none; stroke: #000000; stroke-width: 0.3"/>
     <path d="M 141.408533 161.057775 
L 141.408533 157.994851 
" clip-path="url(#p16d7e593ca)" style="fill: none; stroke: #000000; stroke-width: 0.3"/>
     <path d="M 143.682752 153.100952 
L 143.682752 150.016875 
" clip-path="url(#p16d7e593ca)" style="fill: none; stroke: #000000; stroke-width: 0.3"/>
     <path d="M 145.95697 151.882215 
L 145.95697 149.075953 
" clip-path="url(#p16d7e593ca)" style="fill: none; stroke: #000000; stroke-width: 0.3"/>
     <path d="M 145.95697 152.803476 
L 145.95697 149.444402 
" clip-path="url(#p16d7e593ca)" style="fill: none; stroke: #000000; stroke-width: 0.3"/>
     <path d="M 148.231189 152.571704 
L 148.231189 149.517416 
" clip-path="url(#p16d7e593ca)" style="fill: none; stroke: #000000; stroke-width: 0.3"/>
     <path d="M 150.505407 159.571492 
L 150.505407 156.848427 
" clip-path="url(#p16d7e593ca)" style="fill: none; stroke: #000000; stroke-width: 0.3"/>
     <path d="M 152.779626 171.359647 
L 152.779626 168.937854 
" clip-path="url(#p16d7e593ca)" style="fill: none; stroke: #000000; stroke-width: 0.3"/>
     <path d="M 155.053844 174.368419 
L 155.053844 172.270232 
" clip-path="url(#p16d7e593ca)" style="fill: none; stroke: #000000; stroke-width: 0.3"/>
     <path d="M 157.328063 170.427325 
L 157.328063 168.697825 
" clip-path="url(#p16d7e593ca)" style="fill: none; stroke: #000000; stroke-width: 0.3"/>
     <path d="M 159.602281 162.817182 
L 159.602281 161.248073 
" clip-path="url(#p16d7e593ca)" style="fill: none; stroke: #000000; stroke-width: 0.3"/>
    </g>
    <g id="LineCollection_2">
     <path d="M 105.021037 162.817182 
L 105.021037 161.248073 
" clip-path="url(#p16d7e593ca)" style="fill: none; stroke: #000000; stroke-width: 0.3"/>
     <path d="M 107.295255 154.79456 
L 107.295255 153.118654 
" clip-path="url(#p16d7e593ca)" style="fill: none; stroke: #000000; stroke-width: 0.3"/>
     <path d="M 109.569474 150.88168 
L 109.569474 148.714213 
" clip-path="url(#p16d7e593ca)" style="fill: none; stroke: #000000; stroke-width: 0.3"/>
     <path d="M 111.843692 153.832238 
L 111.843692 150.710849 
" clip-path="url(#p16d7e593ca)" style="fill: none; stroke: #000000; stroke-width: 0.3"/>
     <path d="M 114.117911 161.090553 
L 114.117911 157.639074 
" clip-path="url(#p16d7e593ca)" style="fill: none; stroke: #000000; stroke-width: 0.3"/>
     <path d="M 116.392129 168.11345 
L 116.392129 164.014502 
" clip-path="url(#p16d7e593ca)" style="fill: none; stroke: #000000; stroke-width: 0.3"/>
     <path d="M 118.666348 168.909964 
L 118.666348 163.163273 
" clip-path="url(#p16d7e593ca)" style="fill: none; stroke: #000000; stroke-width: 0.3"/>
     <path d="M 120.940566 168.769011 
L 120.940566 163.04077 
" clip-path="url(#p16d7e593ca)" style="fill: none; stroke: #000000; stroke-width: 0.3"/>
     <path d="M 123.214785 163.708724 
L 123.214785 160.127944 
" clip-path="url(#p16d7e593ca)" style="fill: none; stroke: #000000; stroke-width: 0.3"/>
     <path d="M 125.489004 155.659609 
L 125.489004 153.249209 
" clip-path="url(#p16d7e593ca)" style="fill: none; stroke: #000000; stroke-width: 0.3"/>
     <path d="M 127.763222 150.741968 
L 127.763222 148.707634 
" clip-path="url(#p16d7e593ca)" style="fill: none; stroke: #000000; stroke-width: 0.3"/>
     <path d="M 130.037441 153.289167 
L 130.037441 151.564803 
" clip-path="url(#p16d7e593ca)" style="fill: none; stroke: #000000; stroke-width: 0.3"/>
     <path d="M 132.311659 161.268505 
L 132.311659 159.651633 
" clip-path="url(#p16d7e593ca)" style="fill: none; stroke: #000000; stroke-width: 0.3"/>
     <path d="M 134.585878 169.450171 
L 134.585878 167.858594 
" clip-path="url(#p16d7e593ca)" style="fill: none; stroke: #000000; stroke-width: 0.3"/>
     <path d="M 136.860096 174.310661 
L 136.860096 172.337536 
" clip-path="url(#p16d7e593ca)" style="fill: none; stroke: #000000; stroke-width: 0.3"/>
     <path d="M 139.134315 171.944579 
L 139.134315 169.529802 
" clip-path="url(#p16d7e593ca)" style="fill: none; stroke: #000000; stroke-width: 0.3"/>
     <path d="M 141.408533 161.057775 
L 141.408533 157.994851 
" clip-path="url(#p16d7e593ca)" style="fill: none; stroke: #000000; stroke-width: 0.3"/>
     <path d="M 143.682752 153.100952 
L 143.682752 150.016875 
" clip-path="url(#p16d7e593ca)" style="fill: none; stroke: #000000; stroke-width: 0.3"/>
     <path d="M 145.95697 151.882215 
L 145.95697 149.075953 
" clip-path="url(#p16d7e593ca)" style="fill: none; stroke: #000000; stroke-width: 0.3"/>
     <path d="M 145.95697 152.803476 
L 145.95697 149.444402 
" clip-path="url(#p16d7e593ca)" style="fill: none; stroke: #000000; stroke-width: 0.3"/>
     <path d="M 148.231189 152.571704 
L 148.231189 149.517416 
" clip-path="url(#p16d7e593ca)" style="fill: none; stroke: #000000; stroke-width: 0.3"/>
     <path d="M 150.505407 159.571492 
L 150.505407 156.848427 
" clip-path="url(#p16d7e593ca)" style="fill: none; stroke: #000000; stroke-width: 0.3"/>
     <path d="M 152.779626 171.359647 
L 152.779626 168.937854 
" clip-path="url(#p16d7e593ca)" style="fill: none; stroke: #000000; stroke-width: 0.3"/>
     <path d="M 155.053844 174.368419 
L 155.053844 172.270232 
" clip-path="url(#p16d7e593ca)" style="fill: none; stroke: #000000; stroke-width: 0.3"/>
     <path d="M 157.328063 170.427325 
L 157.328063 168.697825 
" clip-path="url(#p16d7e593ca)" style="fill: none; stroke: #000000; stroke-width: 0.3"/>
     <path d="M 159.602281 162.817182 
L 159.602281 161.248073 
" clip-path="url(#p16d7e593ca)" style="fill: none; stroke: #000000; stroke-width: 0.3"/>
    </g>
    <g id="line2d_68">
     <path d="M 105.021037 162.032627 
L 107.295255 153.956607 
L 109.569474 149.797946 
L 111.843692 152.271544 
L 114.117911 159.364813 
L 116.392129 166.063976 
L 118.666348 166.036618 
L 120.940566 165.904891 
L 123.214785 161.918334 
L 125.489004 154.454409 
L 127.763222 149.724801 
L 130.037441 152.426985 
L 132.311659 160.460069 
L 134.585878 168.654383 
L 136.860096 173.324099 
L 139.134315 170.73719 
L 141.408533 159.526313 
L 143.682752 151.558913 
L 145.95697 150.479084 
L 145.95697 151.123939 
L 148.231189 151.04456 
L 150.505407 158.209959 
L 152.779626 170.14875 
L 155.053844 173.319326 
L 157.328063 169.562575 
L 159.602281 162.032627 
" clip-path="url(#p16d7e593ca)" style="fill: none; stroke: #000000; stroke-width: 0.3; stroke-linecap: square"/>
     <defs>
      <path id="m4a74dc9ca3" d="M 0 0.75 
C 0.198902 0.75 0.389685 0.670975 0.53033 0.53033 
C 0.670975 0.389685 0.75 0.198902 0.75 0 
C 0.75 -0.198902 0.670975 -0.389685 0.53033 -0.53033 
C 0.389685 -0.670975 0.198902 -0.75 0 -0.75 
C -0.198902 -0.75 -0.389685 -0.670975 -0.53033 -0.53033 
C -0.670975 -0.389685 -0.75 -0.198902 -0.75 0 
C -0.75 0.198902 -0.670975 0.389685 -0.53033 0.53033 
C -0.389685 0.670975 -0.198902 0.75 0 0.75 
z
" style="stroke: #000000; stroke-width: 0.5"/>
     </defs>
     <g clip-path="url(#p16d7e593ca)">
      <use xlink:href="#m4a74dc9ca3" x="105.021037" y="162.032627" style="stroke: #000000; stroke-width: 0.5"/>
      <use xlink:href="#m4a74dc9ca3" x="107.295255" y="153.956607" style="stroke: #000000; stroke-width: 0.5"/>
      <use xlink:href="#m4a74dc9ca3" x="109.569474" y="149.797946" style="stroke: #000000; stroke-width: 0.5"/>
      <use xlink:href="#m4a74dc9ca3" x="111.843692" y="152.271544" style="stroke: #000000; stroke-width: 0.5"/>
      <use xlink:href="#m4a74dc9ca3" x="114.117911" y="159.364813" style="stroke: #000000; stroke-width: 0.5"/>
      <use xlink:href="#m4a74dc9ca3" x="116.392129" y="166.063976" style="stroke: #000000; stroke-width: 0.5"/>
      <use xlink:href="#m4a74dc9ca3" x="118.666348" y="166.036618" style="stroke: #000000; stroke-width: 0.5"/>
      <use xlink:href="#m4a74dc9ca3" x="120.940566" y="165.904891" style="stroke: #000000; stroke-width: 0.5"/>
      <use xlink:href="#m4a74dc9ca3" x="123.214785" y="161.918334" style="stroke: #000000; stroke-width: 0.5"/>
      <use xlink:href="#m4a74dc9ca3" x="125.489004" y="154.454409" style="stroke: #000000; stroke-width: 0.5"/>
      <use xlink:href="#m4a74dc9ca3" x="127.763222" y="149.724801" style="stroke: #000000; stroke-width: 0.5"/>
      <use xlink:href="#m4a74dc9ca3" x="130.037441" y="152.426985" style="stroke: #000000; stroke-width: 0.5"/>
      <use xlink:href="#m4a74dc9ca3" x="132.311659" y="160.460069" style="stroke: #000000; stroke-width: 0.5"/>
      <use xlink:href="#m4a74dc9ca3" x="134.585878" y="168.654383" style="stroke: #000000; stroke-width: 0.5"/>
      <use xlink:href="#m4a74dc9ca3" x="136.860096" y="173.324099" style="stroke: #000000; stroke-width: 0.5"/>
      <use xlink:href="#m4a74dc9ca3" x="139.134315" y="170.73719" style="stroke: #000000; stroke-width: 0.5"/>
      <use xlink:href="#m4a74dc9ca3" x="141.408533" y="159.526313" style="stroke: #000000; stroke-width: 0.5"/>
      <use xlink:href="#m4a74dc9ca3" x="143.682752" y="151.558913" style="stroke: #000000; stroke-width: 0.5"/>
      <use xlink:href="#m4a74dc9ca3" x="145.95697" y="150.479084" style="stroke: #000000; stroke-width: 0.5"/>
      <use xlink:href="#m4a74dc9ca3" x="145.95697" y="151.123939" style="stroke: #000000; stroke-width: 0.5"/>
      <use xlink:href="#m4a74dc9ca3" x="148.231189" y="151.04456" style="stroke: #000000; stroke-width: 0.5"/>
      <use xlink:href="#m4a74dc9ca3" x="150.505407" y="158.209959" style="stroke: #000000; stroke-width: 0.5"/>
      <use xlink:href="#m4a74dc9ca3" x="152.779626" y="170.14875" style="stroke: #000000; stroke-width: 0.5"/>
      <use xlink:href="#m4a74dc9ca3" x="155.053844" y="173.319326" style="stroke: #000000; stroke-width: 0.5"/>
      <use xlink:href="#m4a74dc9ca3" x="157.328063" y="169.562575" style="stroke: #000000; stroke-width: 0.5"/>
      <use xlink:href="#m4a74dc9ca3" x="159.602281" y="162.032627" style="stroke: #000000; stroke-width: 0.5"/>
     </g>
    </g>
    <g id="line2d_69">
     <path d="M 105.021037 162.032627 
L 107.295255 153.956607 
L 109.569474 149.797946 
L 111.843692 152.271544 
L 114.117911 159.364813 
L 116.392129 166.063976 
L 118.666348 166.036618 
L 120.940566 165.904891 
L 123.214785 161.918334 
L 125.489004 154.454409 
L 127.763222 149.724801 
L 130.037441 152.426985 
L 132.311659 160.460069 
L 134.585878 168.654383 
L 136.860096 173.324099 
L 139.134315 170.73719 
L 141.408533 159.526313 
L 143.682752 151.558913 
L 145.95697 150.479084 
L 145.95697 151.123939 
L 148.231189 151.04456 
L 150.505407 158.209959 
L 152.779626 170.14875 
L 155.053844 173.319326 
L 157.328063 169.562575 
L 159.602281 162.032627 
" clip-path="url(#p16d7e593ca)" style="fill: none; stroke: #000000; stroke-width: 0.3; stroke-linecap: square"/>
     <g clip-path="url(#p16d7e593ca)">
      <use xlink:href="#m4a74dc9ca3" x="105.021037" y="162.032627" style="stroke: #000000; stroke-width: 0.5"/>
      <use xlink:href="#m4a74dc9ca3" x="107.295255" y="153.956607" style="stroke: #000000; stroke-width: 0.5"/>
      <use xlink:href="#m4a74dc9ca3" x="109.569474" y="149.797946" style="stroke: #000000; stroke-width: 0.5"/>
      <use xlink:href="#m4a74dc9ca3" x="111.843692" y="152.271544" style="stroke: #000000; stroke-width: 0.5"/>
      <use xlink:href="#m4a74dc9ca3" x="114.117911" y="159.364813" style="stroke: #000000; stroke-width: 0.5"/>
      <use xlink:href="#m4a74dc9ca3" x="116.392129" y="166.063976" style="stroke: #000000; stroke-width: 0.5"/>
      <use xlink:href="#m4a74dc9ca3" x="118.666348" y="166.036618" style="stroke: #000000; stroke-width: 0.5"/>
      <use xlink:href="#m4a74dc9ca3" x="120.940566" y="165.904891" style="stroke: #000000; stroke-width: 0.5"/>
      <use xlink:href="#m4a74dc9ca3" x="123.214785" y="161.918334" style="stroke: #000000; stroke-width: 0.5"/>
      <use xlink:href="#m4a74dc9ca3" x="125.489004" y="154.454409" style="stroke: #000000; stroke-width: 0.5"/>
      <use xlink:href="#m4a74dc9ca3" x="127.763222" y="149.724801" style="stroke: #000000; stroke-width: 0.5"/>
      <use xlink:href="#m4a74dc9ca3" x="130.037441" y="152.426985" style="stroke: #000000; stroke-width: 0.5"/>
      <use xlink:href="#m4a74dc9ca3" x="132.311659" y="160.460069" style="stroke: #000000; stroke-width: 0.5"/>
      <use xlink:href="#m4a74dc9ca3" x="134.585878" y="168.654383" style="stroke: #000000; stroke-width: 0.5"/>
      <use xlink:href="#m4a74dc9ca3" x="136.860096" y="173.324099" style="stroke: #000000; stroke-width: 0.5"/>
      <use xlink:href="#m4a74dc9ca3" x="139.134315" y="170.73719" style="stroke: #000000; stroke-width: 0.5"/>
      <use xlink:href="#m4a74dc9ca3" x="141.408533" y="159.526313" style="stroke: #000000; stroke-width: 0.5"/>
      <use xlink:href="#m4a74dc9ca3" x="143.682752" y="151.558913" style="stroke: #000000; stroke-width: 0.5"/>
      <use xlink:href="#m4a74dc9ca3" x="145.95697" y="150.479084" style="stroke: #000000; stroke-width: 0.5"/>
      <use xlink:href="#m4a74dc9ca3" x="145.95697" y="151.123939" style="stroke: #000000; stroke-width: 0.5"/>
      <use xlink:href="#m4a74dc9ca3" x="148.231189" y="151.04456" style="stroke: #000000; stroke-width: 0.5"/>
      <use xlink:href="#m4a74dc9ca3" x="150.505407" y="158.209959" style="stroke: #000000; stroke-width: 0.5"/>
      <use xlink:href="#m4a74dc9ca3" x="152.779626" y="170.14875" style="stroke: #000000; stroke-width: 0.5"/>
      <use xlink:href="#m4a74dc9ca3" x="155.053844" y="173.319326" style="stroke: #000000; stroke-width: 0.5"/>
      <use xlink:href="#m4a74dc9ca3" x="157.328063" y="169.562575" style="stroke: #000000; stroke-width: 0.5"/>
      <use xlink:href="#m4a74dc9ca3" x="159.602281" y="162.032627" style="stroke: #000000; stroke-width: 0.5"/>
     </g>
    </g>
    <g id="patch_14">
     <path d="M 102.291975 175.651459 
L 102.291975 147.424595 
" style="fill: none; stroke: #000000; stroke-width: 0.5; stroke-linejoin: miter; stroke-linecap: square"/>
    </g>
    <g id="patch_15">
     <path d="M 162.331344 175.651459 
L 162.331344 147.424595 
" style="fill: none; stroke: #000000; stroke-width: 0.5; stroke-linejoin: miter; stroke-linecap: square"/>
    </g>
    <g id="patch_16">
     <path d="M 102.291975 175.651459 
L 162.331344 175.651459 
" style="fill: none; stroke: #000000; stroke-width: 0.5; stroke-linejoin: miter; stroke-linecap: square"/>
    </g>
    <g id="patch_17">
     <path d="M 102.291975 147.424595 
L 162.331344 147.424595 
" style="fill: none; stroke: #000000; stroke-width: 0.5; stroke-linejoin: miter; stroke-linecap: square"/>
    </g>
   </g>
   <g id="legend_2">
    <g id="patch_18">
     <path d="M 36.24374 123.219757 
L 90.531391 123.219757 
Q 91.864191 123.219757 91.864191 121.886957 
L 91.864191 103.700485 
Q 91.864191 102.367685 90.531391 102.367685 
L 36.24374 102.367685 
Q 34.91094 102.367685 34.91094 103.700485 
L 34.91094 121.886957 
Q 34.91094 123.219757 36.24374 123.219757 
z
" style="fill: #ffffff; opacity: 0.8; stroke: #cccccc; stroke-linejoin: miter"/>
    </g>
    <g id="line2d_70">
     <path d="M 37.57654 107.470851 
L 44.24054 107.470851 
L 50.90454 107.470851 
" style="fill: none"/>
     <g>
      <use xlink:href="#m32c218b32d" x="44.24054" y="107.470851" style="stroke: #000000; stroke-width: 0.5"/>
     </g>
    </g>
    <g id="text_23">
     <!-- experiment -->
     <g transform="translate(56.23574 109.803251) scale(0.06664 -0.06664)">
      <use xlink:href="#ArialMT-65"/>
      <use xlink:href="#ArialMT-78" x="55.615234"/>
      <use xlink:href="#ArialMT-70" x="105.615234"/>
      <use xlink:href="#ArialMT-65" x="161.230469"/>
      <use xlink:href="#ArialMT-72" x="216.845703"/>
      <use xlink:href="#ArialMT-69" x="250.146484"/>
      <use xlink:href="#ArialMT-6d" x="272.363281"/>
      <use xlink:href="#ArialMT-65" x="355.664062"/>
      <use xlink:href="#ArialMT-6e" x="411.279297"/>
      <use xlink:href="#ArialMT-74" x="466.894531"/>
     </g>
    </g>
    <g id="line2d_71">
     <path d="M 37.57654 116.897287 
L 44.24054 116.897287 
L 50.90454 116.897287 
" style="fill: none; stroke: #7f7f7f; stroke-linecap: square"/>
    </g>
    <g id="text_24">
     <!-- fit -->
     <g transform="translate(56.23574 119.229687) scale(0.06664 -0.06664)">
      <defs>
       <path id="ArialMT-66" d="M 556 0 
L 556 2881 
L 59 2881 
L 59 3319 
L 556 3319 
L 556 3672 
Q 556 4006 616 4169 
Q 697 4388 901 4523 
Q 1106 4659 1475 4659 
Q 1713 4659 2000 4603 
L 1916 4113 
Q 1741 4144 1584 4144 
Q 1328 4144 1222 4034 
Q 1116 3925 1116 3625 
L 1116 3319 
L 1763 3319 
L 1763 2881 
L 1116 2881 
L 1116 0 
L 556 0 
z
" transform="scale(0.015625)"/>
      </defs>
      <use xlink:href="#ArialMT-66"/>
      <use xlink:href="#ArialMT-69" x="27.783203"/>
      <use xlink:href="#ArialMT-74" x="50"/>
     </g>
    </g>
   </g>
  </g>
 </g>
 <defs>
  <clipPath id="p3d6a8b1338">
   <rect x="31.57894" y="12.387022" width="133.42082" height="80.648183"/>
  </clipPath>
  <clipPath id="pc7eb254f41">
   <rect x="31.57894" y="99.035685" width="133.42082" height="80.648183"/>
  </clipPath>
  <clipPath id="p16d7e593ca">
   <rect x="102.291975" y="147.424595" width="60.039369" height="28.226864"/>
  </clipPath>
 </defs>
</svg>
