<?xml version="1.0" encoding="utf-8" standalone="no"?>
<!DOCTYPE svg PUBLIC "-//W3C//DTD SVG 1.1//EN"
  "http://www.w3.org/Graphics/SVG/1.1/DTD/svg11.dtd">
<svg xmlns:xlink="http://www.w3.org/1999/xlink" width="168pt" height="207.65942pt" viewBox="0 0 168 207.65942" xmlns="http://www.w3.org/2000/svg" version="1.1">
 <metadata>
  <rdf:RDF xmlns:dc="http://purl.org/dc/elements/1.1/" xmlns:cc="http://creativecommons.org/ns#" xmlns:rdf="http://www.w3.org/1999/02/22-rdf-syntax-ns#">
   <cc:Work>
    <dc:type rdf:resource="http://purl.org/dc/dcmitype/StillImage"/>
    <dc:date>2025-03-10T12:56:14.273299</dc:date>
    <dc:format>image/svg+xml</dc:format>
    <dc:creator>
     <cc:Agent>
      <dc:title>Matplotlib v3.8.4, https://matplotlib.org/</dc:title>
     </cc:Agent>
    </dc:creator>
   </cc:Work>
  </rdf:RDF>
 </metadata>
 <defs>
  <style type="text/css">*{stroke-linejoin: round; stroke-linecap: butt}</style>
 </defs>
 <g id="figure_1">
  <g id="patch_1">
   <path d="M 0 207.65942 
L 168 207.65942 
L 168 0 
L 0 0 
L 0 207.65942 
z
" style="fill: none"/>
  </g>
  <g id="axes_1">
   <g id="patch_2">
    <path d="M 42.643462 92.605247 
L 164.99976 92.605247 
L 164.99976 11.527106 
L 42.643462 11.527106 
L 42.643462 92.605247 
z
" style="fill: none"/>
   </g>
   <g id="line2d_1">
    <path d="M 103.821611 92.605247 
L 103.821611 11.527106 
" clip-path="url(#p7b4c3fe8b3)" style="fill: none; stroke: #d3d3d3; stroke-width: 0.5; stroke-linecap: square"/>
   </g>
   <g id="matplotlib.axis_1">
    <g id="xtick_1">
     <g id="line2d_2">
      <defs>
       <path id="m0847fd995c" d="M 0 0 
L 0 -2 
" style="stroke: #000000; stroke-width: 0.5"/>
      </defs>
      <g>
       <use xlink:href="#m0847fd995c" x="48.205112" y="92.605247" style="stroke: #000000; stroke-width: 0.5"/>
      </g>
     </g>
     <g id="line2d_3">
      <defs>
       <path id="m4e245efbf6" d="M 0 0 
L 0 2 
" style="stroke: #000000; stroke-width: 0.5"/>
      </defs>
      <g>
       <use xlink:href="#m4e245efbf6" x="48.205112" y="11.527106" style="stroke: #000000; stroke-width: 0.5"/>
      </g>
     </g>
    </g>
    <g id="xtick_2">
     <g id="line2d_4">
      <g>
       <use xlink:href="#m0847fd995c" x="76.013361" y="92.605247" style="stroke: #000000; stroke-width: 0.5"/>
      </g>
     </g>
     <g id="line2d_5">
      <g>
       <use xlink:href="#m4e245efbf6" x="76.013361" y="11.527106" style="stroke: #000000; stroke-width: 0.5"/>
      </g>
     </g>
    </g>
    <g id="xtick_3">
     <g id="line2d_6">
      <g>
       <use xlink:href="#m0847fd995c" x="103.821611" y="92.605247" style="stroke: #000000; stroke-width: 0.5"/>
      </g>
     </g>
     <g id="line2d_7">
      <g>
       <use xlink:href="#m4e245efbf6" x="103.821611" y="11.527106" style="stroke: #000000; stroke-width: 0.5"/>
      </g>
     </g>
    </g>
    <g id="xtick_4">
     <g id="line2d_8">
      <g>
       <use xlink:href="#m0847fd995c" x="131.629861" y="92.605247" style="stroke: #000000; stroke-width: 0.5"/>
      </g>
     </g>
     <g id="line2d_9">
      <g>
       <use xlink:href="#m4e245efbf6" x="131.629861" y="11.527106" style="stroke: #000000; stroke-width: 0.5"/>
      </g>
     </g>
    </g>
    <g id="xtick_5">
     <g id="line2d_10">
      <g>
       <use xlink:href="#m0847fd995c" x="159.43811" y="92.605247" style="stroke: #000000; stroke-width: 0.5"/>
      </g>
     </g>
     <g id="line2d_11">
      <g>
       <use xlink:href="#m4e245efbf6" x="159.43811" y="11.527106" style="stroke: #000000; stroke-width: 0.5"/>
      </g>
     </g>
    </g>
   </g>
   <g id="matplotlib.axis_2">
    <g id="ytick_1">
     <g id="line2d_12">
      <defs>
       <path id="mf22bde0882" d="M 0 0 
L 2 0 
" style="stroke: #000000; stroke-width: 0.5"/>
      </defs>
      <g>
       <use xlink:href="#mf22bde0882" x="42.643462" y="87.229845" style="stroke: #000000; stroke-width: 0.5"/>
      </g>
     </g>
     <g id="line2d_13">
      <defs>
       <path id="ma30d3c96ac" d="M 0 0 
L -2 0 
" style="stroke: #000000; stroke-width: 0.5"/>
      </defs>
      <g>
       <use xlink:href="#ma30d3c96ac" x="164.99976" y="87.229845" style="stroke: #000000; stroke-width: 0.5"/>
      </g>
     </g>
     <g id="text_1">
      <!-- 0.232 -->
      <g transform="translate(18.30024 90.211074) scale(0.0833 -0.0833)">
       <defs>
        <path id="ArialMT-30" d="M 266 2259 
Q 266 3072 433 3567 
Q 600 4063 929 4331 
Q 1259 4600 1759 4600 
Q 2128 4600 2406 4451 
Q 2684 4303 2865 4023 
Q 3047 3744 3150 3342 
Q 3253 2941 3253 2259 
Q 3253 1453 3087 958 
Q 2922 463 2592 192 
Q 2263 -78 1759 -78 
Q 1097 -78 719 397 
Q 266 969 266 2259 
z
M 844 2259 
Q 844 1131 1108 757 
Q 1372 384 1759 384 
Q 2147 384 2411 759 
Q 2675 1134 2675 2259 
Q 2675 3391 2411 3762 
Q 2147 4134 1753 4134 
Q 1366 4134 1134 3806 
Q 844 3388 844 2259 
z
" transform="scale(0.015625)"/>
        <path id="ArialMT-2e" d="M 581 0 
L 581 641 
L 1222 641 
L 1222 0 
L 581 0 
z
" transform="scale(0.015625)"/>
        <path id="ArialMT-32" d="M 3222 541 
L 3222 0 
L 194 0 
Q 188 203 259 391 
Q 375 700 629 1000 
Q 884 1300 1366 1694 
Q 2113 2306 2375 2664 
Q 2638 3022 2638 3341 
Q 2638 3675 2398 3904 
Q 2159 4134 1775 4134 
Q 1369 4134 1125 3890 
Q 881 3647 878 3216 
L 300 3275 
Q 359 3922 746 4261 
Q 1134 4600 1788 4600 
Q 2447 4600 2831 4234 
Q 3216 3869 3216 3328 
Q 3216 3053 3103 2787 
Q 2991 2522 2730 2228 
Q 2469 1934 1863 1422 
Q 1356 997 1212 845 
Q 1069 694 975 541 
L 3222 541 
z
" transform="scale(0.015625)"/>
        <path id="ArialMT-33" d="M 269 1209 
L 831 1284 
Q 928 806 1161 595 
Q 1394 384 1728 384 
Q 2125 384 2398 659 
Q 2672 934 2672 1341 
Q 2672 1728 2419 1979 
Q 2166 2231 1775 2231 
Q 1616 2231 1378 2169 
L 1441 2663 
Q 1497 2656 1531 2656 
Q 1891 2656 2178 2843 
Q 2466 3031 2466 3422 
Q 2466 3731 2256 3934 
Q 2047 4138 1716 4138 
Q 1388 4138 1169 3931 
Q 950 3725 888 3313 
L 325 3413 
Q 428 3978 793 4289 
Q 1159 4600 1703 4600 
Q 2078 4600 2393 4439 
Q 2709 4278 2876 4000 
Q 3044 3722 3044 3409 
Q 3044 3113 2884 2869 
Q 2725 2625 2413 2481 
Q 2819 2388 3044 2092 
Q 3269 1797 3269 1353 
Q 3269 753 2831 336 
Q 2394 -81 1725 -81 
Q 1122 -81 723 278 
Q 325 638 269 1209 
z
" transform="scale(0.015625)"/>
       </defs>
       <use xlink:href="#ArialMT-30"/>
       <use xlink:href="#ArialMT-2e" x="55.615234"/>
       <use xlink:href="#ArialMT-32" x="83.398438"/>
       <use xlink:href="#ArialMT-33" x="139.013672"/>
       <use xlink:href="#ArialMT-32" x="194.628906"/>
      </g>
     </g>
    </g>
    <g id="ytick_2">
     <g id="line2d_14">
      <g>
       <use xlink:href="#mf22bde0882" x="42.643462" y="72.089297" style="stroke: #000000; stroke-width: 0.5"/>
      </g>
     </g>
     <g id="line2d_15">
      <g>
       <use xlink:href="#ma30d3c96ac" x="164.99976" y="72.089297" style="stroke: #000000; stroke-width: 0.5"/>
      </g>
     </g>
    </g>
    <g id="ytick_3">
     <g id="line2d_16">
      <g>
       <use xlink:href="#mf22bde0882" x="42.643462" y="56.948749" style="stroke: #000000; stroke-width: 0.5"/>
      </g>
     </g>
     <g id="line2d_17">
      <g>
       <use xlink:href="#ma30d3c96ac" x="164.99976" y="56.948749" style="stroke: #000000; stroke-width: 0.5"/>
      </g>
     </g>
     <g id="text_2">
      <!-- 0.233 -->
      <g transform="translate(18.30024 59.929978) scale(0.0833 -0.0833)">
       <use xlink:href="#ArialMT-30"/>
       <use xlink:href="#ArialMT-2e" x="55.615234"/>
       <use xlink:href="#ArialMT-32" x="83.398438"/>
       <use xlink:href="#ArialMT-33" x="139.013672"/>
       <use xlink:href="#ArialMT-33" x="194.628906"/>
      </g>
     </g>
    </g>
    <g id="ytick_4">
     <g id="line2d_18">
      <g>
       <use xlink:href="#mf22bde0882" x="42.643462" y="41.808202" style="stroke: #000000; stroke-width: 0.5"/>
      </g>
     </g>
     <g id="line2d_19">
      <g>
       <use xlink:href="#ma30d3c96ac" x="164.99976" y="41.808202" style="stroke: #000000; stroke-width: 0.5"/>
      </g>
     </g>
    </g>
    <g id="ytick_5">
     <g id="line2d_20">
      <g>
       <use xlink:href="#mf22bde0882" x="42.643462" y="26.667654" style="stroke: #000000; stroke-width: 0.5"/>
      </g>
     </g>
     <g id="line2d_21">
      <g>
       <use xlink:href="#ma30d3c96ac" x="164.99976" y="26.667654" style="stroke: #000000; stroke-width: 0.5"/>
      </g>
     </g>
     <g id="text_3">
      <!-- 0.234 -->
      <g transform="translate(18.30024 29.648883) scale(0.0833 -0.0833)">
       <defs>
        <path id="ArialMT-34" d="M 2069 0 
L 2069 1097 
L 81 1097 
L 81 1613 
L 2172 4581 
L 2631 4581 
L 2631 1613 
L 3250 1613 
L 3250 1097 
L 2631 1097 
L 2631 0 
L 2069 0 
z
M 2069 1613 
L 2069 3678 
L 634 1613 
L 2069 1613 
z
" transform="scale(0.015625)"/>
       </defs>
       <use xlink:href="#ArialMT-30"/>
       <use xlink:href="#ArialMT-2e" x="55.615234"/>
       <use xlink:href="#ArialMT-32" x="83.398438"/>
       <use xlink:href="#ArialMT-33" x="139.013672"/>
       <use xlink:href="#ArialMT-34" x="194.628906"/>
      </g>
     </g>
    </g>
    <g id="ytick_6">
     <g id="line2d_22">
      <g>
       <use xlink:href="#mf22bde0882" x="42.643462" y="11.527106" style="stroke: #000000; stroke-width: 0.5"/>
      </g>
     </g>
     <g id="line2d_23">
      <g>
       <use xlink:href="#ma30d3c96ac" x="164.99976" y="11.527106" style="stroke: #000000; stroke-width: 0.5"/>
      </g>
     </g>
    </g>
    <g id="text_4">
     <!-- $J_\mathrm{c}$ ($e/\xi_0^2$) -->
     <g transform="translate(11.50024 71.116176) rotate(-90) scale(0.1 -0.1)">
      <defs>
       <path id="Cmmi10-4a" d="M 697 384 
Q 759 206 928 115 
Q 1097 25 1294 25 
Q 1494 25 1680 164 
Q 1866 303 1995 512 
Q 2125 722 2175 928 
L 2931 3956 
Q 2938 3981 2939 3993 
Q 2941 4006 2944 4019 
Q 2944 4088 2894 4103 
Q 2725 4147 2209 4147 
Q 2144 4147 2144 4231 
Q 2156 4281 2164 4309 
Q 2172 4338 2192 4355 
Q 2213 4372 2253 4372 
L 3988 4372 
Q 4050 4372 4050 4288 
Q 4025 4147 3969 4147 
Q 3744 4147 3628 4112 
Q 3513 4078 3469 3928 
L 2713 903 
Q 2641 606 2420 367 
Q 2200 128 1897 -6 
Q 1594 -141 1288 -141 
Q 950 -141 695 46 
Q 441 234 441 556 
Q 441 769 556 922 
Q 672 1075 884 1075 
Q 1006 1075 1089 1000 
Q 1172 925 1172 806 
Q 1172 634 1044 506 
Q 916 378 744 378 
Q 709 378 697 384 
z
" transform="scale(0.015625)"/>
       <path id="Cmr10-63" d="M 1594 -72 
Q 1206 -72 890 129 
Q 575 331 394 667 
Q 213 1003 213 1381 
Q 213 1759 392 2106 
Q 572 2453 889 2661 
Q 1206 2869 1594 2869 
Q 1969 2869 2276 2722 
Q 2584 2575 2584 2241 
Q 2584 2116 2495 2023 
Q 2406 1931 2278 1931 
Q 2150 1931 2061 2023 
Q 1972 2116 1972 2241 
Q 1972 2353 2044 2436 
Q 2116 2519 2222 2541 
Q 2000 2681 1600 2681 
Q 1294 2681 1106 2478 
Q 919 2275 844 1975 
Q 769 1675 769 1381 
Q 769 1072 861 783 
Q 953 494 1158 305 
Q 1363 116 1672 116 
Q 1975 116 2187 302 
Q 2400 488 2478 788 
Q 2478 825 2528 825 
L 2606 825 
Q 2625 825 2640 808 
Q 2656 791 2656 769 
L 2656 750 
Q 2559 372 2271 150 
Q 1984 -72 1594 -72 
z
" transform="scale(0.015625)"/>
       <path id="ArialMT-20" transform="scale(0.015625)"/>
       <path id="ArialMT-28" d="M 1497 -1347 
Q 1031 -759 709 28 
Q 388 816 388 1659 
Q 388 2403 628 3084 
Q 909 3875 1497 4659 
L 1900 4659 
Q 1522 4009 1400 3731 
Q 1209 3300 1100 2831 
Q 966 2247 966 1656 
Q 966 153 1900 -1347 
L 1497 -1347 
z
" transform="scale(0.015625)"/>
       <path id="Cmmi10-65" d="M 1288 -72 
Q 981 -72 751 87 
Q 522 247 401 517 
Q 281 788 281 1088 
Q 281 1544 511 1945 
Q 741 2347 1134 2587 
Q 1528 2828 1978 2828 
Q 2253 2828 2458 2686 
Q 2663 2544 2663 2278 
Q 2663 1909 2369 1729 
Q 2075 1550 1706 1508 
Q 1338 1466 891 1466 
L 872 1466 
Q 769 1084 769 813 
Q 769 528 900 312 
Q 1031 97 1300 97 
Q 1681 97 2032 272 
Q 2384 447 2606 756 
Q 2625 775 2656 775 
Q 2688 775 2720 739 
Q 2753 703 2753 672 
Q 2753 647 2741 634 
Q 2506 306 2109 117 
Q 1713 -72 1288 -72 
z
M 909 1631 
Q 1281 1631 1597 1665 
Q 1913 1700 2169 1839 
Q 2425 1978 2425 2272 
Q 2425 2391 2359 2480 
Q 2294 2569 2189 2616 
Q 2084 2663 1972 2663 
Q 1700 2663 1483 2516 
Q 1266 2369 1125 2133 
Q 984 1897 909 1631 
z
" transform="scale(0.015625)"/>
       <path id="Cmmi10-3d" d="M 359 -1472 
Q 359 -1453 366 -1447 
L 2591 4722 
Q 2603 4759 2634 4779 
Q 2666 4800 2706 4800 
Q 2763 4800 2798 4765 
Q 2834 4731 2834 4672 
L 2834 4647 
L 609 -1522 
Q 572 -1600 488 -1600 
Q 434 -1600 396 -1562 
Q 359 -1525 359 -1472 
z
" transform="scale(0.015625)"/>
       <path id="Cmmi10-bb" d="M 1044 -997 
Q 1053 -922 1131 -922 
Q 1138 -922 1252 -984 
Q 1366 -1047 1503 -1097 
Q 1641 -1147 1778 -1147 
Q 1897 -1147 1978 -1045 
Q 2059 -944 2059 -825 
Q 2059 -656 1881 -588 
L 794 -166 
Q 513 -56 330 161 
Q 147 378 147 653 
Q 147 900 278 1167 
Q 409 1434 615 1651 
Q 822 1869 1056 2003 
Q 869 2116 764 2292 
Q 659 2469 659 2681 
Q 659 2906 751 3100 
Q 844 3294 1003 3453 
Q 1163 3613 1359 3723 
Q 1556 3834 1759 3891 
Q 1728 4022 1728 4128 
Q 1728 4475 1863 4475 
Q 1897 4475 1922 4450 
Q 1947 4425 1947 4391 
Q 1947 4359 1930 4253 
Q 1913 4147 1913 4122 
Q 1913 4013 1941 3928 
Q 2106 3963 2259 3963 
Q 2847 3963 2847 3781 
Q 2847 3566 2194 3566 
Q 1994 3566 1869 3700 
Q 1684 3606 1528 3434 
Q 1372 3263 1284 3052 
Q 1197 2841 1197 2625 
Q 1197 2325 1369 2144 
Q 1597 2222 1825 2222 
Q 2413 2222 2413 2041 
Q 2413 1825 1759 1825 
Q 1494 1825 1259 1906 
Q 975 1753 737 1440 
Q 500 1128 500 838 
Q 500 650 636 508 
Q 772 366 972 281 
L 2106 -159 
Q 2253 -216 2345 -339 
Q 2438 -463 2438 -622 
Q 2438 -884 2236 -1098 
Q 2034 -1313 1772 -1313 
Q 1691 -1313 1506 -1269 
Q 1322 -1225 1183 -1153 
Q 1044 -1081 1044 -997 
z
M 1563 2022 
Q 1647 1991 1772 1991 
Q 2081 1991 2216 2028 
Q 2094 2053 1819 2053 
Q 1709 2053 1563 2022 
z
M 2053 3769 
Q 2109 3731 2209 3731 
Q 2516 3731 2650 3769 
L 2053 3769 
z
" transform="scale(0.015625)"/>
       <path id="Cmr10-32" d="M 319 0 
L 319 172 
Q 319 188 331 206 
L 1325 1306 
Q 1550 1550 1690 1715 
Q 1831 1881 1968 2097 
Q 2106 2313 2186 2536 
Q 2266 2759 2266 3009 
Q 2266 3272 2169 3511 
Q 2072 3750 1880 3894 
Q 1688 4038 1416 4038 
Q 1138 4038 916 3870 
Q 694 3703 603 3438 
Q 628 3444 672 3444 
Q 816 3444 917 3347 
Q 1019 3250 1019 3097 
Q 1019 2950 917 2848 
Q 816 2747 672 2747 
Q 522 2747 420 2851 
Q 319 2956 319 3097 
Q 319 3338 409 3548 
Q 500 3759 670 3923 
Q 841 4088 1055 4175 
Q 1269 4263 1509 4263 
Q 1875 4263 2190 4108 
Q 2506 3953 2690 3670 
Q 2875 3388 2875 3009 
Q 2875 2731 2753 2481 
Q 2631 2231 2440 2026 
Q 2250 1822 1953 1562 
Q 1656 1303 1563 1216 
L 838 519 
L 1453 519 
Q 1906 519 2211 526 
Q 2516 534 2534 550 
Q 2609 631 2688 1141 
L 2875 1141 
L 2694 0 
L 319 0 
z
" transform="scale(0.015625)"/>
       <path id="Cmr10-30" d="M 1600 -141 
Q 816 -141 533 504 
Q 250 1150 250 2041 
Q 250 2597 351 3087 
Q 453 3578 754 3920 
Q 1056 4263 1600 4263 
Q 2022 4263 2290 4056 
Q 2559 3850 2700 3523 
Q 2841 3197 2892 2823 
Q 2944 2450 2944 2041 
Q 2944 1491 2842 1011 
Q 2741 531 2444 195 
Q 2147 -141 1600 -141 
z
M 1600 25 
Q 1956 25 2131 390 
Q 2306 756 2347 1200 
Q 2388 1644 2388 2144 
Q 2388 2625 2347 3031 
Q 2306 3438 2132 3767 
Q 1959 4097 1600 4097 
Q 1238 4097 1063 3765 
Q 888 3434 847 3029 
Q 806 2625 806 2144 
Q 806 1788 823 1472 
Q 841 1156 916 820 
Q 991 484 1158 254 
Q 1325 25 1600 25 
z
" transform="scale(0.015625)"/>
       <path id="ArialMT-29" d="M 791 -1347 
L 388 -1347 
Q 1322 153 1322 1656 
Q 1322 2244 1188 2822 
Q 1081 3291 891 3722 
Q 769 4003 388 4659 
L 791 4659 
Q 1378 3875 1659 3084 
Q 1900 2403 1900 1659 
Q 1900 816 1576 28 
Q 1253 -759 791 -1347 
z
" transform="scale(0.015625)"/>
      </defs>
      <use xlink:href="#Cmmi10-4a" transform="translate(0 0.109375)"/>
      <use xlink:href="#Cmr10-63" transform="translate(55.419922 -16.896875) scale(0.7)"/>
      <use xlink:href="#ArialMT-20" transform="translate(92.866602 0.109375)"/>
      <use xlink:href="#ArialMT-28" transform="translate(120.649805 0.109375)"/>
      <use xlink:href="#Cmmi10-65" transform="translate(153.950586 0.109375)"/>
      <use xlink:href="#Cmmi10-3d" transform="translate(200.434961 0.109375)"/>
      <use xlink:href="#Cmmi10-bb" transform="translate(250.434961 0.109375)"/>
      <use xlink:href="#Cmr10-32" transform="translate(305.843633 38.373438) scale(0.7)"/>
      <use xlink:href="#Cmr10-30" transform="translate(294.136133 -25.4) scale(0.7)"/>
      <use xlink:href="#ArialMT-29" transform="translate(347.220977 0.109375)"/>
     </g>
    </g>
   </g>
   <g id="patch_3">
    <path d="M 42.643462 92.605247 
L 42.643462 11.527106 
" style="fill: none; stroke: #000000; stroke-width: 0.5; stroke-linejoin: miter; stroke-linecap: square"/>
   </g>
   <g id="patch_4">
    <path d="M 164.99976 92.605247 
L 164.99976 11.527106 
" style="fill: none; stroke: #000000; stroke-width: 0.5; stroke-linejoin: miter; stroke-linecap: square"/>
   </g>
   <g id="patch_5">
    <path d="M 42.643462 92.605247 
L 164.99976 92.605247 
" style="fill: none; stroke: #000000; stroke-width: 0.5; stroke-linejoin: miter; stroke-linecap: square"/>
   </g>
   <g id="patch_6">
    <path d="M 42.643462 11.527106 
L 164.99976 11.527106 
" style="fill: none; stroke: #000000; stroke-width: 0.5; stroke-linejoin: miter; stroke-linecap: square"/>
   </g>
   <g id="text_5">
    <!-- theory -->
    <g transform="translate(141.850169 8.96312) scale(0.0833 -0.0833)">
     <defs>
      <path id="ArialMT-74" d="M 1650 503 
L 1731 6 
Q 1494 -44 1306 -44 
Q 1000 -44 831 53 
Q 663 150 594 308 
Q 525 466 525 972 
L 525 2881 
L 113 2881 
L 113 3319 
L 525 3319 
L 525 4141 
L 1084 4478 
L 1084 3319 
L 1650 3319 
L 1650 2881 
L 1084 2881 
L 1084 941 
Q 1084 700 1114 631 
Q 1144 563 1211 522 
Q 1278 481 1403 481 
Q 1497 481 1650 503 
z
" transform="scale(0.015625)"/>
      <path id="ArialMT-68" d="M 422 0 
L 422 4581 
L 984 4581 
L 984 2938 
Q 1378 3394 1978 3394 
Q 2347 3394 2619 3248 
Q 2891 3103 3008 2847 
Q 3125 2591 3125 2103 
L 3125 0 
L 2563 0 
L 2563 2103 
Q 2563 2525 2380 2717 
Q 2197 2909 1863 2909 
Q 1613 2909 1392 2779 
Q 1172 2650 1078 2428 
Q 984 2206 984 1816 
L 984 0 
L 422 0 
z
" transform="scale(0.015625)"/>
      <path id="ArialMT-65" d="M 2694 1069 
L 3275 997 
Q 3138 488 2766 206 
Q 2394 -75 1816 -75 
Q 1088 -75 661 373 
Q 234 822 234 1631 
Q 234 2469 665 2931 
Q 1097 3394 1784 3394 
Q 2450 3394 2872 2941 
Q 3294 2488 3294 1666 
Q 3294 1616 3291 1516 
L 816 1516 
Q 847 969 1125 678 
Q 1403 388 1819 388 
Q 2128 388 2347 550 
Q 2566 713 2694 1069 
z
M 847 1978 
L 2700 1978 
Q 2663 2397 2488 2606 
Q 2219 2931 1791 2931 
Q 1403 2931 1139 2672 
Q 875 2413 847 1978 
z
" transform="scale(0.015625)"/>
      <path id="ArialMT-6f" d="M 213 1659 
Q 213 2581 725 3025 
Q 1153 3394 1769 3394 
Q 2453 3394 2887 2945 
Q 3322 2497 3322 1706 
Q 3322 1066 3130 698 
Q 2938 331 2570 128 
Q 2203 -75 1769 -75 
Q 1072 -75 642 372 
Q 213 819 213 1659 
z
M 791 1659 
Q 791 1022 1069 705 
Q 1347 388 1769 388 
Q 2188 388 2466 706 
Q 2744 1025 2744 1678 
Q 2744 2294 2464 2611 
Q 2184 2928 1769 2928 
Q 1347 2928 1069 2612 
Q 791 2297 791 1659 
z
" transform="scale(0.015625)"/>
      <path id="ArialMT-72" d="M 416 0 
L 416 3319 
L 922 3319 
L 922 2816 
Q 1116 3169 1280 3281 
Q 1444 3394 1641 3394 
Q 1925 3394 2219 3213 
L 2025 2691 
Q 1819 2813 1613 2813 
Q 1428 2813 1281 2702 
Q 1134 2591 1072 2394 
Q 978 2094 978 1738 
L 978 0 
L 416 0 
z
" transform="scale(0.015625)"/>
      <path id="ArialMT-79" d="M 397 -1278 
L 334 -750 
Q 519 -800 656 -800 
Q 844 -800 956 -737 
Q 1069 -675 1141 -563 
Q 1194 -478 1313 -144 
Q 1328 -97 1363 -6 
L 103 3319 
L 709 3319 
L 1400 1397 
Q 1534 1031 1641 628 
Q 1738 1016 1872 1384 
L 2581 3319 
L 3144 3319 
L 1881 -56 
Q 1678 -603 1566 -809 
Q 1416 -1088 1222 -1217 
Q 1028 -1347 759 -1347 
Q 597 -1347 397 -1278 
z
" transform="scale(0.015625)"/>
     </defs>
     <use xlink:href="#ArialMT-74"/>
     <use xlink:href="#ArialMT-68" x="27.783203"/>
     <use xlink:href="#ArialMT-65" x="83.398438"/>
     <use xlink:href="#ArialMT-6f" x="139.013672"/>
     <use xlink:href="#ArialMT-72" x="194.628906"/>
     <use xlink:href="#ArialMT-79" x="227.929688"/>
    </g>
   </g>
   <g id="line2d_24">
    <path d="M 48.205112 88.532719 
L 51.294917 89.056002 
L 54.384723 86.119323 
L 57.474528 81.216135 
L 60.564334 76.01622 
L 63.654139 71.770695 
L 66.743945 68.959842 
L 69.83375 67.507547 
L 72.923556 66.940228 
L 76.013361 66.813178 
L 79.103167 66.941105 
L 82.192972 67.505647 
L 85.282778 68.966877 
L 88.372583 71.762902 
L 91.462389 76.032734 
L 94.552194 81.203767 
L 97.642 86.109598 
L 100.731805 89.052455 
L 103.821611 88.539045 
L 106.911416 83.734778 
L 110.001222 74.970191 
L 113.091027 63.429701 
L 116.180833 51.057296 
L 119.270638 39.482645 
L 122.360444 30.084978 
L 125.450249 23.347204 
L 128.540055 19.424192 
L 131.629861 18.134912 
L 134.719666 19.415215 
L 137.809472 23.359272 
L 140.899277 30.057555 
L 143.989083 39.507538 
L 147.078888 51.015465 
L 150.168694 63.458211 
L 153.258499 74.995715 
L 156.348305 83.75082 
L 159.43811 88.544413 
" clip-path="url(#p7b4c3fe8b3)" style="fill: none; stroke: #1f77b4; stroke-linecap: square"/>
    <defs>
     <path id="m09afc19ae7" d="M 0 1.5 
C 0.397805 1.5 0.77937 1.341951 1.06066 1.06066 
C 1.341951 0.77937 1.5 0.397805 1.5 0 
C 1.5 -0.397805 1.341951 -0.77937 1.06066 -1.06066 
C 0.77937 -1.341951 0.397805 -1.5 0 -1.5 
C -0.397805 -1.5 -0.77937 -1.341951 -1.06066 -1.06066 
C -1.341951 -0.77937 -1.5 -0.397805 -1.5 0 
C -1.5 0.397805 -1.341951 0.77937 -1.06066 1.06066 
C -0.77937 1.341951 -0.397805 1.5 0 1.5 
z
" style="stroke: #1f77b4; stroke-width: 0.5"/>
    </defs>
    <g clip-path="url(#p7b4c3fe8b3)">
     <use xlink:href="#m09afc19ae7" x="48.205112" y="88.532719" style="fill: #1f77b4; stroke: #1f77b4; stroke-width: 0.5"/>
     <use xlink:href="#m09afc19ae7" x="51.294917" y="89.056002" style="fill: #1f77b4; stroke: #1f77b4; stroke-width: 0.5"/>
     <use xlink:href="#m09afc19ae7" x="54.384723" y="86.119323" style="fill: #1f77b4; stroke: #1f77b4; stroke-width: 0.5"/>
     <use xlink:href="#m09afc19ae7" x="57.474528" y="81.216135" style="fill: #1f77b4; stroke: #1f77b4; stroke-width: 0.5"/>
     <use xlink:href="#m09afc19ae7" x="60.564334" y="76.01622" style="fill: #1f77b4; stroke: #1f77b4; stroke-width: 0.5"/>
     <use xlink:href="#m09afc19ae7" x="63.654139" y="71.770695" style="fill: #1f77b4; stroke: #1f77b4; stroke-width: 0.5"/>
     <use xlink:href="#m09afc19ae7" x="66.743945" y="68.959842" style="fill: #1f77b4; stroke: #1f77b4; stroke-width: 0.5"/>
     <use xlink:href="#m09afc19ae7" x="69.83375" y="67.507547" style="fill: #1f77b4; stroke: #1f77b4; stroke-width: 0.5"/>
     <use xlink:href="#m09afc19ae7" x="72.923556" y="66.940228" style="fill: #1f77b4; stroke: #1f77b4; stroke-width: 0.5"/>
     <use xlink:href="#m09afc19ae7" x="76.013361" y="66.813178" style="fill: #1f77b4; stroke: #1f77b4; stroke-width: 0.5"/>
     <use xlink:href="#m09afc19ae7" x="79.103167" y="66.941105" style="fill: #1f77b4; stroke: #1f77b4; stroke-width: 0.5"/>
     <use xlink:href="#m09afc19ae7" x="82.192972" y="67.505647" style="fill: #1f77b4; stroke: #1f77b4; stroke-width: 0.5"/>
     <use xlink:href="#m09afc19ae7" x="85.282778" y="68.966877" style="fill: #1f77b4; stroke: #1f77b4; stroke-width: 0.5"/>
     <use xlink:href="#m09afc19ae7" x="88.372583" y="71.762902" style="fill: #1f77b4; stroke: #1f77b4; stroke-width: 0.5"/>
     <use xlink:href="#m09afc19ae7" x="91.462389" y="76.032734" style="fill: #1f77b4; stroke: #1f77b4; stroke-width: 0.5"/>
     <use xlink:href="#m09afc19ae7" x="94.552194" y="81.203767" style="fill: #1f77b4; stroke: #1f77b4; stroke-width: 0.5"/>
     <use xlink:href="#m09afc19ae7" x="97.642" y="86.109598" style="fill: #1f77b4; stroke: #1f77b4; stroke-width: 0.5"/>
     <use xlink:href="#m09afc19ae7" x="100.731805" y="89.052455" style="fill: #1f77b4; stroke: #1f77b4; stroke-width: 0.5"/>
     <use xlink:href="#m09afc19ae7" x="103.821611" y="88.539045" style="fill: #1f77b4; stroke: #1f77b4; stroke-width: 0.5"/>
     <use xlink:href="#m09afc19ae7" x="106.911416" y="83.734778" style="fill: #1f77b4; stroke: #1f77b4; stroke-width: 0.5"/>
     <use xlink:href="#m09afc19ae7" x="110.001222" y="74.970191" style="fill: #1f77b4; stroke: #1f77b4; stroke-width: 0.5"/>
     <use xlink:href="#m09afc19ae7" x="113.091027" y="63.429701" style="fill: #1f77b4; stroke: #1f77b4; stroke-width: 0.5"/>
     <use xlink:href="#m09afc19ae7" x="116.180833" y="51.057296" style="fill: #1f77b4; stroke: #1f77b4; stroke-width: 0.5"/>
     <use xlink:href="#m09afc19ae7" x="119.270638" y="39.482645" style="fill: #1f77b4; stroke: #1f77b4; stroke-width: 0.5"/>
     <use xlink:href="#m09afc19ae7" x="122.360444" y="30.084978" style="fill: #1f77b4; stroke: #1f77b4; stroke-width: 0.5"/>
     <use xlink:href="#m09afc19ae7" x="125.450249" y="23.347204" style="fill: #1f77b4; stroke: #1f77b4; stroke-width: 0.5"/>
     <use xlink:href="#m09afc19ae7" x="128.540055" y="19.424192" style="fill: #1f77b4; stroke: #1f77b4; stroke-width: 0.5"/>
     <use xlink:href="#m09afc19ae7" x="131.629861" y="18.134912" style="fill: #1f77b4; stroke: #1f77b4; stroke-width: 0.5"/>
     <use xlink:href="#m09afc19ae7" x="134.719666" y="19.415215" style="fill: #1f77b4; stroke: #1f77b4; stroke-width: 0.5"/>
     <use xlink:href="#m09afc19ae7" x="137.809472" y="23.359272" style="fill: #1f77b4; stroke: #1f77b4; stroke-width: 0.5"/>
     <use xlink:href="#m09afc19ae7" x="140.899277" y="30.057555" style="fill: #1f77b4; stroke: #1f77b4; stroke-width: 0.5"/>
     <use xlink:href="#m09afc19ae7" x="143.989083" y="39.507538" style="fill: #1f77b4; stroke: #1f77b4; stroke-width: 0.5"/>
     <use xlink:href="#m09afc19ae7" x="147.078888" y="51.015465" style="fill: #1f77b4; stroke: #1f77b4; stroke-width: 0.5"/>
     <use xlink:href="#m09afc19ae7" x="150.168694" y="63.458211" style="fill: #1f77b4; stroke: #1f77b4; stroke-width: 0.5"/>
     <use xlink:href="#m09afc19ae7" x="153.258499" y="74.995715" style="fill: #1f77b4; stroke: #1f77b4; stroke-width: 0.5"/>
     <use xlink:href="#m09afc19ae7" x="156.348305" y="83.75082" style="fill: #1f77b4; stroke: #1f77b4; stroke-width: 0.5"/>
     <use xlink:href="#m09afc19ae7" x="159.43811" y="88.544413" style="fill: #1f77b4; stroke: #1f77b4; stroke-width: 0.5"/>
    </g>
   </g>
   <g id="legend_1">
    <g id="patch_7">
     <path d="M 92.010011 33.215179 
L 115.633211 33.215179 
Q 116.791211 33.215179 116.791211 32.057179 
L 116.791211 15.580106 
Q 116.791211 14.422106 115.633211 14.422106 
L 92.010011 14.422106 
Q 90.852011 14.422106 90.852011 15.580106 
L 90.852011 32.057179 
Q 90.852011 33.215179 92.010011 33.215179 
z
" style="fill: #ffffff; opacity: 0.8; stroke: #cccccc; stroke-linejoin: miter"/>
    </g>
    <g id="line2d_25">
     <path d="M 93.168011 18.855979 
L 96.063011 18.855979 
L 98.958011 18.855979 
" style="fill: none; stroke: #1f77b4; stroke-linecap: square"/>
     <g>
      <use xlink:href="#m09afc19ae7" x="96.063011" y="18.855979" style="fill: #1f77b4; stroke: #1f77b4; stroke-width: 0.5"/>
     </g>
    </g>
    <g id="text_6">
     <!-- $J_{\mathrm{c}+}$ -->
     <g transform="translate(101.274011 20.882479) scale(0.0579 -0.0579)">
      <defs>
       <path id="Cmr10-2b" d="M 481 1472 
Q 428 1472 393 1512 
Q 359 1553 359 1600 
Q 359 1647 393 1687 
Q 428 1728 481 1728 
L 2363 1728 
L 2363 3616 
Q 2363 3666 2400 3698 
Q 2438 3731 2491 3731 
Q 2538 3731 2578 3698 
Q 2619 3666 2619 3616 
L 2619 1728 
L 4500 1728 
Q 4547 1728 4581 1687 
Q 4616 1647 4616 1600 
Q 4616 1553 4581 1512 
Q 4547 1472 4500 1472 
L 2619 1472 
L 2619 -416 
Q 2619 -466 2578 -498 
Q 2538 -531 2491 -531 
Q 2438 -531 2400 -498 
Q 2363 -466 2363 -416 
L 2363 1472 
L 481 1472 
z
" transform="scale(0.015625)"/>
      </defs>
      <use xlink:href="#Cmmi10-4a" transform="translate(0 0.6875)"/>
      <use xlink:href="#Cmr10-63" transform="translate(55.419922 -16.31875) scale(0.7)"/>
      <use xlink:href="#Cmr10-2b" transform="translate(98.780273 -16.31875) scale(0.7)"/>
     </g>
    </g>
    <g id="line2d_26">
     <path d="M 93.168011 27.425179 
L 96.063011 27.425179 
L 98.958011 27.425179 
" style="fill: none; stroke: #ff7f0e; stroke-linecap: square"/>
     <defs>
      <path id="m5c40dbad56" d="M -1.5 1.5 
L 1.5 1.5 
L 1.5 -1.5 
L -1.5 -1.5 
z
" style="stroke: #ff7f0e; stroke-width: 0.5; stroke-linejoin: miter"/>
     </defs>
     <g>
      <use xlink:href="#m5c40dbad56" x="96.063011" y="27.425179" style="fill: #ff7f0e; stroke: #ff7f0e; stroke-width: 0.5; stroke-linejoin: miter"/>
     </g>
    </g>
    <g id="text_7">
     <!-- $|J_{\mathrm{c}-}|$ -->
     <g transform="translate(101.274011 29.451679) scale(0.0579 -0.0579)">
      <defs>
       <path id="Cmsy10-6a" d="M 763 -1484 
L 763 4684 
Q 763 4734 800 4767 
Q 838 4800 891 4800 
Q 938 4800 978 4767 
Q 1019 4734 1019 4684 
L 1019 -1484 
Q 1019 -1534 978 -1567 
Q 938 -1600 891 -1600 
Q 838 -1600 800 -1567 
Q 763 -1534 763 -1484 
z
" transform="scale(0.015625)"/>
       <path id="Cmsy10-a1" d="M 653 1472 
Q 600 1472 565 1512 
Q 531 1553 531 1600 
Q 531 1647 565 1687 
Q 600 1728 653 1728 
L 4325 1728 
Q 4375 1728 4408 1687 
Q 4441 1647 4441 1600 
Q 4441 1553 4408 1512 
Q 4375 1472 4325 1472 
L 653 1472 
z
" transform="scale(0.015625)"/>
      </defs>
      <use xlink:href="#Cmsy10-6a"/>
      <use xlink:href="#Cmmi10-4a" transform="translate(27.685547 0)"/>
      <use xlink:href="#Cmr10-63" transform="translate(83.105469 -17.00625) scale(0.7)"/>
      <use xlink:href="#Cmsy10-a1" transform="translate(126.46582 -17.00625) scale(0.7)"/>
      <use xlink:href="#Cmsy10-6a" transform="translate(199.514062 0)"/>
     </g>
    </g>
   </g>
   <g id="line2d_27">
    <path d="M 48.205112 88.414378 
L 51.294917 83.615701 
L 54.384723 74.864481 
L 57.474528 63.336636 
L 60.564334 50.906391 
L 63.654139 39.41203 
L 66.743945 29.974508 
L 69.83375 23.286556 
L 72.923556 19.348628 
L 76.013361 18.071096 
L 79.103167 19.357754 
L 82.192972 23.274417 
L 85.282778 30.001978 
L 88.372583 39.387161 
L 91.462389 50.947949 
L 94.552194 63.310331 
L 97.642 74.840229 
L 100.731805 83.600928 
L 103.821611 88.408312 
L 106.911416 88.933746 
L 110.001222 86.004866 
L 113.091027 81.118906 
L 116.180833 75.968376 
L 119.270638 71.718059 
L 122.360444 68.938987 
L 125.450249 67.490413 
L 128.540055 66.934358 
L 131.629861 66.808215 
L 134.719666 66.933384 
L 137.809472 67.492508 
L 140.899277 68.932268 
L 143.989083 71.726169 
L 147.078888 75.951955 
L 150.168694 81.131178 
L 153.258499 86.014165 
L 156.348305 88.935553 
L 159.43811 88.402105 
" clip-path="url(#p7b4c3fe8b3)" style="fill: none; stroke: #ff7f0e; stroke-linecap: square"/>
    <g clip-path="url(#p7b4c3fe8b3)">
     <use xlink:href="#m5c40dbad56" x="48.205112" y="88.414378" style="fill: #ff7f0e; stroke: #ff7f0e; stroke-width: 0.5; stroke-linejoin: miter"/>
     <use xlink:href="#m5c40dbad56" x="51.294917" y="83.615701" style="fill: #ff7f0e; stroke: #ff7f0e; stroke-width: 0.5; stroke-linejoin: miter"/>
     <use xlink:href="#m5c40dbad56" x="54.384723" y="74.864481" style="fill: #ff7f0e; stroke: #ff7f0e; stroke-width: 0.5; stroke-linejoin: miter"/>
     <use xlink:href="#m5c40dbad56" x="57.474528" y="63.336636" style="fill: #ff7f0e; stroke: #ff7f0e; stroke-width: 0.5; stroke-linejoin: miter"/>
     <use xlink:href="#m5c40dbad56" x="60.564334" y="50.906391" style="fill: #ff7f0e; stroke: #ff7f0e; stroke-width: 0.5; stroke-linejoin: miter"/>
     <use xlink:href="#m5c40dbad56" x="63.654139" y="39.41203" style="fill: #ff7f0e; stroke: #ff7f0e; stroke-width: 0.5; stroke-linejoin: miter"/>
     <use xlink:href="#m5c40dbad56" x="66.743945" y="29.974508" style="fill: #ff7f0e; stroke: #ff7f0e; stroke-width: 0.5; stroke-linejoin: miter"/>
     <use xlink:href="#m5c40dbad56" x="69.83375" y="23.286556" style="fill: #ff7f0e; stroke: #ff7f0e; stroke-width: 0.5; stroke-linejoin: miter"/>
     <use xlink:href="#m5c40dbad56" x="72.923556" y="19.348628" style="fill: #ff7f0e; stroke: #ff7f0e; stroke-width: 0.5; stroke-linejoin: miter"/>
     <use xlink:href="#m5c40dbad56" x="76.013361" y="18.071096" style="fill: #ff7f0e; stroke: #ff7f0e; stroke-width: 0.5; stroke-linejoin: miter"/>
     <use xlink:href="#m5c40dbad56" x="79.103167" y="19.357754" style="fill: #ff7f0e; stroke: #ff7f0e; stroke-width: 0.5; stroke-linejoin: miter"/>
     <use xlink:href="#m5c40dbad56" x="82.192972" y="23.274417" style="fill: #ff7f0e; stroke: #ff7f0e; stroke-width: 0.5; stroke-linejoin: miter"/>
     <use xlink:href="#m5c40dbad56" x="85.282778" y="30.001978" style="fill: #ff7f0e; stroke: #ff7f0e; stroke-width: 0.5; stroke-linejoin: miter"/>
     <use xlink:href="#m5c40dbad56" x="88.372583" y="39.387161" style="fill: #ff7f0e; stroke: #ff7f0e; stroke-width: 0.5; stroke-linejoin: miter"/>
     <use xlink:href="#m5c40dbad56" x="91.462389" y="50.947949" style="fill: #ff7f0e; stroke: #ff7f0e; stroke-width: 0.5; stroke-linejoin: miter"/>
     <use xlink:href="#m5c40dbad56" x="94.552194" y="63.310331" style="fill: #ff7f0e; stroke: #ff7f0e; stroke-width: 0.5; stroke-linejoin: miter"/>
     <use xlink:href="#m5c40dbad56" x="97.642" y="74.840229" style="fill: #ff7f0e; stroke: #ff7f0e; stroke-width: 0.5; stroke-linejoin: miter"/>
     <use xlink:href="#m5c40dbad56" x="100.731805" y="83.600928" style="fill: #ff7f0e; stroke: #ff7f0e; stroke-width: 0.5; stroke-linejoin: miter"/>
     <use xlink:href="#m5c40dbad56" x="103.821611" y="88.408312" style="fill: #ff7f0e; stroke: #ff7f0e; stroke-width: 0.5; stroke-linejoin: miter"/>
     <use xlink:href="#m5c40dbad56" x="106.911416" y="88.933746" style="fill: #ff7f0e; stroke: #ff7f0e; stroke-width: 0.5; stroke-linejoin: miter"/>
     <use xlink:href="#m5c40dbad56" x="110.001222" y="86.004866" style="fill: #ff7f0e; stroke: #ff7f0e; stroke-width: 0.5; stroke-linejoin: miter"/>
     <use xlink:href="#m5c40dbad56" x="113.091027" y="81.118906" style="fill: #ff7f0e; stroke: #ff7f0e; stroke-width: 0.5; stroke-linejoin: miter"/>
     <use xlink:href="#m5c40dbad56" x="116.180833" y="75.968376" style="fill: #ff7f0e; stroke: #ff7f0e; stroke-width: 0.5; stroke-linejoin: miter"/>
     <use xlink:href="#m5c40dbad56" x="119.270638" y="71.718059" style="fill: #ff7f0e; stroke: #ff7f0e; stroke-width: 0.5; stroke-linejoin: miter"/>
     <use xlink:href="#m5c40dbad56" x="122.360444" y="68.938987" style="fill: #ff7f0e; stroke: #ff7f0e; stroke-width: 0.5; stroke-linejoin: miter"/>
     <use xlink:href="#m5c40dbad56" x="125.450249" y="67.490413" style="fill: #ff7f0e; stroke: #ff7f0e; stroke-width: 0.5; stroke-linejoin: miter"/>
     <use xlink:href="#m5c40dbad56" x="128.540055" y="66.934358" style="fill: #ff7f0e; stroke: #ff7f0e; stroke-width: 0.5; stroke-linejoin: miter"/>
     <use xlink:href="#m5c40dbad56" x="131.629861" y="66.808215" style="fill: #ff7f0e; stroke: #ff7f0e; stroke-width: 0.5; stroke-linejoin: miter"/>
     <use xlink:href="#m5c40dbad56" x="134.719666" y="66.933384" style="fill: #ff7f0e; stroke: #ff7f0e; stroke-width: 0.5; stroke-linejoin: miter"/>
     <use xlink:href="#m5c40dbad56" x="137.809472" y="67.492508" style="fill: #ff7f0e; stroke: #ff7f0e; stroke-width: 0.5; stroke-linejoin: miter"/>
     <use xlink:href="#m5c40dbad56" x="140.899277" y="68.932268" style="fill: #ff7f0e; stroke: #ff7f0e; stroke-width: 0.5; stroke-linejoin: miter"/>
     <use xlink:href="#m5c40dbad56" x="143.989083" y="71.726169" style="fill: #ff7f0e; stroke: #ff7f0e; stroke-width: 0.5; stroke-linejoin: miter"/>
     <use xlink:href="#m5c40dbad56" x="147.078888" y="75.951955" style="fill: #ff7f0e; stroke: #ff7f0e; stroke-width: 0.5; stroke-linejoin: miter"/>
     <use xlink:href="#m5c40dbad56" x="150.168694" y="81.131178" style="fill: #ff7f0e; stroke: #ff7f0e; stroke-width: 0.5; stroke-linejoin: miter"/>
     <use xlink:href="#m5c40dbad56" x="153.258499" y="86.014165" style="fill: #ff7f0e; stroke: #ff7f0e; stroke-width: 0.5; stroke-linejoin: miter"/>
     <use xlink:href="#m5c40dbad56" x="156.348305" y="88.935553" style="fill: #ff7f0e; stroke: #ff7f0e; stroke-width: 0.5; stroke-linejoin: miter"/>
     <use xlink:href="#m5c40dbad56" x="159.43811" y="88.402105" style="fill: #ff7f0e; stroke: #ff7f0e; stroke-width: 0.5; stroke-linejoin: miter"/>
    </g>
   </g>
  </g>
  <g id="axes_2">
   <g id="patch_8">
    <path d="M 42.643462 179.683868 
L 164.99976 179.683868 
L 164.99976 98.605727 
L 42.643462 98.605727 
L 42.643462 179.683868 
z
" style="fill: none"/>
   </g>
   <g id="line2d_28">
    <path d="M 42.643462 139.118854 
L 164.99976 139.118854 
" clip-path="url(#p33093d68f1)" style="fill: none; stroke: #d3d3d3; stroke-width: 0.5; stroke-linecap: square"/>
   </g>
   <g id="line2d_29">
    <path d="M 103.821611 179.683868 
L 103.821611 98.605727 
" clip-path="url(#p33093d68f1)" style="fill: none; stroke: #d3d3d3; stroke-width: 0.5; stroke-linecap: square"/>
   </g>
   <g id="line2d_30">
    <path d="M 48.205112 139.124311 
L 50.475173 143.447389 
L 52.745234 147.699392 
L 55.015295 151.810503 
L 57.285357 155.713217 
L 59.555418 159.343453 
L 61.825479 162.641601 
L 64.09554 165.553506 
L 66.365601 168.031355 
L 68.635662 170.034461 
L 70.905724 171.529935 
L 73.175785 172.493219 
L 75.445846 172.908497 
L 77.715907 172.768949 
L 79.985968 172.076869 
L 82.25603 170.843618 
L 84.526091 169.089448 
L 86.796152 166.843161 
L 89.066213 164.141643 
L 91.336274 161.02925 
L 93.606336 157.55709 
L 95.876397 153.782174 
L 98.146458 149.766487 
L 100.416519 145.575966 
L 102.68658 141.279419 
L 104.956642 136.947396 
L 107.226703 132.651029 
L 109.496764 128.460862 
L 111.766825 124.4457 
L 114.036886 120.671471 
L 116.306947 117.200147 
L 118.577009 114.088727 
L 120.84707 111.388302 
L 123.117131 109.143211 
L 125.387192 107.39032 
L 127.657253 106.15841 
L 129.927315 105.46771 
L 132.197376 105.329561 
L 134.467437 105.746231 
L 136.737498 106.710879 
L 139.007559 108.207664 
L 141.277621 110.212011 
L 143.547682 112.691007 
L 145.817743 115.603947 
L 148.087804 118.903002 
L 150.357865 122.534 
L 152.627927 126.437322 
L 154.897988 130.548873 
L 157.168049 134.801144 
L 159.43811 139.124311 
" clip-path="url(#p33093d68f1)" style="fill: none; stroke: #7f7f7f; stroke-linecap: square"/>
   </g>
   <g id="matplotlib.axis_3">
    <g id="xtick_6">
     <g id="line2d_31">
      <g>
       <use xlink:href="#m0847fd995c" x="48.205112" y="179.683868" style="stroke: #000000; stroke-width: 0.5"/>
      </g>
     </g>
     <g id="line2d_32">
      <g>
       <use xlink:href="#m4e245efbf6" x="48.205112" y="98.605727" style="stroke: #000000; stroke-width: 0.5"/>
      </g>
     </g>
     <g id="text_8">
      <!-- $-\pi$ -->
      <g transform="translate(42.582362 189.146326) scale(0.0833 -0.0833)">
       <defs>
        <path id="Cmmi10-bc" d="M 647 109 
Q 647 144 672 213 
Q 850 584 1004 942 
Q 1159 1300 1282 1639 
Q 1406 1978 1509 2363 
L 1100 2363 
Q 866 2363 662 2216 
Q 459 2069 325 1844 
Q 313 1819 288 1819 
L 213 1819 
Q 153 1819 153 1881 
Q 153 1894 166 1919 
Q 375 2275 614 2517 
Q 853 2759 1153 2759 
L 3475 2759 
Q 3541 2759 3587 2715 
Q 3634 2672 3634 2597 
Q 3634 2503 3567 2433 
Q 3500 2363 3406 2363 
L 2591 2363 
Q 2488 1859 2478 1381 
Q 2478 766 2694 269 
Q 2713 231 2713 191 
Q 2713 122 2672 62 
Q 2631 3 2567 -34 
Q 2503 -72 2431 -72 
Q 2263 -72 2200 203 
Q 2138 478 2138 738 
Q 2138 1103 2200 1442 
Q 2263 1781 2400 2363 
L 1703 2363 
Q 1197 313 1094 103 
Q 1003 -72 844 -72 
Q 766 -72 706 -20 
Q 647 31 647 109 
z
" transform="scale(0.015625)"/>
       </defs>
       <use xlink:href="#Cmsy10-a1" transform="translate(0 0.890625)"/>
       <use xlink:href="#Cmmi10-bc" transform="translate(77.685547 0.890625)"/>
      </g>
     </g>
    </g>
    <g id="xtick_7">
     <g id="line2d_33">
      <g>
       <use xlink:href="#m0847fd995c" x="76.013361" y="179.683868" style="stroke: #000000; stroke-width: 0.5"/>
      </g>
     </g>
     <g id="line2d_34">
      <g>
       <use xlink:href="#m4e245efbf6" x="76.013361" y="98.605727" style="stroke: #000000; stroke-width: 0.5"/>
      </g>
     </g>
     <g id="text_9">
      <!-- $-\pi/2$ -->
      <g transform="translate(66.225611 189.431368) scale(0.0833 -0.0833)">
       <use xlink:href="#Cmsy10-a1"/>
       <use xlink:href="#Cmmi10-bc" transform="translate(77.685547 0)"/>
       <use xlink:href="#Cmmi10-3d" transform="translate(134.667969 0)"/>
       <use xlink:href="#Cmr10-32" transform="translate(184.667969 0)"/>
      </g>
     </g>
    </g>
    <g id="xtick_8">
     <g id="line2d_35">
      <g>
       <use xlink:href="#m0847fd995c" x="103.821611" y="179.683868" style="stroke: #000000; stroke-width: 0.5"/>
      </g>
     </g>
     <g id="line2d_36">
      <g>
       <use xlink:href="#m4e245efbf6" x="103.821611" y="98.605727" style="stroke: #000000; stroke-width: 0.5"/>
      </g>
     </g>
     <g id="text_10">
      <!-- 0 -->
      <g transform="translate(101.50548 189.146326) scale(0.0833 -0.0833)">
       <use xlink:href="#ArialMT-30"/>
      </g>
     </g>
    </g>
    <g id="xtick_9">
     <g id="line2d_37">
      <g>
       <use xlink:href="#m0847fd995c" x="131.629861" y="179.683868" style="stroke: #000000; stroke-width: 0.5"/>
      </g>
     </g>
     <g id="line2d_38">
      <g>
       <use xlink:href="#m4e245efbf6" x="131.629861" y="98.605727" style="stroke: #000000; stroke-width: 0.5"/>
      </g>
     </g>
     <g id="text_11">
      <!-- $\pi/2$ -->
      <g transform="translate(125.090811 189.431368) scale(0.0833 -0.0833)">
       <use xlink:href="#Cmmi10-bc"/>
       <use xlink:href="#Cmmi10-3d" transform="translate(56.982422 0)"/>
       <use xlink:href="#Cmr10-32" transform="translate(106.982422 0)"/>
      </g>
     </g>
    </g>
    <g id="xtick_10">
     <g id="line2d_39">
      <g>
       <use xlink:href="#m0847fd995c" x="159.43811" y="179.683868" style="stroke: #000000; stroke-width: 0.5"/>
      </g>
     </g>
     <g id="line2d_40">
      <g>
       <use xlink:href="#m4e245efbf6" x="159.43811" y="98.605727" style="stroke: #000000; stroke-width: 0.5"/>
      </g>
     </g>
     <g id="text_12">
      <!-- $\pi$ -->
      <g transform="translate(157.06406 189.146326) scale(0.0833 -0.0833)">
       <use xlink:href="#Cmmi10-bc" transform="translate(0 0.890625)"/>
      </g>
     </g>
    </g>
    <g id="text_13">
     <!-- $\theta$ -->
     <g transform="translate(101.471611 202.67168) scale(0.1 -0.1)">
      <defs>
       <path id="Cmmi10-b5" d="M 1031 -72 
Q 741 -72 566 140 
Q 391 353 323 653 
Q 256 953 256 1247 
L 256 1253 
Q 256 1572 317 1915 
Q 378 2259 493 2601 
Q 609 2944 744 3213 
Q 838 3400 986 3631 
Q 1134 3863 1317 4064 
Q 1500 4266 1711 4389 
Q 1922 4513 2138 4513 
L 2144 4513 
Q 2375 4513 2529 4384 
Q 2684 4256 2770 4056 
Q 2856 3856 2890 3628 
Q 2925 3400 2925 3194 
Q 2925 2709 2794 2204 
Q 2663 1700 2431 1228 
Q 2344 1050 2189 809 
Q 2034 569 1861 378 
Q 1688 188 1472 58 
Q 1256 -72 1038 -72 
L 1031 -72 
z
M 1044 97 
Q 1256 97 1451 323 
Q 1647 550 1794 873 
Q 1941 1197 2052 1536 
Q 2163 1875 2216 2113 
L 909 2113 
Q 809 1709 753 1417 
Q 697 1125 697 844 
Q 697 97 1044 97 
z
M 959 2338 
L 2272 2338 
Q 2341 2619 2381 2808 
Q 2422 2997 2450 3206 
Q 2478 3416 2478 3597 
Q 2478 4347 2138 4347 
Q 1731 4347 1436 3692 
Q 1141 3038 959 2338 
z
" transform="scale(0.015625)"/>
      </defs>
      <use xlink:href="#Cmmi10-b5" transform="translate(0 0.484375)"/>
     </g>
    </g>
   </g>
   <g id="matplotlib.axis_4">
    <g id="ytick_7">
     <g id="line2d_41">
      <g>
       <use xlink:href="#mf22bde0882" x="42.643462" y="160.516311" style="stroke: #000000; stroke-width: 0.5"/>
      </g>
     </g>
     <g id="line2d_42">
      <g>
       <use xlink:href="#ma30d3c96ac" x="164.99976" y="160.516311" style="stroke: #000000; stroke-width: 0.5"/>
      </g>
     </g>
     <g id="text_14">
      <!-- −0.2 -->
      <g transform="translate(22.699521 163.49754) scale(0.0833 -0.0833)">
       <defs>
        <path id="ArialMT-2212" d="M 3381 1997 
L 356 1997 
L 356 2522 
L 3381 2522 
L 3381 1997 
z
" transform="scale(0.015625)"/>
       </defs>
       <use xlink:href="#ArialMT-2212"/>
       <use xlink:href="#ArialMT-30" x="58.398438"/>
       <use xlink:href="#ArialMT-2e" x="114.013672"/>
       <use xlink:href="#ArialMT-32" x="141.796875"/>
      </g>
     </g>
    </g>
    <g id="ytick_8">
     <g id="line2d_43">
      <g>
       <use xlink:href="#mf22bde0882" x="42.643462" y="139.118854" style="stroke: #000000; stroke-width: 0.5"/>
      </g>
     </g>
     <g id="line2d_44">
      <g>
       <use xlink:href="#ma30d3c96ac" x="164.99976" y="139.118854" style="stroke: #000000; stroke-width: 0.5"/>
      </g>
     </g>
     <g id="text_15">
      <!-- 0.0 -->
      <g transform="translate(27.564762 142.100083) scale(0.0833 -0.0833)">
       <use xlink:href="#ArialMT-30"/>
       <use xlink:href="#ArialMT-2e" x="55.615234"/>
       <use xlink:href="#ArialMT-30" x="83.398438"/>
      </g>
     </g>
    </g>
    <g id="ytick_9">
     <g id="line2d_45">
      <g>
       <use xlink:href="#mf22bde0882" x="42.643462" y="117.721397" style="stroke: #000000; stroke-width: 0.5"/>
      </g>
     </g>
     <g id="line2d_46">
      <g>
       <use xlink:href="#ma30d3c96ac" x="164.99976" y="117.721397" style="stroke: #000000; stroke-width: 0.5"/>
      </g>
     </g>
     <g id="text_16">
      <!-- 0.2 -->
      <g transform="translate(27.564762 120.702626) scale(0.0833 -0.0833)">
       <use xlink:href="#ArialMT-30"/>
       <use xlink:href="#ArialMT-2e" x="55.615234"/>
       <use xlink:href="#ArialMT-32" x="83.398438"/>
      </g>
     </g>
    </g>
    <g id="text_17">
     <!-- $\eta$ (%) -->
     <g transform="translate(16.499521 150.794797) rotate(-90) scale(0.1 -0.1)">
      <defs>
       <path id="Cmmi10-b4" d="M 684 -72 
Q 606 -72 550 -22 
Q 494 28 494 109 
Q 494 147 500 166 
L 978 2075 
Q 1025 2253 1025 2388 
Q 1025 2663 838 2663 
Q 638 2663 541 2423 
Q 444 2184 353 1819 
Q 353 1800 334 1789 
Q 316 1778 300 1778 
L 225 1778 
Q 203 1778 187 1801 
Q 172 1825 172 1844 
Q 241 2122 305 2315 
Q 369 2509 505 2668 
Q 641 2828 844 2828 
Q 1081 2828 1267 2678 
Q 1453 2528 1453 2291 
Q 1641 2541 1894 2684 
Q 2147 2828 2444 2828 
Q 2778 2828 2979 2648 
Q 3181 2469 3181 2138 
Q 3181 1947 3138 1784 
L 2394 -1178 
Q 2375 -1269 2300 -1325 
Q 2225 -1381 2131 -1381 
Q 2053 -1381 1997 -1332 
Q 1941 -1284 1941 -1203 
Q 1941 -1166 1947 -1153 
L 2681 1797 
Q 2747 2059 2747 2234 
Q 2747 2413 2672 2538 
Q 2597 2663 2431 2663 
Q 1803 2663 1388 1888 
L 953 141 
Q 931 53 854 -9 
Q 778 -72 684 -72 
z
" transform="scale(0.015625)"/>
       <path id="ArialMT-25" d="M 372 3481 
Q 372 3972 619 4315 
Q 866 4659 1334 4659 
Q 1766 4659 2048 4351 
Q 2331 4044 2331 3447 
Q 2331 2866 2045 2552 
Q 1759 2238 1341 2238 
Q 925 2238 648 2547 
Q 372 2856 372 3481 
z
M 1350 4272 
Q 1141 4272 1002 4090 
Q 863 3909 863 3425 
Q 863 2984 1003 2804 
Q 1144 2625 1350 2625 
Q 1563 2625 1702 2806 
Q 1841 2988 1841 3469 
Q 1841 3913 1700 4092 
Q 1559 4272 1350 4272 
z
M 1353 -169 
L 3859 4659 
L 4316 4659 
L 1819 -169 
L 1353 -169 
z
M 3334 1075 
Q 3334 1569 3581 1911 
Q 3828 2253 4300 2253 
Q 4731 2253 5014 1945 
Q 5297 1638 5297 1041 
Q 5297 459 5011 145 
Q 4725 -169 4303 -169 
Q 3888 -169 3611 142 
Q 3334 453 3334 1075 
z
M 4316 1866 
Q 4103 1866 3964 1684 
Q 3825 1503 3825 1019 
Q 3825 581 3965 400 
Q 4106 219 4313 219 
Q 4528 219 4667 400 
Q 4806 581 4806 1063 
Q 4806 1506 4665 1686 
Q 4525 1866 4316 1866 
z
" transform="scale(0.015625)"/>
      </defs>
      <use xlink:href="#Cmmi10-b4" transform="translate(0 0.203125)"/>
      <use xlink:href="#ArialMT-20" transform="translate(49.609375 0.203125)"/>
      <use xlink:href="#ArialMT-28" transform="translate(77.392578 0.203125)"/>
      <use xlink:href="#ArialMT-25" transform="translate(110.693359 0.203125)"/>
      <use xlink:href="#ArialMT-29" transform="translate(199.609375 0.203125)"/>
     </g>
    </g>
   </g>
   <g id="line2d_47">
    <path d="M 48.205112 139.208981 
L 51.294917 143.260855 
L 54.384723 147.680665 
L 57.474528 152.704319 
L 60.564334 158.174316 
L 63.654139 163.64796 
L 66.743945 168.645604 
L 69.83375 172.591702 
L 72.923556 175.131588 
L 76.013361 175.998498 
L 79.103167 175.125371 
L 82.192972 172.599418 
L 85.282778 168.630199 
L 88.372583 163.660847 
L 91.462389 158.155389 
L 94.552194 152.714871 
L 97.642 147.691696 
L 100.731805 143.269396 
L 103.821611 139.218418 
L 106.911416 135.160593 
L 110.001222 130.724533 
L 113.091027 125.677985 
L 116.180833 120.214081 
L 119.270638 114.683146 
L 122.360444 109.69138 
L 125.450249 105.704779 
L 128.540055 103.167564 
L 131.629861 102.291097 
L 134.719666 103.161533 
L 137.809472 105.712295 
L 140.899277 109.67577 
L 143.989083 114.695811 
L 147.078888 120.194876 
L 150.168694 125.690284 
L 153.258499 130.736856 
L 156.348305 135.171426 
L 159.43811 139.227233 
" clip-path="url(#p33093d68f1)" style="fill: none"/>
    <defs>
     <path id="mf2d53313e1" d="M 0 1.5 
C 0.397805 1.5 0.77937 1.341951 1.06066 1.06066 
C 1.341951 0.77937 1.5 0.397805 1.5 0 
C 1.5 -0.397805 1.341951 -0.77937 1.06066 -1.06066 
C 0.77937 -1.341951 0.397805 -1.5 0 -1.5 
C -0.397805 -1.5 -0.77937 -1.341951 -1.06066 -1.06066 
C -1.341951 -0.77937 -1.5 -0.397805 -1.5 0 
C -1.5 0.397805 -1.341951 0.77937 -1.06066 1.06066 
C -0.77937 1.341951 -0.397805 1.5 0 1.5 
z
" style="stroke: #000000; stroke-width: 0.5"/>
    </defs>
    <g clip-path="url(#p33093d68f1)">
     <use xlink:href="#mf2d53313e1" x="48.205112" y="139.208981" style="stroke: #000000; stroke-width: 0.5"/>
     <use xlink:href="#mf2d53313e1" x="51.294917" y="143.260855" style="stroke: #000000; stroke-width: 0.5"/>
     <use xlink:href="#mf2d53313e1" x="54.384723" y="147.680665" style="stroke: #000000; stroke-width: 0.5"/>
     <use xlink:href="#mf2d53313e1" x="57.474528" y="152.704319" style="stroke: #000000; stroke-width: 0.5"/>
     <use xlink:href="#mf2d53313e1" x="60.564334" y="158.174316" style="stroke: #000000; stroke-width: 0.5"/>
     <use xlink:href="#mf2d53313e1" x="63.654139" y="163.64796" style="stroke: #000000; stroke-width: 0.5"/>
     <use xlink:href="#mf2d53313e1" x="66.743945" y="168.645604" style="stroke: #000000; stroke-width: 0.5"/>
     <use xlink:href="#mf2d53313e1" x="69.83375" y="172.591702" style="stroke: #000000; stroke-width: 0.5"/>
     <use xlink:href="#mf2d53313e1" x="72.923556" y="175.131588" style="stroke: #000000; stroke-width: 0.5"/>
     <use xlink:href="#mf2d53313e1" x="76.013361" y="175.998498" style="stroke: #000000; stroke-width: 0.5"/>
     <use xlink:href="#mf2d53313e1" x="79.103167" y="175.125371" style="stroke: #000000; stroke-width: 0.5"/>
     <use xlink:href="#mf2d53313e1" x="82.192972" y="172.599418" style="stroke: #000000; stroke-width: 0.5"/>
     <use xlink:href="#mf2d53313e1" x="85.282778" y="168.630199" style="stroke: #000000; stroke-width: 0.5"/>
     <use xlink:href="#mf2d53313e1" x="88.372583" y="163.660847" style="stroke: #000000; stroke-width: 0.5"/>
     <use xlink:href="#mf2d53313e1" x="91.462389" y="158.155389" style="stroke: #000000; stroke-width: 0.5"/>
     <use xlink:href="#mf2d53313e1" x="94.552194" y="152.714871" style="stroke: #000000; stroke-width: 0.5"/>
     <use xlink:href="#mf2d53313e1" x="97.642" y="147.691696" style="stroke: #000000; stroke-width: 0.5"/>
     <use xlink:href="#mf2d53313e1" x="100.731805" y="143.269396" style="stroke: #000000; stroke-width: 0.5"/>
     <use xlink:href="#mf2d53313e1" x="103.821611" y="139.218418" style="stroke: #000000; stroke-width: 0.5"/>
     <use xlink:href="#mf2d53313e1" x="106.911416" y="135.160593" style="stroke: #000000; stroke-width: 0.5"/>
     <use xlink:href="#mf2d53313e1" x="110.001222" y="130.724533" style="stroke: #000000; stroke-width: 0.5"/>
     <use xlink:href="#mf2d53313e1" x="113.091027" y="125.677985" style="stroke: #000000; stroke-width: 0.5"/>
     <use xlink:href="#mf2d53313e1" x="116.180833" y="120.214081" style="stroke: #000000; stroke-width: 0.5"/>
     <use xlink:href="#mf2d53313e1" x="119.270638" y="114.683146" style="stroke: #000000; stroke-width: 0.5"/>
     <use xlink:href="#mf2d53313e1" x="122.360444" y="109.69138" style="stroke: #000000; stroke-width: 0.5"/>
     <use xlink:href="#mf2d53313e1" x="125.450249" y="105.704779" style="stroke: #000000; stroke-width: 0.5"/>
     <use xlink:href="#mf2d53313e1" x="128.540055" y="103.167564" style="stroke: #000000; stroke-width: 0.5"/>
     <use xlink:href="#mf2d53313e1" x="131.629861" y="102.291097" style="stroke: #000000; stroke-width: 0.5"/>
     <use xlink:href="#mf2d53313e1" x="134.719666" y="103.161533" style="stroke: #000000; stroke-width: 0.5"/>
     <use xlink:href="#mf2d53313e1" x="137.809472" y="105.712295" style="stroke: #000000; stroke-width: 0.5"/>
     <use xlink:href="#mf2d53313e1" x="140.899277" y="109.67577" style="stroke: #000000; stroke-width: 0.5"/>
     <use xlink:href="#mf2d53313e1" x="143.989083" y="114.695811" style="stroke: #000000; stroke-width: 0.5"/>
     <use xlink:href="#mf2d53313e1" x="147.078888" y="120.194876" style="stroke: #000000; stroke-width: 0.5"/>
     <use xlink:href="#mf2d53313e1" x="150.168694" y="125.690284" style="stroke: #000000; stroke-width: 0.5"/>
     <use xlink:href="#mf2d53313e1" x="153.258499" y="130.736856" style="stroke: #000000; stroke-width: 0.5"/>
     <use xlink:href="#mf2d53313e1" x="156.348305" y="135.171426" style="stroke: #000000; stroke-width: 0.5"/>
     <use xlink:href="#mf2d53313e1" x="159.43811" y="139.227233" style="stroke: #000000; stroke-width: 0.5"/>
    </g>
   </g>
   <g id="patch_9">
    <path d="M 42.643462 179.683868 
L 42.643462 98.605727 
" style="fill: none; stroke: #000000; stroke-width: 0.5; stroke-linejoin: miter; stroke-linecap: square"/>
   </g>
   <g id="patch_10">
    <path d="M 164.99976 179.683868 
L 164.99976 98.605727 
" style="fill: none; stroke: #000000; stroke-width: 0.5; stroke-linejoin: miter; stroke-linecap: square"/>
   </g>
   <g id="patch_11">
    <path d="M 42.643462 179.683868 
L 164.99976 179.683868 
" style="fill: none; stroke: #000000; stroke-width: 0.5; stroke-linejoin: miter; stroke-linecap: square"/>
   </g>
   <g id="patch_12">
    <path d="M 42.643462 98.605727 
L 164.99976 98.605727 
" style="fill: none; stroke: #000000; stroke-width: 0.5; stroke-linejoin: miter; stroke-linecap: square"/>
   </g>
   <g id="axes_3">
    <g id="patch_13">
     <path d="M 107.4923 175.629961 
L 162.552634 175.629961 
L 162.552634 147.252611 
L 107.4923 147.252611 
L 107.4923 175.629961 
z
" style="fill: none"/>
    </g>
    <g id="matplotlib.axis_5">
     <g id="xtick_11">
      <g id="line2d_48">
       <g>
        <use xlink:href="#m0847fd995c" x="109.995042" y="175.629961" style="stroke: #000000; stroke-width: 0.5"/>
       </g>
      </g>
      <g id="line2d_49">
       <g>
        <use xlink:href="#m4e245efbf6" x="109.995042" y="147.252611" style="stroke: #000000; stroke-width: 0.5"/>
       </g>
      </g>
     </g>
     <g id="xtick_12">
      <g id="line2d_50">
       <g>
        <use xlink:href="#m0847fd995c" x="122.508755" y="175.629961" style="stroke: #000000; stroke-width: 0.5"/>
       </g>
      </g>
      <g id="line2d_51">
       <g>
        <use xlink:href="#m4e245efbf6" x="122.508755" y="147.252611" style="stroke: #000000; stroke-width: 0.5"/>
       </g>
      </g>
     </g>
     <g id="xtick_13">
      <g id="line2d_52">
       <g>
        <use xlink:href="#m0847fd995c" x="135.022467" y="175.629961" style="stroke: #000000; stroke-width: 0.5"/>
       </g>
      </g>
      <g id="line2d_53">
       <g>
        <use xlink:href="#m4e245efbf6" x="135.022467" y="147.252611" style="stroke: #000000; stroke-width: 0.5"/>
       </g>
      </g>
     </g>
     <g id="xtick_14">
      <g id="line2d_54">
       <g>
        <use xlink:href="#m0847fd995c" x="147.536179" y="175.629961" style="stroke: #000000; stroke-width: 0.5"/>
       </g>
      </g>
      <g id="line2d_55">
       <g>
        <use xlink:href="#m4e245efbf6" x="147.536179" y="147.252611" style="stroke: #000000; stroke-width: 0.5"/>
       </g>
      </g>
     </g>
     <g id="xtick_15">
      <g id="line2d_56">
       <g>
        <use xlink:href="#m0847fd995c" x="160.049892" y="175.629961" style="stroke: #000000; stroke-width: 0.5"/>
       </g>
      </g>
      <g id="line2d_57">
       <g>
        <use xlink:href="#m4e245efbf6" x="160.049892" y="147.252611" style="stroke: #000000; stroke-width: 0.5"/>
       </g>
      </g>
     </g>
    </g>
    <g id="matplotlib.axis_6">
     <g id="ytick_10">
      <g id="line2d_58">
       <g>
        <use xlink:href="#mf22bde0882" x="107.4923" y="161.161308" style="stroke: #000000; stroke-width: 0.5"/>
       </g>
      </g>
      <g id="line2d_59">
       <g>
        <use xlink:href="#ma30d3c96ac" x="162.552634" y="161.161308" style="stroke: #000000; stroke-width: 0.5"/>
       </g>
      </g>
     </g>
    </g>
    <g id="line2d_60">
     <path d="M 107.4923 161.161308 
L 162.552634 161.161308 
" clip-path="url(#p459242e337)" style="fill: none; stroke: #d3d3d3; stroke-width: 0.25; stroke-linecap: square"/>
    </g>
    <g id="line2d_61">
     <path d="M 135.022467 175.629961 
L 135.022467 147.252611 
" clip-path="url(#p459242e337)" style="fill: none; stroke: #d3d3d3; stroke-width: 0.25; stroke-linecap: square"/>
    </g>
    <g id="line2d_62">
     <path d="M 109.995042 161.482864 
L 111.385455 154.576451 
L 112.775867 149.745415 
L 114.16628 148.542491 
L 115.556692 150.985776 
L 116.947105 155.950972 
L 118.337517 162.097239 
L 119.72793 167.628727 
L 121.118342 171.485774 
L 122.508755 172.831161 
L 123.899167 171.46936 
L 125.28958 167.67221 
L 126.679992 162.05946 
L 128.070405 156.026559 
L 129.460817 150.945649 
L 130.85123 148.618465 
L 132.241642 149.826258 
L 133.632054 154.64971 
L 135.022467 161.560158 
L 136.412879 168.443971 
L 137.803292 173.213292 
L 139.193704 174.329269 
L 140.584117 171.909124 
L 141.974529 166.726351 
L 143.364942 160.602407 
L 144.755354 154.917097 
L 146.145767 151.070193 
L 147.536179 149.68851 
L 148.926592 151.040091 
L 150.317004 154.931463 
L 151.707417 160.522397 
L 153.097829 166.747804 
L 154.488242 171.804433 
L 155.878654 174.340081 
L 157.269067 173.221141 
L 158.659479 168.444292 
L 160.049892 161.552184 
" clip-path="url(#p459242e337)" style="fill: none; stroke: #000000; stroke-width: 0.3; stroke-linecap: square"/>
     <defs>
      <path id="mc53aed665d" d="M 0 0.75 
C 0.198902 0.75 0.389685 0.670975 0.53033 0.53033 
C 0.670975 0.389685 0.75 0.198902 0.75 0 
C 0.75 -0.198902 0.670975 -0.389685 0.53033 -0.53033 
C 0.389685 -0.670975 0.198902 -0.75 0 -0.75 
C -0.198902 -0.75 -0.389685 -0.670975 -0.53033 -0.53033 
C -0.670975 -0.389685 -0.75 -0.198902 -0.75 0 
C -0.75 0.198902 -0.670975 0.389685 -0.53033 0.53033 
C -0.389685 0.670975 -0.198902 0.75 0 0.75 
z
" style="stroke: #000000; stroke-width: 0.5"/>
     </defs>
     <g clip-path="url(#p459242e337)">
      <use xlink:href="#mc53aed665d" x="109.995042" y="161.482864" style="stroke: #000000; stroke-width: 0.5"/>
      <use xlink:href="#mc53aed665d" x="111.385455" y="154.576451" style="stroke: #000000; stroke-width: 0.5"/>
      <use xlink:href="#mc53aed665d" x="112.775867" y="149.745415" style="stroke: #000000; stroke-width: 0.5"/>
      <use xlink:href="#mc53aed665d" x="114.16628" y="148.542491" style="stroke: #000000; stroke-width: 0.5"/>
      <use xlink:href="#mc53aed665d" x="115.556692" y="150.985776" style="stroke: #000000; stroke-width: 0.5"/>
      <use xlink:href="#mc53aed665d" x="116.947105" y="155.950972" style="stroke: #000000; stroke-width: 0.5"/>
      <use xlink:href="#mc53aed665d" x="118.337517" y="162.097239" style="stroke: #000000; stroke-width: 0.5"/>
      <use xlink:href="#mc53aed665d" x="119.72793" y="167.628727" style="stroke: #000000; stroke-width: 0.5"/>
      <use xlink:href="#mc53aed665d" x="121.118342" y="171.485774" style="stroke: #000000; stroke-width: 0.5"/>
      <use xlink:href="#mc53aed665d" x="122.508755" y="172.831161" style="stroke: #000000; stroke-width: 0.5"/>
      <use xlink:href="#mc53aed665d" x="123.899167" y="171.46936" style="stroke: #000000; stroke-width: 0.5"/>
      <use xlink:href="#mc53aed665d" x="125.28958" y="167.67221" style="stroke: #000000; stroke-width: 0.5"/>
      <use xlink:href="#mc53aed665d" x="126.679992" y="162.05946" style="stroke: #000000; stroke-width: 0.5"/>
      <use xlink:href="#mc53aed665d" x="128.070405" y="156.026559" style="stroke: #000000; stroke-width: 0.5"/>
      <use xlink:href="#mc53aed665d" x="129.460817" y="150.945649" style="stroke: #000000; stroke-width: 0.5"/>
      <use xlink:href="#mc53aed665d" x="130.85123" y="148.618465" style="stroke: #000000; stroke-width: 0.5"/>
      <use xlink:href="#mc53aed665d" x="132.241642" y="149.826258" style="stroke: #000000; stroke-width: 0.5"/>
      <use xlink:href="#mc53aed665d" x="133.632054" y="154.64971" style="stroke: #000000; stroke-width: 0.5"/>
      <use xlink:href="#mc53aed665d" x="135.022467" y="161.560158" style="stroke: #000000; stroke-width: 0.5"/>
      <use xlink:href="#mc53aed665d" x="136.412879" y="168.443971" style="stroke: #000000; stroke-width: 0.5"/>
      <use xlink:href="#mc53aed665d" x="137.803292" y="173.213292" style="stroke: #000000; stroke-width: 0.5"/>
      <use xlink:href="#mc53aed665d" x="139.193704" y="174.329269" style="stroke: #000000; stroke-width: 0.5"/>
      <use xlink:href="#mc53aed665d" x="140.584117" y="171.909124" style="stroke: #000000; stroke-width: 0.5"/>
      <use xlink:href="#mc53aed665d" x="141.974529" y="166.726351" style="stroke: #000000; stroke-width: 0.5"/>
      <use xlink:href="#mc53aed665d" x="143.364942" y="160.602407" style="stroke: #000000; stroke-width: 0.5"/>
      <use xlink:href="#mc53aed665d" x="144.755354" y="154.917097" style="stroke: #000000; stroke-width: 0.5"/>
      <use xlink:href="#mc53aed665d" x="146.145767" y="151.070193" style="stroke: #000000; stroke-width: 0.5"/>
      <use xlink:href="#mc53aed665d" x="147.536179" y="149.68851" style="stroke: #000000; stroke-width: 0.5"/>
      <use xlink:href="#mc53aed665d" x="148.926592" y="151.040091" style="stroke: #000000; stroke-width: 0.5"/>
      <use xlink:href="#mc53aed665d" x="150.317004" y="154.931463" style="stroke: #000000; stroke-width: 0.5"/>
      <use xlink:href="#mc53aed665d" x="151.707417" y="160.522397" style="stroke: #000000; stroke-width: 0.5"/>
      <use xlink:href="#mc53aed665d" x="153.097829" y="166.747804" style="stroke: #000000; stroke-width: 0.5"/>
      <use xlink:href="#mc53aed665d" x="154.488242" y="171.804433" style="stroke: #000000; stroke-width: 0.5"/>
      <use xlink:href="#mc53aed665d" x="155.878654" y="174.340081" style="stroke: #000000; stroke-width: 0.5"/>
      <use xlink:href="#mc53aed665d" x="157.269067" y="173.221141" style="stroke: #000000; stroke-width: 0.5"/>
      <use xlink:href="#mc53aed665d" x="158.659479" y="168.444292" style="stroke: #000000; stroke-width: 0.5"/>
      <use xlink:href="#mc53aed665d" x="160.049892" y="161.552184" style="stroke: #000000; stroke-width: 0.5"/>
     </g>
    </g>
    <g id="patch_14">
     <path d="M 107.4923 175.629961 
L 107.4923 147.252611 
" style="fill: none; stroke: #000000; stroke-width: 0.5; stroke-linejoin: miter; stroke-linecap: square"/>
    </g>
    <g id="patch_15">
     <path d="M 162.552634 175.629961 
L 162.552634 147.252611 
" style="fill: none; stroke: #000000; stroke-width: 0.5; stroke-linejoin: miter; stroke-linecap: square"/>
    </g>
    <g id="patch_16">
     <path d="M 107.4923 175.629961 
L 162.552634 175.629961 
" style="fill: none; stroke: #000000; stroke-width: 0.5; stroke-linejoin: miter; stroke-linecap: square"/>
    </g>
    <g id="patch_17">
     <path d="M 107.4923 147.252611 
L 162.552634 147.252611 
" style="fill: none; stroke: #000000; stroke-width: 0.5; stroke-linejoin: miter; stroke-linecap: square"/>
    </g>
   </g>
   <g id="legend_2">
    <g id="patch_18">
     <path d="M 47.308262 122.867893 
L 87.152734 122.867893 
Q 88.485534 122.867893 88.485534 121.535093 
L 88.485534 103.270527 
Q 88.485534 101.937727 87.152734 101.937727 
L 47.308262 101.937727 
Q 45.975462 101.937727 45.975462 103.270527 
L 45.975462 121.535093 
Q 45.975462 122.867893 47.308262 122.867893 
z
" style="fill: #ffffff; opacity: 0.8; stroke: #cccccc; stroke-linejoin: miter"/>
    </g>
    <g id="line2d_63">
     <path d="M 48.641062 107.040893 
L 55.305062 107.040893 
L 61.969062 107.040893 
" style="fill: none"/>
     <g>
      <use xlink:href="#mf2d53313e1" x="55.305062" y="107.040893" style="stroke: #000000; stroke-width: 0.5"/>
     </g>
    </g>
    <g id="text_18">
     <!-- theory -->
     <g transform="translate(67.300262 109.373293) scale(0.06664 -0.06664)">
      <use xlink:href="#ArialMT-74"/>
      <use xlink:href="#ArialMT-68" x="27.783203"/>
      <use xlink:href="#ArialMT-65" x="83.398438"/>
      <use xlink:href="#ArialMT-6f" x="139.013672"/>
      <use xlink:href="#ArialMT-72" x="194.628906"/>
      <use xlink:href="#ArialMT-79" x="227.929688"/>
     </g>
    </g>
    <g id="line2d_64">
     <path d="M 48.641062 116.545423 
L 55.305062 116.545423 
L 61.969062 116.545423 
" style="fill: none; stroke: #7f7f7f; stroke-linecap: square"/>
    </g>
    <g id="text_19">
     <!-- fit -->
     <g transform="translate(67.300262 118.877823) scale(0.06664 -0.06664)">
      <defs>
       <path id="ArialMT-66" d="M 556 0 
L 556 2881 
L 59 2881 
L 59 3319 
L 556 3319 
L 556 3672 
Q 556 4006 616 4169 
Q 697 4388 901 4523 
Q 1106 4659 1475 4659 
Q 1713 4659 2000 4603 
L 1916 4113 
Q 1741 4144 1584 4144 
Q 1328 4144 1222 4034 
Q 1116 3925 1116 3625 
L 1116 3319 
L 1763 3319 
L 1763 2881 
L 1116 2881 
L 1116 0 
L 556 0 
z
" transform="scale(0.015625)"/>
       <path id="ArialMT-69" d="M 425 3934 
L 425 4581 
L 988 4581 
L 988 3934 
L 425 3934 
z
M 425 0 
L 425 3319 
L 988 3319 
L 988 0 
L 425 0 
z
" transform="scale(0.015625)"/>
      </defs>
      <use xlink:href="#ArialMT-66"/>
      <use xlink:href="#ArialMT-69" x="27.783203"/>
      <use xlink:href="#ArialMT-74" x="50"/>
     </g>
    </g>
   </g>
  </g>
 </g>
 <defs>
  <clipPath id="p7b4c3fe8b3">
   <rect x="42.643462" y="11.527106" width="122.356298" height="81.078141"/>
  </clipPath>
  <clipPath id="p33093d68f1">
   <rect x="42.643462" y="98.605727" width="122.356298" height="81.078141"/>
  </clipPath>
  <clipPath id="p459242e337">
   <rect x="107.4923" y="147.252611" width="55.060334" height="28.377349"/>
  </clipPath>
 </defs>
</svg>
