<?xml version="1.0" encoding="utf-8" standalone="no"?>
<!DOCTYPE svg PUBLIC "-//W3C//DTD SVG 1.1//EN"
  "http://www.w3.org/Graphics/SVG/1.1/DTD/svg11.dtd">
<svg xmlns:xlink="http://www.w3.org/1999/xlink" width="243pt" height="150.182259pt" viewBox="0 0 243 150.182259" xmlns="http://www.w3.org/2000/svg" version="1.1">
 <metadata>
  <rdf:RDF xmlns:dc="http://purl.org/dc/elements/1.1/" xmlns:cc="http://creativecommons.org/ns#" xmlns:rdf="http://www.w3.org/1999/02/22-rdf-syntax-ns#">
   <cc:Work>
    <dc:type rdf:resource="http://purl.org/dc/dcmitype/StillImage"/>
    <dc:date>2026-01-06T09:23:00.414335</dc:date>
    <dc:format>image/svg+xml</dc:format>
    <dc:creator>
     <cc:Agent>
      <dc:title>Matplotlib v3.8.4, https://matplotlib.org/</dc:title>
     </cc:Agent>
    </dc:creator>
   </cc:Work>
  </rdf:RDF>
 </metadata>
 <defs>
  <style type="text/css">*{stroke-linejoin: round; stroke-linecap: butt}</style>
 </defs>
 <g id="figure_1">
  <g id="patch_1">
   <path d="M 0 150.182259 
L 243 150.182259 
L 243 0 
L 0 0 
L 0 150.182259 
z
" style="fill: none"/>
  </g>
  <g id="axes_1">
   <g id="patch_2">
    <path d="M 24.632501 121.663974 
L 239.99976 121.663974 
L 239.99976 3.00024 
L 24.632501 3.00024 
L 24.632501 121.663974 
z
" style="fill: none"/>
   </g>
   <g id="line2d_1">
    <path d="M 132.31613 121.663974 
L 132.31613 3.00024 
" clip-path="url(#pc92de8a77f)" style="fill: none; stroke: #808080; stroke-width: 0.5; stroke-linecap: square"/>
   </g>
   <g id="matplotlib.axis_1">
    <g id="xtick_1">
     <g id="line2d_2">
      <defs>
       <path id="m87f2d06f85" d="M 0 0 
L 0 -2 
" style="stroke: #000000; stroke-width: 0.5"/>
      </defs>
      <g>
       <use xlink:href="#m87f2d06f85" x="34.421922" y="121.663974" style="stroke: #000000; stroke-width: 0.5"/>
      </g>
     </g>
     <g id="line2d_3">
      <defs>
       <path id="m942fbbcefb" d="M 0 0 
L 0 2 
" style="stroke: #000000; stroke-width: 0.5"/>
      </defs>
      <g>
       <use xlink:href="#m942fbbcefb" x="34.421922" y="3.00024" style="stroke: #000000; stroke-width: 0.5"/>
      </g>
     </g>
     <g id="text_1">
      <!-- −0.3 -->
      <g transform="translate(26.199951 131.126432) scale(0.0833 -0.0833)">
       <defs>
        <path id="ArialMT-2212" d="M 3381 1997 
L 356 1997 
L 356 2522 
L 3381 2522 
L 3381 1997 
z
" transform="scale(0.015625)"/>
        <path id="ArialMT-30" d="M 266 2259 
Q 266 3072 433 3567 
Q 600 4063 929 4331 
Q 1259 4600 1759 4600 
Q 2128 4600 2406 4451 
Q 2684 4303 2865 4023 
Q 3047 3744 3150 3342 
Q 3253 2941 3253 2259 
Q 3253 1453 3087 958 
Q 2922 463 2592 192 
Q 2263 -78 1759 -78 
Q 1097 -78 719 397 
Q 266 969 266 2259 
z
M 844 2259 
Q 844 1131 1108 757 
Q 1372 384 1759 384 
Q 2147 384 2411 759 
Q 2675 1134 2675 2259 
Q 2675 3391 2411 3762 
Q 2147 4134 1753 4134 
Q 1366 4134 1134 3806 
Q 844 3388 844 2259 
z
" transform="scale(0.015625)"/>
        <path id="ArialMT-2e" d="M 581 0 
L 581 641 
L 1222 641 
L 1222 0 
L 581 0 
z
" transform="scale(0.015625)"/>
        <path id="ArialMT-33" d="M 269 1209 
L 831 1284 
Q 928 806 1161 595 
Q 1394 384 1728 384 
Q 2125 384 2398 659 
Q 2672 934 2672 1341 
Q 2672 1728 2419 1979 
Q 2166 2231 1775 2231 
Q 1616 2231 1378 2169 
L 1441 2663 
Q 1497 2656 1531 2656 
Q 1891 2656 2178 2843 
Q 2466 3031 2466 3422 
Q 2466 3731 2256 3934 
Q 2047 4138 1716 4138 
Q 1388 4138 1169 3931 
Q 950 3725 888 3313 
L 325 3413 
Q 428 3978 793 4289 
Q 1159 4600 1703 4600 
Q 2078 4600 2393 4439 
Q 2709 4278 2876 4000 
Q 3044 3722 3044 3409 
Q 3044 3113 2884 2869 
Q 2725 2625 2413 2481 
Q 2819 2388 3044 2092 
Q 3269 1797 3269 1353 
Q 3269 753 2831 336 
Q 2394 -81 1725 -81 
Q 1122 -81 723 278 
Q 325 638 269 1209 
z
" transform="scale(0.015625)"/>
       </defs>
       <use xlink:href="#ArialMT-2212"/>
       <use xlink:href="#ArialMT-30" x="58.398438"/>
       <use xlink:href="#ArialMT-2e" x="114.013672"/>
       <use xlink:href="#ArialMT-33" x="141.796875"/>
      </g>
     </g>
    </g>
    <g id="xtick_2">
     <g id="line2d_4">
      <g>
       <use xlink:href="#m87f2d06f85" x="67.053325" y="121.663974" style="stroke: #000000; stroke-width: 0.5"/>
      </g>
     </g>
     <g id="line2d_5">
      <g>
       <use xlink:href="#m942fbbcefb" x="67.053325" y="3.00024" style="stroke: #000000; stroke-width: 0.5"/>
      </g>
     </g>
     <g id="text_2">
      <!-- −0.2 -->
      <g transform="translate(58.831354 131.126432) scale(0.0833 -0.0833)">
       <defs>
        <path id="ArialMT-32" d="M 3222 541 
L 3222 0 
L 194 0 
Q 188 203 259 391 
Q 375 700 629 1000 
Q 884 1300 1366 1694 
Q 2113 2306 2375 2664 
Q 2638 3022 2638 3341 
Q 2638 3675 2398 3904 
Q 2159 4134 1775 4134 
Q 1369 4134 1125 3890 
Q 881 3647 878 3216 
L 300 3275 
Q 359 3922 746 4261 
Q 1134 4600 1788 4600 
Q 2447 4600 2831 4234 
Q 3216 3869 3216 3328 
Q 3216 3053 3103 2787 
Q 2991 2522 2730 2228 
Q 2469 1934 1863 1422 
Q 1356 997 1212 845 
Q 1069 694 975 541 
L 3222 541 
z
" transform="scale(0.015625)"/>
       </defs>
       <use xlink:href="#ArialMT-2212"/>
       <use xlink:href="#ArialMT-30" x="58.398438"/>
       <use xlink:href="#ArialMT-2e" x="114.013672"/>
       <use xlink:href="#ArialMT-32" x="141.796875"/>
      </g>
     </g>
    </g>
    <g id="xtick_3">
     <g id="line2d_6">
      <g>
       <use xlink:href="#m87f2d06f85" x="99.684728" y="121.663974" style="stroke: #000000; stroke-width: 0.5"/>
      </g>
     </g>
     <g id="line2d_7">
      <g>
       <use xlink:href="#m942fbbcefb" x="99.684728" y="3.00024" style="stroke: #000000; stroke-width: 0.5"/>
      </g>
     </g>
     <g id="text_3">
      <!-- −0.1 -->
      <g transform="translate(91.462757 131.126432) scale(0.0833 -0.0833)">
       <defs>
        <path id="ArialMT-31" d="M 2384 0 
L 1822 0 
L 1822 3584 
Q 1619 3391 1289 3197 
Q 959 3003 697 2906 
L 697 3450 
Q 1169 3672 1522 3987 
Q 1875 4303 2022 4600 
L 2384 4600 
L 2384 0 
z
" transform="scale(0.015625)"/>
       </defs>
       <use xlink:href="#ArialMT-2212"/>
       <use xlink:href="#ArialMT-30" x="58.398438"/>
       <use xlink:href="#ArialMT-2e" x="114.013672"/>
       <use xlink:href="#ArialMT-31" x="141.796875"/>
      </g>
     </g>
    </g>
    <g id="xtick_4">
     <g id="line2d_8">
      <g>
       <use xlink:href="#m87f2d06f85" x="132.31613" y="121.663974" style="stroke: #000000; stroke-width: 0.5"/>
      </g>
     </g>
     <g id="line2d_9">
      <g>
       <use xlink:href="#m942fbbcefb" x="132.31613" y="3.00024" style="stroke: #000000; stroke-width: 0.5"/>
      </g>
     </g>
     <g id="text_4">
      <!-- 0.0 -->
      <g transform="translate(126.52678 131.126432) scale(0.0833 -0.0833)">
       <use xlink:href="#ArialMT-30"/>
       <use xlink:href="#ArialMT-2e" x="55.615234"/>
       <use xlink:href="#ArialMT-30" x="83.398438"/>
      </g>
     </g>
    </g>
    <g id="xtick_5">
     <g id="line2d_10">
      <g>
       <use xlink:href="#m87f2d06f85" x="164.947533" y="121.663974" style="stroke: #000000; stroke-width: 0.5"/>
      </g>
     </g>
     <g id="line2d_11">
      <g>
       <use xlink:href="#m942fbbcefb" x="164.947533" y="3.00024" style="stroke: #000000; stroke-width: 0.5"/>
      </g>
     </g>
     <g id="text_5">
      <!-- 0.1 -->
      <g transform="translate(159.158183 131.126432) scale(0.0833 -0.0833)">
       <use xlink:href="#ArialMT-30"/>
       <use xlink:href="#ArialMT-2e" x="55.615234"/>
       <use xlink:href="#ArialMT-31" x="83.398438"/>
      </g>
     </g>
    </g>
    <g id="xtick_6">
     <g id="line2d_12">
      <g>
       <use xlink:href="#m87f2d06f85" x="197.578936" y="121.663974" style="stroke: #000000; stroke-width: 0.5"/>
      </g>
     </g>
     <g id="line2d_13">
      <g>
       <use xlink:href="#m942fbbcefb" x="197.578936" y="3.00024" style="stroke: #000000; stroke-width: 0.5"/>
      </g>
     </g>
     <g id="text_6">
      <!-- 0.2 -->
      <g transform="translate(191.789586 131.126432) scale(0.0833 -0.0833)">
       <use xlink:href="#ArialMT-30"/>
       <use xlink:href="#ArialMT-2e" x="55.615234"/>
       <use xlink:href="#ArialMT-32" x="83.398438"/>
      </g>
     </g>
    </g>
    <g id="xtick_7">
     <g id="line2d_14">
      <g>
       <use xlink:href="#m87f2d06f85" x="230.210339" y="121.663974" style="stroke: #000000; stroke-width: 0.5"/>
      </g>
     </g>
     <g id="line2d_15">
      <g>
       <use xlink:href="#m942fbbcefb" x="230.210339" y="3.00024" style="stroke: #000000; stroke-width: 0.5"/>
      </g>
     </g>
     <g id="text_7">
      <!-- 0.3 -->
      <g transform="translate(224.420989 131.126432) scale(0.0833 -0.0833)">
       <use xlink:href="#ArialMT-30"/>
       <use xlink:href="#ArialMT-2e" x="55.615234"/>
       <use xlink:href="#ArialMT-33" x="83.398438"/>
      </g>
     </g>
    </g>
    <g id="text_8">
     <!-- $B_\parallel$ (T) -->
     <g transform="translate(117.36613 144.082019) scale(0.1 -0.1)">
      <defs>
       <path id="Cmmi10-42" d="M 319 0 
Q 256 0 256 84 
Q 259 100 268 137 
Q 278 175 293 200 
Q 309 225 341 225 
Q 522 225 656 234 
Q 791 244 884 269 
Q 959 297 1006 441 
L 1881 3956 
Q 1894 4019 1894 4044 
Q 1894 4113 1819 4122 
Q 1697 4147 1356 4147 
Q 1294 4147 1294 4231 
Q 1297 4247 1306 4286 
Q 1316 4325 1333 4348 
Q 1350 4372 1375 4372 
L 3669 4372 
Q 3878 4372 4083 4320 
Q 4288 4269 4461 4156 
Q 4634 4044 4736 3876 
Q 4838 3709 4838 3488 
Q 4838 3247 4714 3040 
Q 4591 2834 4395 2681 
Q 4200 2528 3973 2429 
Q 3747 2331 3500 2284 
Q 3675 2284 3854 2215 
Q 4034 2147 4175 2028 
Q 4316 1909 4402 1743 
Q 4488 1578 4488 1388 
Q 4488 1003 4219 684 
Q 3950 366 3542 183 
Q 3134 0 2753 0 
L 319 0 
z
M 1497 275 
Q 1497 225 1716 225 
L 2631 225 
Q 2944 225 3231 398 
Q 3519 572 3692 859 
Q 3866 1147 3866 1459 
Q 3866 1650 3786 1820 
Q 3706 1991 3556 2089 
Q 3406 2188 3213 2188 
L 1966 2188 
L 1522 416 
Q 1497 328 1497 275 
z
M 2009 2356 
L 2981 2356 
Q 3288 2356 3577 2512 
Q 3866 2669 4048 2937 
Q 4231 3206 4231 3506 
Q 4231 3784 4057 3965 
Q 3884 4147 3609 4147 
L 2731 4147 
Q 2559 4147 2500 4115 
Q 2441 4084 2400 3928 
L 2009 2356 
z
" transform="scale(0.015625)"/>
       <path id="STIXGeneral-Regular-2225" d="M 2522 -1210 
L 2099 -1210 
L 2099 4416 
L 2522 4416 
L 2522 -1210 
z
M 1248 -1210 
L 826 -1210 
L 826 4416 
L 1248 4416 
L 1248 -1210 
z
" transform="scale(0.015625)"/>
       <path id="ArialMT-20" transform="scale(0.015625)"/>
       <path id="ArialMT-28" d="M 1497 -1347 
Q 1031 -759 709 28 
Q 388 816 388 1659 
Q 388 2403 628 3084 
Q 909 3875 1497 4659 
L 1900 4659 
Q 1522 4009 1400 3731 
Q 1209 3300 1100 2831 
Q 966 2247 966 1656 
Q 966 153 1900 -1347 
L 1497 -1347 
z
" transform="scale(0.015625)"/>
       <path id="ArialMT-54" d="M 1659 0 
L 1659 4041 
L 150 4041 
L 150 4581 
L 3781 4581 
L 3781 4041 
L 2266 4041 
L 2266 0 
L 1659 0 
z
" transform="scale(0.015625)"/>
       <path id="ArialMT-29" d="M 791 -1347 
L 388 -1347 
Q 1322 153 1322 1656 
Q 1322 2244 1188 2822 
Q 1081 3291 891 3722 
Q 769 4003 388 4659 
L 791 4659 
Q 1378 3875 1659 3084 
Q 1900 2403 1900 1659 
Q 1900 816 1576 28 
Q 1253 -759 791 -1347 
z
" transform="scale(0.015625)"/>
      </defs>
      <use xlink:href="#Cmmi10-42" transform="translate(0 0.203125)"/>
      <use xlink:href="#STIXGeneral-Regular-2225" transform="translate(88.072266 -16.803125) scale(0.7)"/>
      <use xlink:href="#ArialMT-20" transform="translate(143.350616 0.203125)"/>
      <use xlink:href="#ArialMT-28" transform="translate(171.13382 0.203125)"/>
      <use xlink:href="#ArialMT-54" transform="translate(204.434601 0.203125)"/>
      <use xlink:href="#ArialMT-29" transform="translate(265.518585 0.203125)"/>
     </g>
    </g>
   </g>
   <g id="matplotlib.axis_2">
    <g id="ytick_1">
     <g id="line2d_16">
      <defs>
       <path id="m94a9e76289" d="M 0 0 
L 2 0 
" style="stroke: #000000; stroke-width: 0.5"/>
      </defs>
      <g>
       <use xlink:href="#m94a9e76289" x="24.632501" y="121.663974" style="stroke: #000000; stroke-width: 0.5"/>
      </g>
     </g>
     <g id="line2d_17">
      <defs>
       <path id="m5a484d3922" d="M 0 0 
L -2 0 
" style="stroke: #000000; stroke-width: 0.5"/>
      </defs>
      <g>
       <use xlink:href="#m5a484d3922" x="239.99976" y="121.663974" style="stroke: #000000; stroke-width: 0.5"/>
      </g>
     </g>
     <g id="text_9">
      <!-- 0 -->
      <g transform="translate(16.50024 124.645203) scale(0.0833 -0.0833)">
       <use xlink:href="#ArialMT-30"/>
      </g>
     </g>
    </g>
    <g id="ytick_2">
     <g id="line2d_18">
      <g>
       <use xlink:href="#m94a9e76289" x="24.632501" y="94.05835" style="stroke: #000000; stroke-width: 0.5"/>
      </g>
     </g>
     <g id="line2d_19">
      <g>
       <use xlink:href="#m5a484d3922" x="239.99976" y="94.05835" style="stroke: #000000; stroke-width: 0.5"/>
      </g>
     </g>
     <g id="text_10">
      <!-- 1 -->
      <g transform="translate(16.50024 97.039579) scale(0.0833 -0.0833)">
       <use xlink:href="#ArialMT-31"/>
      </g>
     </g>
    </g>
    <g id="ytick_3">
     <g id="line2d_20">
      <g>
       <use xlink:href="#m94a9e76289" x="24.632501" y="66.452725" style="stroke: #000000; stroke-width: 0.5"/>
      </g>
     </g>
     <g id="line2d_21">
      <g>
       <use xlink:href="#m5a484d3922" x="239.99976" y="66.452725" style="stroke: #000000; stroke-width: 0.5"/>
      </g>
     </g>
     <g id="text_11">
      <!-- 2 -->
      <g transform="translate(16.50024 69.433954) scale(0.0833 -0.0833)">
       <use xlink:href="#ArialMT-32"/>
      </g>
     </g>
    </g>
    <g id="ytick_4">
     <g id="line2d_22">
      <g>
       <use xlink:href="#m94a9e76289" x="24.632501" y="38.847101" style="stroke: #000000; stroke-width: 0.5"/>
      </g>
     </g>
     <g id="line2d_23">
      <g>
       <use xlink:href="#m5a484d3922" x="239.99976" y="38.847101" style="stroke: #000000; stroke-width: 0.5"/>
      </g>
     </g>
     <g id="text_12">
      <!-- 3 -->
      <g transform="translate(16.50024 41.82833) scale(0.0833 -0.0833)">
       <use xlink:href="#ArialMT-33"/>
      </g>
     </g>
    </g>
    <g id="ytick_5">
     <g id="line2d_24">
      <g>
       <use xlink:href="#m94a9e76289" x="24.632501" y="11.241477" style="stroke: #000000; stroke-width: 0.5"/>
      </g>
     </g>
     <g id="line2d_25">
      <g>
       <use xlink:href="#m5a484d3922" x="239.99976" y="11.241477" style="stroke: #000000; stroke-width: 0.5"/>
      </g>
     </g>
     <g id="text_13">
      <!-- 4 -->
      <g transform="translate(16.50024 14.222705) scale(0.0833 -0.0833)">
       <defs>
        <path id="ArialMT-34" d="M 2069 0 
L 2069 1097 
L 81 1097 
L 81 1613 
L 2172 4581 
L 2631 4581 
L 2631 1613 
L 3250 1613 
L 3250 1097 
L 2631 1097 
L 2631 0 
L 2069 0 
z
M 2069 1613 
L 2069 3678 
L 634 1613 
L 2069 1613 
z
" transform="scale(0.015625)"/>
       </defs>
       <use xlink:href="#ArialMT-34"/>
      </g>
     </g>
    </g>
    <g id="text_14">
     <!-- $I_\text{c}$ (μA) -->
     <g transform="translate(10.30024 77.382107) rotate(-90) scale(0.1 -0.1)">
      <defs>
       <path id="Cmmi10-49" d="M 269 0 
Q 206 0 206 84 
Q 231 225 288 225 
Q 666 225 800 250 
Q 947 284 984 441 
L 1863 3956 
Q 1875 4019 1875 4038 
Q 1875 4078 1854 4095 
Q 1834 4113 1791 4122 
Q 1663 4147 1306 4147 
Q 1241 4147 1241 4231 
Q 1263 4313 1275 4342 
Q 1288 4372 1350 4372 
L 3138 4372 
Q 3200 4372 3200 4288 
Q 3197 4272 3187 4234 
Q 3178 4197 3162 4172 
Q 3147 4147 3116 4147 
Q 2741 4147 2597 4122 
Q 2456 4088 2419 3928 
L 1544 416 
Q 1528 338 1528 331 
Q 1528 316 1533 302 
Q 1538 288 1552 277 
Q 1566 266 1580 261 
Q 1594 256 1613 250 
Q 1734 225 2100 225 
Q 2163 225 2163 141 
Q 2141 50 2128 25 
Q 2116 0 2053 0 
L 269 0 
z
" transform="scale(0.015625)"/>
       <path id="Cmr10-63" d="M 1594 -72 
Q 1206 -72 890 129 
Q 575 331 394 667 
Q 213 1003 213 1381 
Q 213 1759 392 2106 
Q 572 2453 889 2661 
Q 1206 2869 1594 2869 
Q 1969 2869 2276 2722 
Q 2584 2575 2584 2241 
Q 2584 2116 2495 2023 
Q 2406 1931 2278 1931 
Q 2150 1931 2061 2023 
Q 1972 2116 1972 2241 
Q 1972 2353 2044 2436 
Q 2116 2519 2222 2541 
Q 2000 2681 1600 2681 
Q 1294 2681 1106 2478 
Q 919 2275 844 1975 
Q 769 1675 769 1381 
Q 769 1072 861 783 
Q 953 494 1158 305 
Q 1363 116 1672 116 
Q 1975 116 2187 302 
Q 2400 488 2478 788 
Q 2478 825 2528 825 
L 2606 825 
Q 2625 825 2640 808 
Q 2656 791 2656 769 
L 2656 750 
Q 2559 372 2271 150 
Q 1984 -72 1594 -72 
z
" transform="scale(0.015625)"/>
       <path id="ArialMT-3bc" d="M 3181 3319 
L 3181 0 
L 2678 0 
L 2678 394 
Q 2516 144 2356 50 
Q 2138 -78 1847 -78 
Q 1588 -78 1388 25 
Q 1238 103 1056 334 
L 1056 -1272 
L 500 -1272 
L 500 3319 
L 1056 3319 
L 1056 1913 
Q 1056 1147 1137 920 
Q 1219 694 1401 562 
Q 1584 431 1822 431 
Q 2072 431 2269 568 
Q 2466 706 2547 923 
Q 2628 1141 2628 1903 
L 2628 3319 
L 3181 3319 
z
" transform="scale(0.015625)"/>
       <path id="ArialMT-41" d="M -9 0 
L 1750 4581 
L 2403 4581 
L 4278 0 
L 3588 0 
L 3053 1388 
L 1138 1388 
L 634 0 
L -9 0 
z
M 1313 1881 
L 2866 1881 
L 2388 3150 
Q 2169 3728 2063 4100 
Q 1975 3659 1816 3225 
L 1313 1881 
z
" transform="scale(0.015625)"/>
      </defs>
      <use xlink:href="#Cmmi10-49" transform="translate(0 0.203125)"/>
      <use xlink:href="#Cmr10-63" transform="translate(43.896484 -16.803125) scale(0.7)"/>
      <use xlink:href="#ArialMT-20" transform="translate(81.343164 0.203125)"/>
      <use xlink:href="#ArialMT-28" transform="translate(109.126367 0.203125)"/>
      <use xlink:href="#ArialMT-3bc" transform="translate(142.427148 0.203125)"/>
      <use xlink:href="#ArialMT-41" transform="translate(200.044336 0.203125)"/>
      <use xlink:href="#ArialMT-29" transform="translate(266.743555 0.203125)"/>
     </g>
    </g>
   </g>
   <g id="LineCollection_1">
    <path d="M 34.421922 97.755271 
L 34.421922 97.735083 
" clip-path="url(#pc92de8a77f)" style="fill: none"/>
    <path d="M 50.737623 91.148182 
L 50.737623 91.114784 
" clip-path="url(#pc92de8a77f)" style="fill: none"/>
    <path d="M 67.053325 82.299546 
L 67.053325 82.271904 
" clip-path="url(#pc92de8a77f)" style="fill: none"/>
    <path d="M 83.369026 68.686084 
L 83.369026 68.641995 
" clip-path="url(#pc92de8a77f)" style="fill: none"/>
    <path d="M 88.263737 63.971211 
L 88.263737 63.927587 
" clip-path="url(#pc92de8a77f)" style="fill: none"/>
    <path d="M 93.158447 59.099429 
L 93.158447 59.061535 
" clip-path="url(#pc92de8a77f)" style="fill: none"/>
    <path d="M 98.053157 54.03789 
L 98.053157 53.895506 
" clip-path="url(#pc92de8a77f)" style="fill: none"/>
    <path d="M 102.947868 47.747811 
L 102.947868 47.561615 
" clip-path="url(#pc92de8a77f)" style="fill: none"/>
    <path d="M 107.842578 36.056206 
L 107.842578 35.935362 
" clip-path="url(#pc92de8a77f)" style="fill: none"/>
    <path d="M 112.737289 25.575114 
L 112.737289 25.455855 
" clip-path="url(#pc92de8a77f)" style="fill: none"/>
    <path d="M 117.631999 16.344398 
L 117.631999 16.02726 
" clip-path="url(#pc92de8a77f)" style="fill: none"/>
    <path d="M 122.52671 10.748329 
L 122.52671 10.483343 
" clip-path="url(#pc92de8a77f)" style="fill: none"/>
    <path d="M 127.42142 8.19049 
L 127.42142 8.066035 
" clip-path="url(#pc92de8a77f)" style="fill: none"/>
    <path d="M 132.31613 7.802001 
L 132.31613 7.701896 
" clip-path="url(#pc92de8a77f)" style="fill: none"/>
    <path d="M 137.210841 8.41243 
L 137.210841 8.074589 
" clip-path="url(#pc92de8a77f)" style="fill: none"/>
    <path d="M 142.105551 10.499443 
L 142.105551 10.241725 
" clip-path="url(#pc92de8a77f)" style="fill: none"/>
    <path d="M 147.000262 14.621102 
L 147.000262 14.474786 
" clip-path="url(#pc92de8a77f)" style="fill: none"/>
    <path d="M 151.894972 20.139837 
L 151.894972 19.982591 
" clip-path="url(#pc92de8a77f)" style="fill: none"/>
    <path d="M 156.789683 26.509667 
L 156.789683 26.420355 
" clip-path="url(#pc92de8a77f)" style="fill: none"/>
    <path d="M 161.684393 33.718204 
L 161.684393 33.506032 
" clip-path="url(#pc92de8a77f)" style="fill: none"/>
    <path d="M 166.579104 41.140229 
L 166.579104 41.001969 
" clip-path="url(#pc92de8a77f)" style="fill: none"/>
    <path d="M 171.473814 48.646772 
L 171.473814 48.421832 
" clip-path="url(#pc92de8a77f)" style="fill: none"/>
    <path d="M 176.368524 55.92697 
L 176.368524 55.867773 
" clip-path="url(#pc92de8a77f)" style="fill: none"/>
    <path d="M 181.263235 62.671179 
L 181.263235 62.608563 
" clip-path="url(#pc92de8a77f)" style="fill: none"/>
    <path d="M 197.578936 78.665723 
L 197.578936 78.628842 
" clip-path="url(#pc92de8a77f)" style="fill: none"/>
    <path d="M 213.894638 89.003495 
L 213.894638 88.979834 
" clip-path="url(#pc92de8a77f)" style="fill: none"/>
    <path d="M 230.210339 96.554511 
L 230.210339 96.54217 
" clip-path="url(#pc92de8a77f)" style="fill: none"/>
   </g>
   <g id="LineCollection_2">
    <path d="M 230.210339 96.8781 
L 230.210339 96.858336 
" clip-path="url(#pc92de8a77f)" style="fill: none"/>
    <path d="M 213.894638 89.337483 
L 213.894638 89.297976 
" clip-path="url(#pc92de8a77f)" style="fill: none"/>
    <path d="M 197.578936 79.098296 
L 197.578936 79.068806 
" clip-path="url(#pc92de8a77f)" style="fill: none"/>
    <path d="M 181.263235 63.38204 
L 181.263235 63.335795 
" clip-path="url(#pc92de8a77f)" style="fill: none"/>
    <path d="M 176.368524 56.70874 
L 176.368524 56.640642 
" clip-path="url(#pc92de8a77f)" style="fill: none"/>
    <path d="M 171.473814 49.32616 
L 171.473814 49.248068 
" clip-path="url(#pc92de8a77f)" style="fill: none"/>
    <path d="M 166.579104 42.081098 
L 166.579104 41.703747 
" clip-path="url(#pc92de8a77f)" style="fill: none"/>
    <path d="M 161.684393 34.32246 
L 161.684393 34.041541 
" clip-path="url(#pc92de8a77f)" style="fill: none"/>
    <path d="M 156.789683 26.269454 
L 156.789683 26.10277 
" clip-path="url(#pc92de8a77f)" style="fill: none"/>
    <path d="M 151.894972 20.950214 
L 151.894972 20.796995 
" clip-path="url(#pc92de8a77f)" style="fill: none"/>
    <path d="M 147.000262 15.358249 
L 147.000262 15.146547 
" clip-path="url(#pc92de8a77f)" style="fill: none"/>
    <path d="M 142.105551 11.060258 
L 142.105551 10.772749 
" clip-path="url(#pc92de8a77f)" style="fill: none"/>
    <path d="M 137.210841 8.327884 
L 137.210841 8.238521 
" clip-path="url(#pc92de8a77f)" style="fill: none"/>
    <path d="M 132.31613 7.592461 
L 132.31613 7.512384 
" clip-path="url(#pc92de8a77f)" style="fill: none"/>
    <path d="M 127.42142 8.104341 
L 127.42142 7.662754 
" clip-path="url(#pc92de8a77f)" style="fill: none"/>
    <path d="M 122.52671 9.890594 
L 122.52671 9.549335 
" clip-path="url(#pc92de8a77f)" style="fill: none"/>
    <path d="M 117.631999 14.902445 
L 117.631999 14.763139 
" clip-path="url(#pc92de8a77f)" style="fill: none"/>
    <path d="M 112.737289 23.971105 
L 112.737289 23.794667 
" clip-path="url(#pc92de8a77f)" style="fill: none"/>
    <path d="M 107.842578 36.576536 
L 107.842578 36.472835 
" clip-path="url(#pc92de8a77f)" style="fill: none"/>
    <path d="M 102.947868 46.7945 
L 102.947868 46.632743 
" clip-path="url(#pc92de8a77f)" style="fill: none"/>
    <path d="M 98.053157 53.266554 
L 98.053157 53.196907 
" clip-path="url(#pc92de8a77f)" style="fill: none"/>
    <path d="M 93.158447 58.560149 
L 93.158447 58.378697 
" clip-path="url(#pc92de8a77f)" style="fill: none"/>
    <path d="M 88.263737 63.446761 
L 88.263737 63.337081 
" clip-path="url(#pc92de8a77f)" style="fill: none"/>
    <path d="M 83.369026 68.15041 
L 83.369026 68.094561 
" clip-path="url(#pc92de8a77f)" style="fill: none"/>
    <path d="M 67.053325 81.938733 
L 67.053325 81.889247 
" clip-path="url(#pc92de8a77f)" style="fill: none"/>
    <path d="M 50.737623 90.810239 
L 50.737623 90.773592 
" clip-path="url(#pc92de8a77f)" style="fill: none"/>
    <path d="M 34.421922 97.397796 
L 34.421922 97.380228 
" clip-path="url(#pc92de8a77f)" style="fill: none"/>
   </g>
   <g id="line2d_26">
    <path d="M 34.421922 97.745177 
L 50.737623 91.131483 
L 67.053325 82.285725 
L 83.369026 68.664039 
L 88.263737 63.949399 
L 93.158447 59.080482 
L 98.053157 53.966698 
L 102.947868 47.654713 
L 107.842578 35.995784 
L 112.737289 25.515485 
L 117.631999 16.185829 
L 122.52671 10.615836 
L 127.42142 8.128263 
L 132.31613 7.751949 
L 137.210841 8.243509 
L 142.105551 10.370584 
L 147.000262 14.547944 
L 151.894972 20.061214 
L 156.789683 26.465011 
L 161.684393 33.612118 
L 166.579104 41.071099 
L 171.473814 48.534302 
L 176.368524 55.897372 
L 181.263235 62.639871 
L 197.578936 78.647283 
L 213.894638 88.991664 
L 230.210339 96.54834 
" clip-path="url(#pc92de8a77f)" style="fill: none"/>
    <defs>
     <path id="mf029878c5d" d="M 0 1 
C 0.265203 1 0.51958 0.894634 0.707107 0.707107 
C 0.894634 0.51958 1 0.265203 1 0 
C 1 -0.265203 0.894634 -0.51958 0.707107 -0.707107 
C 0.51958 -0.894634 0.265203 -1 0 -1 
C -0.265203 -1 -0.51958 -0.894634 -0.707107 -0.707107 
C -0.894634 -0.51958 -1 -0.265203 -1 0 
C -1 0.265203 -0.894634 0.51958 -0.707107 0.707107 
C -0.51958 0.894634 -0.265203 1 0 1 
z
" style="stroke: #1f77b4; stroke-width: 0.5"/>
    </defs>
    <g clip-path="url(#pc92de8a77f)">
     <use xlink:href="#mf029878c5d" x="34.421922" y="97.745177" style="fill: #1f77b4; stroke: #1f77b4; stroke-width: 0.5"/>
     <use xlink:href="#mf029878c5d" x="50.737623" y="91.131483" style="fill: #1f77b4; stroke: #1f77b4; stroke-width: 0.5"/>
     <use xlink:href="#mf029878c5d" x="67.053325" y="82.285725" style="fill: #1f77b4; stroke: #1f77b4; stroke-width: 0.5"/>
     <use xlink:href="#mf029878c5d" x="83.369026" y="68.664039" style="fill: #1f77b4; stroke: #1f77b4; stroke-width: 0.5"/>
     <use xlink:href="#mf029878c5d" x="88.263737" y="63.949399" style="fill: #1f77b4; stroke: #1f77b4; stroke-width: 0.5"/>
     <use xlink:href="#mf029878c5d" x="93.158447" y="59.080482" style="fill: #1f77b4; stroke: #1f77b4; stroke-width: 0.5"/>
     <use xlink:href="#mf029878c5d" x="98.053157" y="53.966698" style="fill: #1f77b4; stroke: #1f77b4; stroke-width: 0.5"/>
     <use xlink:href="#mf029878c5d" x="102.947868" y="47.654713" style="fill: #1f77b4; stroke: #1f77b4; stroke-width: 0.5"/>
     <use xlink:href="#mf029878c5d" x="107.842578" y="35.995784" style="fill: #1f77b4; stroke: #1f77b4; stroke-width: 0.5"/>
     <use xlink:href="#mf029878c5d" x="112.737289" y="25.515485" style="fill: #1f77b4; stroke: #1f77b4; stroke-width: 0.5"/>
     <use xlink:href="#mf029878c5d" x="117.631999" y="16.185829" style="fill: #1f77b4; stroke: #1f77b4; stroke-width: 0.5"/>
     <use xlink:href="#mf029878c5d" x="122.52671" y="10.615836" style="fill: #1f77b4; stroke: #1f77b4; stroke-width: 0.5"/>
     <use xlink:href="#mf029878c5d" x="127.42142" y="8.128263" style="fill: #1f77b4; stroke: #1f77b4; stroke-width: 0.5"/>
     <use xlink:href="#mf029878c5d" x="132.31613" y="7.751949" style="fill: #1f77b4; stroke: #1f77b4; stroke-width: 0.5"/>
     <use xlink:href="#mf029878c5d" x="137.210841" y="8.243509" style="fill: #1f77b4; stroke: #1f77b4; stroke-width: 0.5"/>
     <use xlink:href="#mf029878c5d" x="142.105551" y="10.370584" style="fill: #1f77b4; stroke: #1f77b4; stroke-width: 0.5"/>
     <use xlink:href="#mf029878c5d" x="147.000262" y="14.547944" style="fill: #1f77b4; stroke: #1f77b4; stroke-width: 0.5"/>
     <use xlink:href="#mf029878c5d" x="151.894972" y="20.061214" style="fill: #1f77b4; stroke: #1f77b4; stroke-width: 0.5"/>
     <use xlink:href="#mf029878c5d" x="156.789683" y="26.465011" style="fill: #1f77b4; stroke: #1f77b4; stroke-width: 0.5"/>
     <use xlink:href="#mf029878c5d" x="161.684393" y="33.612118" style="fill: #1f77b4; stroke: #1f77b4; stroke-width: 0.5"/>
     <use xlink:href="#mf029878c5d" x="166.579104" y="41.071099" style="fill: #1f77b4; stroke: #1f77b4; stroke-width: 0.5"/>
     <use xlink:href="#mf029878c5d" x="171.473814" y="48.534302" style="fill: #1f77b4; stroke: #1f77b4; stroke-width: 0.5"/>
     <use xlink:href="#mf029878c5d" x="176.368524" y="55.897372" style="fill: #1f77b4; stroke: #1f77b4; stroke-width: 0.5"/>
     <use xlink:href="#mf029878c5d" x="181.263235" y="62.639871" style="fill: #1f77b4; stroke: #1f77b4; stroke-width: 0.5"/>
     <use xlink:href="#mf029878c5d" x="197.578936" y="78.647283" style="fill: #1f77b4; stroke: #1f77b4; stroke-width: 0.5"/>
     <use xlink:href="#mf029878c5d" x="213.894638" y="88.991664" style="fill: #1f77b4; stroke: #1f77b4; stroke-width: 0.5"/>
     <use xlink:href="#mf029878c5d" x="230.210339" y="96.54834" style="fill: #1f77b4; stroke: #1f77b4; stroke-width: 0.5"/>
    </g>
   </g>
   <g id="line2d_27">
    <path d="M 230.210339 96.868218 
L 213.894638 89.317729 
L 197.578936 79.083551 
L 181.263235 63.358917 
L 176.368524 56.674691 
L 171.473814 49.287114 
L 166.579104 41.892422 
L 161.684393 34.182001 
L 156.789683 26.186112 
L 151.894972 20.873605 
L 147.000262 15.252398 
L 142.105551 10.916503 
L 137.210841 8.283203 
L 132.31613 7.552423 
L 127.42142 7.883547 
L 122.52671 9.719965 
L 117.631999 14.832792 
L 112.737289 23.882886 
L 107.842578 36.524685 
L 102.947868 46.713622 
L 98.053157 53.23173 
L 93.158447 58.469423 
L 88.263737 63.391921 
L 83.369026 68.122486 
L 67.053325 81.91399 
L 50.737623 90.791916 
L 34.421922 97.389012 
" clip-path="url(#pc92de8a77f)" style="fill: none"/>
    <defs>
     <path id="m46638cd068" d="M -1 1 
L 1 1 
L 1 -1 
L -1 -1 
z
" style="stroke: #ff7f0e; stroke-width: 0.5; stroke-linejoin: miter"/>
    </defs>
    <g clip-path="url(#pc92de8a77f)">
     <use xlink:href="#m46638cd068" x="230.210339" y="96.868218" style="fill-opacity: 0; stroke: #ff7f0e; stroke-width: 0.5; stroke-linejoin: miter"/>
     <use xlink:href="#m46638cd068" x="213.894638" y="89.317729" style="fill-opacity: 0; stroke: #ff7f0e; stroke-width: 0.5; stroke-linejoin: miter"/>
     <use xlink:href="#m46638cd068" x="197.578936" y="79.083551" style="fill-opacity: 0; stroke: #ff7f0e; stroke-width: 0.5; stroke-linejoin: miter"/>
     <use xlink:href="#m46638cd068" x="181.263235" y="63.358917" style="fill-opacity: 0; stroke: #ff7f0e; stroke-width: 0.5; stroke-linejoin: miter"/>
     <use xlink:href="#m46638cd068" x="176.368524" y="56.674691" style="fill-opacity: 0; stroke: #ff7f0e; stroke-width: 0.5; stroke-linejoin: miter"/>
     <use xlink:href="#m46638cd068" x="171.473814" y="49.287114" style="fill-opacity: 0; stroke: #ff7f0e; stroke-width: 0.5; stroke-linejoin: miter"/>
     <use xlink:href="#m46638cd068" x="166.579104" y="41.892422" style="fill-opacity: 0; stroke: #ff7f0e; stroke-width: 0.5; stroke-linejoin: miter"/>
     <use xlink:href="#m46638cd068" x="161.684393" y="34.182001" style="fill-opacity: 0; stroke: #ff7f0e; stroke-width: 0.5; stroke-linejoin: miter"/>
     <use xlink:href="#m46638cd068" x="156.789683" y="26.186112" style="fill-opacity: 0; stroke: #ff7f0e; stroke-width: 0.5; stroke-linejoin: miter"/>
     <use xlink:href="#m46638cd068" x="151.894972" y="20.873605" style="fill-opacity: 0; stroke: #ff7f0e; stroke-width: 0.5; stroke-linejoin: miter"/>
     <use xlink:href="#m46638cd068" x="147.000262" y="15.252398" style="fill-opacity: 0; stroke: #ff7f0e; stroke-width: 0.5; stroke-linejoin: miter"/>
     <use xlink:href="#m46638cd068" x="142.105551" y="10.916503" style="fill-opacity: 0; stroke: #ff7f0e; stroke-width: 0.5; stroke-linejoin: miter"/>
     <use xlink:href="#m46638cd068" x="137.210841" y="8.283203" style="fill-opacity: 0; stroke: #ff7f0e; stroke-width: 0.5; stroke-linejoin: miter"/>
     <use xlink:href="#m46638cd068" x="132.31613" y="7.552423" style="fill-opacity: 0; stroke: #ff7f0e; stroke-width: 0.5; stroke-linejoin: miter"/>
     <use xlink:href="#m46638cd068" x="127.42142" y="7.883547" style="fill-opacity: 0; stroke: #ff7f0e; stroke-width: 0.5; stroke-linejoin: miter"/>
     <use xlink:href="#m46638cd068" x="122.52671" y="9.719965" style="fill-opacity: 0; stroke: #ff7f0e; stroke-width: 0.5; stroke-linejoin: miter"/>
     <use xlink:href="#m46638cd068" x="117.631999" y="14.832792" style="fill-opacity: 0; stroke: #ff7f0e; stroke-width: 0.5; stroke-linejoin: miter"/>
     <use xlink:href="#m46638cd068" x="112.737289" y="23.882886" style="fill-opacity: 0; stroke: #ff7f0e; stroke-width: 0.5; stroke-linejoin: miter"/>
     <use xlink:href="#m46638cd068" x="107.842578" y="36.524685" style="fill-opacity: 0; stroke: #ff7f0e; stroke-width: 0.5; stroke-linejoin: miter"/>
     <use xlink:href="#m46638cd068" x="102.947868" y="46.713622" style="fill-opacity: 0; stroke: #ff7f0e; stroke-width: 0.5; stroke-linejoin: miter"/>
     <use xlink:href="#m46638cd068" x="98.053157" y="53.23173" style="fill-opacity: 0; stroke: #ff7f0e; stroke-width: 0.5; stroke-linejoin: miter"/>
     <use xlink:href="#m46638cd068" x="93.158447" y="58.469423" style="fill-opacity: 0; stroke: #ff7f0e; stroke-width: 0.5; stroke-linejoin: miter"/>
     <use xlink:href="#m46638cd068" x="88.263737" y="63.391921" style="fill-opacity: 0; stroke: #ff7f0e; stroke-width: 0.5; stroke-linejoin: miter"/>
     <use xlink:href="#m46638cd068" x="83.369026" y="68.122486" style="fill-opacity: 0; stroke: #ff7f0e; stroke-width: 0.5; stroke-linejoin: miter"/>
     <use xlink:href="#m46638cd068" x="67.053325" y="81.91399" style="fill-opacity: 0; stroke: #ff7f0e; stroke-width: 0.5; stroke-linejoin: miter"/>
     <use xlink:href="#m46638cd068" x="50.737623" y="90.791916" style="fill-opacity: 0; stroke: #ff7f0e; stroke-width: 0.5; stroke-linejoin: miter"/>
     <use xlink:href="#m46638cd068" x="34.421922" y="97.389012" style="fill-opacity: 0; stroke: #ff7f0e; stroke-width: 0.5; stroke-linejoin: miter"/>
    </g>
   </g>
   <g id="patch_3">
    <path d="M 24.632501 121.663974 
L 24.632501 3.00024 
" style="fill: none; stroke: #000000; stroke-width: 0.5; stroke-linejoin: miter; stroke-linecap: square"/>
   </g>
   <g id="patch_4">
    <path d="M 239.99976 121.663974 
L 239.99976 3.00024 
" style="fill: none; stroke: #000000; stroke-width: 0.5; stroke-linejoin: miter; stroke-linecap: square"/>
   </g>
   <g id="patch_5">
    <path d="M 24.632501 121.663974 
L 239.99976 121.663974 
" style="fill: none; stroke: #000000; stroke-width: 0.5; stroke-linejoin: miter; stroke-linecap: square"/>
   </g>
   <g id="patch_6">
    <path d="M 24.632501 3.00024 
L 239.99976 3.00024 
" style="fill: none; stroke: #000000; stroke-width: 0.5; stroke-linejoin: miter; stroke-linecap: square"/>
   </g>
   <g id="text_15">
    <!-- $\theta=\pi/2$ -->
    <g transform="translate(28.939846 10.578515) scale(0.0694 -0.0694)">
     <defs>
      <path id="Cmmi10-b5" d="M 1031 -72 
Q 741 -72 566 140 
Q 391 353 323 653 
Q 256 953 256 1247 
L 256 1253 
Q 256 1572 317 1915 
Q 378 2259 493 2601 
Q 609 2944 744 3213 
Q 838 3400 986 3631 
Q 1134 3863 1317 4064 
Q 1500 4266 1711 4389 
Q 1922 4513 2138 4513 
L 2144 4513 
Q 2375 4513 2529 4384 
Q 2684 4256 2770 4056 
Q 2856 3856 2890 3628 
Q 2925 3400 2925 3194 
Q 2925 2709 2794 2204 
Q 2663 1700 2431 1228 
Q 2344 1050 2189 809 
Q 2034 569 1861 378 
Q 1688 188 1472 58 
Q 1256 -72 1038 -72 
L 1031 -72 
z
M 1044 97 
Q 1256 97 1451 323 
Q 1647 550 1794 873 
Q 1941 1197 2052 1536 
Q 2163 1875 2216 2113 
L 909 2113 
Q 809 1709 753 1417 
Q 697 1125 697 844 
Q 697 97 1044 97 
z
M 959 2338 
L 2272 2338 
Q 2341 2619 2381 2808 
Q 2422 2997 2450 3206 
Q 2478 3416 2478 3597 
Q 2478 4347 2138 4347 
Q 1731 4347 1436 3692 
Q 1141 3038 959 2338 
z
" transform="scale(0.015625)"/>
      <path id="Cmr10-3d" d="M 481 850 
Q 428 850 393 890 
Q 359 931 359 978 
Q 359 1031 393 1068 
Q 428 1106 481 1106 
L 4500 1106 
Q 4547 1106 4581 1068 
Q 4616 1031 4616 978 
Q 4616 931 4581 890 
Q 4547 850 4500 850 
L 481 850 
z
M 481 2094 
Q 428 2094 393 2131 
Q 359 2169 359 2222 
Q 359 2269 393 2309 
Q 428 2350 481 2350 
L 4500 2350 
Q 4547 2350 4581 2309 
Q 4616 2269 4616 2222 
Q 4616 2169 4581 2131 
Q 4547 2094 4500 2094 
L 481 2094 
z
" transform="scale(0.015625)"/>
      <path id="Cmmi10-bc" d="M 647 109 
Q 647 144 672 213 
Q 850 584 1004 942 
Q 1159 1300 1282 1639 
Q 1406 1978 1509 2363 
L 1100 2363 
Q 866 2363 662 2216 
Q 459 2069 325 1844 
Q 313 1819 288 1819 
L 213 1819 
Q 153 1819 153 1881 
Q 153 1894 166 1919 
Q 375 2275 614 2517 
Q 853 2759 1153 2759 
L 3475 2759 
Q 3541 2759 3587 2715 
Q 3634 2672 3634 2597 
Q 3634 2503 3567 2433 
Q 3500 2363 3406 2363 
L 2591 2363 
Q 2488 1859 2478 1381 
Q 2478 766 2694 269 
Q 2713 231 2713 191 
Q 2713 122 2672 62 
Q 2631 3 2567 -34 
Q 2503 -72 2431 -72 
Q 2263 -72 2200 203 
Q 2138 478 2138 738 
Q 2138 1103 2200 1442 
Q 2263 1781 2400 2363 
L 1703 2363 
Q 1197 313 1094 103 
Q 1003 -72 844 -72 
Q 766 -72 706 -20 
Q 647 31 647 109 
z
" transform="scale(0.015625)"/>
      <path id="Cmmi10-3d" d="M 359 -1472 
Q 359 -1453 366 -1447 
L 2591 4722 
Q 2603 4759 2634 4779 
Q 2666 4800 2706 4800 
Q 2763 4800 2798 4765 
Q 2834 4731 2834 4672 
L 2834 4647 
L 609 -1522 
Q 572 -1600 488 -1600 
Q 434 -1600 396 -1562 
Q 359 -1525 359 -1472 
z
" transform="scale(0.015625)"/>
      <path id="Cmr10-32" d="M 319 0 
L 319 172 
Q 319 188 331 206 
L 1325 1306 
Q 1550 1550 1690 1715 
Q 1831 1881 1968 2097 
Q 2106 2313 2186 2536 
Q 2266 2759 2266 3009 
Q 2266 3272 2169 3511 
Q 2072 3750 1880 3894 
Q 1688 4038 1416 4038 
Q 1138 4038 916 3870 
Q 694 3703 603 3438 
Q 628 3444 672 3444 
Q 816 3444 917 3347 
Q 1019 3250 1019 3097 
Q 1019 2950 917 2848 
Q 816 2747 672 2747 
Q 522 2747 420 2851 
Q 319 2956 319 3097 
Q 319 3338 409 3548 
Q 500 3759 670 3923 
Q 841 4088 1055 4175 
Q 1269 4263 1509 4263 
Q 1875 4263 2190 4108 
Q 2506 3953 2690 3670 
Q 2875 3388 2875 3009 
Q 2875 2731 2753 2481 
Q 2631 2231 2440 2026 
Q 2250 1822 1953 1562 
Q 1656 1303 1563 1216 
L 838 519 
L 1453 519 
Q 1906 519 2211 526 
Q 2516 534 2534 550 
Q 2609 631 2688 1141 
L 2875 1141 
L 2694 0 
L 319 0 
z
" transform="scale(0.015625)"/>
     </defs>
     <use xlink:href="#Cmmi10-b5"/>
     <use xlink:href="#Cmr10-3d" transform="translate(64.482422 0)"/>
     <use xlink:href="#Cmmi10-bc" transform="translate(159.726562 0)"/>
     <use xlink:href="#Cmmi10-3d" transform="translate(216.708984 0)"/>
     <use xlink:href="#Cmr10-32" transform="translate(266.708984 0)"/>
    </g>
    <!-- $V_\text{g}=-3.5\,$V -->
    <g transform="translate(28.939846 18.309675) scale(0.0694 -0.0694)">
     <defs>
      <path id="Cmmi10-56" d="M 1409 -72 
L 897 4006 
Q 850 4147 416 4147 
Q 353 4147 353 4231 
Q 366 4300 384 4336 
Q 403 4372 459 4372 
L 2022 4372 
Q 2056 4372 2072 4347 
Q 2088 4322 2088 4288 
Q 2063 4147 2003 4147 
Q 1503 4147 1472 3975 
L 1894 628 
L 3866 3775 
Q 3922 3881 3922 3944 
Q 3922 4056 3820 4101 
Q 3719 4147 3584 4147 
Q 3519 4147 3519 4231 
Q 3531 4281 3540 4309 
Q 3550 4338 3569 4355 
Q 3588 4372 3628 4372 
L 4863 4372 
Q 4922 4372 4922 4288 
Q 4897 4147 4838 4147 
Q 4356 4147 4084 3725 
Q 4072 3713 4063 3713 
L 1703 -72 
Q 1656 -141 1581 -141 
L 1491 -141 
Q 1419 -141 1409 -72 
z
" transform="scale(0.015625)"/>
      <path id="Cmr10-67" d="M 178 -500 
Q 178 -272 343 -101 
Q 509 69 738 141 
Q 609 238 542 384 
Q 475 531 475 697 
Q 475 997 666 1228 
Q 372 1516 372 1888 
Q 372 2088 458 2263 
Q 544 2438 697 2566 
Q 850 2694 1037 2761 
Q 1225 2828 1422 2828 
Q 1803 2828 2106 2606 
Q 2238 2747 2417 2823 
Q 2597 2900 2791 2900 
Q 2928 2900 3015 2801 
Q 3103 2703 3103 2566 
Q 3103 2488 3043 2428 
Q 2984 2369 2906 2369 
Q 2825 2369 2765 2428 
Q 2706 2488 2706 2566 
Q 2706 2684 2784 2731 
Q 2453 2731 2216 2503 
Q 2331 2388 2401 2220 
Q 2472 2053 2472 1888 
Q 2472 1616 2322 1398 
Q 2172 1181 1926 1061 
Q 1681 941 1422 941 
Q 1072 941 781 1131 
Q 691 1006 691 850 
Q 691 681 802 554 
Q 913 428 1081 428 
L 1606 428 
Q 1988 428 2294 359 
Q 2600 291 2808 84 
Q 3016 -122 3016 -500 
Q 3016 -781 2778 -967 
Q 2541 -1153 2211 -1236 
Q 1881 -1319 1600 -1319 
Q 1316 -1319 984 -1236 
Q 653 -1153 415 -967 
Q 178 -781 178 -500 
z
M 538 -500 
Q 538 -716 713 -861 
Q 888 -1006 1134 -1076 
Q 1381 -1147 1600 -1147 
Q 1816 -1147 2062 -1076 
Q 2309 -1006 2482 -861 
Q 2656 -716 2656 -500 
Q 2656 -166 2350 -67 
Q 2044 31 1606 31 
L 1081 31 
Q 934 31 811 -39 
Q 688 -109 613 -236 
Q 538 -363 538 -500 
z
M 1422 1113 
Q 1966 1113 1966 1888 
Q 1966 2222 1850 2439 
Q 1734 2656 1422 2656 
Q 1109 2656 993 2439 
Q 878 2222 878 1888 
Q 878 1675 922 1503 
Q 966 1331 1084 1222 
Q 1203 1113 1422 1113 
z
" transform="scale(0.015625)"/>
      <path id="Cmsy10-a1" d="M 653 1472 
Q 600 1472 565 1512 
Q 531 1553 531 1600 
Q 531 1647 565 1687 
Q 600 1728 653 1728 
L 4325 1728 
Q 4375 1728 4408 1687 
Q 4441 1647 4441 1600 
Q 4441 1553 4408 1512 
Q 4375 1472 4325 1472 
L 653 1472 
z
" transform="scale(0.015625)"/>
      <path id="Cmr10-33" d="M 609 494 
Q 759 275 1012 169 
Q 1266 63 1556 63 
Q 1928 63 2084 380 
Q 2241 697 2241 1100 
Q 2241 1281 2208 1462 
Q 2175 1644 2097 1800 
Q 2019 1956 1883 2050 
Q 1747 2144 1550 2144 
L 1125 2144 
Q 1069 2144 1069 2203 
L 1069 2259 
Q 1069 2309 1125 2309 
L 1478 2338 
Q 1703 2338 1851 2506 
Q 2000 2675 2069 2917 
Q 2138 3159 2138 3378 
Q 2138 3684 1994 3881 
Q 1850 4078 1556 4078 
Q 1313 4078 1091 3986 
Q 869 3894 738 3706 
Q 750 3709 759 3711 
Q 769 3713 781 3713 
Q 925 3713 1022 3613 
Q 1119 3513 1119 3372 
Q 1119 3234 1022 3134 
Q 925 3034 781 3034 
Q 641 3034 541 3134 
Q 441 3234 441 3372 
Q 441 3647 606 3850 
Q 772 4053 1033 4158 
Q 1294 4263 1556 4263 
Q 1750 4263 1965 4205 
Q 2181 4147 2356 4039 
Q 2531 3931 2642 3762 
Q 2753 3594 2753 3378 
Q 2753 3109 2633 2881 
Q 2513 2653 2303 2487 
Q 2094 2322 1844 2241 
Q 2122 2188 2372 2031 
Q 2622 1875 2773 1631 
Q 2925 1388 2925 1106 
Q 2925 753 2731 467 
Q 2538 181 2222 20 
Q 1906 -141 1556 -141 
Q 1256 -141 954 -26 
Q 653 88 461 316 
Q 269 544 269 863 
Q 269 1022 375 1128 
Q 481 1234 641 1234 
Q 744 1234 830 1186 
Q 916 1138 964 1050 
Q 1013 963 1013 863 
Q 1013 706 903 600 
Q 794 494 641 494 
L 609 494 
z
" transform="scale(0.015625)"/>
      <path id="Cmmi10-3a" d="M 538 353 
Q 538 497 644 600 
Q 750 703 891 703 
Q 978 703 1062 656 
Q 1147 609 1194 525 
Q 1241 441 1241 353 
Q 1241 213 1137 106 
Q 1034 0 891 0 
Q 750 0 644 106 
Q 538 213 538 353 
z
" transform="scale(0.015625)"/>
      <path id="Cmr10-35" d="M 556 728 
Q 622 541 758 387 
Q 894 234 1080 148 
Q 1266 63 1466 63 
Q 1928 63 2103 422 
Q 2278 781 2278 1294 
Q 2278 1516 2270 1667 
Q 2263 1819 2228 1959 
Q 2169 2184 2020 2353 
Q 1872 2522 1656 2522 
Q 1441 2522 1286 2456 
Q 1131 2391 1034 2303 
Q 938 2216 863 2119 
Q 788 2022 769 2016 
L 697 2016 
Q 681 2016 657 2036 
Q 634 2056 634 2075 
L 634 4213 
Q 634 4228 654 4245 
Q 675 4263 697 4263 
L 716 4263 
Q 1147 4056 1631 4056 
Q 2106 4056 2547 4263 
L 2566 4263 
Q 2588 4263 2606 4247 
Q 2625 4231 2625 4213 
L 2625 4153 
Q 2625 4122 2613 4122 
Q 2394 3831 2064 3668 
Q 1734 3506 1381 3506 
Q 1125 3506 856 3578 
L 856 2369 
Q 1069 2541 1236 2614 
Q 1403 2688 1663 2688 
Q 2016 2688 2295 2484 
Q 2575 2281 2725 1954 
Q 2875 1628 2875 1288 
Q 2875 903 2686 575 
Q 2497 247 2172 53 
Q 1847 -141 1466 -141 
Q 1150 -141 886 21 
Q 622 184 470 459 
Q 319 734 319 1044 
Q 319 1188 412 1278 
Q 506 1369 647 1369 
Q 788 1369 883 1276 
Q 978 1184 978 1044 
Q 978 906 883 811 
Q 788 716 647 716 
Q 625 716 597 720 
Q 569 725 556 728 
z
" transform="scale(0.015625)"/>
      <path id="ArialMT-56" d="M 1803 0 
L 28 4581 
L 684 4581 
L 1875 1253 
Q 2019 853 2116 503 
Q 2222 878 2363 1253 
L 3600 4581 
L 4219 4581 
L 2425 0 
L 1803 0 
z
" transform="scale(0.015625)"/>
     </defs>
     <use xlink:href="#Cmmi10-56" transform="translate(0 0.421875)"/>
     <use xlink:href="#Cmr10-67" transform="translate(58.300781 -16.584375) scale(0.7)"/>
     <use xlink:href="#Cmr10-3d" transform="translate(117.236719 0.421875)"/>
     <use xlink:href="#Cmsy10-a1" transform="translate(230.039453 0.421875)"/>
     <use xlink:href="#Cmr10-33" transform="translate(325.283594 0.421875)"/>
     <use xlink:href="#Cmmi10-3a" transform="translate(375.283594 0.421875)"/>
     <use xlink:href="#Cmr10-35" transform="translate(402.969141 0.421875)"/>
     <use xlink:href="#ArialMT-56" transform="translate(467.601595 0.421875)"/>
    </g>
   </g>
   <g id="legend_1">
    <g id="patch_7">
     <path d="M 180.31576 29.37224 
L 235.14176 29.37224 
Q 236.52976 29.37224 236.52976 27.98424 
L 236.52976 7.85824 
Q 236.52976 6.47024 235.14176 6.47024 
L 180.31576 6.47024 
Q 178.92776 6.47024 178.92776 7.85824 
L 178.92776 27.98424 
Q 178.92776 29.37224 180.31576 29.37224 
z
" style="fill: #ffffff; opacity: 0.8; stroke: #cccccc; stroke-linejoin: miter"/>
    </g>
    <g id="LineCollection_3">
     <path d="M 188.64376 15.49224 
L 188.64376 8.55224 
" style="fill: none"/>
    </g>
    <g id="line2d_28">
     <path d="M 181.70376 12.02224 
L 195.58376 12.02224 
" style="fill: none"/>
    </g>
    <g id="line2d_29">
     <g>
      <use xlink:href="#mf029878c5d" x="188.64376" y="12.02224" style="fill: #1f77b4; stroke: #1f77b4; stroke-width: 0.5"/>
     </g>
    </g>
    <g id="text_16">
     <!-- $I_{\text{c}+}(B)$ -->
     <g transform="translate(201.13576 14.45124) scale(0.0694 -0.0694)">
      <defs>
       <path id="Cmr10-2b" d="M 481 1472 
Q 428 1472 393 1512 
Q 359 1553 359 1600 
Q 359 1647 393 1687 
Q 428 1728 481 1728 
L 2363 1728 
L 2363 3616 
Q 2363 3666 2400 3698 
Q 2438 3731 2491 3731 
Q 2538 3731 2578 3698 
Q 2619 3666 2619 3616 
L 2619 1728 
L 4500 1728 
Q 4547 1728 4581 1687 
Q 4616 1647 4616 1600 
Q 4616 1553 4581 1512 
Q 4547 1472 4500 1472 
L 2619 1472 
L 2619 -416 
Q 2619 -466 2578 -498 
Q 2538 -531 2491 -531 
Q 2438 -531 2400 -498 
Q 2363 -466 2363 -416 
L 2363 1472 
L 481 1472 
z
" transform="scale(0.015625)"/>
       <path id="Cmr10-28" d="M 1984 -1588 
Q 1628 -1306 1370 -942 
Q 1113 -578 948 -165 
Q 784 247 703 697 
Q 622 1147 622 1600 
Q 622 2059 703 2509 
Q 784 2959 951 3375 
Q 1119 3791 1378 4153 
Q 1638 4516 1984 4788 
Q 1984 4800 2016 4800 
L 2075 4800 
Q 2094 4800 2109 4783 
Q 2125 4766 2125 4744 
Q 2125 4716 2113 4703 
Q 1800 4397 1592 4047 
Q 1384 3697 1257 3301 
Q 1131 2906 1075 2482 
Q 1019 2059 1019 1600 
Q 1019 -434 2106 -1491 
Q 2125 -1509 2125 -1544 
Q 2125 -1559 2108 -1579 
Q 2091 -1600 2075 -1600 
L 2016 -1600 
Q 1984 -1600 1984 -1588 
z
" transform="scale(0.015625)"/>
       <path id="Cmr10-29" d="M 416 -1600 
Q 359 -1600 359 -1544 
Q 359 -1516 372 -1503 
Q 1466 -434 1466 1600 
Q 1466 3634 384 4691 
Q 359 4706 359 4744 
Q 359 4766 376 4783 
Q 394 4800 416 4800 
L 475 4800 
Q 494 4800 506 4788 
Q 966 4425 1272 3906 
Q 1578 3388 1720 2800 
Q 1863 2213 1863 1600 
Q 1863 1147 1786 708 
Q 1709 269 1542 -157 
Q 1375 -584 1119 -945 
Q 863 -1306 506 -1588 
Q 494 -1600 475 -1600 
L 416 -1600 
z
" transform="scale(0.015625)"/>
      </defs>
      <use xlink:href="#Cmmi10-49"/>
      <use xlink:href="#Cmr10-63" transform="translate(43.896484 -17.00625) scale(0.7)"/>
      <use xlink:href="#Cmr10-2b" transform="translate(87.256836 -17.00625) scale(0.7)"/>
      <use xlink:href="#Cmr10-28" transform="translate(160.305078 0)"/>
      <use xlink:href="#Cmmi10-42" transform="translate(199.123437 0)"/>
      <use xlink:href="#Cmr10-29" transform="translate(274.904688 0)"/>
     </g>
    </g>
    <g id="LineCollection_4">
     <path d="M 188.64376 25.90224 
L 188.64376 18.96224 
" style="fill: none"/>
    </g>
    <g id="line2d_30">
     <path d="M 181.70376 22.43224 
L 195.58376 22.43224 
" style="fill: none"/>
    </g>
    <g id="line2d_31">
     <g>
      <use xlink:href="#m46638cd068" x="188.64376" y="22.43224" style="fill-opacity: 0; stroke: #ff7f0e; stroke-width: 0.5; stroke-linejoin: miter"/>
     </g>
    </g>
    <g id="text_17">
     <!-- $-I_{\text{c}-}(-B)$ -->
     <g transform="translate(201.13576 24.86124) scale(0.0694 -0.0694)">
      <use xlink:href="#Cmsy10-a1"/>
      <use xlink:href="#Cmmi10-49" transform="translate(77.685547 0)"/>
      <use xlink:href="#Cmr10-63" transform="translate(121.582031 -17.00625) scale(0.7)"/>
      <use xlink:href="#Cmsy10-a1" transform="translate(164.942383 -17.00625) scale(0.7)"/>
      <use xlink:href="#Cmr10-28" transform="translate(237.990625 0)"/>
      <use xlink:href="#Cmsy10-a1" transform="translate(276.808984 0)"/>
      <use xlink:href="#Cmmi10-42" transform="translate(354.494531 0)"/>
      <use xlink:href="#Cmr10-29" transform="translate(430.275781 0)"/>
     </g>
    </g>
   </g>
  </g>
 </g>
 <defs>
  <clipPath id="pc92de8a77f">
   <rect x="24.632501" y="3.00024" width="215.367259" height="118.663734"/>
  </clipPath>
 </defs>
</svg>
