<?xml version="1.0" encoding="utf-8" standalone="no"?>
<!DOCTYPE svg PUBLIC "-//W3C//DTD SVG 1.1//EN"
  "http://www.w3.org/Graphics/SVG/1.1/DTD/svg11.dtd">
<svg xmlns:xlink="http://www.w3.org/1999/xlink" width="168pt" height="168pt" viewBox="0 0 168 168" xmlns="http://www.w3.org/2000/svg" version="1.1">
 <metadata>
  <rdf:RDF xmlns:dc="http://purl.org/dc/elements/1.1/" xmlns:cc="http://creativecommons.org/ns#" xmlns:rdf="http://www.w3.org/1999/02/22-rdf-syntax-ns#">
   <cc:Work>
    <dc:type rdf:resource="http://purl.org/dc/dcmitype/StillImage"/>
    <dc:date>2024-10-08T10:35:11.573303</dc:date>
    <dc:format>image/svg+xml</dc:format>
    <dc:creator>
     <cc:Agent>
      <dc:title>Matplotlib v3.8.4, https://matplotlib.org/</dc:title>
     </cc:Agent>
    </dc:creator>
   </cc:Work>
  </rdf:RDF>
 </metadata>
 <defs>
  <style type="text/css">*{stroke-linejoin: round; stroke-linecap: butt}</style>
 </defs>
 <g id="figure_1">
  <g id="patch_1">
   <path d="M 0 168 
L 168 168 
L 168 0 
L 0 0 
L 0 168 
z
" style="fill: none"/>
  </g>
  <g id="axes_1">
   <g id="patch_2">
    <path d="M 57.81 42.908095 
L 155.460937 42.908095 
L 155.460937 24.3888 
L 57.81 24.3888 
L 57.81 42.908095 
z
" style="fill: none"/>
   </g>
   <g id="matplotlib.axis_1">
    <g id="xtick_1">
     <g id="line2d_1">
      <defs>
       <path id="ma49b3cf550" d="M 0 0 
L 0 -2 
" style="stroke: #000000; stroke-width: 0.5"/>
      </defs>
      <g>
       <use xlink:href="#ma49b3cf550" x="62.248679" y="42.908095" style="stroke: #000000; stroke-width: 0.5"/>
      </g>
     </g>
    </g>
    <g id="xtick_2">
     <g id="line2d_2">
      <g>
       <use xlink:href="#ma49b3cf550" x="85.407004" y="42.908095" style="stroke: #000000; stroke-width: 0.5"/>
      </g>
     </g>
    </g>
    <g id="xtick_3">
     <g id="line2d_3">
      <g>
       <use xlink:href="#ma49b3cf550" x="108.565329" y="42.908095" style="stroke: #000000; stroke-width: 0.5"/>
      </g>
     </g>
    </g>
    <g id="xtick_4">
     <g id="line2d_4">
      <g>
       <use xlink:href="#ma49b3cf550" x="131.723654" y="42.908095" style="stroke: #000000; stroke-width: 0.5"/>
      </g>
     </g>
    </g>
    <g id="xtick_5">
     <g id="line2d_5">
      <g>
       <use xlink:href="#ma49b3cf550" x="154.881979" y="42.908095" style="stroke: #000000; stroke-width: 0.5"/>
      </g>
     </g>
    </g>
   </g>
   <g id="matplotlib.axis_2">
    <g id="ytick_1">
     <g id="line2d_6">
      <defs>
       <path id="m97df4974f2" d="M 0 0 
L 2 0 
" style="stroke: #000000; stroke-width: 0.5"/>
      </defs>
      <g>
       <use xlink:href="#m97df4974f2" x="57.81" y="41.297424" style="stroke: #000000; stroke-width: 0.5"/>
      </g>
     </g>
     <g id="text_1">
      <!-- −0.0005 -->
      <g transform="translate(23.969277 44.278653) scale(0.0833 -0.0833)">
       <defs>
        <path id="ArialMT-2212" d="M 3381 1997 
L 356 1997 
L 356 2522 
L 3381 2522 
L 3381 1997 
z
" transform="scale(0.015625)"/>
        <path id="ArialMT-30" d="M 266 2259 
Q 266 3072 433 3567 
Q 600 4063 929 4331 
Q 1259 4600 1759 4600 
Q 2128 4600 2406 4451 
Q 2684 4303 2865 4023 
Q 3047 3744 3150 3342 
Q 3253 2941 3253 2259 
Q 3253 1453 3087 958 
Q 2922 463 2592 192 
Q 2263 -78 1759 -78 
Q 1097 -78 719 397 
Q 266 969 266 2259 
z
M 844 2259 
Q 844 1131 1108 757 
Q 1372 384 1759 384 
Q 2147 384 2411 759 
Q 2675 1134 2675 2259 
Q 2675 3391 2411 3762 
Q 2147 4134 1753 4134 
Q 1366 4134 1134 3806 
Q 844 3388 844 2259 
z
" transform="scale(0.015625)"/>
        <path id="ArialMT-2e" d="M 581 0 
L 581 641 
L 1222 641 
L 1222 0 
L 581 0 
z
" transform="scale(0.015625)"/>
        <path id="ArialMT-35" d="M 266 1200 
L 856 1250 
Q 922 819 1161 601 
Q 1400 384 1738 384 
Q 2144 384 2425 690 
Q 2706 997 2706 1503 
Q 2706 1984 2436 2262 
Q 2166 2541 1728 2541 
Q 1456 2541 1237 2417 
Q 1019 2294 894 2097 
L 366 2166 
L 809 4519 
L 3088 4519 
L 3088 3981 
L 1259 3981 
L 1013 2750 
Q 1425 3038 1878 3038 
Q 2478 3038 2890 2622 
Q 3303 2206 3303 1553 
Q 3303 931 2941 478 
Q 2500 -78 1738 -78 
Q 1113 -78 717 272 
Q 322 622 266 1200 
z
" transform="scale(0.015625)"/>
       </defs>
       <use xlink:href="#ArialMT-2212"/>
       <use xlink:href="#ArialMT-30" x="58.398438"/>
       <use xlink:href="#ArialMT-2e" x="114.013672"/>
       <use xlink:href="#ArialMT-30" x="141.796875"/>
       <use xlink:href="#ArialMT-30" x="197.412109"/>
       <use xlink:href="#ArialMT-30" x="253.027344"/>
       <use xlink:href="#ArialMT-35" x="308.642578"/>
      </g>
     </g>
    </g>
    <g id="ytick_2">
     <g id="line2d_7">
      <g>
       <use xlink:href="#m97df4974f2" x="57.81" y="33.997684" style="stroke: #000000; stroke-width: 0.5"/>
      </g>
     </g>
     <g id="text_2">
      <!-- 0.0000 -->
      <g transform="translate(28.834517 36.978913) scale(0.0833 -0.0833)">
       <use xlink:href="#ArialMT-30"/>
       <use xlink:href="#ArialMT-2e" x="55.615234"/>
       <use xlink:href="#ArialMT-30" x="83.398438"/>
       <use xlink:href="#ArialMT-30" x="139.013672"/>
       <use xlink:href="#ArialMT-30" x="194.628906"/>
       <use xlink:href="#ArialMT-30" x="250.244141"/>
      </g>
     </g>
    </g>
    <g id="ytick_3">
     <g id="line2d_8">
      <g>
       <use xlink:href="#m97df4974f2" x="57.81" y="26.697945" style="stroke: #000000; stroke-width: 0.5"/>
      </g>
     </g>
     <g id="text_3">
      <!-- 0.0005 -->
      <g transform="translate(28.834517 29.679174) scale(0.0833 -0.0833)">
       <use xlink:href="#ArialMT-30"/>
       <use xlink:href="#ArialMT-2e" x="55.615234"/>
       <use xlink:href="#ArialMT-30" x="83.398438"/>
       <use xlink:href="#ArialMT-30" x="139.013672"/>
       <use xlink:href="#ArialMT-30" x="194.628906"/>
       <use xlink:href="#ArialMT-35" x="250.244141"/>
      </g>
     </g>
    </g>
    <g id="text_4">
     <!-- residuals -->
     <g transform="translate(17.981777 53.657041) rotate(-90) scale(0.1 -0.1)">
      <defs>
       <path id="ArialMT-72" d="M 416 0 
L 416 3319 
L 922 3319 
L 922 2816 
Q 1116 3169 1280 3281 
Q 1444 3394 1641 3394 
Q 1925 3394 2219 3213 
L 2025 2691 
Q 1819 2813 1613 2813 
Q 1428 2813 1281 2702 
Q 1134 2591 1072 2394 
Q 978 2094 978 1738 
L 978 0 
L 416 0 
z
" transform="scale(0.015625)"/>
       <path id="ArialMT-65" d="M 2694 1069 
L 3275 997 
Q 3138 488 2766 206 
Q 2394 -75 1816 -75 
Q 1088 -75 661 373 
Q 234 822 234 1631 
Q 234 2469 665 2931 
Q 1097 3394 1784 3394 
Q 2450 3394 2872 2941 
Q 3294 2488 3294 1666 
Q 3294 1616 3291 1516 
L 816 1516 
Q 847 969 1125 678 
Q 1403 388 1819 388 
Q 2128 388 2347 550 
Q 2566 713 2694 1069 
z
M 847 1978 
L 2700 1978 
Q 2663 2397 2488 2606 
Q 2219 2931 1791 2931 
Q 1403 2931 1139 2672 
Q 875 2413 847 1978 
z
" transform="scale(0.015625)"/>
       <path id="ArialMT-73" d="M 197 991 
L 753 1078 
Q 800 744 1014 566 
Q 1228 388 1613 388 
Q 2000 388 2187 545 
Q 2375 703 2375 916 
Q 2375 1106 2209 1216 
Q 2094 1291 1634 1406 
Q 1016 1563 777 1677 
Q 538 1791 414 1992 
Q 291 2194 291 2438 
Q 291 2659 392 2848 
Q 494 3038 669 3163 
Q 800 3259 1026 3326 
Q 1253 3394 1513 3394 
Q 1903 3394 2198 3281 
Q 2494 3169 2634 2976 
Q 2775 2784 2828 2463 
L 2278 2388 
Q 2241 2644 2061 2787 
Q 1881 2931 1553 2931 
Q 1166 2931 1000 2803 
Q 834 2675 834 2503 
Q 834 2394 903 2306 
Q 972 2216 1119 2156 
Q 1203 2125 1616 2013 
Q 2213 1853 2448 1751 
Q 2684 1650 2818 1456 
Q 2953 1263 2953 975 
Q 2953 694 2789 445 
Q 2625 197 2315 61 
Q 2006 -75 1616 -75 
Q 969 -75 630 194 
Q 291 463 197 991 
z
" transform="scale(0.015625)"/>
       <path id="ArialMT-69" d="M 425 3934 
L 425 4581 
L 988 4581 
L 988 3934 
L 425 3934 
z
M 425 0 
L 425 3319 
L 988 3319 
L 988 0 
L 425 0 
z
" transform="scale(0.015625)"/>
       <path id="ArialMT-64" d="M 2575 0 
L 2575 419 
Q 2259 -75 1647 -75 
Q 1250 -75 917 144 
Q 584 363 401 755 
Q 219 1147 219 1656 
Q 219 2153 384 2558 
Q 550 2963 881 3178 
Q 1213 3394 1622 3394 
Q 1922 3394 2156 3267 
Q 2391 3141 2538 2938 
L 2538 4581 
L 3097 4581 
L 3097 0 
L 2575 0 
z
M 797 1656 
Q 797 1019 1065 703 
Q 1334 388 1700 388 
Q 2069 388 2326 689 
Q 2584 991 2584 1609 
Q 2584 2291 2321 2609 
Q 2059 2928 1675 2928 
Q 1300 2928 1048 2622 
Q 797 2316 797 1656 
z
" transform="scale(0.015625)"/>
       <path id="ArialMT-75" d="M 2597 0 
L 2597 488 
Q 2209 -75 1544 -75 
Q 1250 -75 995 37 
Q 741 150 617 320 
Q 494 491 444 738 
Q 409 903 409 1263 
L 409 3319 
L 972 3319 
L 972 1478 
Q 972 1038 1006 884 
Q 1059 663 1231 536 
Q 1403 409 1656 409 
Q 1909 409 2131 539 
Q 2353 669 2445 892 
Q 2538 1116 2538 1541 
L 2538 3319 
L 3100 3319 
L 3100 0 
L 2597 0 
z
" transform="scale(0.015625)"/>
       <path id="ArialMT-61" d="M 2588 409 
Q 2275 144 1986 34 
Q 1697 -75 1366 -75 
Q 819 -75 525 192 
Q 231 459 231 875 
Q 231 1119 342 1320 
Q 453 1522 633 1644 
Q 813 1766 1038 1828 
Q 1203 1872 1538 1913 
Q 2219 1994 2541 2106 
Q 2544 2222 2544 2253 
Q 2544 2597 2384 2738 
Q 2169 2928 1744 2928 
Q 1347 2928 1158 2789 
Q 969 2650 878 2297 
L 328 2372 
Q 403 2725 575 2942 
Q 747 3159 1072 3276 
Q 1397 3394 1825 3394 
Q 2250 3394 2515 3294 
Q 2781 3194 2906 3042 
Q 3031 2891 3081 2659 
Q 3109 2516 3109 2141 
L 3109 1391 
Q 3109 606 3145 398 
Q 3181 191 3288 0 
L 2700 0 
Q 2613 175 2588 409 
z
M 2541 1666 
Q 2234 1541 1622 1453 
Q 1275 1403 1131 1340 
Q 988 1278 909 1158 
Q 831 1038 831 891 
Q 831 666 1001 516 
Q 1172 366 1500 366 
Q 1825 366 2078 508 
Q 2331 650 2450 897 
Q 2541 1088 2541 1459 
L 2541 1666 
z
" transform="scale(0.015625)"/>
       <path id="ArialMT-6c" d="M 409 0 
L 409 4581 
L 972 4581 
L 972 0 
L 409 0 
z
" transform="scale(0.015625)"/>
      </defs>
      <use xlink:href="#ArialMT-72"/>
      <use xlink:href="#ArialMT-65" x="33.300781"/>
      <use xlink:href="#ArialMT-73" x="88.916016"/>
      <use xlink:href="#ArialMT-69" x="138.916016"/>
      <use xlink:href="#ArialMT-64" x="161.132812"/>
      <use xlink:href="#ArialMT-75" x="216.748047"/>
      <use xlink:href="#ArialMT-61" x="272.363281"/>
      <use xlink:href="#ArialMT-6c" x="327.978516"/>
      <use xlink:href="#ArialMT-73" x="350.195312"/>
     </g>
    </g>
   </g>
   <g id="line2d_9">
    <path d="M 57.81 33.997684 
L 155.460937 33.997684 
" clip-path="url(#p8e3b049421)" style="fill: none; stroke: #000000; stroke-linecap: square"/>
   </g>
   <g id="LineCollection_1">
    <path d="M 131.723654 39.692313 
L 131.723654 28.781944 
" clip-path="url(#p8e3b049421)" style="fill: none; stroke: #1f77b4"/>
    <path d="M 135.583375 37.760968 
L 135.583375 29.740464 
" clip-path="url(#p8e3b049421)" style="fill: none; stroke: #1f77b4"/>
    <path d="M 139.443095 34.481148 
L 139.443095 25.230586 
" clip-path="url(#p8e3b049421)" style="fill: none; stroke: #1f77b4"/>
    <path d="M 143.302816 39.585101 
L 143.302816 27.665255 
" clip-path="url(#p8e3b049421)" style="fill: none; stroke: #1f77b4"/>
    <path d="M 147.162537 36.647773 
L 147.162537 28.246088 
" clip-path="url(#p8e3b049421)" style="fill: none; stroke: #1f77b4"/>
    <path d="M 151.022258 37.207616 
L 151.022258 27.575021 
" clip-path="url(#p8e3b049421)" style="fill: none; stroke: #1f77b4"/>
    <path d="M 62.248679 38.330296 
L 62.248679 29.113891 
" clip-path="url(#p8e3b049421)" style="fill: none; stroke: #1f77b4"/>
    <path d="M 66.1084 37.061141 
L 66.1084 27.917915 
" clip-path="url(#p8e3b049421)" style="fill: none; stroke: #1f77b4"/>
    <path d="M 69.968121 36.961074 
L 69.968121 27.471715 
" clip-path="url(#p8e3b049421)" style="fill: none; stroke: #1f77b4"/>
    <path d="M 73.827841 39.646475 
L 73.827841 31.225811 
" clip-path="url(#p8e3b049421)" style="fill: none; stroke: #1f77b4"/>
    <path d="M 77.687562 39.488009 
L 77.687562 32.416308 
" clip-path="url(#p8e3b049421)" style="fill: none; stroke: #1f77b4"/>
    <path d="M 81.547283 41.363098 
L 81.547283 33.052854 
" clip-path="url(#p8e3b049421)" style="fill: none; stroke: #1f77b4"/>
    <path d="M 85.407004 41.209751 
L 85.407004 30.890673 
" clip-path="url(#p8e3b049421)" style="fill: none; stroke: #1f77b4"/>
    <path d="M 89.266725 37.118868 
L 89.266725 26.139592 
" clip-path="url(#p8e3b049421)" style="fill: none; stroke: #1f77b4"/>
    <path d="M 93.126446 38.647451 
L 93.126446 29.960303 
" clip-path="url(#p8e3b049421)" style="fill: none; stroke: #1f77b4"/>
    <path d="M 96.986166 36.582326 
L 96.986166 25.611262 
" clip-path="url(#p8e3b049421)" style="fill: none; stroke: #1f77b4"/>
    <path d="M 100.845887 35.694951 
L 100.845887 28.71468 
" clip-path="url(#p8e3b049421)" style="fill: none; stroke: #1f77b4"/>
    <path d="M 104.705608 39.716266 
L 104.705608 27.593608 
" clip-path="url(#p8e3b049421)" style="fill: none; stroke: #1f77b4"/>
    <path d="M 108.565329 37.034465 
L 108.565329 27.005515 
" clip-path="url(#p8e3b049421)" style="fill: none; stroke: #1f77b4"/>
    <path d="M 112.42505 37.891027 
L 112.42505 26.889177 
" clip-path="url(#p8e3b049421)" style="fill: none; stroke: #1f77b4"/>
    <path d="M 116.28477 39.549808 
L 116.28477 30.209527 
" clip-path="url(#p8e3b049421)" style="fill: none; stroke: #1f77b4"/>
    <path d="M 120.144491 38.513463 
L 120.144491 29.717849 
" clip-path="url(#p8e3b049421)" style="fill: none; stroke: #1f77b4"/>
    <path d="M 124.004212 41.803978 
L 124.004212 29.485257 
" clip-path="url(#p8e3b049421)" style="fill: none; stroke: #1f77b4"/>
    <path d="M 127.863933 42.066309 
L 127.863933 34.117147 
" clip-path="url(#p8e3b049421)" style="fill: none; stroke: #1f77b4"/>
    <path d="M 131.723654 41.763374 
L 131.723654 32.194141 
" clip-path="url(#p8e3b049421)" style="fill: none; stroke: #1f77b4"/>
   </g>
   <g id="line2d_10">
    <defs>
     <path id="m6ba834c7a3" d="M 0 1.5 
C 0.397805 1.5 0.77937 1.341951 1.06066 1.06066 
C 1.341951 0.77937 1.5 0.397805 1.5 0 
C 1.5 -0.397805 1.341951 -0.77937 1.06066 -1.06066 
C 0.77937 -1.341951 0.397805 -1.5 0 -1.5 
C -0.397805 -1.5 -0.77937 -1.341951 -1.06066 -1.06066 
C -1.341951 -0.77937 -1.5 -0.397805 -1.5 0 
C -1.5 0.397805 -1.341951 0.77937 -1.06066 1.06066 
C -0.77937 1.341951 -0.397805 1.5 0 1.5 
z
" style="stroke: #1f77b4; stroke-width: 0.5"/>
    </defs>
    <g clip-path="url(#p8e3b049421)">
     <use xlink:href="#m6ba834c7a3" x="131.723654" y="34.237129" style="fill: #1f77b4; stroke: #1f77b4; stroke-width: 0.5"/>
     <use xlink:href="#m6ba834c7a3" x="135.583375" y="33.750716" style="fill: #1f77b4; stroke: #1f77b4; stroke-width: 0.5"/>
     <use xlink:href="#m6ba834c7a3" x="139.443095" y="29.855867" style="fill: #1f77b4; stroke: #1f77b4; stroke-width: 0.5"/>
     <use xlink:href="#m6ba834c7a3" x="143.302816" y="33.625178" style="fill: #1f77b4; stroke: #1f77b4; stroke-width: 0.5"/>
     <use xlink:href="#m6ba834c7a3" x="147.162537" y="32.446931" style="fill: #1f77b4; stroke: #1f77b4; stroke-width: 0.5"/>
     <use xlink:href="#m6ba834c7a3" x="151.022258" y="32.391318" style="fill: #1f77b4; stroke: #1f77b4; stroke-width: 0.5"/>
     <use xlink:href="#m6ba834c7a3" x="62.248679" y="33.722093" style="fill: #1f77b4; stroke: #1f77b4; stroke-width: 0.5"/>
     <use xlink:href="#m6ba834c7a3" x="66.1084" y="32.489528" style="fill: #1f77b4; stroke: #1f77b4; stroke-width: 0.5"/>
     <use xlink:href="#m6ba834c7a3" x="69.968121" y="32.216394" style="fill: #1f77b4; stroke: #1f77b4; stroke-width: 0.5"/>
     <use xlink:href="#m6ba834c7a3" x="73.827841" y="35.436143" style="fill: #1f77b4; stroke: #1f77b4; stroke-width: 0.5"/>
     <use xlink:href="#m6ba834c7a3" x="77.687562" y="35.952158" style="fill: #1f77b4; stroke: #1f77b4; stroke-width: 0.5"/>
     <use xlink:href="#m6ba834c7a3" x="81.547283" y="37.207976" style="fill: #1f77b4; stroke: #1f77b4; stroke-width: 0.5"/>
     <use xlink:href="#m6ba834c7a3" x="85.407004" y="36.050212" style="fill: #1f77b4; stroke: #1f77b4; stroke-width: 0.5"/>
     <use xlink:href="#m6ba834c7a3" x="89.266725" y="31.62923" style="fill: #1f77b4; stroke: #1f77b4; stroke-width: 0.5"/>
     <use xlink:href="#m6ba834c7a3" x="93.126446" y="34.303877" style="fill: #1f77b4; stroke: #1f77b4; stroke-width: 0.5"/>
     <use xlink:href="#m6ba834c7a3" x="96.986166" y="31.096794" style="fill: #1f77b4; stroke: #1f77b4; stroke-width: 0.5"/>
     <use xlink:href="#m6ba834c7a3" x="100.845887" y="32.204815" style="fill: #1f77b4; stroke: #1f77b4; stroke-width: 0.5"/>
     <use xlink:href="#m6ba834c7a3" x="104.705608" y="33.654937" style="fill: #1f77b4; stroke: #1f77b4; stroke-width: 0.5"/>
     <use xlink:href="#m6ba834c7a3" x="108.565329" y="32.01999" style="fill: #1f77b4; stroke: #1f77b4; stroke-width: 0.5"/>
     <use xlink:href="#m6ba834c7a3" x="112.42505" y="32.390102" style="fill: #1f77b4; stroke: #1f77b4; stroke-width: 0.5"/>
     <use xlink:href="#m6ba834c7a3" x="116.28477" y="34.879667" style="fill: #1f77b4; stroke: #1f77b4; stroke-width: 0.5"/>
     <use xlink:href="#m6ba834c7a3" x="120.144491" y="34.115656" style="fill: #1f77b4; stroke: #1f77b4; stroke-width: 0.5"/>
     <use xlink:href="#m6ba834c7a3" x="124.004212" y="35.644617" style="fill: #1f77b4; stroke: #1f77b4; stroke-width: 0.5"/>
     <use xlink:href="#m6ba834c7a3" x="127.863933" y="38.091728" style="fill: #1f77b4; stroke: #1f77b4; stroke-width: 0.5"/>
     <use xlink:href="#m6ba834c7a3" x="131.723654" y="36.978758" style="fill: #1f77b4; stroke: #1f77b4; stroke-width: 0.5"/>
    </g>
   </g>
   <g id="patch_3">
    <path d="M 57.81 42.908095 
L 57.81 24.3888 
" style="fill: none; stroke: #000000; stroke-width: 0.5; stroke-linejoin: miter; stroke-linecap: square"/>
   </g>
   <g id="patch_4">
    <path d="M 155.460937 42.908095 
L 155.460937 24.3888 
" style="fill: none; stroke: #000000; stroke-width: 0.5; stroke-linejoin: miter; stroke-linecap: square"/>
   </g>
   <g id="patch_5">
    <path d="M 57.81 42.908095 
L 155.460937 42.908095 
" style="fill: none; stroke: #000000; stroke-width: 0.5; stroke-linejoin: miter; stroke-linecap: square"/>
   </g>
   <g id="patch_6">
    <path d="M 57.81 24.3888 
L 155.460937 24.3888 
" style="fill: none; stroke: #000000; stroke-width: 0.5; stroke-linejoin: miter; stroke-linecap: square"/>
   </g>
   <g id="text_5">
    <!-- $V_\mathrm{g}=-2.2$ V -->
    <g transform="translate(79.235468 18.3888) scale(0.1 -0.1)">
     <defs>
      <path id="Cmmi10-56" d="M 1409 -72 
L 897 4006 
Q 850 4147 416 4147 
Q 353 4147 353 4231 
Q 366 4300 384 4336 
Q 403 4372 459 4372 
L 2022 4372 
Q 2056 4372 2072 4347 
Q 2088 4322 2088 4288 
Q 2063 4147 2003 4147 
Q 1503 4147 1472 3975 
L 1894 628 
L 3866 3775 
Q 3922 3881 3922 3944 
Q 3922 4056 3820 4101 
Q 3719 4147 3584 4147 
Q 3519 4147 3519 4231 
Q 3531 4281 3540 4309 
Q 3550 4338 3569 4355 
Q 3588 4372 3628 4372 
L 4863 4372 
Q 4922 4372 4922 4288 
Q 4897 4147 4838 4147 
Q 4356 4147 4084 3725 
Q 4072 3713 4063 3713 
L 1703 -72 
Q 1656 -141 1581 -141 
L 1491 -141 
Q 1419 -141 1409 -72 
z
" transform="scale(0.015625)"/>
      <path id="Cmr10-67" d="M 178 -500 
Q 178 -272 343 -101 
Q 509 69 738 141 
Q 609 238 542 384 
Q 475 531 475 697 
Q 475 997 666 1228 
Q 372 1516 372 1888 
Q 372 2088 458 2263 
Q 544 2438 697 2566 
Q 850 2694 1037 2761 
Q 1225 2828 1422 2828 
Q 1803 2828 2106 2606 
Q 2238 2747 2417 2823 
Q 2597 2900 2791 2900 
Q 2928 2900 3015 2801 
Q 3103 2703 3103 2566 
Q 3103 2488 3043 2428 
Q 2984 2369 2906 2369 
Q 2825 2369 2765 2428 
Q 2706 2488 2706 2566 
Q 2706 2684 2784 2731 
Q 2453 2731 2216 2503 
Q 2331 2388 2401 2220 
Q 2472 2053 2472 1888 
Q 2472 1616 2322 1398 
Q 2172 1181 1926 1061 
Q 1681 941 1422 941 
Q 1072 941 781 1131 
Q 691 1006 691 850 
Q 691 681 802 554 
Q 913 428 1081 428 
L 1606 428 
Q 1988 428 2294 359 
Q 2600 291 2808 84 
Q 3016 -122 3016 -500 
Q 3016 -781 2778 -967 
Q 2541 -1153 2211 -1236 
Q 1881 -1319 1600 -1319 
Q 1316 -1319 984 -1236 
Q 653 -1153 415 -967 
Q 178 -781 178 -500 
z
M 538 -500 
Q 538 -716 713 -861 
Q 888 -1006 1134 -1076 
Q 1381 -1147 1600 -1147 
Q 1816 -1147 2062 -1076 
Q 2309 -1006 2482 -861 
Q 2656 -716 2656 -500 
Q 2656 -166 2350 -67 
Q 2044 31 1606 31 
L 1081 31 
Q 934 31 811 -39 
Q 688 -109 613 -236 
Q 538 -363 538 -500 
z
M 1422 1113 
Q 1966 1113 1966 1888 
Q 1966 2222 1850 2439 
Q 1734 2656 1422 2656 
Q 1109 2656 993 2439 
Q 878 2222 878 1888 
Q 878 1675 922 1503 
Q 966 1331 1084 1222 
Q 1203 1113 1422 1113 
z
" transform="scale(0.015625)"/>
      <path id="Cmr10-3d" d="M 481 850 
Q 428 850 393 890 
Q 359 931 359 978 
Q 359 1031 393 1068 
Q 428 1106 481 1106 
L 4500 1106 
Q 4547 1106 4581 1068 
Q 4616 1031 4616 978 
Q 4616 931 4581 890 
Q 4547 850 4500 850 
L 481 850 
z
M 481 2094 
Q 428 2094 393 2131 
Q 359 2169 359 2222 
Q 359 2269 393 2309 
Q 428 2350 481 2350 
L 4500 2350 
Q 4547 2350 4581 2309 
Q 4616 2269 4616 2222 
Q 4616 2169 4581 2131 
Q 4547 2094 4500 2094 
L 481 2094 
z
" transform="scale(0.015625)"/>
      <path id="Cmsy10-a1" d="M 653 1472 
Q 600 1472 565 1512 
Q 531 1553 531 1600 
Q 531 1647 565 1687 
Q 600 1728 653 1728 
L 4325 1728 
Q 4375 1728 4408 1687 
Q 4441 1647 4441 1600 
Q 4441 1553 4408 1512 
Q 4375 1472 4325 1472 
L 653 1472 
z
" transform="scale(0.015625)"/>
      <path id="Cmr10-32" d="M 319 0 
L 319 172 
Q 319 188 331 206 
L 1325 1306 
Q 1550 1550 1690 1715 
Q 1831 1881 1968 2097 
Q 2106 2313 2186 2536 
Q 2266 2759 2266 3009 
Q 2266 3272 2169 3511 
Q 2072 3750 1880 3894 
Q 1688 4038 1416 4038 
Q 1138 4038 916 3870 
Q 694 3703 603 3438 
Q 628 3444 672 3444 
Q 816 3444 917 3347 
Q 1019 3250 1019 3097 
Q 1019 2950 917 2848 
Q 816 2747 672 2747 
Q 522 2747 420 2851 
Q 319 2956 319 3097 
Q 319 3338 409 3548 
Q 500 3759 670 3923 
Q 841 4088 1055 4175 
Q 1269 4263 1509 4263 
Q 1875 4263 2190 4108 
Q 2506 3953 2690 3670 
Q 2875 3388 2875 3009 
Q 2875 2731 2753 2481 
Q 2631 2231 2440 2026 
Q 2250 1822 1953 1562 
Q 1656 1303 1563 1216 
L 838 519 
L 1453 519 
Q 1906 519 2211 526 
Q 2516 534 2534 550 
Q 2609 631 2688 1141 
L 2875 1141 
L 2694 0 
L 319 0 
z
" transform="scale(0.015625)"/>
      <path id="Cmmi10-3a" d="M 538 353 
Q 538 497 644 600 
Q 750 703 891 703 
Q 978 703 1062 656 
Q 1147 609 1194 525 
Q 1241 441 1241 353 
Q 1241 213 1137 106 
Q 1034 0 891 0 
Q 750 0 644 106 
Q 538 213 538 353 
z
" transform="scale(0.015625)"/>
      <path id="ArialMT-20" transform="scale(0.015625)"/>
      <path id="ArialMT-56" d="M 1803 0 
L 28 4581 
L 684 4581 
L 1875 1253 
Q 2019 853 2116 503 
Q 2222 878 2363 1253 
L 3600 4581 
L 4219 4581 
L 2425 0 
L 1803 0 
z
" transform="scale(0.015625)"/>
     </defs>
     <use xlink:href="#Cmmi10-56" transform="translate(0 0.421875)"/>
     <use xlink:href="#Cmr10-67" transform="translate(58.300781 -16.584375) scale(0.7)"/>
     <use xlink:href="#Cmr10-3d" transform="translate(117.236719 0.421875)"/>
     <use xlink:href="#Cmsy10-a1" transform="translate(230.039453 0.421875)"/>
     <use xlink:href="#Cmr10-32" transform="translate(325.283594 0.421875)"/>
     <use xlink:href="#Cmmi10-3a" transform="translate(375.283594 0.421875)"/>
     <use xlink:href="#Cmr10-32" transform="translate(402.969141 0.421875)"/>
     <use xlink:href="#ArialMT-20" transform="translate(452.969141 0.421875)"/>
     <use xlink:href="#ArialMT-56" transform="translate(480.752344 0.421875)"/>
    </g>
   </g>
  </g>
  <g id="axes_2">
   <g id="patch_7">
    <path d="M 57.81 130.652075 
L 155.460937 130.652075 
L 155.460937 56.574895 
L 57.81 56.574895 
L 57.81 130.652075 
z
" style="fill: none"/>
   </g>
   <g id="matplotlib.axis_3">
    <g id="xtick_6">
     <g id="line2d_11">
      <g>
       <use xlink:href="#ma49b3cf550" x="62.248679" y="130.652075" style="stroke: #000000; stroke-width: 0.5"/>
      </g>
     </g>
     <g id="text_6">
      <!-- $-\pi$ -->
      <g transform="translate(56.625929 140.114533) scale(0.0833 -0.0833)">
       <defs>
        <path id="Cmmi10-bc" d="M 647 109 
Q 647 144 672 213 
Q 850 584 1004 942 
Q 1159 1300 1282 1639 
Q 1406 1978 1509 2363 
L 1100 2363 
Q 866 2363 662 2216 
Q 459 2069 325 1844 
Q 313 1819 288 1819 
L 213 1819 
Q 153 1819 153 1881 
Q 153 1894 166 1919 
Q 375 2275 614 2517 
Q 853 2759 1153 2759 
L 3475 2759 
Q 3541 2759 3587 2715 
Q 3634 2672 3634 2597 
Q 3634 2503 3567 2433 
Q 3500 2363 3406 2363 
L 2591 2363 
Q 2488 1859 2478 1381 
Q 2478 766 2694 269 
Q 2713 231 2713 191 
Q 2713 122 2672 62 
Q 2631 3 2567 -34 
Q 2503 -72 2431 -72 
Q 2263 -72 2200 203 
Q 2138 478 2138 738 
Q 2138 1103 2200 1442 
Q 2263 1781 2400 2363 
L 1703 2363 
Q 1197 313 1094 103 
Q 1003 -72 844 -72 
Q 766 -72 706 -20 
Q 647 31 647 109 
z
" transform="scale(0.015625)"/>
       </defs>
       <use xlink:href="#Cmsy10-a1" transform="translate(0 0.890625)"/>
       <use xlink:href="#Cmmi10-bc" transform="translate(77.685547 0.890625)"/>
      </g>
     </g>
    </g>
    <g id="xtick_7">
     <g id="line2d_12">
      <g>
       <use xlink:href="#ma49b3cf550" x="85.407004" y="130.652075" style="stroke: #000000; stroke-width: 0.5"/>
      </g>
     </g>
     <g id="text_7">
      <!-- $-\frac{\pi}{2}$ -->
      <g transform="translate(79.950854 139.899775) scale(0.0833 -0.0833)">
       <use xlink:href="#Cmsy10-a1" transform="translate(0 0.535938)"/>
       <use xlink:href="#Cmmi10-bc" transform="translate(77.685547 38.823437) scale(0.7)"/>
       <use xlink:href="#Cmr10-32" transform="translate(79.685547 -39.840625) scale(0.7)"/>
       <path d="M 77.685547 13.035937 
L 77.685547 19.285937 
L 117.573242 19.285937 
L 117.573242 13.035937 
L 77.685547 13.035937 
z
"/>
      </g>
     </g>
    </g>
    <g id="xtick_8">
     <g id="line2d_13">
      <g>
       <use xlink:href="#ma49b3cf550" x="108.565329" y="130.652075" style="stroke: #000000; stroke-width: 0.5"/>
      </g>
     </g>
     <g id="text_8">
      <!-- 0 -->
      <g transform="translate(106.249198 140.114533) scale(0.0833 -0.0833)">
       <use xlink:href="#ArialMT-30"/>
      </g>
     </g>
    </g>
    <g id="xtick_9">
     <g id="line2d_14">
      <g>
       <use xlink:href="#ma49b3cf550" x="131.723654" y="130.652075" style="stroke: #000000; stroke-width: 0.5"/>
      </g>
     </g>
     <g id="text_9">
      <!-- $\frac{\pi}{2}$ -->
      <g transform="translate(129.516204 139.899775) scale(0.0833 -0.0833)">
       <use xlink:href="#Cmmi10-bc" transform="translate(0 38.823437) scale(0.7)"/>
       <use xlink:href="#Cmr10-32" transform="translate(2 -39.840625) scale(0.7)"/>
       <path d="M 0 13.035937 
L 0 19.285937 
L 39.887695 19.285937 
L 39.887695 13.035937 
L 0 13.035937 
z
"/>
      </g>
     </g>
    </g>
    <g id="xtick_10">
     <g id="line2d_15">
      <g>
       <use xlink:href="#ma49b3cf550" x="154.881979" y="130.652075" style="stroke: #000000; stroke-width: 0.5"/>
      </g>
     </g>
     <g id="text_10">
      <!-- $\pi$ -->
      <g transform="translate(152.507929 140.114533) scale(0.0833 -0.0833)">
       <use xlink:href="#Cmmi10-bc" transform="translate(0 0.890625)"/>
      </g>
     </g>
    </g>
    <g id="text_11">
     <!-- $\theta$ -->
     <g transform="translate(104.285468 154.472887) scale(0.1 -0.1)">
      <defs>
       <path id="Cmmi10-b5" d="M 1031 -72 
Q 741 -72 566 140 
Q 391 353 323 653 
Q 256 953 256 1247 
L 256 1253 
Q 256 1572 317 1915 
Q 378 2259 493 2601 
Q 609 2944 744 3213 
Q 838 3400 986 3631 
Q 1134 3863 1317 4064 
Q 1500 4266 1711 4389 
Q 1922 4513 2138 4513 
L 2144 4513 
Q 2375 4513 2529 4384 
Q 2684 4256 2770 4056 
Q 2856 3856 2890 3628 
Q 2925 3400 2925 3194 
Q 2925 2709 2794 2204 
Q 2663 1700 2431 1228 
Q 2344 1050 2189 809 
Q 2034 569 1861 378 
Q 1688 188 1472 58 
Q 1256 -72 1038 -72 
L 1031 -72 
z
M 1044 97 
Q 1256 97 1451 323 
Q 1647 550 1794 873 
Q 1941 1197 2052 1536 
Q 2163 1875 2216 2113 
L 909 2113 
Q 809 1709 753 1417 
Q 697 1125 697 844 
Q 697 97 1044 97 
z
M 959 2338 
L 2272 2338 
Q 2341 2619 2381 2808 
Q 2422 2997 2450 3206 
Q 2478 3416 2478 3597 
Q 2478 4347 2138 4347 
Q 1731 4347 1436 3692 
Q 1141 3038 959 2338 
z
" transform="scale(0.015625)"/>
      </defs>
      <use xlink:href="#Cmmi10-b5" transform="translate(0 0.484375)"/>
     </g>
    </g>
   </g>
   <g id="matplotlib.axis_4">
    <g id="ytick_4">
     <g id="line2d_16">
      <g>
       <use xlink:href="#m97df4974f2" x="57.81" y="121.449848" style="stroke: #000000; stroke-width: 0.5"/>
      </g>
     </g>
     <g id="text_12">
      <!-- −0.002 -->
      <g transform="translate(28.601538 124.431077) scale(0.0833 -0.0833)">
       <defs>
        <path id="ArialMT-32" d="M 3222 541 
L 3222 0 
L 194 0 
Q 188 203 259 391 
Q 375 700 629 1000 
Q 884 1300 1366 1694 
Q 2113 2306 2375 2664 
Q 2638 3022 2638 3341 
Q 2638 3675 2398 3904 
Q 2159 4134 1775 4134 
Q 1369 4134 1125 3890 
Q 881 3647 878 3216 
L 300 3275 
Q 359 3922 746 4261 
Q 1134 4600 1788 4600 
Q 2447 4600 2831 4234 
Q 3216 3869 3216 3328 
Q 3216 3053 3103 2787 
Q 2991 2522 2730 2228 
Q 2469 1934 1863 1422 
Q 1356 997 1212 845 
Q 1069 694 975 541 
L 3222 541 
z
" transform="scale(0.015625)"/>
       </defs>
       <use xlink:href="#ArialMT-2212"/>
       <use xlink:href="#ArialMT-30" x="58.398438"/>
       <use xlink:href="#ArialMT-2e" x="114.013672"/>
       <use xlink:href="#ArialMT-30" x="141.796875"/>
       <use xlink:href="#ArialMT-30" x="197.412109"/>
       <use xlink:href="#ArialMT-32" x="253.027344"/>
      </g>
     </g>
    </g>
    <g id="ytick_5">
     <g id="line2d_17">
      <g>
       <use xlink:href="#m97df4974f2" x="57.81" y="100.57645" style="stroke: #000000; stroke-width: 0.5"/>
      </g>
     </g>
     <g id="text_13">
      <!-- 0.000 -->
      <g transform="translate(33.466778 103.557679) scale(0.0833 -0.0833)">
       <use xlink:href="#ArialMT-30"/>
       <use xlink:href="#ArialMT-2e" x="55.615234"/>
       <use xlink:href="#ArialMT-30" x="83.398438"/>
       <use xlink:href="#ArialMT-30" x="139.013672"/>
       <use xlink:href="#ArialMT-30" x="194.628906"/>
      </g>
     </g>
    </g>
    <g id="ytick_6">
     <g id="line2d_18">
      <g>
       <use xlink:href="#m97df4974f2" x="57.81" y="79.703052" style="stroke: #000000; stroke-width: 0.5"/>
      </g>
     </g>
     <g id="text_14">
      <!-- 0.002 -->
      <g transform="translate(33.466778 82.684281) scale(0.0833 -0.0833)">
       <use xlink:href="#ArialMT-30"/>
       <use xlink:href="#ArialMT-2e" x="55.615234"/>
       <use xlink:href="#ArialMT-30" x="83.398438"/>
       <use xlink:href="#ArialMT-30" x="139.013672"/>
       <use xlink:href="#ArialMT-32" x="194.628906"/>
      </g>
     </g>
    </g>
    <g id="ytick_7">
     <g id="line2d_19">
      <g>
       <use xlink:href="#m97df4974f2" x="57.81" y="58.829654" style="stroke: #000000; stroke-width: 0.5"/>
      </g>
     </g>
     <g id="text_15">
      <!-- 0.004 -->
      <g transform="translate(33.466778 61.810883) scale(0.0833 -0.0833)">
       <defs>
        <path id="ArialMT-34" d="M 2069 0 
L 2069 1097 
L 81 1097 
L 81 1613 
L 2172 4581 
L 2631 4581 
L 2631 1613 
L 3250 1613 
L 3250 1097 
L 2631 1097 
L 2631 0 
L 2069 0 
z
M 2069 1613 
L 2069 3678 
L 634 1613 
L 2069 1613 
z
" transform="scale(0.015625)"/>
       </defs>
       <use xlink:href="#ArialMT-30"/>
       <use xlink:href="#ArialMT-2e" x="55.615234"/>
       <use xlink:href="#ArialMT-30" x="83.398438"/>
       <use xlink:href="#ArialMT-30" x="139.013672"/>
       <use xlink:href="#ArialMT-34" x="194.628906"/>
      </g>
     </g>
    </g>
    <g id="text_16">
     <!-- $\eta$ -->
     <g transform="translate(22.401538 96.113485) rotate(-90) scale(0.1 -0.1)">
      <defs>
       <path id="Cmmi10-b4" d="M 684 -72 
Q 606 -72 550 -22 
Q 494 28 494 109 
Q 494 147 500 166 
L 978 2075 
Q 1025 2253 1025 2388 
Q 1025 2663 838 2663 
Q 638 2663 541 2423 
Q 444 2184 353 1819 
Q 353 1800 334 1789 
Q 316 1778 300 1778 
L 225 1778 
Q 203 1778 187 1801 
Q 172 1825 172 1844 
Q 241 2122 305 2315 
Q 369 2509 505 2668 
Q 641 2828 844 2828 
Q 1081 2828 1267 2678 
Q 1453 2528 1453 2291 
Q 1641 2541 1894 2684 
Q 2147 2828 2444 2828 
Q 2778 2828 2979 2648 
Q 3181 2469 3181 2138 
Q 3181 1947 3138 1784 
L 2394 -1178 
Q 2375 -1269 2300 -1325 
Q 2225 -1381 2131 -1381 
Q 2053 -1381 1997 -1332 
Q 1941 -1284 1941 -1203 
Q 1941 -1166 1947 -1153 
L 2681 1797 
Q 2747 2059 2747 2234 
Q 2747 2413 2672 2538 
Q 2597 2663 2431 2663 
Q 1803 2663 1388 1888 
L 953 141 
Q 931 53 854 -9 
Q 778 -72 684 -72 
z
" transform="scale(0.015625)"/>
      </defs>
      <use xlink:href="#Cmmi10-b4" transform="translate(0 0.8125)"/>
     </g>
    </g>
   </g>
   <g id="LineCollection_2">
    <path d="M 131.723654 92.473798 
L 131.723654 84.674326 
" clip-path="url(#pb796eb42de)" style="fill: none; stroke: #1f77b4"/>
    <path d="M 135.583375 93.748915 
L 135.583375 88.015314 
" clip-path="url(#pb796eb42de)" style="fill: none; stroke: #1f77b4"/>
    <path d="M 139.443095 95.164797 
L 139.443095 88.551868 
" clip-path="url(#pb796eb42de)" style="fill: none; stroke: #1f77b4"/>
    <path d="M 143.302816 91.428563 
L 143.302816 82.907448 
" clip-path="url(#pb796eb42de)" style="fill: none; stroke: #1f77b4"/>
    <path d="M 147.162537 92.707729 
L 147.162537 86.701634 
" clip-path="url(#pb796eb42de)" style="fill: none; stroke: #1f77b4"/>
    <path d="M 151.022258 100.290749 
L 151.022258 93.404717 
" clip-path="url(#pb796eb42de)" style="fill: none; stroke: #1f77b4"/>
    <path d="M 62.248679 110.070949 
L 62.248679 103.482437 
" clip-path="url(#pb796eb42de)" style="fill: none; stroke: #1f77b4"/>
    <path d="M 66.1084 121.384205 
L 66.1084 114.848006 
" clip-path="url(#pb796eb42de)" style="fill: none; stroke: #1f77b4"/>
    <path d="M 69.968121 127.28493 
L 69.968121 120.501292 
" clip-path="url(#pb796eb42de)" style="fill: none; stroke: #1f77b4"/>
    <path d="M 73.827841 123.091846 
L 73.827841 117.072183 
" clip-path="url(#pb796eb42de)" style="fill: none; stroke: #1f77b4"/>
    <path d="M 77.687562 114.890944 
L 77.687562 109.835612 
" clip-path="url(#pb796eb42de)" style="fill: none; stroke: #1f77b4"/>
    <path d="M 81.547283 105.20399 
L 81.547283 99.263264 
" clip-path="url(#pb796eb42de)" style="fill: none; stroke: #1f77b4"/>
    <path d="M 85.407004 100.006668 
L 85.407004 92.629891 
" clip-path="url(#pb796eb42de)" style="fill: none; stroke: #1f77b4"/>
    <path d="M 89.266725 101.442732 
L 89.266725 93.594 
" clip-path="url(#pb796eb42de)" style="fill: none; stroke: #1f77b4"/>
    <path d="M 93.126446 100.519513 
L 93.126446 94.30935 
" clip-path="url(#pb796eb42de)" style="fill: none; stroke: #1f77b4"/>
    <path d="M 96.986166 105.624271 
L 96.986166 97.781409 
" clip-path="url(#pb796eb42de)" style="fill: none; stroke: #1f77b4"/>
    <path d="M 100.845887 101.711351 
L 100.845887 96.72138 
" clip-path="url(#pb796eb42de)" style="fill: none; stroke: #1f77b4"/>
    <path d="M 104.705608 95.409474 
L 104.705608 86.743375 
" clip-path="url(#pb796eb42de)" style="fill: none; stroke: #1f77b4"/>
    <path d="M 108.565329 84.949595 
L 108.565329 77.78022 
" clip-path="url(#pb796eb42de)" style="fill: none; stroke: #1f77b4"/>
    <path d="M 112.42505 74.57447 
L 112.42505 66.709601 
" clip-path="url(#pb796eb42de)" style="fill: none; stroke: #1f77b4"/>
    <path d="M 116.28477 66.619107 
L 116.28477 59.94204 
" clip-path="url(#pb796eb42de)" style="fill: none; stroke: #1f77b4"/>
    <path d="M 120.144491 68.479994 
L 120.144491 62.192292 
" clip-path="url(#pb796eb42de)" style="fill: none; stroke: #1f77b4"/>
    <path d="M 124.004212 75.99612 
L 124.004212 67.189862 
" clip-path="url(#pb796eb42de)" style="fill: none; stroke: #1f77b4"/>
    <path d="M 127.863933 81.916838 
L 127.863933 76.234237 
" clip-path="url(#pb796eb42de)" style="fill: none; stroke: #1f77b4"/>
    <path d="M 131.723654 90.034528 
L 131.723654 83.193791 
" clip-path="url(#pb796eb42de)" style="fill: none; stroke: #1f77b4"/>
   </g>
   <g id="line2d_20">
    <path d="M 62.248679 106.579682 
L 63.145382 109.225957 
L 64.042085 111.787761 
L 64.938787 114.203356 
L 65.83549 116.414125 
L 66.732193 118.366439 
L 67.628896 120.013361 
L 68.525599 121.316143 
L 69.422301 122.245451 
L 70.319004 122.782288 
L 71.215707 122.91858 
L 72.11241 122.65741 
L 73.009113 122.012886 
L 73.905816 121.009651 
L 74.802518 119.682058 
L 75.699221 118.073018 
L 76.595924 116.232587 
L 77.492627 114.216313 
L 78.38933 112.08341 
L 79.286032 109.894827 
L 80.182735 107.711253 
L 81.079438 105.591153 
L 81.976141 103.588875 
L 82.872844 101.752906 
L 83.769547 100.12433 
L 84.666249 98.735534 
L 85.562952 97.609215 
L 86.459655 96.757716 
L 87.356358 96.182702 
L 88.253061 95.875209 
L 89.149763 95.816044 
L 90.046466 95.976528 
L 90.943169 96.319566 
L 91.839872 96.800992 
L 92.736575 97.37116 
L 93.633278 97.976715 
L 94.52998 98.562492 
L 95.426683 99.073476 
L 96.323386 99.456764 
L 97.220089 99.66345 
L 98.116792 99.650384 
L 99.013494 99.381742 
L 99.910197 98.830342 
L 100.8069 97.97869 
L 101.703603 96.819684 
L 102.600306 95.356987 
L 103.497009 93.60503 
L 104.393711 91.588662 
L 105.290414 89.342446 
L 106.187117 86.909634 
L 107.08382 84.340843 
L 107.980523 81.692489 
L 108.877225 79.02502 
L 109.773928 76.40101 
L 110.670631 73.883177 
L 111.567334 71.532393 
L 112.464037 69.405746 
L 113.36074 67.55472 
L 114.257442 66.023561 
L 115.154145 64.847866 
L 116.050848 64.053463 
L 116.947551 63.655597 
L 117.844254 63.65847 
L 118.740956 64.055131 
L 119.637659 64.827735 
L 120.534362 65.94815 
L 121.431065 67.378901 
L 122.327768 69.074419 
L 123.22447 70.982539 
L 124.121173 73.046226 
L 125.017876 75.205438 
L 125.914579 77.39909 
L 126.811282 79.567046 
L 127.707985 81.652065 
L 128.604687 83.601648 
L 129.50139 85.369722 
L 130.398093 86.918094 
L 131.294796 88.217651 
L 132.191499 89.249239 
L 133.088201 90.004212 
L 133.984904 90.484625 
L 134.881607 90.703064 
L 135.77831 90.682122 
L 136.675013 90.453543 
L 137.571716 90.057046 
L 138.468418 89.538894 
L 139.365121 88.950232 
L 140.261824 88.345266 
L 141.158527 87.779331 
L 142.05523 87.306928 
L 142.951932 86.979778 
L 143.848635 86.844975 
L 144.745338 86.943289 
L 145.642041 87.307674 
L 146.538744 87.962043 
L 147.435447 88.92034 
L 148.332149 90.185945 
L 149.228852 91.751433 
L 150.125555 93.598691 
L 151.022258 95.699393 
" clip-path="url(#pb796eb42de)" style="fill: none; stroke: #ff7f0e; stroke-linecap: square"/>
   </g>
   <g id="line2d_21">
    <g clip-path="url(#pb796eb42de)">
     <use xlink:href="#m6ba834c7a3" x="131.723654" y="88.574062" style="fill: #1f77b4; stroke: #1f77b4; stroke-width: 0.5"/>
     <use xlink:href="#m6ba834c7a3" x="135.583375" y="90.882115" style="fill: #1f77b4; stroke: #1f77b4; stroke-width: 0.5"/>
     <use xlink:href="#m6ba834c7a3" x="139.443095" y="91.858332" style="fill: #1f77b4; stroke: #1f77b4; stroke-width: 0.5"/>
     <use xlink:href="#m6ba834c7a3" x="143.302816" y="87.168005" style="fill: #1f77b4; stroke: #1f77b4; stroke-width: 0.5"/>
     <use xlink:href="#m6ba834c7a3" x="147.162537" y="89.704682" style="fill: #1f77b4; stroke: #1f77b4; stroke-width: 0.5"/>
     <use xlink:href="#m6ba834c7a3" x="151.022258" y="96.847733" style="fill: #1f77b4; stroke: #1f77b4; stroke-width: 0.5"/>
     <use xlink:href="#m6ba834c7a3" x="62.248679" y="106.776693" style="fill: #1f77b4; stroke: #1f77b4; stroke-width: 0.5"/>
     <use xlink:href="#m6ba834c7a3" x="66.1084" y="118.116105" style="fill: #1f77b4; stroke: #1f77b4; stroke-width: 0.5"/>
     <use xlink:href="#m6ba834c7a3" x="69.968121" y="123.893111" style="fill: #1f77b4; stroke: #1f77b4; stroke-width: 0.5"/>
     <use xlink:href="#m6ba834c7a3" x="73.827841" y="120.082014" style="fill: #1f77b4; stroke: #1f77b4; stroke-width: 0.5"/>
     <use xlink:href="#m6ba834c7a3" x="77.687562" y="112.363278" style="fill: #1f77b4; stroke: #1f77b4; stroke-width: 0.5"/>
     <use xlink:href="#m6ba834c7a3" x="81.547283" y="102.233627" style="fill: #1f77b4; stroke: #1f77b4; stroke-width: 0.5"/>
     <use xlink:href="#m6ba834c7a3" x="85.407004" y="96.31828" style="fill: #1f77b4; stroke: #1f77b4; stroke-width: 0.5"/>
     <use xlink:href="#m6ba834c7a3" x="89.266725" y="97.518366" style="fill: #1f77b4; stroke: #1f77b4; stroke-width: 0.5"/>
     <use xlink:href="#m6ba834c7a3" x="93.126446" y="97.414432" style="fill: #1f77b4; stroke: #1f77b4; stroke-width: 0.5"/>
     <use xlink:href="#m6ba834c7a3" x="96.986166" y="101.70284" style="fill: #1f77b4; stroke: #1f77b4; stroke-width: 0.5"/>
     <use xlink:href="#m6ba834c7a3" x="100.845887" y="99.216366" style="fill: #1f77b4; stroke: #1f77b4; stroke-width: 0.5"/>
     <use xlink:href="#m6ba834c7a3" x="104.705608" y="91.076425" style="fill: #1f77b4; stroke: #1f77b4; stroke-width: 0.5"/>
     <use xlink:href="#m6ba834c7a3" x="108.565329" y="81.364908" style="fill: #1f77b4; stroke: #1f77b4; stroke-width: 0.5"/>
     <use xlink:href="#m6ba834c7a3" x="112.42505" y="70.642035" style="fill: #1f77b4; stroke: #1f77b4; stroke-width: 0.5"/>
     <use xlink:href="#m6ba834c7a3" x="116.28477" y="63.280574" style="fill: #1f77b4; stroke: #1f77b4; stroke-width: 0.5"/>
     <use xlink:href="#m6ba834c7a3" x="120.144491" y="65.336143" style="fill: #1f77b4; stroke: #1f77b4; stroke-width: 0.5"/>
     <use xlink:href="#m6ba834c7a3" x="124.004212" y="71.592991" style="fill: #1f77b4; stroke: #1f77b4; stroke-width: 0.5"/>
     <use xlink:href="#m6ba834c7a3" x="127.863933" y="79.075538" style="fill: #1f77b4; stroke: #1f77b4; stroke-width: 0.5"/>
     <use xlink:href="#m6ba834c7a3" x="131.723654" y="86.614159" style="fill: #1f77b4; stroke: #1f77b4; stroke-width: 0.5"/>
    </g>
   </g>
   <g id="patch_8">
    <path d="M 57.81 130.652075 
L 57.81 56.574895 
" style="fill: none; stroke: #000000; stroke-width: 0.5; stroke-linejoin: miter; stroke-linecap: square"/>
   </g>
   <g id="patch_9">
    <path d="M 155.460937 130.652075 
L 155.460937 56.574895 
" style="fill: none; stroke: #000000; stroke-width: 0.5; stroke-linejoin: miter; stroke-linecap: square"/>
   </g>
   <g id="patch_10">
    <path d="M 57.81 130.652075 
L 155.460937 130.652075 
" style="fill: none; stroke: #000000; stroke-width: 0.5; stroke-linejoin: miter; stroke-linecap: square"/>
   </g>
   <g id="patch_11">
    <path d="M 57.81 56.574895 
L 155.460937 56.574895 
" style="fill: none; stroke: #000000; stroke-width: 0.5; stroke-linejoin: miter; stroke-linecap: square"/>
   </g>
   <g id="legend_1">
    <g id="patch_12">
     <path d="M 62.668 81.760589 
L 105.318637 81.760589 
Q 106.706637 81.760589 106.706637 80.372589 
L 106.706637 61.432895 
Q 106.706637 60.044895 105.318637 60.044895 
L 62.668 60.044895 
Q 61.28 60.044895 61.28 61.432895 
L 61.28 80.372589 
Q 61.28 81.760589 62.668 81.760589 
z
" style="fill: #ffffff; opacity: 0.8; stroke: #cccccc; stroke-linejoin: miter"/>
    </g>
    <g id="line2d_22">
     <path d="M 64.056 65.359417 
L 70.996 65.359417 
L 77.936 65.359417 
" style="fill: none; stroke: #ff7f0e; stroke-linecap: square"/>
    </g>
    <g id="text_17">
     <!-- best fit -->
     <g transform="translate(83.488 67.788417) scale(0.0694 -0.0694)">
      <defs>
       <path id="ArialMT-62" d="M 941 0 
L 419 0 
L 419 4581 
L 981 4581 
L 981 2947 
Q 1338 3394 1891 3394 
Q 2197 3394 2470 3270 
Q 2744 3147 2920 2923 
Q 3097 2700 3197 2384 
Q 3297 2069 3297 1709 
Q 3297 856 2875 390 
Q 2453 -75 1863 -75 
Q 1275 -75 941 416 
L 941 0 
z
M 934 1684 
Q 934 1088 1097 822 
Q 1363 388 1816 388 
Q 2184 388 2453 708 
Q 2722 1028 2722 1663 
Q 2722 2313 2464 2622 
Q 2206 2931 1841 2931 
Q 1472 2931 1203 2611 
Q 934 2291 934 1684 
z
" transform="scale(0.015625)"/>
       <path id="ArialMT-74" d="M 1650 503 
L 1731 6 
Q 1494 -44 1306 -44 
Q 1000 -44 831 53 
Q 663 150 594 308 
Q 525 466 525 972 
L 525 2881 
L 113 2881 
L 113 3319 
L 525 3319 
L 525 4141 
L 1084 4478 
L 1084 3319 
L 1650 3319 
L 1650 2881 
L 1084 2881 
L 1084 941 
Q 1084 700 1114 631 
Q 1144 563 1211 522 
Q 1278 481 1403 481 
Q 1497 481 1650 503 
z
" transform="scale(0.015625)"/>
       <path id="ArialMT-66" d="M 556 0 
L 556 2881 
L 59 2881 
L 59 3319 
L 556 3319 
L 556 3672 
Q 556 4006 616 4169 
Q 697 4388 901 4523 
Q 1106 4659 1475 4659 
Q 1713 4659 2000 4603 
L 1916 4113 
Q 1741 4144 1584 4144 
Q 1328 4144 1222 4034 
Q 1116 3925 1116 3625 
L 1116 3319 
L 1763 3319 
L 1763 2881 
L 1116 2881 
L 1116 0 
L 556 0 
z
" transform="scale(0.015625)"/>
      </defs>
      <use xlink:href="#ArialMT-62"/>
      <use xlink:href="#ArialMT-65" x="55.615234"/>
      <use xlink:href="#ArialMT-73" x="111.230469"/>
      <use xlink:href="#ArialMT-74" x="161.230469"/>
      <use xlink:href="#ArialMT-20" x="189.013672"/>
      <use xlink:href="#ArialMT-66" x="216.796875"/>
      <use xlink:href="#ArialMT-69" x="244.580078"/>
      <use xlink:href="#ArialMT-74" x="266.796875"/>
     </g>
    </g>
    <g id="LineCollection_3">
     <path d="M 70.996 78.646264 
L 70.996 71.706264 
" style="fill: none; stroke: #1f77b4"/>
    </g>
    <g id="line2d_23"/>
    <g id="line2d_24">
     <g>
      <use xlink:href="#m6ba834c7a3" x="70.996" y="75.176264" style="fill: #1f77b4; stroke: #1f77b4; stroke-width: 0.5"/>
     </g>
    </g>
    <g id="text_18">
     <!-- data -->
     <g transform="translate(83.488 77.605264) scale(0.0694 -0.0694)">
      <use xlink:href="#ArialMT-64"/>
      <use xlink:href="#ArialMT-61" x="55.615234"/>
      <use xlink:href="#ArialMT-74" x="111.230469"/>
      <use xlink:href="#ArialMT-61" x="139.013672"/>
     </g>
    </g>
   </g>
  </g>
 </g>
 <defs>
  <clipPath id="p8e3b049421">
   <rect x="57.81" y="24.3888" width="97.650937" height="18.519295"/>
  </clipPath>
  <clipPath id="pb796eb42de">
   <rect x="57.81" y="56.574895" width="97.650937" height="74.07718"/>
  </clipPath>
 </defs>
</svg>
