<?xml version="1.0" encoding="utf-8" standalone="no"?>
<!DOCTYPE svg PUBLIC "-//W3C//DTD SVG 1.1//EN"
  "http://www.w3.org/Graphics/SVG/1.1/DTD/svg11.dtd">
<svg xmlns:xlink="http://www.w3.org/1999/xlink" width="168pt" height="201.6pt" viewBox="0 0 168 201.6" xmlns="http://www.w3.org/2000/svg" version="1.1">
 <metadata>
  <rdf:RDF xmlns:dc="http://purl.org/dc/elements/1.1/" xmlns:cc="http://creativecommons.org/ns#" xmlns:rdf="http://www.w3.org/1999/02/22-rdf-syntax-ns#">
   <cc:Work>
    <dc:type rdf:resource="http://purl.org/dc/dcmitype/StillImage"/>
    <dc:date>2024-10-17T18:00:35.451323</dc:date>
    <dc:format>image/svg+xml</dc:format>
    <dc:creator>
     <cc:Agent>
      <dc:title>Matplotlib v3.8.4, https://matplotlib.org/</dc:title>
     </cc:Agent>
    </dc:creator>
   </cc:Work>
  </rdf:RDF>
 </metadata>
 <defs>
  <style type="text/css">*{stroke-linejoin: round; stroke-linecap: butt}</style>
 </defs>
 <g id="figure_1">
  <g id="patch_1">
   <path d="M 0 201.6 
L 168 201.6 
L 168 0 
L 0 0 
L 0 201.6 
z
" style="fill: none"/>
  </g>
  <g id="axes_1">
   <g id="patch_2">
    <path d="M 28.27897 86.028656 
L 164.99976 86.028656 
L 164.99976 3.00024 
L 28.27897 3.00024 
L 28.27897 86.028656 
z
" style="fill: none"/>
   </g>
   <g id="patch_3">
    <path d="M 100.925283 86.028656 
L 100.925283 3.00024 
L 48.958525 3.00024 
L 48.958525 86.028656 
z
" clip-path="url(#p7576500a5e)" style="fill: #2ca02c; opacity: 0.25; stroke: #2ca02c; stroke-linejoin: miter"/>
   </g>
   <g id="matplotlib.axis_1">
    <g id="xtick_1">
     <g id="line2d_1">
      <defs>
       <path id="m8991da1f8d" d="M 0 0 
L 0 -2 
" style="stroke: #000000; stroke-width: 0.5"/>
      </defs>
      <g>
       <use xlink:href="#m8991da1f8d" x="30.207633" y="86.028656" style="stroke: #000000; stroke-width: 0.5"/>
      </g>
     </g>
    </g>
    <g id="xtick_2">
     <g id="line2d_2">
      <g>
       <use xlink:href="#m8991da1f8d" x="73.066815" y="86.028656" style="stroke: #000000; stroke-width: 0.5"/>
      </g>
     </g>
    </g>
    <g id="xtick_3">
     <g id="line2d_3">
      <g>
       <use xlink:href="#m8991da1f8d" x="115.925997" y="86.028656" style="stroke: #000000; stroke-width: 0.5"/>
      </g>
     </g>
    </g>
    <g id="xtick_4">
     <g id="line2d_4">
      <g>
       <use xlink:href="#m8991da1f8d" x="158.785179" y="86.028656" style="stroke: #000000; stroke-width: 0.5"/>
      </g>
     </g>
    </g>
   </g>
   <g id="matplotlib.axis_2">
    <g id="ytick_1">
     <g id="line2d_5">
      <defs>
       <path id="m0376cd75d4" d="M 0 0 
L 2 0 
" style="stroke: #000000; stroke-width: 0.5"/>
      </defs>
      <g>
       <use xlink:href="#m0376cd75d4" x="28.27897" y="83.862787" style="stroke: #000000; stroke-width: 0.5"/>
      </g>
     </g>
     <g id="text_1">
      <!-- 0.0 -->
      <g transform="translate(15.51601 86.24777) scale(0.06664 -0.06664)">
       <defs>
        <path id="ArialMT-30" d="M 266 2259 
Q 266 3072 433 3567 
Q 600 4063 929 4331 
Q 1259 4600 1759 4600 
Q 2128 4600 2406 4451 
Q 2684 4303 2865 4023 
Q 3047 3744 3150 3342 
Q 3253 2941 3253 2259 
Q 3253 1453 3087 958 
Q 2922 463 2592 192 
Q 2263 -78 1759 -78 
Q 1097 -78 719 397 
Q 266 969 266 2259 
z
M 844 2259 
Q 844 1131 1108 757 
Q 1372 384 1759 384 
Q 2147 384 2411 759 
Q 2675 1134 2675 2259 
Q 2675 3391 2411 3762 
Q 2147 4134 1753 4134 
Q 1366 4134 1134 3806 
Q 844 3388 844 2259 
z
" transform="scale(0.015625)"/>
        <path id="ArialMT-2e" d="M 581 0 
L 581 641 
L 1222 641 
L 1222 0 
L 581 0 
z
" transform="scale(0.015625)"/>
       </defs>
       <use xlink:href="#ArialMT-30"/>
       <use xlink:href="#ArialMT-2e" x="55.615234"/>
       <use xlink:href="#ArialMT-30" x="83.398438"/>
      </g>
     </g>
    </g>
    <g id="ytick_2">
     <g id="line2d_6">
      <g>
       <use xlink:href="#m0376cd75d4" x="28.27897" y="67.07038" style="stroke: #000000; stroke-width: 0.5"/>
      </g>
     </g>
     <g id="text_2">
      <!-- 0.2 -->
      <g transform="translate(15.51601 69.455363) scale(0.06664 -0.06664)">
       <defs>
        <path id="ArialMT-32" d="M 3222 541 
L 3222 0 
L 194 0 
Q 188 203 259 391 
Q 375 700 629 1000 
Q 884 1300 1366 1694 
Q 2113 2306 2375 2664 
Q 2638 3022 2638 3341 
Q 2638 3675 2398 3904 
Q 2159 4134 1775 4134 
Q 1369 4134 1125 3890 
Q 881 3647 878 3216 
L 300 3275 
Q 359 3922 746 4261 
Q 1134 4600 1788 4600 
Q 2447 4600 2831 4234 
Q 3216 3869 3216 3328 
Q 3216 3053 3103 2787 
Q 2991 2522 2730 2228 
Q 2469 1934 1863 1422 
Q 1356 997 1212 845 
Q 1069 694 975 541 
L 3222 541 
z
" transform="scale(0.015625)"/>
       </defs>
       <use xlink:href="#ArialMT-30"/>
       <use xlink:href="#ArialMT-2e" x="55.615234"/>
       <use xlink:href="#ArialMT-32" x="83.398438"/>
      </g>
     </g>
    </g>
    <g id="ytick_3">
     <g id="line2d_7">
      <g>
       <use xlink:href="#m0376cd75d4" x="28.27897" y="50.277973" style="stroke: #000000; stroke-width: 0.5"/>
      </g>
     </g>
     <g id="text_3">
      <!-- 0.4 -->
      <g transform="translate(15.51601 52.662956) scale(0.06664 -0.06664)">
       <defs>
        <path id="ArialMT-34" d="M 2069 0 
L 2069 1097 
L 81 1097 
L 81 1613 
L 2172 4581 
L 2631 4581 
L 2631 1613 
L 3250 1613 
L 3250 1097 
L 2631 1097 
L 2631 0 
L 2069 0 
z
M 2069 1613 
L 2069 3678 
L 634 1613 
L 2069 1613 
z
" transform="scale(0.015625)"/>
       </defs>
       <use xlink:href="#ArialMT-30"/>
       <use xlink:href="#ArialMT-2e" x="55.615234"/>
       <use xlink:href="#ArialMT-34" x="83.398438"/>
      </g>
     </g>
    </g>
    <g id="ytick_4">
     <g id="line2d_8">
      <g>
       <use xlink:href="#m0376cd75d4" x="28.27897" y="33.485565" style="stroke: #000000; stroke-width: 0.5"/>
      </g>
     </g>
     <g id="text_4">
      <!-- 0.6 -->
      <g transform="translate(15.51601 35.870549) scale(0.06664 -0.06664)">
       <defs>
        <path id="ArialMT-36" d="M 3184 3459 
L 2625 3416 
Q 2550 3747 2413 3897 
Q 2184 4138 1850 4138 
Q 1581 4138 1378 3988 
Q 1113 3794 959 3422 
Q 806 3050 800 2363 
Q 1003 2672 1297 2822 
Q 1591 2972 1913 2972 
Q 2475 2972 2870 2558 
Q 3266 2144 3266 1488 
Q 3266 1056 3080 686 
Q 2894 316 2569 119 
Q 2244 -78 1831 -78 
Q 1128 -78 684 439 
Q 241 956 241 2144 
Q 241 3472 731 4075 
Q 1159 4600 1884 4600 
Q 2425 4600 2770 4297 
Q 3116 3994 3184 3459 
z
M 888 1484 
Q 888 1194 1011 928 
Q 1134 663 1356 523 
Q 1578 384 1822 384 
Q 2178 384 2434 671 
Q 2691 959 2691 1453 
Q 2691 1928 2437 2201 
Q 2184 2475 1800 2475 
Q 1419 2475 1153 2201 
Q 888 1928 888 1484 
z
" transform="scale(0.015625)"/>
       </defs>
       <use xlink:href="#ArialMT-30"/>
       <use xlink:href="#ArialMT-2e" x="55.615234"/>
       <use xlink:href="#ArialMT-36" x="83.398438"/>
      </g>
     </g>
    </g>
    <g id="ytick_5">
     <g id="line2d_9">
      <g>
       <use xlink:href="#m0376cd75d4" x="28.27897" y="16.693158" style="stroke: #000000; stroke-width: 0.5"/>
      </g>
     </g>
     <g id="text_5">
      <!-- 0.8 -->
      <g transform="translate(15.51601 19.078141) scale(0.06664 -0.06664)">
       <defs>
        <path id="ArialMT-38" d="M 1131 2484 
Q 781 2613 612 2850 
Q 444 3088 444 3419 
Q 444 3919 803 4259 
Q 1163 4600 1759 4600 
Q 2359 4600 2725 4251 
Q 3091 3903 3091 3403 
Q 3091 3084 2923 2848 
Q 2756 2613 2416 2484 
Q 2838 2347 3058 2040 
Q 3278 1734 3278 1309 
Q 3278 722 2862 322 
Q 2447 -78 1769 -78 
Q 1091 -78 675 323 
Q 259 725 259 1325 
Q 259 1772 486 2073 
Q 713 2375 1131 2484 
z
M 1019 3438 
Q 1019 3113 1228 2906 
Q 1438 2700 1772 2700 
Q 2097 2700 2305 2904 
Q 2513 3109 2513 3406 
Q 2513 3716 2298 3927 
Q 2084 4138 1766 4138 
Q 1444 4138 1231 3931 
Q 1019 3725 1019 3438 
z
M 838 1322 
Q 838 1081 952 856 
Q 1066 631 1291 507 
Q 1516 384 1775 384 
Q 2178 384 2440 643 
Q 2703 903 2703 1303 
Q 2703 1709 2433 1975 
Q 2163 2241 1756 2241 
Q 1359 2241 1098 1978 
Q 838 1716 838 1322 
z
" transform="scale(0.015625)"/>
       </defs>
       <use xlink:href="#ArialMT-30"/>
       <use xlink:href="#ArialMT-2e" x="55.615234"/>
       <use xlink:href="#ArialMT-38" x="83.398438"/>
      </g>
     </g>
    </g>
    <g id="text_6">
     <!-- $a_n$ (%) -->
     <g transform="translate(9.75601 55.914448) rotate(-90) scale(0.08 -0.08)">
      <defs>
       <path id="Cmmi10-61" d="M 1113 -72 
Q 709 -72 476 233 
Q 244 538 244 953 
Q 244 1363 456 1803 
Q 669 2244 1030 2536 
Q 1391 2828 1806 2828 
Q 1997 2828 2147 2725 
Q 2297 2622 2381 2444 
Q 2453 2700 2663 2700 
Q 2744 2700 2798 2651 
Q 2853 2603 2853 2522 
Q 2853 2503 2851 2493 
Q 2850 2484 2847 2472 
L 2400 684 
Q 2356 494 2356 372 
Q 2356 97 2541 97 
Q 2741 97 2845 351 
Q 2950 606 3022 941 
Q 3034 978 3072 978 
L 3150 978 
Q 3175 978 3190 956 
Q 3206 934 3206 916 
Q 3094 469 2961 198 
Q 2828 -72 2528 -72 
Q 2313 -72 2147 54 
Q 1981 181 1941 391 
Q 1528 -72 1113 -72 
z
M 1119 97 
Q 1350 97 1567 270 
Q 1784 444 1941 678 
Q 1947 684 1947 697 
L 2291 2088 
L 2297 2106 
Q 2259 2334 2132 2498 
Q 2006 2663 1791 2663 
Q 1575 2663 1389 2486 
Q 1203 2309 1075 2069 
Q 950 1813 836 1366 
Q 722 919 722 672 
Q 722 450 817 273 
Q 913 97 1119 97 
z
" transform="scale(0.015625)"/>
       <path id="Cmmi10-6e" d="M 494 109 
Q 494 147 500 166 
L 978 2075 
Q 1025 2253 1025 2388 
Q 1025 2663 838 2663 
Q 638 2663 541 2423 
Q 444 2184 353 1819 
Q 353 1800 334 1789 
Q 316 1778 300 1778 
L 225 1778 
Q 203 1778 187 1801 
Q 172 1825 172 1844 
Q 241 2122 305 2315 
Q 369 2509 505 2668 
Q 641 2828 844 2828 
Q 1084 2828 1268 2676 
Q 1453 2525 1453 2291 
Q 1644 2541 1900 2684 
Q 2156 2828 2444 2828 
Q 2672 2828 2837 2750 
Q 3003 2672 3095 2514 
Q 3188 2356 3188 2138 
Q 3188 1875 3070 1503 
Q 2953 1131 2778 672 
Q 2688 463 2688 288 
Q 2688 97 2834 97 
Q 3084 97 3251 365 
Q 3419 634 3488 941 
Q 3500 978 3541 978 
L 3616 978 
Q 3641 978 3658 962 
Q 3675 947 3675 922 
Q 3675 916 3669 903 
Q 3581 541 3364 234 
Q 3147 -72 2822 -72 
Q 2597 -72 2437 83 
Q 2278 238 2278 459 
Q 2278 578 2328 709 
Q 2409 919 2514 1209 
Q 2619 1500 2686 1765 
Q 2753 2031 2753 2234 
Q 2753 2413 2679 2538 
Q 2606 2663 2431 2663 
Q 2197 2663 2000 2559 
Q 1803 2456 1656 2286 
Q 1509 2116 1388 1881 
L 953 141 
Q 931 53 854 -9 
Q 778 -72 684 -72 
Q 606 -72 550 -22 
Q 494 28 494 109 
z
" transform="scale(0.015625)"/>
       <path id="ArialMT-20" transform="scale(0.015625)"/>
       <path id="ArialMT-28" d="M 1497 -1347 
Q 1031 -759 709 28 
Q 388 816 388 1659 
Q 388 2403 628 3084 
Q 909 3875 1497 4659 
L 1900 4659 
Q 1522 4009 1400 3731 
Q 1209 3300 1100 2831 
Q 966 2247 966 1656 
Q 966 153 1900 -1347 
L 1497 -1347 
z
" transform="scale(0.015625)"/>
       <path id="ArialMT-25" d="M 372 3481 
Q 372 3972 619 4315 
Q 866 4659 1334 4659 
Q 1766 4659 2048 4351 
Q 2331 4044 2331 3447 
Q 2331 2866 2045 2552 
Q 1759 2238 1341 2238 
Q 925 2238 648 2547 
Q 372 2856 372 3481 
z
M 1350 4272 
Q 1141 4272 1002 4090 
Q 863 3909 863 3425 
Q 863 2984 1003 2804 
Q 1144 2625 1350 2625 
Q 1563 2625 1702 2806 
Q 1841 2988 1841 3469 
Q 1841 3913 1700 4092 
Q 1559 4272 1350 4272 
z
M 1353 -169 
L 3859 4659 
L 4316 4659 
L 1819 -169 
L 1353 -169 
z
M 3334 1075 
Q 3334 1569 3581 1911 
Q 3828 2253 4300 2253 
Q 4731 2253 5014 1945 
Q 5297 1638 5297 1041 
Q 5297 459 5011 145 
Q 4725 -169 4303 -169 
Q 3888 -169 3611 142 
Q 3334 453 3334 1075 
z
M 4316 1866 
Q 4103 1866 3964 1684 
Q 3825 1503 3825 1019 
Q 3825 581 3965 400 
Q 4106 219 4313 219 
Q 4528 219 4667 400 
Q 4806 581 4806 1063 
Q 4806 1506 4665 1686 
Q 4525 1866 4316 1866 
z
" transform="scale(0.015625)"/>
       <path id="ArialMT-29" d="M 791 -1347 
L 388 -1347 
Q 1322 153 1322 1656 
Q 1322 2244 1188 2822 
Q 1081 3291 891 3722 
Q 769 4003 388 4659 
L 791 4659 
Q 1378 3875 1659 3084 
Q 1900 2403 1900 1659 
Q 1900 816 1576 28 
Q 1253 -759 791 -1347 
z
" transform="scale(0.015625)"/>
      </defs>
      <use xlink:href="#Cmmi10-61" transform="translate(0 0.203125)"/>
      <use xlink:href="#Cmmi10-6e" transform="translate(52.783203 -16.803125) scale(0.7)"/>
      <use xlink:href="#ArialMT-20" transform="translate(101.167383 0.203125)"/>
      <use xlink:href="#ArialMT-28" transform="translate(128.950586 0.203125)"/>
      <use xlink:href="#ArialMT-25" transform="translate(162.251367 0.203125)"/>
      <use xlink:href="#ArialMT-29" transform="translate(251.167383 0.203125)"/>
     </g>
    </g>
   </g>
   <g id="LineCollection_1">
    <path d="M 34.493551 11.847888 
L 34.493551 11.167661 
" clip-path="url(#p7576500a5e)" style="fill: none; stroke: #1f77b4"/>
    <path d="M 43.065388 61.277446 
L 43.065388 60.527269 
" clip-path="url(#p7576500a5e)" style="fill: none; stroke: #1f77b4"/>
    <path d="M 46.279826 71.213377 
L 46.279826 70.265687 
" clip-path="url(#p7576500a5e)" style="fill: none; stroke: #1f77b4"/>
    <path d="M 51.637224 64.762112 
L 51.637224 63.836542 
" clip-path="url(#p7576500a5e)" style="fill: none; stroke: #1f77b4"/>
    <path d="M 55.923142 53.653152 
L 55.923142 52.995494 
" clip-path="url(#p7576500a5e)" style="fill: none; stroke: #1f77b4"/>
    <path d="M 68.780897 37.693055 
L 68.780897 37.054293 
" clip-path="url(#p7576500a5e)" style="fill: none; stroke: #1f77b4"/>
    <path d="M 81.638651 38.163085 
L 81.638651 37.367393 
" clip-path="url(#p7576500a5e)" style="fill: none; stroke: #1f77b4"/>
    <path d="M 94.496406 64.253541 
L 94.496406 62.998738 
" clip-path="url(#p7576500a5e)" style="fill: none; stroke: #1f77b4"/>
    <path d="M 103.068242 80.272648 
L 103.068242 79.591166 
" clip-path="url(#p7576500a5e)" style="fill: none; stroke: #1f77b4"/>
    <path d="M 107.35416 62.795874 
L 107.35416 61.884125 
" clip-path="url(#p7576500a5e)" style="fill: none; stroke: #1f77b4"/>
    <path d="M 111.640079 67.964802 
L 111.640079 67.214353 
" clip-path="url(#p7576500a5e)" style="fill: none; stroke: #1f77b4"/>
    <path d="M 120.211915 51.617676 
L 120.211915 51.142171 
" clip-path="url(#p7576500a5e)" style="fill: none; stroke: #1f77b4"/>
    <path d="M 133.06967 32.359848 
L 133.06967 31.88704 
" clip-path="url(#p7576500a5e)" style="fill: none; stroke: #1f77b4"/>
    <path d="M 145.927424 19.269456 
L 145.927424 18.444693 
" clip-path="url(#p7576500a5e)" style="fill: none; stroke: #1f77b4"/>
    <path d="M 158.785179 7.470978 
L 158.785179 6.774259 
" clip-path="url(#p7576500a5e)" style="fill: none; stroke: #1f77b4"/>
   </g>
   <g id="LineCollection_2">
    <path d="M 34.493551 82.254637 
L 34.493551 81.587705 
" clip-path="url(#p7576500a5e)" style="fill: none; stroke: #ff7f0e"/>
    <path d="M 43.065388 81.164907 
L 43.065388 80.423526 
" clip-path="url(#p7576500a5e)" style="fill: none; stroke: #ff7f0e"/>
    <path d="M 46.279826 79.253961 
L 46.279826 78.26066 
" clip-path="url(#p7576500a5e)" style="fill: none; stroke: #ff7f0e"/>
    <path d="M 51.637224 79.537758 
L 51.637224 78.638302 
" clip-path="url(#p7576500a5e)" style="fill: none; stroke: #ff7f0e"/>
    <path d="M 55.923142 79.057269 
L 55.923142 78.352435 
" clip-path="url(#p7576500a5e)" style="fill: none; stroke: #ff7f0e"/>
    <path d="M 68.780897 78.014937 
L 68.780897 77.342504 
" clip-path="url(#p7576500a5e)" style="fill: none; stroke: #ff7f0e"/>
    <path d="M 81.638651 75.603761 
L 81.638651 74.875617 
" clip-path="url(#p7576500a5e)" style="fill: none; stroke: #ff7f0e"/>
    <path d="M 94.496406 75.899623 
L 94.496406 74.724327 
" clip-path="url(#p7576500a5e)" style="fill: none; stroke: #ff7f0e"/>
    <path d="M 103.068242 76.170498 
L 103.068242 75.518552 
" clip-path="url(#p7576500a5e)" style="fill: none; stroke: #ff7f0e"/>
    <path d="M 107.35416 75.642903 
L 107.35416 74.850761 
" clip-path="url(#p7576500a5e)" style="fill: none; stroke: #ff7f0e"/>
    <path d="M 111.640079 76.286424 
L 111.640079 75.543935 
" clip-path="url(#p7576500a5e)" style="fill: none; stroke: #ff7f0e"/>
    <path d="M 120.211915 76.818331 
L 120.211915 76.344368 
" clip-path="url(#p7576500a5e)" style="fill: none; stroke: #ff7f0e"/>
    <path d="M 133.06967 76.848484 
L 133.06967 76.371771 
" clip-path="url(#p7576500a5e)" style="fill: none; stroke: #ff7f0e"/>
    <path d="M 145.927424 76.601516 
L 145.927424 75.766499 
" clip-path="url(#p7576500a5e)" style="fill: none; stroke: #ff7f0e"/>
    <path d="M 158.785179 77.666632 
L 158.785179 76.968882 
" clip-path="url(#p7576500a5e)" style="fill: none; stroke: #ff7f0e"/>
   </g>
   <g id="line2d_10">
    <path d="M 28.27897 83.862787 
L 164.99976 83.862787 
" clip-path="url(#p7576500a5e)" style="fill: none; stroke: #d3d3d3; stroke-width: 0.5; stroke-linecap: square"/>
   </g>
   <g id="line2d_11">
    <path d="M 34.493551 11.507774 
L 43.065388 60.902358 
L 46.279826 70.739532 
L 51.637224 64.299327 
L 55.923142 53.324323 
L 68.780897 37.373674 
L 81.638651 37.765239 
L 94.496406 63.626139 
L 103.068242 79.931907 
L 107.35416 62.339999 
L 111.640079 67.589578 
L 120.211915 51.379924 
L 133.06967 32.123444 
L 145.927424 18.857074 
L 158.785179 7.122618 
" clip-path="url(#p7576500a5e)" style="fill: none; stroke: #1f77b4; stroke-linecap: square"/>
    <defs>
     <path id="m3681221e1d" d="M 0 1.5 
C 0.397805 1.5 0.77937 1.341951 1.06066 1.06066 
C 1.341951 0.77937 1.5 0.397805 1.5 0 
C 1.5 -0.397805 1.341951 -0.77937 1.06066 -1.06066 
C 0.77937 -1.341951 0.397805 -1.5 0 -1.5 
C -0.397805 -1.5 -0.77937 -1.341951 -1.06066 -1.06066 
C -1.341951 -0.77937 -1.5 -0.397805 -1.5 0 
C -1.5 0.397805 -1.341951 0.77937 -1.06066 1.06066 
C -0.77937 1.341951 -0.397805 1.5 0 1.5 
z
" style="stroke: #1f77b4; stroke-width: 0.5"/>
    </defs>
    <g clip-path="url(#p7576500a5e)">
     <use xlink:href="#m3681221e1d" x="34.493551" y="11.507774" style="fill: #1f77b4; stroke: #1f77b4; stroke-width: 0.5"/>
     <use xlink:href="#m3681221e1d" x="43.065388" y="60.902358" style="fill: #1f77b4; stroke: #1f77b4; stroke-width: 0.5"/>
     <use xlink:href="#m3681221e1d" x="46.279826" y="70.739532" style="fill: #1f77b4; stroke: #1f77b4; stroke-width: 0.5"/>
     <use xlink:href="#m3681221e1d" x="51.637224" y="64.299327" style="fill: #1f77b4; stroke: #1f77b4; stroke-width: 0.5"/>
     <use xlink:href="#m3681221e1d" x="55.923142" y="53.324323" style="fill: #1f77b4; stroke: #1f77b4; stroke-width: 0.5"/>
     <use xlink:href="#m3681221e1d" x="68.780897" y="37.373674" style="fill: #1f77b4; stroke: #1f77b4; stroke-width: 0.5"/>
     <use xlink:href="#m3681221e1d" x="81.638651" y="37.765239" style="fill: #1f77b4; stroke: #1f77b4; stroke-width: 0.5"/>
     <use xlink:href="#m3681221e1d" x="94.496406" y="63.626139" style="fill: #1f77b4; stroke: #1f77b4; stroke-width: 0.5"/>
     <use xlink:href="#m3681221e1d" x="103.068242" y="79.931907" style="fill: #1f77b4; stroke: #1f77b4; stroke-width: 0.5"/>
     <use xlink:href="#m3681221e1d" x="107.35416" y="62.339999" style="fill: #1f77b4; stroke: #1f77b4; stroke-width: 0.5"/>
     <use xlink:href="#m3681221e1d" x="111.640079" y="67.589578" style="fill: #1f77b4; stroke: #1f77b4; stroke-width: 0.5"/>
     <use xlink:href="#m3681221e1d" x="120.211915" y="51.379924" style="fill: #1f77b4; stroke: #1f77b4; stroke-width: 0.5"/>
     <use xlink:href="#m3681221e1d" x="133.06967" y="32.123444" style="fill: #1f77b4; stroke: #1f77b4; stroke-width: 0.5"/>
     <use xlink:href="#m3681221e1d" x="145.927424" y="18.857074" style="fill: #1f77b4; stroke: #1f77b4; stroke-width: 0.5"/>
     <use xlink:href="#m3681221e1d" x="158.785179" y="7.122618" style="fill: #1f77b4; stroke: #1f77b4; stroke-width: 0.5"/>
    </g>
   </g>
   <g id="line2d_12">
    <path d="M 34.493551 81.921171 
L 43.065388 80.794216 
L 46.279826 78.75731 
L 51.637224 79.08803 
L 55.923142 78.704852 
L 68.780897 77.67872 
L 81.638651 75.239689 
L 94.496406 75.311975 
L 103.068242 75.844525 
L 107.35416 75.246832 
L 111.640079 75.91518 
L 120.211915 76.58135 
L 133.06967 76.610128 
L 145.927424 76.184007 
L 158.785179 77.317757 
" clip-path="url(#p7576500a5e)" style="fill: none; stroke: #ff7f0e; stroke-linecap: square"/>
    <defs>
     <path id="ma0073adfeb" d="M -1.5 1.5 
L 1.5 1.5 
L 1.5 -1.5 
L -1.5 -1.5 
z
" style="stroke: #ff7f0e; stroke-width: 0.5; stroke-linejoin: miter"/>
    </defs>
    <g clip-path="url(#p7576500a5e)">
     <use xlink:href="#ma0073adfeb" x="34.493551" y="81.921171" style="fill: #ff7f0e; stroke: #ff7f0e; stroke-width: 0.5; stroke-linejoin: miter"/>
     <use xlink:href="#ma0073adfeb" x="43.065388" y="80.794216" style="fill: #ff7f0e; stroke: #ff7f0e; stroke-width: 0.5; stroke-linejoin: miter"/>
     <use xlink:href="#ma0073adfeb" x="46.279826" y="78.75731" style="fill: #ff7f0e; stroke: #ff7f0e; stroke-width: 0.5; stroke-linejoin: miter"/>
     <use xlink:href="#ma0073adfeb" x="51.637224" y="79.08803" style="fill: #ff7f0e; stroke: #ff7f0e; stroke-width: 0.5; stroke-linejoin: miter"/>
     <use xlink:href="#ma0073adfeb" x="55.923142" y="78.704852" style="fill: #ff7f0e; stroke: #ff7f0e; stroke-width: 0.5; stroke-linejoin: miter"/>
     <use xlink:href="#ma0073adfeb" x="68.780897" y="77.67872" style="fill: #ff7f0e; stroke: #ff7f0e; stroke-width: 0.5; stroke-linejoin: miter"/>
     <use xlink:href="#ma0073adfeb" x="81.638651" y="75.239689" style="fill: #ff7f0e; stroke: #ff7f0e; stroke-width: 0.5; stroke-linejoin: miter"/>
     <use xlink:href="#ma0073adfeb" x="94.496406" y="75.311975" style="fill: #ff7f0e; stroke: #ff7f0e; stroke-width: 0.5; stroke-linejoin: miter"/>
     <use xlink:href="#ma0073adfeb" x="103.068242" y="75.844525" style="fill: #ff7f0e; stroke: #ff7f0e; stroke-width: 0.5; stroke-linejoin: miter"/>
     <use xlink:href="#ma0073adfeb" x="107.35416" y="75.246832" style="fill: #ff7f0e; stroke: #ff7f0e; stroke-width: 0.5; stroke-linejoin: miter"/>
     <use xlink:href="#ma0073adfeb" x="111.640079" y="75.91518" style="fill: #ff7f0e; stroke: #ff7f0e; stroke-width: 0.5; stroke-linejoin: miter"/>
     <use xlink:href="#ma0073adfeb" x="120.211915" y="76.58135" style="fill: #ff7f0e; stroke: #ff7f0e; stroke-width: 0.5; stroke-linejoin: miter"/>
     <use xlink:href="#ma0073adfeb" x="133.06967" y="76.610128" style="fill: #ff7f0e; stroke: #ff7f0e; stroke-width: 0.5; stroke-linejoin: miter"/>
     <use xlink:href="#ma0073adfeb" x="145.927424" y="76.184007" style="fill: #ff7f0e; stroke: #ff7f0e; stroke-width: 0.5; stroke-linejoin: miter"/>
     <use xlink:href="#ma0073adfeb" x="158.785179" y="77.317757" style="fill: #ff7f0e; stroke: #ff7f0e; stroke-width: 0.5; stroke-linejoin: miter"/>
    </g>
   </g>
   <g id="patch_4">
    <path d="M 28.27897 86.028656 
L 28.27897 3.00024 
" style="fill: none; stroke: #000000; stroke-width: 0.5; stroke-linejoin: miter; stroke-linecap: square"/>
   </g>
   <g id="patch_5">
    <path d="M 164.99976 86.028656 
L 164.99976 3.00024 
" style="fill: none; stroke: #000000; stroke-width: 0.5; stroke-linejoin: miter; stroke-linecap: square"/>
   </g>
   <g id="patch_6">
    <path d="M 28.27897 86.028656 
L 164.99976 86.028656 
" style="fill: none; stroke: #000000; stroke-width: 0.5; stroke-linejoin: miter; stroke-linecap: square"/>
   </g>
   <g id="patch_7">
    <path d="M 28.27897 3.00024 
L 164.99976 3.00024 
" style="fill: none; stroke: #000000; stroke-width: 0.5; stroke-linejoin: miter; stroke-linecap: square"/>
   </g>
   <g id="legend_1">
    <g id="patch_8">
     <path d="M 138.07256 53.200725 
L 161.11336 53.200725 
Q 162.22376 53.200725 162.22376 52.090325 
L 162.22376 36.93857 
Q 162.22376 35.82817 161.11336 35.82817 
L 138.07256 35.82817 
Q 136.96216 35.82817 136.96216 36.93857 
L 136.96216 52.090325 
Q 136.96216 53.200725 138.07256 53.200725 
z
" style="fill: #ffffff; opacity: 0.8; stroke: #cccccc; stroke-linejoin: miter"/>
    </g>
    <g id="LineCollection_3">
     <path d="M 144.73496 42.855788 
L 144.73496 37.303788 
" style="fill: none; stroke: #1f77b4"/>
    </g>
    <g id="line2d_13">
     <path d="M 139.18296 40.079788 
L 150.28696 40.079788 
" style="fill: none; stroke: #1f77b4; stroke-linecap: square"/>
    </g>
    <g id="line2d_14">
     <g>
      <use xlink:href="#m3681221e1d" x="144.73496" y="40.079788" style="fill: #1f77b4; stroke: #1f77b4; stroke-width: 0.5"/>
     </g>
    </g>
    <g id="text_7">
     <!-- $a_1$ -->
     <g transform="translate(154.72856 42.022988) scale(0.05552 -0.05552)">
      <defs>
       <path id="Cmr10-31" d="M 594 0 
L 594 225 
Q 1394 225 1394 428 
L 1394 3788 
Q 1063 3628 556 3628 
L 556 3853 
Q 1341 3853 1741 4263 
L 1831 4263 
Q 1853 4263 1873 4245 
Q 1894 4228 1894 4206 
L 1894 428 
Q 1894 225 2694 225 
L 2694 0 
L 594 0 
z
" transform="scale(0.015625)"/>
      </defs>
      <use xlink:href="#Cmmi10-61" transform="translate(0 0.8125)"/>
      <use xlink:href="#Cmr10-31" transform="translate(52.783203 -16.19375) scale(0.7)"/>
     </g>
    </g>
    <g id="LineCollection_4">
     <path d="M 144.73496 50.709265 
L 144.73496 45.157265 
" style="fill: none; stroke: #ff7f0e"/>
    </g>
    <g id="line2d_15">
     <path d="M 139.18296 47.933265 
L 150.28696 47.933265 
" style="fill: none; stroke: #ff7f0e; stroke-linecap: square"/>
    </g>
    <g id="line2d_16">
     <g>
      <use xlink:href="#ma0073adfeb" x="144.73496" y="47.933265" style="fill: #ff7f0e; stroke: #ff7f0e; stroke-width: 0.5; stroke-linejoin: miter"/>
     </g>
    </g>
    <g id="text_8">
     <!-- $a_3$ -->
     <g transform="translate(154.72856 49.876465) scale(0.05552 -0.05552)">
      <defs>
       <path id="Cmr10-33" d="M 609 494 
Q 759 275 1012 169 
Q 1266 63 1556 63 
Q 1928 63 2084 380 
Q 2241 697 2241 1100 
Q 2241 1281 2208 1462 
Q 2175 1644 2097 1800 
Q 2019 1956 1883 2050 
Q 1747 2144 1550 2144 
L 1125 2144 
Q 1069 2144 1069 2203 
L 1069 2259 
Q 1069 2309 1125 2309 
L 1478 2338 
Q 1703 2338 1851 2506 
Q 2000 2675 2069 2917 
Q 2138 3159 2138 3378 
Q 2138 3684 1994 3881 
Q 1850 4078 1556 4078 
Q 1313 4078 1091 3986 
Q 869 3894 738 3706 
Q 750 3709 759 3711 
Q 769 3713 781 3713 
Q 925 3713 1022 3613 
Q 1119 3513 1119 3372 
Q 1119 3234 1022 3134 
Q 925 3034 781 3034 
Q 641 3034 541 3134 
Q 441 3234 441 3372 
Q 441 3647 606 3850 
Q 772 4053 1033 4158 
Q 1294 4263 1556 4263 
Q 1750 4263 1965 4205 
Q 2181 4147 2356 4039 
Q 2531 3931 2642 3762 
Q 2753 3594 2753 3378 
Q 2753 3109 2633 2881 
Q 2513 2653 2303 2487 
Q 2094 2322 1844 2241 
Q 2122 2188 2372 2031 
Q 2622 1875 2773 1631 
Q 2925 1388 2925 1106 
Q 2925 753 2731 467 
Q 2538 181 2222 20 
Q 1906 -141 1556 -141 
Q 1256 -141 954 -26 
Q 653 88 461 316 
Q 269 544 269 863 
Q 269 1022 375 1128 
Q 481 1234 641 1234 
Q 744 1234 830 1186 
Q 916 1138 964 1050 
Q 1013 963 1013 863 
Q 1013 706 903 600 
Q 794 494 641 494 
L 609 494 
z
" transform="scale(0.015625)"/>
      </defs>
      <use xlink:href="#Cmmi10-61" transform="translate(0 0.8125)"/>
      <use xlink:href="#Cmr10-33" transform="translate(52.783203 -16.19375) scale(0.7)"/>
     </g>
    </g>
   </g>
  </g>
  <g id="axes_2">
   <g id="patch_9">
    <path d="M 28.27897 176.605324 
L 164.99976 176.605324 
L 164.99976 93.576908 
L 28.27897 93.576908 
L 28.27897 176.605324 
z
" style="fill: none"/>
   </g>
   <g id="patch_10">
    <path d="M 100.925283 176.605324 
L 100.925283 93.576908 
L 48.958525 93.576908 
L 48.958525 176.605324 
z
" clip-path="url(#p8b67b772e9)" style="fill: #2ca02c; opacity: 0.25; stroke: #2ca02c; stroke-linejoin: miter"/>
   </g>
   <g id="matplotlib.axis_3">
    <g id="xtick_5">
     <g id="line2d_17">
      <g>
       <use xlink:href="#m8991da1f8d" x="30.207633" y="176.605324" style="stroke: #000000; stroke-width: 0.5"/>
      </g>
     </g>
     <g id="text_9">
      <!-- −6 -->
      <g transform="translate(26.408633 184.87529) scale(0.06664 -0.06664)">
       <defs>
        <path id="ArialMT-2212" d="M 3381 1997 
L 356 1997 
L 356 2522 
L 3381 2522 
L 3381 1997 
z
" transform="scale(0.015625)"/>
       </defs>
       <use xlink:href="#ArialMT-2212"/>
       <use xlink:href="#ArialMT-36" x="58.398438"/>
      </g>
     </g>
    </g>
    <g id="xtick_6">
     <g id="line2d_18">
      <g>
       <use xlink:href="#m8991da1f8d" x="73.066815" y="176.605324" style="stroke: #000000; stroke-width: 0.5"/>
      </g>
     </g>
     <g id="text_10">
      <!-- −4 -->
      <g transform="translate(69.267814 184.87529) scale(0.06664 -0.06664)">
       <use xlink:href="#ArialMT-2212"/>
       <use xlink:href="#ArialMT-34" x="58.398438"/>
      </g>
     </g>
    </g>
    <g id="xtick_7">
     <g id="line2d_19">
      <g>
       <use xlink:href="#m8991da1f8d" x="115.925997" y="176.605324" style="stroke: #000000; stroke-width: 0.5"/>
      </g>
     </g>
     <g id="text_11">
      <!-- −2 -->
      <g transform="translate(112.126996 184.87529) scale(0.06664 -0.06664)">
       <use xlink:href="#ArialMT-2212"/>
       <use xlink:href="#ArialMT-32" x="58.398438"/>
      </g>
     </g>
    </g>
    <g id="xtick_8">
     <g id="line2d_20">
      <g>
       <use xlink:href="#m8991da1f8d" x="158.785179" y="176.605324" style="stroke: #000000; stroke-width: 0.5"/>
      </g>
     </g>
     <g id="text_12">
      <!-- 0 -->
      <g transform="translate(156.932274 184.87529) scale(0.06664 -0.06664)">
       <use xlink:href="#ArialMT-30"/>
      </g>
     </g>
    </g>
    <g id="text_13">
     <!-- $V_\mathrm{g}$ (V) -->
     <g transform="translate(86.199365 196.03976) scale(0.08 -0.08)">
      <defs>
       <path id="Cmmi10-56" d="M 1409 -72 
L 897 4006 
Q 850 4147 416 4147 
Q 353 4147 353 4231 
Q 366 4300 384 4336 
Q 403 4372 459 4372 
L 2022 4372 
Q 2056 4372 2072 4347 
Q 2088 4322 2088 4288 
Q 2063 4147 2003 4147 
Q 1503 4147 1472 3975 
L 1894 628 
L 3866 3775 
Q 3922 3881 3922 3944 
Q 3922 4056 3820 4101 
Q 3719 4147 3584 4147 
Q 3519 4147 3519 4231 
Q 3531 4281 3540 4309 
Q 3550 4338 3569 4355 
Q 3588 4372 3628 4372 
L 4863 4372 
Q 4922 4372 4922 4288 
Q 4897 4147 4838 4147 
Q 4356 4147 4084 3725 
Q 4072 3713 4063 3713 
L 1703 -72 
Q 1656 -141 1581 -141 
L 1491 -141 
Q 1419 -141 1409 -72 
z
" transform="scale(0.015625)"/>
       <path id="Cmr10-67" d="M 178 -500 
Q 178 -272 343 -101 
Q 509 69 738 141 
Q 609 238 542 384 
Q 475 531 475 697 
Q 475 997 666 1228 
Q 372 1516 372 1888 
Q 372 2088 458 2263 
Q 544 2438 697 2566 
Q 850 2694 1037 2761 
Q 1225 2828 1422 2828 
Q 1803 2828 2106 2606 
Q 2238 2747 2417 2823 
Q 2597 2900 2791 2900 
Q 2928 2900 3015 2801 
Q 3103 2703 3103 2566 
Q 3103 2488 3043 2428 
Q 2984 2369 2906 2369 
Q 2825 2369 2765 2428 
Q 2706 2488 2706 2566 
Q 2706 2684 2784 2731 
Q 2453 2731 2216 2503 
Q 2331 2388 2401 2220 
Q 2472 2053 2472 1888 
Q 2472 1616 2322 1398 
Q 2172 1181 1926 1061 
Q 1681 941 1422 941 
Q 1072 941 781 1131 
Q 691 1006 691 850 
Q 691 681 802 554 
Q 913 428 1081 428 
L 1606 428 
Q 1988 428 2294 359 
Q 2600 291 2808 84 
Q 3016 -122 3016 -500 
Q 3016 -781 2778 -967 
Q 2541 -1153 2211 -1236 
Q 1881 -1319 1600 -1319 
Q 1316 -1319 984 -1236 
Q 653 -1153 415 -967 
Q 178 -781 178 -500 
z
M 538 -500 
Q 538 -716 713 -861 
Q 888 -1006 1134 -1076 
Q 1381 -1147 1600 -1147 
Q 1816 -1147 2062 -1076 
Q 2309 -1006 2482 -861 
Q 2656 -716 2656 -500 
Q 2656 -166 2350 -67 
Q 2044 31 1606 31 
L 1081 31 
Q 934 31 811 -39 
Q 688 -109 613 -236 
Q 538 -363 538 -500 
z
M 1422 1113 
Q 1966 1113 1966 1888 
Q 1966 2222 1850 2439 
Q 1734 2656 1422 2656 
Q 1109 2656 993 2439 
Q 878 2222 878 1888 
Q 878 1675 922 1503 
Q 966 1331 1084 1222 
Q 1203 1113 1422 1113 
z
" transform="scale(0.015625)"/>
       <path id="ArialMT-56" d="M 1803 0 
L 28 4581 
L 684 4581 
L 1875 1253 
Q 2019 853 2116 503 
Q 2222 878 2363 1253 
L 3600 4581 
L 4219 4581 
L 2425 0 
L 1803 0 
z
" transform="scale(0.015625)"/>
      </defs>
      <use xlink:href="#Cmmi10-56" transform="translate(0 0.203125)"/>
      <use xlink:href="#Cmr10-67" transform="translate(58.300781 -16.803125) scale(0.7)"/>
      <use xlink:href="#ArialMT-20" transform="translate(99.678125 0.203125)"/>
      <use xlink:href="#ArialMT-28" transform="translate(127.461328 0.203125)"/>
      <use xlink:href="#ArialMT-56" transform="translate(160.762109 0.203125)"/>
      <use xlink:href="#ArialMT-29" transform="translate(227.461328 0.203125)"/>
     </g>
    </g>
   </g>
   <g id="matplotlib.axis_4">
    <g id="ytick_6">
     <g id="line2d_21">
      <g>
       <use xlink:href="#m0376cd75d4" x="28.27897" y="162.573927" style="stroke: #000000; stroke-width: 0.5"/>
      </g>
     </g>
     <g id="text_14">
      <!-- 0 -->
      <g transform="translate(21.073161 164.95891) scale(0.06664 -0.06664)">
       <use xlink:href="#ArialMT-30"/>
      </g>
     </g>
    </g>
    <g id="ytick_7">
     <g id="line2d_22">
      <g>
       <use xlink:href="#m0376cd75d4" x="28.27897" y="130.421562" style="stroke: #000000; stroke-width: 0.5"/>
      </g>
     </g>
     <g id="text_15">
      <!-- $\pi/2$ -->
      <g transform="translate(14.31649 132.920562) scale(0.06664 -0.06664)">
       <defs>
        <path id="Cmmi10-bc" d="M 647 109 
Q 647 144 672 213 
Q 850 584 1004 942 
Q 1159 1300 1282 1639 
Q 1406 1978 1509 2363 
L 1100 2363 
Q 866 2363 662 2216 
Q 459 2069 325 1844 
Q 313 1819 288 1819 
L 213 1819 
Q 153 1819 153 1881 
Q 153 1894 166 1919 
Q 375 2275 614 2517 
Q 853 2759 1153 2759 
L 3475 2759 
Q 3541 2759 3587 2715 
Q 3634 2672 3634 2597 
Q 3634 2503 3567 2433 
Q 3500 2363 3406 2363 
L 2591 2363 
Q 2488 1859 2478 1381 
Q 2478 766 2694 269 
Q 2713 231 2713 191 
Q 2713 122 2672 62 
Q 2631 3 2567 -34 
Q 2503 -72 2431 -72 
Q 2263 -72 2200 203 
Q 2138 478 2138 738 
Q 2138 1103 2200 1442 
Q 2263 1781 2400 2363 
L 1703 2363 
Q 1197 313 1094 103 
Q 1003 -72 844 -72 
Q 766 -72 706 -20 
Q 647 31 647 109 
z
" transform="scale(0.015625)"/>
        <path id="Cmmi10-3d" d="M 359 -1472 
Q 359 -1453 366 -1447 
L 2591 4722 
Q 2603 4759 2634 4779 
Q 2666 4800 2706 4800 
Q 2763 4800 2798 4765 
Q 2834 4731 2834 4672 
L 2834 4647 
L 609 -1522 
Q 572 -1600 488 -1600 
Q 434 -1600 396 -1562 
Q 359 -1525 359 -1472 
z
" transform="scale(0.015625)"/>
        <path id="Cmr10-32" d="M 319 0 
L 319 172 
Q 319 188 331 206 
L 1325 1306 
Q 1550 1550 1690 1715 
Q 1831 1881 1968 2097 
Q 2106 2313 2186 2536 
Q 2266 2759 2266 3009 
Q 2266 3272 2169 3511 
Q 2072 3750 1880 3894 
Q 1688 4038 1416 4038 
Q 1138 4038 916 3870 
Q 694 3703 603 3438 
Q 628 3444 672 3444 
Q 816 3444 917 3347 
Q 1019 3250 1019 3097 
Q 1019 2950 917 2848 
Q 816 2747 672 2747 
Q 522 2747 420 2851 
Q 319 2956 319 3097 
Q 319 3338 409 3548 
Q 500 3759 670 3923 
Q 841 4088 1055 4175 
Q 1269 4263 1509 4263 
Q 1875 4263 2190 4108 
Q 2506 3953 2690 3670 
Q 2875 3388 2875 3009 
Q 2875 2731 2753 2481 
Q 2631 2231 2440 2026 
Q 2250 1822 1953 1562 
Q 1656 1303 1563 1216 
L 838 519 
L 1453 519 
Q 1906 519 2211 526 
Q 2516 534 2534 550 
Q 2609 631 2688 1141 
L 2875 1141 
L 2694 0 
L 319 0 
z
" transform="scale(0.015625)"/>
       </defs>
       <use xlink:href="#Cmmi10-bc"/>
       <use xlink:href="#Cmmi10-3d" transform="translate(56.982422 0)"/>
       <use xlink:href="#Cmr10-32" transform="translate(106.982422 0)"/>
      </g>
     </g>
    </g>
    <g id="ytick_8">
     <g id="line2d_23">
      <g>
       <use xlink:href="#m0376cd75d4" x="28.27897" y="98.269198" style="stroke: #000000; stroke-width: 0.5"/>
      </g>
     </g>
     <g id="text_16">
      <!-- $\pi$ -->
      <g transform="translate(20.98049 100.654181) scale(0.06664 -0.06664)">
       <use xlink:href="#Cmmi10-bc" transform="translate(0 0.890625)"/>
      </g>
     </g>
    </g>
    <g id="text_17">
     <!-- $\varphi_n$ -->
     <g transform="translate(8.55649 139.651116) rotate(-90) scale(0.08 -0.08)">
      <defs>
       <path id="Cmmi10-27" d="M 1044 -1216 
Q 1044 -1191 1056 -1141 
L 1416 -13 
Q 938 106 628 428 
Q 319 750 319 1216 
Q 319 1450 406 1744 
Q 494 2038 631 2302 
Q 769 2566 928 2741 
Q 966 2759 972 2759 
L 1050 2759 
Q 1069 2759 1084 2740 
Q 1100 2722 1100 2700 
Q 1100 2675 1088 2663 
Q 981 2547 879 2380 
Q 778 2213 698 2028 
Q 619 1844 566 1641 
Q 513 1438 513 1288 
Q 513 909 814 676 
Q 1116 444 1528 366 
L 1709 941 
Q 1828 1313 1945 1605 
Q 2063 1897 2239 2176 
Q 2416 2456 2666 2642 
Q 2916 2828 3225 2828 
Q 3469 2828 3633 2706 
Q 3797 2584 3876 2381 
Q 3956 2178 3956 1947 
Q 3956 1566 3787 1202 
Q 3619 838 3325 548 
Q 3031 259 2662 93 
Q 2294 -72 1919 -72 
Q 1869 -69 1811 -66 
Q 1753 -63 1716 -63 
L 1503 -1178 
Q 1484 -1272 1407 -1333 
Q 1331 -1394 1234 -1394 
Q 1156 -1394 1100 -1345 
Q 1044 -1297 1044 -1216 
z
M 1784 331 
Q 1856 325 1991 325 
Q 2388 325 2798 520 
Q 3209 716 3479 1056 
Q 3750 1397 3750 1797 
Q 3750 1978 3676 2122 
Q 3603 2266 3470 2348 
Q 3338 2431 3163 2431 
Q 2666 2431 2331 1950 
Q 1997 1469 1894 916 
L 1784 331 
z
" transform="scale(0.015625)"/>
      </defs>
      <use xlink:href="#Cmmi10-27" transform="translate(0 0.8125)"/>
      <use xlink:href="#Cmmi10-6e" transform="translate(65.380859 -16.19375) scale(0.7)"/>
     </g>
    </g>
   </g>
   <g id="LineCollection_5">
    <path d="M 34.493551 157.216597 
L 34.493551 157.014732 
" clip-path="url(#p8b67b772e9)" style="fill: none; stroke: #1f77b4"/>
    <path d="M 43.065388 145.056732 
L 43.065388 144.329422 
" clip-path="url(#p8b67b772e9)" style="fill: none; stroke: #1f77b4"/>
    <path d="M 46.279826 156.235513 
L 46.279826 154.473611 
" clip-path="url(#p8b67b772e9)" style="fill: none; stroke: #1f77b4"/>
    <path d="M 51.637224 103.259071 
L 51.637224 102.270976 
" clip-path="url(#p8b67b772e9)" style="fill: none; stroke: #1f77b4"/>
    <path d="M 55.923142 97.881065 
L 55.923142 97.350927 
" clip-path="url(#p8b67b772e9)" style="fill: none; stroke: #1f77b4"/>
    <path d="M 68.780897 99.81909 
L 68.780897 99.491177 
" clip-path="url(#p8b67b772e9)" style="fill: none; stroke: #1f77b4"/>
    <path d="M 81.638651 102.876211 
L 81.638651 102.550266 
" clip-path="url(#p8b67b772e9)" style="fill: none; stroke: #1f77b4"/>
    <path d="M 94.496406 99.922528 
L 94.496406 98.702805 
" clip-path="url(#p8b67b772e9)" style="fill: none; stroke: #1f77b4"/>
    <path d="M 103.068242 134.644985 
L 103.068242 131.292582 
" clip-path="url(#p8b67b772e9)" style="fill: none; stroke: #1f77b4"/>
    <path d="M 107.35416 138.176847 
L 107.35416 137.427061 
" clip-path="url(#p8b67b772e9)" style="fill: none; stroke: #1f77b4"/>
    <path d="M 111.640079 147.051928 
L 111.640079 146.0906 
" clip-path="url(#p8b67b772e9)" style="fill: none; stroke: #1f77b4"/>
    <path d="M 120.211915 156.650527 
L 120.211915 156.323747 
" clip-path="url(#p8b67b772e9)" style="fill: none; stroke: #1f77b4"/>
    <path d="M 133.06967 158.999671 
L 133.06967 158.800589 
" clip-path="url(#p8b67b772e9)" style="fill: none; stroke: #1f77b4"/>
    <path d="M 145.927424 160.751435 
L 145.927424 160.456226 
" clip-path="url(#p8b67b772e9)" style="fill: none; stroke: #1f77b4"/>
    <path d="M 158.785179 163.113627 
L 158.785179 162.919462 
" clip-path="url(#p8b67b772e9)" style="fill: none; stroke: #1f77b4"/>
   </g>
   <g id="LineCollection_6">
    <path d="M 34.493551 168.888488 
L 34.493551 161.227974 
" clip-path="url(#p8b67b772e9)" style="fill: none; stroke: #ff7f0e"/>
    <path d="M 43.065388 166.720231 
L 43.065388 161.270865 
" clip-path="url(#p8b67b772e9)" style="fill: none; stroke: #ff7f0e"/>
    <path d="M 46.279826 172.831305 
L 46.279826 168.731688 
" clip-path="url(#p8b67b772e9)" style="fill: none; stroke: #ff7f0e"/>
    <path d="M 51.637224 165.0271 
L 51.637224 160.796965 
" clip-path="url(#p8b67b772e9)" style="fill: none; stroke: #ff7f0e"/>
    <path d="M 55.923142 169.794637 
L 55.923142 166.948879 
" clip-path="url(#p8b67b772e9)" style="fill: none; stroke: #ff7f0e"/>
    <path d="M 68.780897 165.816521 
L 68.780897 163.538467 
" clip-path="url(#p8b67b772e9)" style="fill: none; stroke: #ff7f0e"/>
    <path d="M 81.638651 168.111099 
L 81.638651 166.322004 
" clip-path="url(#p8b67b772e9)" style="fill: none; stroke: #ff7f0e"/>
    <path d="M 94.496406 168.483663 
L 94.496406 165.577639 
" clip-path="url(#p8b67b772e9)" style="fill: none; stroke: #ff7f0e"/>
    <path d="M 103.068242 166.259462 
L 103.068242 164.559346 
" clip-path="url(#p8b67b772e9)" style="fill: none; stroke: #ff7f0e"/>
    <path d="M 107.35416 164.500002 
L 107.35416 162.453033 
" clip-path="url(#p8b67b772e9)" style="fill: none; stroke: #ff7f0e"/>
    <path d="M 111.640079 165.516748 
L 111.640079 163.522351 
" clip-path="url(#p8b67b772e9)" style="fill: none; stroke: #ff7f0e"/>
    <path d="M 120.211915 166.054729 
L 120.211915 164.579037 
" clip-path="url(#p8b67b772e9)" style="fill: none; stroke: #ff7f0e"/>
    <path d="M 133.06967 164.394116 
L 133.06967 162.987234 
" clip-path="url(#p8b67b772e9)" style="fill: none; stroke: #ff7f0e"/>
    <path d="M 145.927424 166.520151 
L 145.927424 164.088782 
" clip-path="url(#p8b67b772e9)" style="fill: none; stroke: #ff7f0e"/>
    <path d="M 158.785179 165.049612 
L 158.785179 162.778479 
" clip-path="url(#p8b67b772e9)" style="fill: none; stroke: #ff7f0e"/>
   </g>
   <g id="line2d_24">
    <path d="M 28.27897 162.573927 
L 164.99976 162.573927 
" clip-path="url(#p8b67b772e9)" style="fill: none; stroke: #d3d3d3; stroke-width: 0.5; stroke-linecap: square"/>
   </g>
   <g id="line2d_25">
    <path d="M 28.27897 98.269198 
L 164.99976 98.269198 
" clip-path="url(#p8b67b772e9)" style="fill: none; stroke: #d3d3d3; stroke-width: 0.5; stroke-linecap: square"/>
   </g>
   <g id="line2d_26">
    <path d="M 34.493551 157.115665 
L 43.065388 144.693077 
L 46.279826 155.354562 
L 51.637224 102.765024 
L 55.923142 97.615996 
L 68.780897 99.655133 
L 81.638651 102.713238 
L 94.496406 99.312667 
L 103.068242 132.968784 
L 107.35416 137.801954 
L 111.640079 146.571264 
L 120.211915 156.487137 
L 133.06967 158.90013 
L 145.927424 160.60383 
L 158.785179 163.016544 
" clip-path="url(#p8b67b772e9)" style="fill: none; stroke: #1f77b4; stroke-linecap: square"/>
    <g clip-path="url(#p8b67b772e9)">
     <use xlink:href="#m3681221e1d" x="34.493551" y="157.115665" style="fill: #1f77b4; stroke: #1f77b4; stroke-width: 0.5"/>
     <use xlink:href="#m3681221e1d" x="43.065388" y="144.693077" style="fill: #1f77b4; stroke: #1f77b4; stroke-width: 0.5"/>
     <use xlink:href="#m3681221e1d" x="46.279826" y="155.354562" style="fill: #1f77b4; stroke: #1f77b4; stroke-width: 0.5"/>
     <use xlink:href="#m3681221e1d" x="51.637224" y="102.765024" style="fill: #1f77b4; stroke: #1f77b4; stroke-width: 0.5"/>
     <use xlink:href="#m3681221e1d" x="55.923142" y="97.615996" style="fill: #1f77b4; stroke: #1f77b4; stroke-width: 0.5"/>
     <use xlink:href="#m3681221e1d" x="68.780897" y="99.655133" style="fill: #1f77b4; stroke: #1f77b4; stroke-width: 0.5"/>
     <use xlink:href="#m3681221e1d" x="81.638651" y="102.713238" style="fill: #1f77b4; stroke: #1f77b4; stroke-width: 0.5"/>
     <use xlink:href="#m3681221e1d" x="94.496406" y="99.312667" style="fill: #1f77b4; stroke: #1f77b4; stroke-width: 0.5"/>
     <use xlink:href="#m3681221e1d" x="103.068242" y="132.968784" style="fill: #1f77b4; stroke: #1f77b4; stroke-width: 0.5"/>
     <use xlink:href="#m3681221e1d" x="107.35416" y="137.801954" style="fill: #1f77b4; stroke: #1f77b4; stroke-width: 0.5"/>
     <use xlink:href="#m3681221e1d" x="111.640079" y="146.571264" style="fill: #1f77b4; stroke: #1f77b4; stroke-width: 0.5"/>
     <use xlink:href="#m3681221e1d" x="120.211915" y="156.487137" style="fill: #1f77b4; stroke: #1f77b4; stroke-width: 0.5"/>
     <use xlink:href="#m3681221e1d" x="133.06967" y="158.90013" style="fill: #1f77b4; stroke: #1f77b4; stroke-width: 0.5"/>
     <use xlink:href="#m3681221e1d" x="145.927424" y="160.60383" style="fill: #1f77b4; stroke: #1f77b4; stroke-width: 0.5"/>
     <use xlink:href="#m3681221e1d" x="158.785179" y="163.016544" style="fill: #1f77b4; stroke: #1f77b4; stroke-width: 0.5"/>
    </g>
   </g>
   <g id="line2d_27">
    <path d="M 34.493551 165.058231 
L 43.065388 163.995548 
L 46.279826 170.781496 
L 51.637224 162.912033 
L 55.923142 168.371758 
L 68.780897 164.677494 
L 81.638651 167.216552 
L 94.496406 167.030651 
L 103.068242 165.409404 
L 107.35416 163.476518 
L 111.640079 164.51955 
L 120.211915 165.316883 
L 133.06967 163.690675 
L 145.927424 165.304466 
L 158.785179 163.914045 
" clip-path="url(#p8b67b772e9)" style="fill: none; stroke: #ff7f0e; stroke-linecap: square"/>
    <g clip-path="url(#p8b67b772e9)">
     <use xlink:href="#ma0073adfeb" x="34.493551" y="165.058231" style="fill: #ff7f0e; stroke: #ff7f0e; stroke-width: 0.5; stroke-linejoin: miter"/>
     <use xlink:href="#ma0073adfeb" x="43.065388" y="163.995548" style="fill: #ff7f0e; stroke: #ff7f0e; stroke-width: 0.5; stroke-linejoin: miter"/>
     <use xlink:href="#ma0073adfeb" x="46.279826" y="170.781496" style="fill: #ff7f0e; stroke: #ff7f0e; stroke-width: 0.5; stroke-linejoin: miter"/>
     <use xlink:href="#ma0073adfeb" x="51.637224" y="162.912033" style="fill: #ff7f0e; stroke: #ff7f0e; stroke-width: 0.5; stroke-linejoin: miter"/>
     <use xlink:href="#ma0073adfeb" x="55.923142" y="168.371758" style="fill: #ff7f0e; stroke: #ff7f0e; stroke-width: 0.5; stroke-linejoin: miter"/>
     <use xlink:href="#ma0073adfeb" x="68.780897" y="164.677494" style="fill: #ff7f0e; stroke: #ff7f0e; stroke-width: 0.5; stroke-linejoin: miter"/>
     <use xlink:href="#ma0073adfeb" x="81.638651" y="167.216552" style="fill: #ff7f0e; stroke: #ff7f0e; stroke-width: 0.5; stroke-linejoin: miter"/>
     <use xlink:href="#ma0073adfeb" x="94.496406" y="167.030651" style="fill: #ff7f0e; stroke: #ff7f0e; stroke-width: 0.5; stroke-linejoin: miter"/>
     <use xlink:href="#ma0073adfeb" x="103.068242" y="165.409404" style="fill: #ff7f0e; stroke: #ff7f0e; stroke-width: 0.5; stroke-linejoin: miter"/>
     <use xlink:href="#ma0073adfeb" x="107.35416" y="163.476518" style="fill: #ff7f0e; stroke: #ff7f0e; stroke-width: 0.5; stroke-linejoin: miter"/>
     <use xlink:href="#ma0073adfeb" x="111.640079" y="164.51955" style="fill: #ff7f0e; stroke: #ff7f0e; stroke-width: 0.5; stroke-linejoin: miter"/>
     <use xlink:href="#ma0073adfeb" x="120.211915" y="165.316883" style="fill: #ff7f0e; stroke: #ff7f0e; stroke-width: 0.5; stroke-linejoin: miter"/>
     <use xlink:href="#ma0073adfeb" x="133.06967" y="163.690675" style="fill: #ff7f0e; stroke: #ff7f0e; stroke-width: 0.5; stroke-linejoin: miter"/>
     <use xlink:href="#ma0073adfeb" x="145.927424" y="165.304466" style="fill: #ff7f0e; stroke: #ff7f0e; stroke-width: 0.5; stroke-linejoin: miter"/>
     <use xlink:href="#ma0073adfeb" x="158.785179" y="163.914045" style="fill: #ff7f0e; stroke: #ff7f0e; stroke-width: 0.5; stroke-linejoin: miter"/>
    </g>
   </g>
   <g id="patch_11">
    <path d="M 28.27897 176.605324 
L 28.27897 93.576908 
" style="fill: none; stroke: #000000; stroke-width: 0.5; stroke-linejoin: miter; stroke-linecap: square"/>
   </g>
   <g id="patch_12">
    <path d="M 164.99976 176.605324 
L 164.99976 93.576908 
" style="fill: none; stroke: #000000; stroke-width: 0.5; stroke-linejoin: miter; stroke-linecap: square"/>
   </g>
   <g id="patch_13">
    <path d="M 28.27897 176.605324 
L 164.99976 176.605324 
" style="fill: none; stroke: #000000; stroke-width: 0.5; stroke-linejoin: miter; stroke-linecap: square"/>
   </g>
   <g id="patch_14">
    <path d="M 28.27897 93.576908 
L 164.99976 93.576908 
" style="fill: none; stroke: #000000; stroke-width: 0.5; stroke-linejoin: miter; stroke-linecap: square"/>
   </g>
   <g id="legend_2">
    <g id="patch_15">
     <path d="M 137.40632 143.895373 
L 161.11336 143.895373 
Q 162.22376 143.895373 162.22376 142.784973 
L 162.22376 127.397258 
Q 162.22376 126.286858 161.11336 126.286858 
L 137.40632 126.286858 
Q 136.29592 126.286858 136.29592 127.397258 
L 136.29592 142.784973 
Q 136.29592 143.895373 137.40632 143.895373 
z
" style="fill: #ffffff; opacity: 0.8; stroke: #cccccc; stroke-linejoin: miter"/>
    </g>
    <g id="LineCollection_7">
     <path d="M 144.06872 133.314476 
L 144.06872 127.762476 
" style="fill: none; stroke: #1f77b4"/>
    </g>
    <g id="line2d_28">
     <path d="M 138.51672 130.538476 
L 149.62072 130.538476 
" style="fill: none; stroke: #1f77b4; stroke-linecap: square"/>
    </g>
    <g id="line2d_29">
     <g>
      <use xlink:href="#m3681221e1d" x="144.06872" y="130.538476" style="fill: #1f77b4; stroke: #1f77b4; stroke-width: 0.5"/>
     </g>
    </g>
    <g id="text_18">
     <!-- $\varphi_1$ -->
     <g transform="translate(154.06232 132.481676) scale(0.05552 -0.05552)">
      <use xlink:href="#Cmmi10-27" transform="translate(0 0.8125)"/>
      <use xlink:href="#Cmr10-31" transform="translate(65.380859 -16.19375) scale(0.7)"/>
     </g>
    </g>
    <g id="LineCollection_8">
     <path d="M 144.06872 141.285933 
L 144.06872 135.733933 
" style="fill: none; stroke: #ff7f0e"/>
    </g>
    <g id="line2d_30">
     <path d="M 138.51672 138.509933 
L 149.62072 138.509933 
" style="fill: none; stroke: #ff7f0e; stroke-linecap: square"/>
    </g>
    <g id="line2d_31">
     <g>
      <use xlink:href="#ma0073adfeb" x="144.06872" y="138.509933" style="fill: #ff7f0e; stroke: #ff7f0e; stroke-width: 0.5; stroke-linejoin: miter"/>
     </g>
    </g>
    <g id="text_19">
     <!-- $\varphi_3$ -->
     <g transform="translate(154.06232 140.453133) scale(0.05552 -0.05552)">
      <use xlink:href="#Cmmi10-27" transform="translate(0 0.8125)"/>
      <use xlink:href="#Cmr10-33" transform="translate(65.380859 -16.19375) scale(0.7)"/>
     </g>
    </g>
   </g>
  </g>
 </g>
 <defs>
  <clipPath id="p7576500a5e">
   <rect x="28.27897" y="3.00024" width="136.72079" height="83.028416"/>
  </clipPath>
  <clipPath id="p8b67b772e9">
   <rect x="28.27897" y="93.576908" width="136.72079" height="83.028416"/>
  </clipPath>
 </defs>
</svg>
